solid OpenSCAD_Model
  facet normal 0.707107 0 -0.707107
    outer loop
      vertex -10.8 -10 19.1
      vertex -12.8 10 17.1
      vertex -10.8 10 19.1
    endloop
  endfacet
  facet normal 0.707107 0 -0.707107
    outer loop
      vertex -12.8 10 17.1
      vertex -10.8 -10 19.1
      vertex -12.8 -10 17.1
    endloop
  endfacet
  facet normal 0 1 -0
    outer loop
      vertex -10.8 10 19.1
      vertex -12.8 10 19.5
      vertex -10.8 10 19.5
    endloop
  endfacet
  facet normal 0 1 0
    outer loop
      vertex -12.8 10 19.5
      vertex -10.8 10 19.1
      vertex -12.8 10 17.1
    endloop
  endfacet
  facet normal 1 -0 0
    outer loop
      vertex -10.8 -10 19.5
      vertex -10.8 10 19.1
      vertex -10.8 10 19.5
    endloop
  endfacet
  facet normal 1 0 0
    outer loop
      vertex -10.8 10 19.1
      vertex -10.8 -10 19.5
      vertex -10.8 -10 19.1
    endloop
  endfacet
  facet normal -1 0 0
    outer loop
      vertex -12.8 -10 17.1
      vertex -12.8 10 19.5
      vertex -12.8 10 17.1
    endloop
  endfacet
  facet normal -1 -0 0
    outer loop
      vertex -12.8 10 19.5
      vertex -12.8 -10 17.1
      vertex -12.8 -10 19.5
    endloop
  endfacet
  facet normal 0 -1 0
    outer loop
      vertex -12.8 -10 19.5
      vertex -10.8 -10 19.1
      vertex -10.8 -10 19.5
    endloop
  endfacet
  facet normal -0 -1 0
    outer loop
      vertex -10.8 -10 19.1
      vertex -12.8 -10 19.5
      vertex -12.8 -10 17.1
    endloop
  endfacet
  facet normal -0 0 1
    outer loop
      vertex -12.8 10 19.5
      vertex -10.8 -10 19.5
      vertex -10.8 10 19.5
    endloop
  endfacet
  facet normal 0 0 1
    outer loop
      vertex -10.8 -10 19.5
      vertex -12.8 10 19.5
      vertex -12.8 -10 19.5
    endloop
  endfacet
  facet normal 0.707107 -0 0.707107
    outer loop
      vertex 10.7 -10 19.1
      vertex 12.7 10 17.1
      vertex 10.7 10 19.1
    endloop
  endfacet
  facet normal 0.707107 0 0.707107
    outer loop
      vertex 12.7 10 17.1
      vertex 10.7 -10 19.1
      vertex 12.7 -10 17.1
    endloop
  endfacet
  facet normal -0.707107 0 -0.707107
    outer loop
      vertex 12.7 -10 17.1
      vertex 10.7 10 19.1
      vertex 12.7 10 17.1
    endloop
  endfacet
  facet normal -0.707107 -0 -0.707107
    outer loop
      vertex 10.7 10 19.1
      vertex 12.7 -10 17.1
      vertex 10.7 -10 19.1
    endloop
  endfacet
  facet normal 1 -0 0
    outer loop
      vertex 10.7 -10 19.5
      vertex 10.7 10 19.1
      vertex 10.7 10 19.5
    endloop
  endfacet
  facet normal 1 0 0
    outer loop
      vertex 10.7 10 19.1
      vertex 10.7 -10 19.5
      vertex 10.7 -10 19.1
    endloop
  endfacet
  facet normal -1 0 0
    outer loop
      vertex 10.7 -10 19.1
      vertex 10.7 10 19.5
      vertex 10.7 10 19.1
    endloop
  endfacet
  facet normal -1 -0 0
    outer loop
      vertex 10.7 10 19.5
      vertex 10.7 -10 19.1
      vertex 10.7 -10 19.5
    endloop
  endfacet
  facet normal 0 0 -1
    outer loop
      vertex 10.7 -10 19.5
      vertex 14.7 10 19.5
      vertex 14.7 -10 19.5
    endloop
  endfacet
  facet normal -0 0 -1
    outer loop
      vertex 14.7 10 19.5
      vertex 10.7 -10 19.5
      vertex 10.7 10 19.5
    endloop
  endfacet
  facet normal -0 0 1
    outer loop
      vertex 10.7 10 19.5
      vertex 14.7 -10 19.5
      vertex 14.7 10 19.5
    endloop
  endfacet
  facet normal 0 0 1
    outer loop
      vertex 14.7 -10 19.5
      vertex 10.7 10 19.5
      vertex 10.7 -10 19.5
    endloop
  endfacet
  facet normal 1 -0 0
    outer loop
      vertex 12.7 -10 17.1
      vertex 12.7 10 1.5
      vertex 12.7 10 17.1
    endloop
  endfacet
  facet normal 1 0 0
    outer loop
      vertex 12.7 10 1.5
      vertex 12.7 -10 17.1
      vertex 12.7 -10 1.5
    endloop
  endfacet
  facet normal -1 0 0
    outer loop
      vertex 12.7 -10 1.5
      vertex 12.7 10 17.1
      vertex 12.7 10 1.5
    endloop
  endfacet
  facet normal -1 -0 0
    outer loop
      vertex 12.7 10 17.1
      vertex 12.7 -10 1.5
      vertex 12.7 -10 17.1
    endloop
  endfacet
  facet normal 0 0 -1
    outer loop
      vertex -12.8 -10 1.5
      vertex 12.7 10 1.5
      vertex 12.7 -10 1.5
    endloop
  endfacet
  facet normal -0 0 -1
    outer loop
      vertex 12.7 10 1.5
      vertex -12.8 -10 1.5
      vertex -12.8 10 1.5
    endloop
  endfacet
  facet normal -0 0 1
    outer loop
      vertex -12.8 10 1.5
      vertex 12.7 -10 1.5
      vertex 12.7 10 1.5
    endloop
  endfacet
  facet normal 0 0 1
    outer loop
      vertex 12.7 -10 1.5
      vertex -12.8 10 1.5
      vertex -12.8 -10 1.5
    endloop
  endfacet
  facet normal 1 -0 0
    outer loop
      vertex -14.8 -10 19.5
      vertex -14.8 10 1.5
      vertex -14.8 10 19.5
    endloop
  endfacet
  facet normal 1 0 0
    outer loop
      vertex -14.8 -10 0
      vertex -14.8 10 1.5
      vertex -14.8 -10 19.5
    endloop
  endfacet
  facet normal 1 0 0
    outer loop
      vertex -14.8 10 1.5
      vertex -14.8 -10 0
      vertex -14.8 10 0
    endloop
  endfacet
  facet normal -1 0 0
    outer loop
      vertex -14.8 -10 0
      vertex -14.8 10 1.5
      vertex -14.8 10 0
    endloop
  endfacet
  facet normal -1 0 0
    outer loop
      vertex -14.8 -10 19.5
      vertex -14.8 10 1.5
      vertex -14.8 -10 0
    endloop
  endfacet
  facet normal -1 0 0
    outer loop
      vertex -14.8 10 1.5
      vertex -14.8 -10 19.5
      vertex -14.8 10 19.5
    endloop
  endfacet
  facet normal -0 0 1
    outer loop
      vertex -14.8 10 0
      vertex 14.7 -10 0
      vertex 14.7 10 0
    endloop
  endfacet
  facet normal 0 0 1
    outer loop
      vertex 14.7 -10 0
      vertex -14.8 10 0
      vertex -14.8 -10 0
    endloop
  endfacet
  facet normal 0 0 -1
    outer loop
      vertex -14.8 -10 0
      vertex 14.7 10 0
      vertex 14.7 -10 0
    endloop
  endfacet
  facet normal -0 0 -1
    outer loop
      vertex 14.7 10 0
      vertex -14.8 -10 0
      vertex -14.8 10 0
    endloop
  endfacet
  facet normal 0 1 0
    outer loop
      vertex 14.7 -10 19.5
      vertex 10.7 -10 19.1
      vertex 10.7 -10 19.5
    endloop
  endfacet
  facet normal 0 1 0
    outer loop
      vertex 14.7 -10 19.5
      vertex 12.7 -10 17.1
      vertex 10.7 -10 19.1
    endloop
  endfacet
  facet normal 0 1 -0
    outer loop
      vertex 14.7 -10 0
      vertex 12.7 -10 17.1
      vertex 14.7 -10 19.5
    endloop
  endfacet
  facet normal 0 1 0
    outer loop
      vertex 12.7 -10 1.5
      vertex 14.7 -10 0
      vertex -12.8 -10 1.5
    endloop
  endfacet
  facet normal 0 1 0
    outer loop
      vertex 12.7 -10 17.1
      vertex 14.7 -10 0
      vertex 12.7 -10 1.5
    endloop
  endfacet
  facet normal 0 1 0
    outer loop
      vertex -12.8 -10 1.5
      vertex -14.8 -10 0
      vertex -14.8 -10 19.5
    endloop
  endfacet
  facet normal 0 1 0
    outer loop
      vertex -14.8 -10 0
      vertex -12.8 -10 1.5
      vertex 14.7 -10 0
    endloop
  endfacet
  facet normal 0 -1 -0
    outer loop
      vertex -12.8 -10 1.5
      vertex -14.8 -10 0
      vertex 12.7 -10 1.5
    endloop
  endfacet
  facet normal 0 -1 0
    outer loop
      vertex -14.8 -10 0
      vertex -12.8 -10 1.5
      vertex -14.8 -10 19.5
    endloop
  endfacet
  facet normal 0 -1 0
    outer loop
      vertex 10.7 -10 19.1
      vertex 14.7 -10 19.5
      vertex 10.7 -10 19.5
    endloop
  endfacet
  facet normal 0 -1 0
    outer loop
      vertex 12.7 -10 17.1
      vertex 14.7 -10 19.5
      vertex 10.7 -10 19.1
    endloop
  endfacet
  facet normal 0 -1 0
    outer loop
      vertex 14.7 -10 0
      vertex 12.7 -10 17.1
      vertex 12.7 -10 1.5
    endloop
  endfacet
  facet normal 0 -1 0
    outer loop
      vertex 12.7 -10 17.1
      vertex 14.7 -10 0
      vertex 14.7 -10 19.5
    endloop
  endfacet
  facet normal 0 -1 0
    outer loop
      vertex 14.7 -10 0
      vertex 12.7 -10 1.5
      vertex -14.8 -10 0
    endloop
  endfacet
  facet normal 0 -1 0
    outer loop
      vertex -14.8 10 19.5
      vertex -14.8 10 1.5
      vertex -12.8 10 1.5
    endloop
  endfacet
  facet normal 0 1 0
    outer loop
      vertex -14.8 10 19.5
      vertex -12.8 10 1.5
      vertex -14.8 10 1.5
    endloop
  endfacet
  facet normal 0 -1 0
    outer loop
      vertex -14.8 10 0
      vertex -12.8 10 1.5
      vertex -14.8 10 1.5
    endloop
  endfacet
  facet normal 0 -1 -0
    outer loop
      vertex -12.8 10 1.5
      vertex -14.8 10 0
      vertex 12.7 10 1.5
    endloop
  endfacet
  facet normal 0 -1 0
    outer loop
      vertex 14.7 10 0
      vertex 12.7 10 1.5
      vertex -14.8 10 0
    endloop
  endfacet
  facet normal 0 -1 0
    outer loop
      vertex 12.7 10 1.5
      vertex 14.7 10 0
      vertex 14.7 10 1.5
    endloop
  endfacet
  facet normal 0 -1 0
    outer loop
      vertex 10.7 10 19.1
      vertex 14.7 10 19.5
      vertex 10.7 10 19.5
    endloop
  endfacet
  facet normal 0 -1 0
    outer loop
      vertex 12.7 10 17.1
      vertex 14.7 10 19.5
      vertex 10.7 10 19.1
    endloop
  endfacet
  facet normal 0 -1 0
    outer loop
      vertex 14.7 10 1.5
      vertex 12.7 10 17.1
      vertex 12.7 10 1.5
    endloop
  endfacet
  facet normal 0 -1 0
    outer loop
      vertex 12.7 10 17.1
      vertex 14.7 10 1.5
      vertex 14.7 10 19.5
    endloop
  endfacet
  facet normal 0 1 0
    outer loop
      vertex 14.7 10 19.5
      vertex 10.7 10 19.1
      vertex 10.7 10 19.5
    endloop
  endfacet
  facet normal 0 1 0
    outer loop
      vertex 14.7 10 19.5
      vertex 12.7 10 17.1
      vertex 10.7 10 19.1
    endloop
  endfacet
  facet normal 0 1 -0
    outer loop
      vertex 14.7 10 1.5
      vertex 12.7 10 17.1
      vertex 14.7 10 19.5
    endloop
  endfacet
  facet normal 0 1 0
    outer loop
      vertex 12.7 10 17.1
      vertex 14.7 10 1.5
      vertex 12.7 10 1.5
    endloop
  endfacet
  facet normal -1 0 0
    outer loop
      vertex 14.7 -10 0
      vertex 14.7 10 1.5
      vertex 14.7 10 0
    endloop
  endfacet
  facet normal -1 0 0
    outer loop
      vertex 14.7 -10 19.5
      vertex 14.7 10 1.5
      vertex 14.7 -10 0
    endloop
  endfacet
  facet normal -1 0 0
    outer loop
      vertex 14.7 10 1.5
      vertex 14.7 -10 19.5
      vertex 14.7 10 19.5
    endloop
  endfacet
  facet normal 1 -0 0
    outer loop
      vertex 14.7 -10 19.5
      vertex 14.7 10 1.5
      vertex 14.7 10 19.5
    endloop
  endfacet
  facet normal 1 0 0
    outer loop
      vertex 14.7 -10 0
      vertex 14.7 10 1.5
      vertex 14.7 -10 19.5
    endloop
  endfacet
  facet normal 1 0 0
    outer loop
      vertex 14.7 10 1.5
      vertex 14.7 -10 0
      vertex 14.7 10 0
    endloop
  endfacet
  facet normal -1 0 0
    outer loop
      vertex -14.8 24.5 0
      vertex -14.8 23 1.5
      vertex -14.8 24.5 19.5
    endloop
  endfacet
  facet normal -1 0 0
    outer loop
      vertex -14.8 10 0
      vertex -14.8 23 1.5
      vertex -14.8 24.5 0
    endloop
  endfacet
  facet normal -1 -0 0
    outer loop
      vertex -14.8 23 1.5
      vertex -14.8 10 0
      vertex -14.8 10 1.5
    endloop
  endfacet
  facet normal -1 -0 0
    outer loop
      vertex -14.8 24.5 19.5
      vertex -14.8 23 1.5
      vertex -14.8 23 19.5
    endloop
  endfacet
  facet normal 0 0 1
    outer loop
      vertex 14.7 23 1.5
      vertex 12.7 10 1.5
      vertex 14.7 10 1.5
    endloop
  endfacet
  facet normal 0 0 1
    outer loop
      vertex 14.7 23 1.5
      vertex -12.8 10 1.5
      vertex 12.7 10 1.5
    endloop
  endfacet
  facet normal -0 0 1
    outer loop
      vertex -14.8 23 1.5
      vertex -12.8 10 1.5
      vertex 14.7 23 1.5
    endloop
  endfacet
  facet normal 0 0 1
    outer loop
      vertex -12.8 10 1.5
      vertex -14.8 23 1.5
      vertex -14.8 10 1.5
    endloop
  endfacet
  facet normal 1 0 0
    outer loop
      vertex 14.7 23 1.5
      vertex 14.7 24.5 19.5
      vertex 14.7 23 19.5
    endloop
  endfacet
  facet normal 1 0 0
    outer loop
      vertex 14.7 24.5 19.5
      vertex 14.7 23 1.5
      vertex 14.7 24.5 0
    endloop
  endfacet
  facet normal 1 0 0
    outer loop
      vertex 14.7 10 0
      vertex 14.7 23 1.5
      vertex 14.7 10 1.5
    endloop
  endfacet
  facet normal 1 0 0
    outer loop
      vertex 14.7 23 1.5
      vertex 14.7 10 0
      vertex 14.7 24.5 0
    endloop
  endfacet
  facet normal 0 -1 0
    outer loop
      vertex -14.8 23 1.5
      vertex 14.7 23 19.5
      vertex -14.8 23 19.5
    endloop
  endfacet
  facet normal 0 -1 -0
    outer loop
      vertex 14.7 23 19.5
      vertex -14.8 23 1.5
      vertex 14.7 23 1.5
    endloop
  endfacet
  facet normal 0 0 -1
    outer loop
      vertex -14.8 10 0
      vertex 14.7 24.5 0
      vertex 14.7 10 0
    endloop
  endfacet
  facet normal -0 0 -1
    outer loop
      vertex 14.7 24.5 0
      vertex -14.8 10 0
      vertex -14.8 24.5 0
    endloop
  endfacet
  facet normal -0 0 1
    outer loop
      vertex -14.8 24.5 19.5
      vertex 14.7 23 19.5
      vertex 14.7 24.5 19.5
    endloop
  endfacet
  facet normal 0 0 1
    outer loop
      vertex 14.7 23 19.5
      vertex -14.8 24.5 19.5
      vertex -14.8 23 19.5
    endloop
  endfacet
  facet normal 0 1 -0
    outer loop
      vertex 14.7 24.5 0
      vertex -14.8 24.5 19.5
      vertex 14.7 24.5 19.5
    endloop
  endfacet
  facet normal 0 1 0
    outer loop
      vertex -14.8 24.5 19.5
      vertex 14.7 24.5 0
      vertex -14.8 24.5 0
    endloop
  endfacet
endsolid OpenSCAD_Model
