solid OpenSCAD_Model
  facet normal 0 -0.130626 0.991432
    outer loop
      vertex 75.5394 0.337421 65.8781
      vertex 0.477875 -0.403081 65.7805
      vertex 75.6779 -0.403081 65.7805
    endloop
  endfacet
  facet normal 0 -0.130626 0.991432
    outer loop
      vertex 0.477875 -0.403081 65.7805
      vertex 75.5394 0.337421 65.8781
      vertex 0.339377 0.337421 65.8781
    endloop
  endfacet
  facet normal 0.0154301 -0.893557 -0.448685
    outer loop
      vertex 75.2871 -0.991414 -0.0975609
      vertex 75.1127 -0.676 -0.731707
      vertex 75.5702 -0.79057 -0.487804
    endloop
  endfacet
  facet normal 0.199205 0 -0.979958
    outer loop
      vertex 75.0594 -0.168608 -0.975609
      vertex 75.5394 80.0626 -0.878048
      vertex 75.5394 -0.337421 -0.878048
    endloop
  endfacet
  facet normal 0.199205 0 -0.979958
    outer loop
      vertex 75.5394 80.0626 -0.878048
      vertex 75.0594 -0.168608 -0.975609
      vertex 75.0594 80.2314 -0.975609
    endloop
  endfacet
  facet normal -0.384057 -0.432428 -0.815785
    outer loop
      vertex -0.0873404 -0.676 -0.731707
      vertex -0.701364 -0.406736 -0.585365
      vertex -0.140558 -0.168608 -0.975609
    endloop
  endfacet
  facet normal -0.625431 -0.330317 0.706913
    outer loop
      vertex -0.558383 -0.0228519 65.8293
      vertex -0.830579 -0.342631 65.439
      vertex -0.420334 -0.597436 65.6829
    endloop
  endfacet
  facet normal 0 -0.433242 -0.901278
    outer loop
      vertex -0.0873404 -0.676 -0.731707
      vertex 75.0594 -0.168608 -0.975609
      vertex 75.1127 -0.676 -0.731707
    endloop
  endfacet
  facet normal -0 -0.433242 -0.901278
    outer loop
      vertex 75.0594 -0.168608 -0.975609
      vertex -0.0873404 -0.676 -0.731707
      vertex -0.140558 -0.168608 -0.975609
    endloop
  endfacet
  facet normal -0.922634 -0.373661 0.0955184
    outer loop
      vertex -0.830579 -0.342631 65.439
      vertex -0.965769 -0.17093 64.8049
      vertex -0.736507 -0.674667 65.0488
    endloop
  endfacet
  facet normal 0 0.895355 0.445354
    outer loop
      vertex 69.5736 5.676 65.7317
      vertex 5.75523 5.72452 65.6341
      vertex 5.58889 5.676 65.7317
    endloop
  endfacet
  facet normal 1.77657e-08 0.895359 0.445344
    outer loop
      vertex 69.3694 5.82158 65.439
      vertex 5.75523 5.72452 65.6341
      vertex 69.5736 5.676 65.7317
    endloop
  endfacet
  facet normal -1.33439e-08 0.895363 0.445336
    outer loop
      vertex 69.2342 5.94289 65.1951
      vertex 5.75523 5.72452 65.6341
      vertex 69.3694 5.82158 65.439
    endloop
  endfacet
  facet normal -1.34368e-08 0.895363 0.445336
    outer loop
      vertex 5.75523 5.72452 65.6341
      vertex 69.2342 5.94289 65.1951
      vertex 5.86478 5.84584 65.3902
    endloop
  endfacet
  facet normal -0 0.895355 0.445354
    outer loop
      vertex 5.9662 5.99141 65.0976
      vertex 69.2342 5.94289 65.1951
      vertex 69.2342 5.99141 65.0976
    endloop
  endfacet
  facet normal 1.78916e-08 0.895359 0.445344
    outer loop
      vertex 69.2342 5.94289 65.1951
      vertex 5.9662 5.99141 65.0976
      vertex 5.86478 5.84584 65.3902
    endloop
  endfacet
  facet normal -0.0542578 0 0.998527
    outer loop
      vertex -0.558383 80.3772 65.8293
      vertex 0.339377 0.337421 65.8781
      vertex 0.339377 80.7374 65.8781
    endloop
  endfacet
  facet normal -0.0542578 0 0.998527
    outer loop
      vertex 0.339377 0.337421 65.8781
      vertex -0.558383 80.3772 65.8293
      vertex -0.558383 -0.0228519 65.8293
    endloop
  endfacet
  facet normal -0.330557 0 -0.943786
    outer loop
      vertex -0.558383 0.0228519 -0.829268
      vertex -0.140558 80.2314 -0.975609
      vertex -0.140558 -0.168608 -0.975609
    endloop
  endfacet
  facet normal -0.330557 0 -0.943786
    outer loop
      vertex -0.140558 80.2314 -0.975609
      vertex -0.558383 0.0228519 -0.829268
      vertex -0.558383 80.4229 -0.829268
    endloop
  endfacet
  facet normal 0 0 -1
    outer loop
      vertex -0.140558 -0.168608 -0.975609
      vertex 75.0594 80.2314 -0.975609
      vertex 75.0594 -0.168608 -0.975609
    endloop
  endfacet
  facet normal -0 0 -1
    outer loop
      vertex 75.0594 80.2314 -0.975609
      vertex -0.140558 -0.168608 -0.975609
      vertex -0.140558 80.2314 -0.975609
    endloop
  endfacet
  facet normal 0 -0.448637 0.893714
    outer loop
      vertex 0.477875 -0.403081 65.7805
      vertex 74.7797 -0.597436 65.6829
      vertex 75.6779 -0.403081 65.7805
    endloop
  endfacet
  facet normal 0 -0.448637 0.893714
    outer loop
      vertex 74.7797 -0.597436 65.6829
      vertex 0.477875 -0.403081 65.7805
      vertex -0.420334 -0.597436 65.6829
    endloop
  endfacet
  facet normal -0 0 1
    outer loop
      vertex 5.33938 19.7374 65.8781
      vertex 70.5394 9.73742 65.8781
      vertex 70.5394 19.7374 65.8781
    endloop
  endfacet
  facet normal 0 0 1
    outer loop
      vertex 70.5394 9.73742 65.8781
      vertex 5.33938 19.7374 65.8781
      vertex 5.33938 9.73742 65.8781
    endloop
  endfacet
  facet normal -0 0 1
    outer loop
      vertex 5.33938 41.7374 65.8781
      vertex 70.5394 31.7374 65.8781
      vertex 70.5394 41.7374 65.8781
    endloop
  endfacet
  facet normal 0 0 1
    outer loop
      vertex 70.5394 31.7374 65.8781
      vertex 5.33938 41.7374 65.8781
      vertex 5.33938 31.7374 65.8781
    endloop
  endfacet
  facet normal -0 0 1
    outer loop
      vertex 5.33938 63.7374 65.8781
      vertex 70.5394 53.7374 65.8781
      vertex 70.5394 63.7374 65.8781
    endloop
  endfacet
  facet normal 0 0 1
    outer loop
      vertex 70.5394 53.7374 65.8781
      vertex 5.33938 63.7374 65.8781
      vertex 5.33938 53.7374 65.8781
    endloop
  endfacet
  facet normal 0 0 1
    outer loop
      vertex 70.5394 63.7374 65.8781
      vertex 75.5394 80.7374 65.8781
      vertex 70.5394 75.7374 65.8781
    endloop
  endfacet
  facet normal 0 0 1
    outer loop
      vertex 75.5394 80.7374 65.8781
      vertex 5.33938 75.7374 65.8781
      vertex 70.5394 75.7374 65.8781
    endloop
  endfacet
  facet normal 0 0 1
    outer loop
      vertex 0.339377 80.7374 65.8781
      vertex 5.33938 63.7374 65.8781
      vertex 5.33938 75.7374 65.8781
    endloop
  endfacet
  facet normal 0 0 1
    outer loop
      vertex 5.33938 63.7374 65.8781
      vertex 0.339377 80.7374 65.8781
      vertex 5.33938 53.7374 65.8781
    endloop
  endfacet
  facet normal 0 0 1
    outer loop
      vertex 5.33938 53.7374 65.8781
      vertex 0.339377 80.7374 65.8781
      vertex 5.33938 41.7374 65.8781
    endloop
  endfacet
  facet normal 0 0 1
    outer loop
      vertex 0.339377 0.337421 65.8781
      vertex 5.33938 41.7374 65.8781
      vertex 0.339377 80.7374 65.8781
    endloop
  endfacet
  facet normal 0 0 1
    outer loop
      vertex 5.33938 41.7374 65.8781
      vertex 0.339377 0.337421 65.8781
      vertex 5.33938 31.7374 65.8781
    endloop
  endfacet
  facet normal 0 0 1
    outer loop
      vertex 5.33938 31.7374 65.8781
      vertex 0.339377 0.337421 65.8781
      vertex 5.33938 19.7374 65.8781
    endloop
  endfacet
  facet normal 0 0 1
    outer loop
      vertex 5.33938 19.7374 65.8781
      vertex 0.339377 0.337421 65.8781
      vertex 5.33938 9.73742 65.8781
    endloop
  endfacet
  facet normal -0 0 1
    outer loop
      vertex 0.339377 80.7374 65.8781
      vertex 5.33938 75.7374 65.8781
      vertex 75.5394 80.7374 65.8781
    endloop
  endfacet
  facet normal 0 0 1
    outer loop
      vertex 70.5394 53.7374 65.8781
      vertex 75.5394 80.7374 65.8781
      vertex 70.5394 63.7374 65.8781
    endloop
  endfacet
  facet normal 0 0 1
    outer loop
      vertex 70.5394 41.7374 65.8781
      vertex 75.5394 80.7374 65.8781
      vertex 70.5394 53.7374 65.8781
    endloop
  endfacet
  facet normal 0 0 1
    outer loop
      vertex 75.5394 80.7374 65.8781
      vertex 70.5394 41.7374 65.8781
      vertex 75.5394 0.337421 65.8781
    endloop
  endfacet
  facet normal -0 0 1
    outer loop
      vertex 70.5394 31.7374 65.8781
      vertex 75.5394 0.337421 65.8781
      vertex 70.5394 41.7374 65.8781
    endloop
  endfacet
  facet normal -0 0 1
    outer loop
      vertex 70.5394 19.7374 65.8781
      vertex 75.5394 0.337421 65.8781
      vertex 70.5394 31.7374 65.8781
    endloop
  endfacet
  facet normal -0 0 1
    outer loop
      vertex 70.5394 9.73742 65.8781
      vertex 75.5394 0.337421 65.8781
      vertex 70.5394 19.7374 65.8781
    endloop
  endfacet
  facet normal -0 0 1
    outer loop
      vertex 70.5394 5.33742 65.8781
      vertex 75.5394 0.337421 65.8781
      vertex 70.5394 9.73742 65.8781
    endloop
  endfacet
  facet normal -0 0 1
    outer loop
      vertex 5.33938 5.33742 65.8781
      vertex 75.5394 0.337421 65.8781
      vertex 70.5394 5.33742 65.8781
    endloop
  endfacet
  facet normal 0 0 1
    outer loop
      vertex 5.33938 5.33742 65.8781
      vertex 0.339377 0.337421 65.8781
      vertex 75.5394 0.337421 65.8781
    endloop
  endfacet
  facet normal 0 0 1
    outer loop
      vertex 5.33938 9.73742 65.8781
      vertex 0.339377 0.337421 65.8781
      vertex 5.33938 5.33742 65.8781
    endloop
  endfacet
  facet normal 0.372019 -0.928225 0
    outer loop
      vertex 75.2871 -0.991414 64.9024
      vertex 75.8018 -0.785102 0.146341
      vertex 75.8018 -0.785102 65.1463
    endloop
  endfacet
  facet normal 0.372019 -0.928225 0
    outer loop
      vertex 75.8018 -0.785102 0.146341
      vertex 75.2871 -0.991414 64.9024
      vertex 75.2871 -0.991414 -0.0975609
    endloop
  endfacet
  facet normal 0.91221 -0 0.409723
    outer loop
      vertex 75.9552 0.165777 65.6341
      vertex 76.0648 80.084 65.3902
      vertex 75.9552 80.5658 65.6341
    endloop
  endfacet
  facet normal 0.91221 0 0.409723
    outer loop
      vertex 76.0648 80.084 65.3902
      vertex 75.9552 0.165777 65.6341
      vertex 76.0648 -0.316012 65.3902
    endloop
  endfacet
  facet normal 0.505912 0 -0.862585
    outer loop
      vertex 75.5394 80.0626 -0.878048
      vertex 75.9552 -0.165777 -0.634146
      vertex 75.5394 -0.337421 -0.878048
    endloop
  endfacet
  facet normal 0.505912 0 -0.862585
    outer loop
      vertex 75.9552 -0.165777 -0.634146
      vertex 75.5394 80.0626 -0.878048
      vertex 75.9552 80.2342 -0.634146
    endloop
  endfacet
  facet normal -0.826446 -0.500748 -0.25737
    outer loop
      vertex -0.736507 -0.674667 0.0487804
      vertex -0.965769 -0.17093 -0.195122
      vertex -0.701364 -0.406736 -0.585365
    endloop
  endfacet
  facet normal 0.280143 -0.938361 0.202481
    outer loop
      vertex 75.4523 -0.805237 65.5366
      vertex 75.2871 -0.991414 64.9024
      vertex 75.8018 -0.785102 65.1463
    endloop
  endfacet
  facet normal -0.0714132 -0.900768 -0.428389
    outer loop
      vertex 0.0870581 -0.991414 -0.0975609
      vertex -0.433058 -0.834184 -0.341463
      vertex -0.0873404 -0.676 -0.731707
    endloop
  endfacet
  facet normal -0.719215 -0.624824 -0.303851
    outer loop
      vertex -0.433058 -0.834184 -0.341463
      vertex -0.736507 -0.674667 0.0487804
      vertex -0.701364 -0.406736 -0.585365
    endloop
  endfacet
  facet normal -0.431382 -0.635922 -0.639932
    outer loop
      vertex -0.433058 -0.834184 -0.341463
      vertex -0.701364 -0.406736 -0.585365
      vertex -0.0873404 -0.676 -0.731707
    endloop
  endfacet
  facet normal 1 -0 0
    outer loop
      vertex 76.2 0 65
      vertex 76.2 80.4 0
      vertex 76.2 80.4 65
    endloop
  endfacet
  facet normal 1 0 0
    outer loop
      vertex 76.2 80.4 0
      vertex 76.2 0 65
      vertex 76.2 0 0
    endloop
  endfacet
  facet normal 0.912209 0 -0.409725
    outer loop
      vertex 76.0648 0.316012 -0.390244
      vertex 75.9552 80.2342 -0.634146
      vertex 76.0648 80.716 -0.390244
    endloop
  endfacet
  facet normal 0.912209 0 -0.409725
    outer loop
      vertex 75.9552 80.2342 -0.634146
      vertex 76.0648 0.316012 -0.390244
      vertex 75.9552 -0.165777 -0.634146
    endloop
  endfacet
  facet normal 0.505915 -0 0.862583
    outer loop
      vertex 75.5394 0.337421 65.8781
      vertex 75.9552 80.5658 65.6341
      vertex 75.5394 80.7374 65.8781
    endloop
  endfacet
  facet normal 0.505915 0 0.862583
    outer loop
      vertex 75.9552 80.5658 65.6341
      vertex 75.5394 0.337421 65.8781
      vertex 75.9552 0.165777 65.6341
    endloop
  endfacet
  facet normal 0.582085 -0.507516 -0.6353
    outer loop
      vertex 75.5702 -0.79057 -0.487804
      vertex 75.5394 -0.337421 -0.878048
      vertex 75.9552 -0.165777 -0.634146
    endloop
  endfacet
  facet normal 0.0320319 -0.430289 -0.902123
    outer loop
      vertex 75.1127 -0.676 -0.731707
      vertex 75.0594 -0.168608 -0.975609
      vertex 75.5394 -0.337421 -0.878048
    endloop
  endfacet
  facet normal 0 -0.899966 0.43596
    outer loop
      vertex 74.9516 -0.923388 65.2927
      vertex 0.252327 -0.805237 65.5366
      vertex -0.248375 -0.923388 65.2927
    endloop
  endfacet
  facet normal 0 -0.899966 0.43596
    outer loop
      vertex 0.252327 -0.805237 65.5366
      vertex 74.9516 -0.923388 65.2927
      vertex 75.4523 -0.805237 65.5366
    endloop
  endfacet
  facet normal -0.457169 -0.889343 0.0080386
    outer loop
      vertex -0.248375 -0.923388 65.2927
      vertex -0.736507 -0.674667 65.0488
      vertex -0.433058 -0.834184 64.6585
    endloop
  endfacet
  facet normal -0.970792 -0.180469 0.158094
    outer loop
      vertex -0.965769 0.17093 65.1951
      vertex -0.965769 -0.17093 64.8049
      vertex -0.830579 -0.342631 65.439
    endloop
  endfacet
  facet normal -0.00135039 -0.130874 0.991398
    outer loop
      vertex 0.339377 0.337421 65.8781
      vertex -0.558383 -0.0228519 65.8293
      vertex 0.477875 -0.403081 65.7805
    endloop
  endfacet
  facet normal -0.110622 -0.786228 0.607955
    outer loop
      vertex 0.252327 -0.805237 65.5366
      vertex -0.420334 -0.597436 65.6829
      vertex -0.248375 -0.923388 65.2927
    endloop
  endfacet
  facet normal -0 -0.895362 -0.445339
    outer loop
      vertex 75.1127 -0.676 -0.731707
      vertex 0.0870581 -0.991414 -0.0975609
      vertex -0.0873404 -0.676 -0.731707
    endloop
  endfacet
  facet normal 0 -0.895362 -0.445339
    outer loop
      vertex 0.0870581 -0.991414 -0.0975609
      vertex 75.1127 -0.676 -0.731707
      vertex 75.2871 -0.991414 -0.0975609
    endloop
  endfacet
  facet normal 0 -1 0
    outer loop
      vertex 0.0870581 -0.991414 -0.0975609
      vertex 75.2871 -0.991414 64.9024
      vertex 0.0870581 -0.991414 64.9024
    endloop
  endfacet
  facet normal 0 -1 -0
    outer loop
      vertex 75.2871 -0.991414 64.9024
      vertex 0.0870581 -0.991414 -0.0975609
      vertex 75.2871 -0.991414 -0.0975609
    endloop
  endfacet
  facet normal 0.240125 -0.624032 -0.743589
    outer loop
      vertex 75.5702 -0.79057 -0.487804
      vertex 75.1127 -0.676 -0.731707
      vertex 75.5394 -0.337421 -0.878048
    endloop
  endfacet
  facet normal 0.944888 0 -0.327395
    outer loop
      vertex 76.2 80.4 0
      vertex 76.0648 0.316012 -0.390244
      vertex 76.0648 80.716 -0.390244
    endloop
  endfacet
  facet normal 0.944888 0 -0.327395
    outer loop
      vertex 76.0648 0.316012 -0.390244
      vertex 76.2 80.4 0
      vertex 76.2 0 0
    endloop
  endfacet
  facet normal -0.442319 -0.326941 -0.835143
    outer loop
      vertex -0.140558 -0.168608 -0.975609
      vertex -0.701364 -0.406736 -0.585365
      vertex -0.558383 0.0228519 -0.829268
    endloop
  endfacet
  facet normal 0 1 0
    outer loop
      vertex 69.2342 5.99141 65.0976
      vertex 6 5.99141 65
      vertex 5.9662 5.99141 65.0976
    endloop
  endfacet
  facet normal 0 1 -0
    outer loop
      vertex 69.2342 5.99141 5.87805
      vertex 6 5.99141 65
      vertex 69.2342 5.99141 65.0976
    endloop
  endfacet
  facet normal 0 1 0
    outer loop
      vertex 6 5.99141 65
      vertex 69.2342 5.99141 5.87805
      vertex 6 5.99141 5.87805
    endloop
  endfacet
  facet normal -0 0.396762 0.917921
    outer loop
      vertex 5.58889 5.676 65.7317
      vertex 69.6416 5.45028 65.8293
      vertex 69.5736 5.676 65.7317
    endloop
  endfacet
  facet normal 9.82009e-10 0.396762 0.917921
    outer loop
      vertex 5.33938 5.33742 65.8781
      vertex 69.6416 5.45028 65.8293
      vertex 5.58889 5.676 65.7317
    endloop
  endfacet
  facet normal 0 0.396763 0.917921
    outer loop
      vertex 69.6416 5.45028 65.8293
      vertex 5.33938 5.33742 65.8781
      vertex 70.5394 5.33742 65.8781
    endloop
  endfacet
  facet normal 0.944135 -0.329559 0
    outer loop
      vertex 76.0183 -0.520415 64.7561
      vertex 76.2 0 0
      vertex 76.2 0 65
    endloop
  endfacet
  facet normal 0.944135 -0.329559 0
    outer loop
      vertex 76.2 0 0
      vertex 76.0183 -0.520415 64.7561
      vertex 76.0183 -0.520415 -0.243902
    endloop
  endfacet
  facet normal 0.102362 -0.961358 0.255565
    outer loop
      vertex 75.4523 -0.805237 65.5366
      vertex 74.9516 -0.923388 65.2927
      vertex 75.2871 -0.991414 64.9024
    endloop
  endfacet
  facet normal -0.910169 -0.414237 0
    outer loop
      vertex -0.736507 -0.674667 0.0487804
      vertex -0.965769 -0.17093 64.8049
      vertex -0.965769 -0.17093 -0.195122
    endloop
  endfacet
  facet normal -0.910169 -0.414237 0
    outer loop
      vertex -0.965769 -0.17093 64.8049
      vertex -0.736507 -0.674667 0.0487804
      vertex -0.736507 -0.674667 65.0488
    endloop
  endfacet
  facet normal -0.465303 -0.885151 0
    outer loop
      vertex -0.736507 -0.674667 0.0487804
      vertex -0.433058 -0.834184 64.6585
      vertex -0.736507 -0.674667 65.0488
    endloop
  endfacet
  facet normal -0.465303 -0.885151 -0
    outer loop
      vertex -0.433058 -0.834184 64.6585
      vertex -0.736507 -0.674667 0.0487804
      vertex -0.433058 -0.834184 -0.341463
    endloop
  endfacet
  facet normal 0 -0.985145 0.171726
    outer loop
      vertex 0.0870581 -0.991414 64.9024
      vertex 74.9516 -0.923388 65.2927
      vertex -0.248375 -0.923388 65.2927
    endloop
  endfacet
  facet normal 0 -0.985145 0.171726
    outer loop
      vertex 74.9516 -0.923388 65.2927
      vertex 0.0870581 -0.991414 64.9024
      vertex 75.2871 -0.991414 64.9024
    endloop
  endfacet
  facet normal 0.774025 -0.633155 0
    outer loop
      vertex 75.8018 -0.785102 0.146341
      vertex 76.0183 -0.520415 64.7561
      vertex 75.8018 -0.785102 65.1463
    endloop
  endfacet
  facet normal 0.774025 -0.633155 0
    outer loop
      vertex 76.0183 -0.520415 64.7561
      vertex 75.8018 -0.785102 0.146341
      vertex 76.0183 -0.520415 -0.243902
    endloop
  endfacet
  facet normal 0.0218577 -0.527381 0.849348
    outer loop
      vertex 75.6779 -0.403081 65.7805
      vertex 74.7797 -0.597436 65.6829
      vertex 75.4523 -0.805237 65.5366
    endloop
  endfacet
  facet normal 0.936753 -0.347296 0.0433422
    outer loop
      vertex 76.0648 -0.316012 65.3902
      vertex 76.0183 -0.520415 64.7561
      vertex 76.2 0 65
    endloop
  endfacet
  facet normal 0.592117 -0.633874 0.497595
    outer loop
      vertex 75.6779 -0.403081 65.7805
      vertex 75.4523 -0.805237 65.5366
      vertex 75.8018 -0.785102 65.1463
    endloop
  endfacet
  facet normal 0.628529 -0.52232 -0.57631
    outer loop
      vertex 76.0183 -0.520415 -0.243902
      vertex 75.5702 -0.79057 -0.487804
      vertex 75.9552 -0.165777 -0.634146
    endloop
  endfacet
  facet normal 0.427728 -0.891618 -0.148544
    outer loop
      vertex 75.8018 -0.785102 0.146341
      vertex 75.2871 -0.991414 -0.0975609
      vertex 75.5702 -0.79057 -0.487804
    endloop
  endfacet
  facet normal 0.932691 -0.178744 -0.313271
    outer loop
      vertex 76.0183 -0.520415 -0.243902
      vertex 75.9552 -0.165777 -0.634146
      vertex 76.2 0 0
    endloop
  endfacet
  facet normal 0.935359 -0.0344797 -0.352014
    outer loop
      vertex 76.2 0 0
      vertex 75.9552 -0.165777 -0.634146
      vertex 76.0648 0.316012 -0.390244
    endloop
  endfacet
  facet normal -0.820193 0 -0.572087
    outer loop
      vertex -0.558383 80.4229 -0.829268
      vertex -0.830579 0.342631 -0.439024
      vertex -0.830579 80.7426 -0.439024
    endloop
  endfacet
  facet normal -0.820193 0 -0.572087
    outer loop
      vertex -0.830579 0.342631 -0.439024
      vertex -0.558383 80.4229 -0.829268
      vertex -0.558383 0.0228519 -0.829268
    endloop
  endfacet
  facet normal -0.833239 -0.0359291 -0.551745
    outer loop
      vertex -0.701364 -0.406736 -0.585365
      vertex -0.830579 0.342631 -0.439024
      vertex -0.558383 0.0228519 -0.829268
    endloop
  endfacet
  facet normal -1 0 0
    outer loop
      vertex -0.965769 80.2291 -0.195122
      vertex -0.965769 80.5709 65.1951
      vertex -0.965769 80.5709 0.195122
    endloop
  endfacet
  facet normal -1 0 0
    outer loop
      vertex -0.965769 80.2291 -0.195122
      vertex -0.965769 0.17093 65.1951
      vertex -0.965769 80.5709 65.1951
    endloop
  endfacet
  facet normal -1 0 0
    outer loop
      vertex -0.965769 -0.17093 -0.195122
      vertex -0.965769 0.17093 65.1951
      vertex -0.965769 80.2291 -0.195122
    endloop
  endfacet
  facet normal -1 0 0
    outer loop
      vertex -0.965769 0.17093 65.1951
      vertex -0.965769 -0.17093 -0.195122
      vertex -0.965769 -0.17093 64.8049
    endloop
  endfacet
  facet normal -0.874632 0 0.484787
    outer loop
      vertex -0.965769 0.17093 65.1951
      vertex -0.830579 80.0574 65.439
      vertex -0.965769 80.5709 65.1951
    endloop
  endfacet
  facet normal -0.874632 0 0.484787
    outer loop
      vertex -0.830579 80.0574 65.439
      vertex -0.965769 0.17093 65.1951
      vertex -0.830579 -0.342631 65.439
    endloop
  endfacet
  facet normal 0 -0.575781 0.817604
    outer loop
      vertex 74.7797 -0.597436 65.6829
      vertex 0.252327 -0.805237 65.5366
      vertex 75.4523 -0.805237 65.5366
    endloop
  endfacet
  facet normal 0 -0.575781 0.817604
    outer loop
      vertex 0.252327 -0.805237 65.5366
      vertex 74.7797 -0.597436 65.6829
      vertex -0.420334 -0.597436 65.6829
    endloop
  endfacet
  facet normal -0.0490849 -0.257582 0.965009
    outer loop
      vertex 0.477875 -0.403081 65.7805
      vertex -0.558383 -0.0228519 65.8293
      vertex -0.420334 -0.597436 65.6829
    endloop
  endfacet
  facet normal -0.820193 0 0.572087
    outer loop
      vertex -0.830579 80.0574 65.439
      vertex -0.558383 -0.0228519 65.8293
      vertex -0.558383 80.3772 65.8293
    endloop
  endfacet
  facet normal -0.820193 0 0.572087
    outer loop
      vertex -0.558383 -0.0228519 65.8293
      vertex -0.830579 80.0574 65.439
      vertex -0.830579 -0.342631 65.439
    endloop
  endfacet
  facet normal -0.434937 -0.900461 0
    outer loop
      vertex -0.433058 -0.834184 64.6585
      vertex -0.248375 -0.923388 0.292683
      vertex -0.248375 -0.923388 65.2927
    endloop
  endfacet
  facet normal -0.434937 -0.900461 0
    outer loop
      vertex -0.248375 -0.923388 0.292683
      vertex -0.433058 -0.834184 64.6585
      vertex -0.433058 -0.834184 -0.341463
    endloop
  endfacet
  facet normal -0.263549 -0.962859 -0.0586911
    outer loop
      vertex -0.248375 -0.923388 0.292683
      vertex -0.433058 -0.834184 -0.341463
      vertex 0.0870581 -0.991414 -0.0975609
    endloop
  endfacet
  facet normal -0.198753 -0.98005 0
    outer loop
      vertex -0.248375 -0.923388 0.292683
      vertex 0.0870581 -0.991414 64.9024
      vertex -0.248375 -0.923388 65.2927
    endloop
  endfacet
  facet normal -0.198753 -0.98005 -0
    outer loop
      vertex 0.0870581 -0.991414 64.9024
      vertex -0.248375 -0.923388 0.292683
      vertex 0.0870581 -0.991414 -0.0975609
    endloop
  endfacet
  facet normal 0.841958 -0.528483 0.108686
    outer loop
      vertex 76.0648 -0.316012 65.3902
      vertex 75.8018 -0.785102 65.1463
      vertex 76.0183 -0.520415 64.7561
    endloop
  endfacet
  facet normal 0.585269 -0.783967 -0.207015
    outer loop
      vertex 75.8018 -0.785102 0.146341
      vertex 75.5702 -0.79057 -0.487804
      vertex 76.0183 -0.520415 -0.243902
    endloop
  endfacet
  facet normal -0.837814 -0.0381085 -0.544624
    outer loop
      vertex -0.701364 -0.406736 -0.585365
      vertex -0.965769 -0.17093 -0.195122
      vertex -0.830579 0.342631 -0.439024
    endloop
  endfacet
  facet normal -0.874631 0 -0.48479
    outer loop
      vertex -0.830579 0.342631 -0.439024
      vertex -0.965769 80.2291 -0.195122
      vertex -0.830579 80.7426 -0.439024
    endloop
  endfacet
  facet normal -0.874631 -0 -0.48479
    outer loop
      vertex -0.965769 80.2291 -0.195122
      vertex -0.830579 0.342631 -0.439024
      vertex -0.965769 -0.17093 -0.195122
    endloop
  endfacet
  facet normal -0.643313 -0.652658 0.400234
    outer loop
      vertex -0.420334 -0.597436 65.6829
      vertex -0.830579 -0.342631 65.439
      vertex -0.736507 -0.674667 65.0488
    endloop
  endfacet
  facet normal -0.561907 -0.739714 0.370248
    outer loop
      vertex -0.420334 -0.597436 65.6829
      vertex -0.736507 -0.674667 65.0488
      vertex -0.248375 -0.923388 65.2927
    endloop
  endfacet
  facet normal 0.944888 0 0.327395
    outer loop
      vertex 76.0648 80.084 65.3902
      vertex 76.2 0 65
      vertex 76.2 80.4 65
    endloop
  endfacet
  facet normal 0.944888 0 0.327395
    outer loop
      vertex 76.2 0 65
      vertex 76.0648 80.084 65.3902
      vertex 76.0648 -0.316012 65.3902
    endloop
  endfacet
  facet normal 0.499435 -0.0207039 0.866104
    outer loop
      vertex 75.9552 0.165777 65.6341
      vertex 75.5394 0.337421 65.8781
      vertex 75.6779 -0.403081 65.7805
    endloop
  endfacet
  facet normal 0.718378 -0.177207 0.672704
    outer loop
      vertex 75.9552 0.165777 65.6341
      vertex 75.6779 -0.403081 65.7805
      vertex 76.0648 -0.316012 65.3902
    endloop
  endfacet
  facet normal 0.628397 -0.605911 0.487841
    outer loop
      vertex 76.0648 -0.316012 65.3902
      vertex 75.6779 -0.403081 65.7805
      vertex 75.8018 -0.785102 65.1463
    endloop
  endfacet
  facet normal 0.582082 0.507518 0.6353
    outer loop
      vertex 75.5702 81.1906 65.4878
      vertex 75.5394 80.7374 65.8781
      vertex 75.9552 80.5658 65.6341
    endloop
  endfacet
  facet normal -0 0.89536 0.445343
    outer loop
      vertex 0.0870581 81.3914 65.0976
      vertex 75.1127 81.076 65.7317
      vertex 75.2871 81.3914 65.0976
    endloop
  endfacet
  facet normal 0 0.89536 0.445343
    outer loop
      vertex 75.1127 81.076 65.7317
      vertex 0.0870581 81.3914 65.0976
      vertex -0.0873404 81.076 65.7317
    endloop
  endfacet
  facet normal 0.240115 0.624035 0.74359
    outer loop
      vertex 75.5702 81.1906 65.4878
      vertex 75.1127 81.076 65.7317
      vertex 75.5394 80.7374 65.8781
    endloop
  endfacet
  facet normal 0.944135 0.329559 0
    outer loop
      vertex 76.2 80.4 65
      vertex 76.0183 80.9204 0.243902
      vertex 76.0183 80.9204 65.2439
    endloop
  endfacet
  facet normal 0.944135 0.329559 0
    outer loop
      vertex 76.0183 80.9204 0.243902
      vertex 76.2 80.4 65
      vertex 76.2 80.4 0
    endloop
  endfacet
  facet normal 0.628526 0.522323 0.576311
    outer loop
      vertex 76.0183 80.9204 65.2439
      vertex 75.5702 81.1906 65.4878
      vertex 75.9552 80.5658 65.6341
    endloop
  endfacet
  facet normal 0.015426 0.893556 0.448687
    outer loop
      vertex 75.2871 81.3914 65.0976
      vertex 75.1127 81.076 65.7317
      vertex 75.5702 81.1906 65.4878
    endloop
  endfacet
  facet normal -0.198748 0.980051 0
    outer loop
      vertex 0.0870581 81.3914 0.0975609
      vertex -0.248375 81.3234 64.7073
      vertex 0.0870581 81.3914 65.0976
    endloop
  endfacet
  facet normal -0.198748 0.980051 0
    outer loop
      vertex -0.248375 81.3234 64.7073
      vertex 0.0870581 81.3914 0.0975609
      vertex -0.248375 81.3234 -0.292683
    endloop
  endfacet
  facet normal 0.93536 0.0344783 0.352014
    outer loop
      vertex 76.2 80.4 65
      vertex 75.9552 80.5658 65.6341
      vertex 76.0648 80.084 65.3902
    endloop
  endfacet
  facet normal 0.427722 0.89162 0.148549
    outer loop
      vertex 75.8018 81.1851 64.8537
      vertex 75.2871 81.3914 65.0976
      vertex 75.5702 81.1906 65.4878
    endloop
  endfacet
  facet normal -0.837814 0.03811 0.544624
    outer loop
      vertex -0.701364 80.8067 65.5854
      vertex -0.965769 80.5709 65.1951
      vertex -0.830579 80.0574 65.439
    endloop
  endfacet
  facet normal -0.83324 0.035931 0.551743
    outer loop
      vertex -0.701364 80.8067 65.5854
      vertex -0.830579 80.0574 65.439
      vertex -0.558383 80.3772 65.8293
    endloop
  endfacet
  facet normal 0 -0.899946 0.436002
    outer loop
      vertex 5.79905 74.5948 65.5366
      vertex 69.3694 74.5475 65.439
      vertex 69.4375 74.5948 65.5366
    endloop
  endfacet
  facet normal -1.12394e-09 -0.899959 0.435974
    outer loop
      vertex 69.2883 74.4766 65.2927
      vertex 5.79905 74.5948 65.5366
      vertex 5.86478 74.5239 65.3902
    endloop
  endfacet
  facet normal 0 -0.899959 0.435975
    outer loop
      vertex 69.2883 74.4766 65.2927
      vertex 5.86478 74.5239 65.3902
      vertex 5.89859 74.4766 65.2927
    endloop
  endfacet
  facet normal -8.82493e-08 -0.899968 0.435956
    outer loop
      vertex 5.79905 74.5948 65.5366
      vertex 69.2883 74.4766 65.2927
      vertex 69.3694 74.5475 65.439
    endloop
  endfacet
  facet normal 0 -1 0
    outer loop
      vertex 6 74.4086 5.87805
      vertex 69.2342 74.4086 64.9024
      vertex 6 74.4086 64.9024
    endloop
  endfacet
  facet normal 0 -1 -0
    outer loop
      vertex 69.2342 74.4086 64.9024
      vertex 6 74.4086 5.87805
      vertex 69.2342 74.4086 5.87805
    endloop
  endfacet
  facet normal 0.585264 0.78397 0.20702
    outer loop
      vertex 75.8018 81.1851 64.8537
      vertex 75.5702 81.1906 65.4878
      vertex 76.0183 80.9204 65.2439
    endloop
  endfacet
  facet normal 0.932691 0.178743 0.31327
    outer loop
      vertex 76.0183 80.9204 65.2439
      vertex 75.9552 80.5658 65.6341
      vertex 76.2 80.4 65
    endloop
  endfacet
  facet normal 0.37201 0.928229 0
    outer loop
      vertex 75.8018 81.1851 64.8537
      vertex 75.2871 81.3914 0.0975609
      vertex 75.2871 81.3914 65.0976
    endloop
  endfacet
  facet normal 0.37201 0.928229 0
    outer loop
      vertex 75.2871 81.3914 0.0975609
      vertex 75.8018 81.1851 64.8537
      vertex 75.8018 81.1851 -0.146341
    endloop
  endfacet
  facet normal 0.774025 0.633155 -0
    outer loop
      vertex 76.0183 80.9204 0.243902
      vertex 75.8018 81.1851 64.8537
      vertex 76.0183 80.9204 65.2439
    endloop
  endfacet
  facet normal 0.774025 0.633155 0
    outer loop
      vertex 75.8018 81.1851 64.8537
      vertex 76.0183 80.9204 0.243902
      vertex 75.8018 81.1851 -0.146341
    endloop
  endfacet
  facet normal 0 1 -0
    outer loop
      vertex 75.2871 81.3914 0.0975609
      vertex 0.0870581 81.3914 65.0976
      vertex 75.2871 81.3914 65.0976
    endloop
  endfacet
  facet normal 0 1 0
    outer loop
      vertex 0.0870581 81.3914 65.0976
      vertex 75.2871 81.3914 0.0975609
      vertex 0.0870581 81.3914 0.0975609
    endloop
  endfacet
  facet normal -0.0714088 0.900766 0.428393
    outer loop
      vertex 0.0870581 81.3914 65.0976
      vertex -0.433058 81.2342 65.3415
      vertex -0.0873404 81.076 65.7317
    endloop
  endfacet
  facet normal -0.826444 0.500749 0.257374
    outer loop
      vertex -0.736507 81.0747 64.9512
      vertex -0.965769 80.5709 65.1951
      vertex -0.701364 80.8067 65.5854
    endloop
  endfacet
  facet normal 0 0.396763 0.917921
    outer loop
      vertex 75.1127 81.076 65.7317
      vertex 0.339377 80.7374 65.8781
      vertex 75.5394 80.7374 65.8781
    endloop
  endfacet
  facet normal 0 0.396763 0.917921
    outer loop
      vertex 0.339377 80.7374 65.8781
      vertex 75.1127 81.076 65.7317
      vertex -0.0873404 81.076 65.7317
    endloop
  endfacet
  facet normal -0.431381 0.635919 0.639935
    outer loop
      vertex -0.433058 81.2342 65.3415
      vertex -0.701364 80.8067 65.5854
      vertex -0.0873404 81.076 65.7317
    endloop
  endfacet
  facet normal 6.5232e-08 -0.575779 0.817605
    outer loop
      vertex 5.75523 74.7333 65.6341
      vertex 69.4375 74.5948 65.5366
      vertex 69.5395 74.8026 65.6829
    endloop
  endfacet
  facet normal 0 -0.575799 0.817591
    outer loop
      vertex 69.4375 74.5948 65.5366
      vertex 5.75523 74.7333 65.6341
      vertex 5.79905 74.5948 65.5366
    endloop
  endfacet
  facet normal 0 -0.575739 0.817634
    outer loop
      vertex 5.75523 74.7333 65.6341
      vertex 69.5395 74.8026 65.6829
      vertex 5.67206 74.8026 65.6829
    endloop
  endfacet
  facet normal 0 -0.448644 0.89371
    outer loop
      vertex 69.6076 74.9969 65.7805
      vertex 5.67206 74.8026 65.6829
      vertex 69.5395 74.8026 65.6829
    endloop
  endfacet
  facet normal 0 -0.448644 0.89371
    outer loop
      vertex 5.67206 74.8026 65.6829
      vertex 69.6076 74.9969 65.7805
      vertex 5.50572 74.9969 65.7805
    endloop
  endfacet
  facet normal 0 -0.985144 0.171728
    outer loop
      vertex 5.89859 74.4766 65.2927
      vertex 69.2342 74.4596 65.1951
      vertex 69.2883 74.4766 65.2927
    endloop
  endfacet
  facet normal -6.89895e-09 -0.985145 0.171724
    outer loop
      vertex 6 74.4256 65
      vertex 69.2342 74.4596 65.1951
      vertex 5.89859 74.4766 65.2927
    endloop
  endfacet
  facet normal 2.07179e-08 -0.985147 0.171715
    outer loop
      vertex 6 74.4086 64.9024
      vertex 69.2342 74.4596 65.1951
      vertex 6 74.4256 65
    endloop
  endfacet
  facet normal 0 -0.985146 0.171719
    outer loop
      vertex 69.2342 74.4596 65.1951
      vertex 6 74.4086 64.9024
      vertex 69.2342 74.4086 64.9024
    endloop
  endfacet
  facet normal -0.910169 0.414236 0
    outer loop
      vertex -0.965769 80.5709 0.195122
      vertex -0.736507 81.0747 64.9512
      vertex -0.736507 81.0747 -0.0487804
    endloop
  endfacet
  facet normal -0.910169 0.414236 0
    outer loop
      vertex -0.736507 81.0747 64.9512
      vertex -0.965769 80.5709 0.195122
      vertex -0.965769 80.5709 65.1951
    endloop
  endfacet
  facet normal -0.145487 0.232324 0.961696
    outer loop
      vertex -0.0873404 81.076 65.7317
      vertex -0.558383 80.3772 65.8293
      vertex 0.339377 80.7374 65.8781
    endloop
  endfacet
  facet normal -0.364307 0.365157 0.856703
    outer loop
      vertex -0.0873404 81.076 65.7317
      vertex -0.701364 80.8067 65.5854
      vertex -0.558383 80.3772 65.8293
    endloop
  endfacet
  facet normal -0.719216 0.624821 0.303854
    outer loop
      vertex -0.433058 81.2342 65.3415
      vertex -0.736507 81.0747 64.9512
      vertex -0.701364 80.8067 65.5854
    endloop
  endfacet
  facet normal -0.465301 0.885152 0
    outer loop
      vertex -0.433058 81.2342 0.341463
      vertex -0.736507 81.0747 64.9512
      vertex -0.433058 81.2342 65.3415
    endloop
  endfacet
  facet normal -0.465301 0.885152 0
    outer loop
      vertex -0.736507 81.0747 64.9512
      vertex -0.433058 81.2342 0.341463
      vertex -0.736507 81.0747 -0.0487804
    endloop
  endfacet
  facet normal 0 -0.130625 0.991432
    outer loop
      vertex 69.6416 75.3672 65.8293
      vertex 5.50572 74.9969 65.7805
      vertex 69.6076 74.9969 65.7805
    endloop
  endfacet
  facet normal 0 -0.130627 0.991432
    outer loop
      vertex 5.33938 75.7374 65.8781
      vertex 69.6416 75.3672 65.8293
      vertex 70.5394 75.7374 65.8781
    endloop
  endfacet
  facet normal 7.75936e-09 -0.130626 0.991432
    outer loop
      vertex 69.6416 75.3672 65.8293
      vertex 5.33938 75.7374 65.8781
      vertex 5.50572 74.9969 65.7805
    endloop
  endfacet
  facet normal -0.263543 0.962861 0.0586907
    outer loop
      vertex -0.248375 81.3234 64.7073
      vertex -0.433058 81.2342 65.3415
      vertex 0.0870581 81.3914 65.0976
    endloop
  endfacet
  facet normal -0.43493 0.900464 0
    outer loop
      vertex -0.248375 81.3234 64.7073
      vertex -0.433058 81.2342 0.341463
      vertex -0.433058 81.2342 65.3415
    endloop
  endfacet
  facet normal -0.43493 0.900464 0
    outer loop
      vertex -0.433058 81.2342 0.341463
      vertex -0.248375 81.3234 64.7073
      vertex -0.248375 81.3234 -0.292683
    endloop
  endfacet
  facet normal 0.212387 0.0395392 -0.976385
    outer loop
      vertex 75.5394 80.0626 -0.878048
      vertex 75.0594 80.2314 -0.975609
      vertex 75.1825 80.7751 -0.926828
    endloop
  endfacet
  facet normal 0 0.089364 -0.995999
    outer loop
      vertex 75.0594 80.2314 -0.975609
      vertex -0.0175219 80.7751 -0.926828
      vertex 75.1825 80.7751 -0.926828
    endloop
  endfacet
  facet normal 0 0.089364 -0.995999
    outer loop
      vertex -0.0175219 80.7751 -0.926828
      vertex 75.0594 80.2314 -0.975609
      vertex -0.140558 80.2314 -0.975609
    endloop
  endfacet
  facet normal 0.10236 0.961359 -0.255559
    outer loop
      vertex 75.4523 81.2052 -0.536585
      vertex 74.9516 81.3234 -0.292683
      vertex 75.2871 81.3914 0.0975609
    endloop
  endfacet
  facet normal 0.718378 0.177205 -0.672705
    outer loop
      vertex 75.9552 80.2342 -0.634146
      vertex 75.6779 80.8031 -0.780487
      vertex 76.0648 80.716 -0.390244
    endloop
  endfacet
  facet normal 0.841959 0.52848 -0.108688
    outer loop
      vertex 76.0648 80.716 -0.390244
      vertex 75.8018 81.1851 -0.146341
      vertex 76.0183 80.9204 0.243902
    endloop
  endfacet
  facet normal 0.59212 0.633868 -0.4976
    outer loop
      vertex 75.6779 80.8031 -0.780487
      vertex 75.4523 81.2052 -0.536585
      vertex 75.8018 81.1851 -0.146341
    endloop
  endfacet
  facet normal -0.0561254 0.689926 -0.721701
    outer loop
      vertex -0.0175219 80.7751 -0.926828
      vertex -0.420334 80.9974 -0.682926
      vertex 0.252327 81.2052 -0.536585
    endloop
  endfacet
  facet normal 0.499433 0.0206999 -0.866105
    outer loop
      vertex 75.9552 80.2342 -0.634146
      vertex 75.5394 80.0626 -0.878048
      vertex 75.6779 80.8031 -0.780487
    endloop
  endfacet
  facet normal 0.278673 0.0740337 -0.957528
    outer loop
      vertex 75.5394 80.0626 -0.878048
      vertex 75.1825 80.7751 -0.926828
      vertex 75.6779 80.8031 -0.780487
    endloop
  endfacet
  facet normal -0.360929 0.310672 -0.879325
    outer loop
      vertex -0.0175219 80.7751 -0.926828
      vertex -0.558383 80.4229 -0.829268
      vertex -0.420334 80.9974 -0.682926
    endloop
  endfacet
  facet normal -0.970792 0.18047 -0.158094
    outer loop
      vertex -0.830579 80.7426 -0.439024
      vertex -0.965769 80.2291 -0.195122
      vertex -0.965769 80.5709 0.195122
    endloop
  endfacet
  facet normal -0 0 1
    outer loop
      vertex 6 74.4086 5.87805
      vertex 69.2342 64.3914 5.87805
      vertex 69.2342 74.4086 5.87805
    endloop
  endfacet
  facet normal 0 0 1
    outer loop
      vertex 69.2342 64.3914 5.87805
      vertex 6 74.4086 5.87805
      vertex 6 64.3914 5.87805
    endloop
  endfacet
  facet normal -0 0 1
    outer loop
      vertex 6 8.40859 5.87805
      vertex 69.2342 5.99141 5.87805
      vertex 69.2342 8.40859 5.87805
    endloop
  endfacet
  facet normal 0 0 1
    outer loop
      vertex 69.2342 5.99141 5.87805
      vertex 6 8.40859 5.87805
      vertex 6 5.99141 5.87805
    endloop
  endfacet
  facet normal -0 0 1
    outer loop
      vertex 6 30.4086 5.87805
      vertex 69.2342 20.3914 5.87805
      vertex 69.2342 30.4086 5.87805
    endloop
  endfacet
  facet normal 0 0 1
    outer loop
      vertex 69.2342 20.3914 5.87805
      vertex 6 30.4086 5.87805
      vertex 6 20.3914 5.87805
    endloop
  endfacet
  facet normal -0 0 1
    outer loop
      vertex 6 52.4086 5.87805
      vertex 69.2342 42.3914 5.87805
      vertex 69.2342 52.4086 5.87805
    endloop
  endfacet
  facet normal 0 0 1
    outer loop
      vertex 69.2342 42.3914 5.87805
      vertex 6 52.4086 5.87805
      vertex 6 42.3914 5.87805
    endloop
  endfacet
  facet normal 0.936753 0.347296 -0.0433445
    outer loop
      vertex 76.0648 80.716 -0.390244
      vertex 76.0183 80.9204 0.243902
      vertex 76.2 80.4 0
    endloop
  endfacet
  facet normal 0 0.671901 -0.740641
    outer loop
      vertex 75.1825 80.7751 -0.926828
      vertex 0.252327 81.2052 -0.536585
      vertex 75.4523 81.2052 -0.536585
    endloop
  endfacet
  facet normal 0 0.671901 -0.740641
    outer loop
      vertex 0.252327 81.2052 -0.536585
      vertex 75.1825 80.7751 -0.926828
      vertex -0.0175219 80.7751 -0.926828
    endloop
  endfacet
  facet normal 0.280136 0.938364 -0.202477
    outer loop
      vertex 75.4523 81.2052 -0.536585
      vertex 75.2871 81.3914 0.0975609
      vertex 75.8018 81.1851 -0.146341
    endloop
  endfacet
  facet normal 0.198591 0.587258 -0.784659
    outer loop
      vertex 75.6779 80.8031 -0.780487
      vertex 75.1825 80.7751 -0.926828
      vertex 75.4523 81.2052 -0.536585
    endloop
  endfacet
  facet normal 0 0.899969 -0.435954
    outer loop
      vertex 0.252327 81.2052 -0.536585
      vertex 74.9516 81.3234 -0.292683
      vertex 75.4523 81.2052 -0.536585
    endloop
  endfacet
  facet normal 0 0.899969 -0.435954
    outer loop
      vertex 74.9516 81.3234 -0.292683
      vertex 0.252327 81.2052 -0.536585
      vertex -0.248375 81.3234 -0.292683
    endloop
  endfacet
  facet normal -0.266823 0.145857 -0.952644
    outer loop
      vertex -0.140558 80.2314 -0.975609
      vertex -0.558383 80.4229 -0.829268
      vertex -0.0175219 80.7751 -0.926828
    endloop
  endfacet
  facet normal 0 0.985146 -0.171722
    outer loop
      vertex 74.9516 81.3234 -0.292683
      vertex 0.0870581 81.3914 0.0975609
      vertex 75.2871 81.3914 0.0975609
    endloop
  endfacet
  facet normal 0 0.985146 -0.171722
    outer loop
      vertex 0.0870581 81.3914 0.0975609
      vertex 74.9516 81.3234 -0.292683
      vertex -0.248375 81.3234 -0.292683
    endloop
  endfacet
  facet normal -0.625437 0.33031 -0.706911
    outer loop
      vertex -0.558383 80.4229 -0.829268
      vertex -0.830579 80.7426 -0.439024
      vertex -0.420334 80.9974 -0.682926
    endloop
  endfacet
  facet normal -0.643318 0.652653 -0.400233
    outer loop
      vertex -0.420334 80.9974 -0.682926
      vertex -0.830579 80.7426 -0.439024
      vertex -0.736507 81.0747 -0.0487804
    endloop
  endfacet
  facet normal -0.922634 0.37366 -0.0955202
    outer loop
      vertex -0.830579 80.7426 -0.439024
      vertex -0.965769 80.5709 0.195122
      vertex -0.736507 81.0747 -0.0487804
    endloop
  endfacet
  facet normal 0.628398 0.605907 -0.487846
    outer loop
      vertex 76.0648 80.716 -0.390244
      vertex 75.6779 80.8031 -0.780487
      vertex 75.8018 81.1851 -0.146341
    endloop
  endfacet
  facet normal -0.110622 0.786229 -0.607952
    outer loop
      vertex 0.252327 81.2052 -0.536585
      vertex -0.420334 80.9974 -0.682926
      vertex -0.248375 81.3234 -0.292683
    endloop
  endfacet
  facet normal -0.561906 0.739716 -0.370246
    outer loop
      vertex -0.420334 80.9974 -0.682926
      vertex -0.736507 81.0747 -0.0487804
      vertex -0.248375 81.3234 -0.292683
    endloop
  endfacet
  facet normal -0.457166 0.889345 -0.00803992
    outer loop
      vertex -0.248375 81.3234 -0.292683
      vertex -0.736507 81.0747 -0.0487804
      vertex -0.433058 81.2342 0.341463
    endloop
  endfacet
  facet normal 0.505869 6.09605e-07 0.86261
    outer loop
      vertex 5.58889 64.076 65.7317
      vertex 5.75523 74.7333 65.6341
      vertex 5.67206 74.8026 65.6829
    endloop
  endfacet
  facet normal 0.505898 0 0.862593
    outer loop
      vertex 5.75523 74.7333 65.6341
      vertex 5.58889 64.076 65.7317
      vertex 5.75523 64.1245 65.6341
    endloop
  endfacet
  facet normal 0.505928 0 0.862576
    outer loop
      vertex 5.50572 74.9969 65.7805
      vertex 5.58889 64.076 65.7317
      vertex 5.67206 74.8026 65.6829
    endloop
  endfacet
  facet normal 0.505928 -0 0.862576
    outer loop
      vertex 5.33938 63.7374 65.8781
      vertex 5.50572 74.9969 65.7805
      vertex 5.33938 75.7374 65.8781
    endloop
  endfacet
  facet normal 0.505928 0 0.862576
    outer loop
      vertex 5.50572 74.9969 65.7805
      vertex 5.33938 63.7374 65.8781
      vertex 5.58889 64.076 65.7317
    endloop
  endfacet
  facet normal 1 -0 0
    outer loop
      vertex 6 64.3914 65
      vertex 6 74.4086 64.9024
      vertex 6 74.4256 65
    endloop
  endfacet
  facet normal 1 0 0
    outer loop
      vertex 6 64.3914 65
      vertex 6 74.4086 5.87805
      vertex 6 74.4086 64.9024
    endloop
  endfacet
  facet normal 1 0 0
    outer loop
      vertex 6 74.4086 5.87805
      vertex 6 64.3914 65
      vertex 6 64.3914 5.87805
    endloop
  endfacet
  facet normal 0.91221 0 0.409724
    outer loop
      vertex 5.79905 74.5948 65.5366
      vertex 5.86478 64.2458 65.3902
      vertex 5.86478 74.5239 65.3902
    endloop
  endfacet
  facet normal 0.912218 -0 0.409706
    outer loop
      vertex 5.75523 64.1245 65.6341
      vertex 5.79905 74.5948 65.5366
      vertex 5.75523 74.7333 65.6341
    endloop
  endfacet
  facet normal 0.912213 1.19976e-07 0.409717
    outer loop
      vertex 5.79905 74.5948 65.5366
      vertex 5.75523 64.1245 65.6341
      vertex 5.86478 64.2458 65.3902
    endloop
  endfacet
  facet normal 0.944883 1.6568e-07 0.327407
    outer loop
      vertex 5.89859 74.4766 65.2927
      vertex 5.9662 64.3914 65.0976
      vertex 6 74.4256 65
    endloop
  endfacet
  facet normal 0.944889 5.00026e-07 0.327391
    outer loop
      vertex 5.86478 74.5239 65.3902
      vertex 5.9662 64.3914 65.0976
      vertex 5.89859 74.4766 65.2927
    endloop
  endfacet
  facet normal 0.944883 0 0.327407
    outer loop
      vertex 5.9662 64.3914 65.0976
      vertex 5.86478 74.5239 65.3902
      vertex 5.86478 64.2458 65.3902
    endloop
  endfacet
  facet normal 0.944889 0 0.327392
    outer loop
      vertex 6 74.4256 65
      vertex 5.9662 64.3914 65.0976
      vertex 6 64.3914 65
    endloop
  endfacet
  facet normal 1 -0 0
    outer loop
      vertex 6 5.99141 65
      vertex 6 8.40859 64.9024
      vertex 6 8.42559 65
    endloop
  endfacet
  facet normal 1 0 0
    outer loop
      vertex 6 5.99141 5.87805
      vertex 6 8.40859 64.9024
      vertex 6 5.99141 65
    endloop
  endfacet
  facet normal 1 0 0
    outer loop
      vertex 6 8.40859 64.9024
      vertex 6 5.99141 5.87805
      vertex 6 8.40859 5.87805
    endloop
  endfacet
  facet normal 0.91221 0 0.409724
    outer loop
      vertex 5.79905 8.59476 65.5366
      vertex 5.86478 5.84584 65.3902
      vertex 5.86478 8.52387 65.3902
    endloop
  endfacet
  facet normal 0.912218 -0 0.409706
    outer loop
      vertex 5.75523 5.72452 65.6341
      vertex 5.79905 8.59476 65.5366
      vertex 5.75523 8.7333 65.6341
    endloop
  endfacet
  facet normal 0.912213 4.4312e-07 0.409717
    outer loop
      vertex 5.79905 8.59476 65.5366
      vertex 5.75523 5.72452 65.6341
      vertex 5.86478 5.84584 65.3902
    endloop
  endfacet
  facet normal 0.944883 6.79376e-07 0.327407
    outer loop
      vertex 5.89859 8.47661 65.2927
      vertex 5.9662 5.99141 65.0976
      vertex 6 8.42559 65
    endloop
  endfacet
  facet normal 0.944889 -0 0.327392
    outer loop
      vertex 5.86478 5.84584 65.3902
      vertex 5.89859 8.47661 65.2927
      vertex 5.86478 8.52387 65.3902
    endloop
  endfacet
  facet normal 0.944883 6.44895e-07 0.327407
    outer loop
      vertex 5.89859 8.47661 65.2927
      vertex 5.86478 5.84584 65.3902
      vertex 5.9662 5.99141 65.0976
    endloop
  endfacet
  facet normal 0.944889 0 0.327392
    outer loop
      vertex 6 8.42559 65
      vertex 5.9662 5.99141 65.0976
      vertex 6 5.99141 65
    endloop
  endfacet
  facet normal 0.50587 2.0593e-06 0.86261
    outer loop
      vertex 5.58889 5.676 65.7317
      vertex 5.75523 8.7333 65.6341
      vertex 5.67206 8.80256 65.6829
    endloop
  endfacet
  facet normal 0.505898 0 0.862593
    outer loop
      vertex 5.75523 8.7333 65.6341
      vertex 5.58889 5.676 65.7317
      vertex 5.75523 5.72452 65.6341
    endloop
  endfacet
  facet normal 0.505928 0 0.862576
    outer loop
      vertex 5.50572 8.99692 65.7805
      vertex 5.58889 5.676 65.7317
      vertex 5.67206 8.80256 65.6829
    endloop
  endfacet
  facet normal 0.505928 -0 0.862576
    outer loop
      vertex 5.33938 5.33742 65.8781
      vertex 5.50572 8.99692 65.7805
      vertex 5.33938 9.73742 65.8781
    endloop
  endfacet
  facet normal 0.505928 0 0.862576
    outer loop
      vertex 5.50572 8.99692 65.7805
      vertex 5.33938 5.33742 65.8781
      vertex 5.58889 5.676 65.7317
    endloop
  endfacet
  facet normal -0.874618 0 0.484812
    outer loop
      vertex 69.2342 5.94289 65.1951
      vertex 69.2883 8.47661 65.2927
      vertex 69.2342 8.4596 65.1951
    endloop
  endfacet
  facet normal -0.874628 8.59413e-07 0.484795
    outer loop
      vertex 69.3694 5.82158 65.439
      vertex 69.2883 8.47661 65.2927
      vertex 69.2342 5.94289 65.1951
    endloop
  endfacet
  facet normal -0.874634 0 0.484783
    outer loop
      vertex 69.2883 8.47661 65.2927
      vertex 69.3694 5.82158 65.439
      vertex 69.3694 8.5475 65.439
    endloop
  endfacet
  facet normal -0.0542579 0 0.998527
    outer loop
      vertex 69.6416 9.36717 65.8293
      vertex 70.5394 5.33742 65.8781
      vertex 70.5394 9.73742 65.8781
    endloop
  endfacet
  facet normal -0.0542579 0 0.998527
    outer loop
      vertex 70.5394 5.33742 65.8781
      vertex 69.6416 9.36717 65.8293
      vertex 69.6416 5.45028 65.8293
    endloop
  endfacet
  facet normal -0.820192 0 0.572088
    outer loop
      vertex 69.3694 5.82158 65.439
      vertex 69.4375 8.59476 65.5366
      vertex 69.3694 8.5475 65.439
    endloop
  endfacet
  facet normal -0.820189 -2.23603e-07 0.572093
    outer loop
      vertex 69.5736 5.676 65.7317
      vertex 69.4375 8.59476 65.5366
      vertex 69.3694 5.82158 65.439
    endloop
  endfacet
  facet normal -0.820189 -1.97426e-07 0.572093
    outer loop
      vertex 69.4375 8.59476 65.5366
      vertex 69.5736 5.676 65.7317
      vertex 69.5395 8.80256 65.6829
    endloop
  endfacet
  facet normal -0.820212 -9.70568e-07 0.572059
    outer loop
      vertex 69.5395 8.80256 65.6829
      vertex 69.5736 5.676 65.7317
      vertex 69.6076 8.99692 65.7805
    endloop
  endfacet
  facet normal -0.820214 -9.11203e-07 0.572057
    outer loop
      vertex 69.6416 5.45028 65.8293
      vertex 69.6076 8.99692 65.7805
      vertex 69.5736 5.676 65.7317
    endloop
  endfacet
  facet normal -0.820183 0 0.572101
    outer loop
      vertex 69.6076 8.99692 65.7805
      vertex 69.6416 5.45028 65.8293
      vertex 69.6416 9.36717 65.8293
    endloop
  endfacet
  facet normal -1 0 0
    outer loop
      vertex 69.2342 8.40859 5.87805
      vertex 69.2342 5.99141 5.87805
      vertex 69.2342 8.40859 64.9024
    endloop
  endfacet
  facet normal -1 0 0
    outer loop
      vertex 69.2342 5.99141 65.0976
      vertex 69.2342 8.40859 64.9024
      vertex 69.2342 5.99141 5.87805
    endloop
  endfacet
  facet normal -1 0 0
    outer loop
      vertex 69.2342 5.99141 65.0976
      vertex 69.2342 8.4596 65.1951
      vertex 69.2342 8.40859 64.9024
    endloop
  endfacet
  facet normal -1 -0 0
    outer loop
      vertex 69.2342 8.4596 65.1951
      vertex 69.2342 5.99141 65.0976
      vertex 69.2342 5.94289 65.1951
    endloop
  endfacet
  facet normal -0.0542579 0 0.998527
    outer loop
      vertex 69.6416 75.3672 65.8293
      vertex 70.5394 63.7374 65.8781
      vertex 70.5394 75.7374 65.8781
    endloop
  endfacet
  facet normal -0.0542579 0 0.998527
    outer loop
      vertex 70.5394 63.7374 65.8781
      vertex 69.6416 75.3672 65.8293
      vertex 69.6416 63.8503 65.8293
    endloop
  endfacet
  facet normal -0.820192 0 0.572088
    outer loop
      vertex 69.3694 64.2216 65.439
      vertex 69.4375 74.5948 65.5366
      vertex 69.3694 74.5475 65.439
    endloop
  endfacet
  facet normal -0.820189 -6.05411e-08 0.572093
    outer loop
      vertex 69.5736 64.076 65.7317
      vertex 69.4375 74.5948 65.5366
      vertex 69.3694 64.2216 65.439
    endloop
  endfacet
  facet normal -0.820189 -5.8443e-08 0.572093
    outer loop
      vertex 69.4375 74.5948 65.5366
      vertex 69.5736 64.076 65.7317
      vertex 69.5395 74.8026 65.6829
    endloop
  endfacet
  facet normal -0.820213 -2.89074e-07 0.572059
    outer loop
      vertex 69.5395 74.8026 65.6829
      vertex 69.5736 64.076 65.7317
      vertex 69.6076 74.9969 65.7805
    endloop
  endfacet
  facet normal -0.820213 -2.83572e-07 0.572058
    outer loop
      vertex 69.6416 63.8503 65.8293
      vertex 69.6076 74.9969 65.7805
      vertex 69.5736 64.076 65.7317
    endloop
  endfacet
  facet normal -0.820183 0 0.572101
    outer loop
      vertex 69.6076 74.9969 65.7805
      vertex 69.6416 63.8503 65.8293
      vertex 69.6416 75.3672 65.8293
    endloop
  endfacet
  facet normal -0.874618 0 0.484812
    outer loop
      vertex 69.2342 64.3429 65.1951
      vertex 69.2883 74.4766 65.2927
      vertex 69.2342 74.4596 65.1951
    endloop
  endfacet
  facet normal -0.874634 3.6669e-07 0.484783
    outer loop
      vertex 69.2342 64.3429 65.1951
      vertex 69.3694 74.5475 65.439
      vertex 69.2883 74.4766 65.2927
    endloop
  endfacet
  facet normal -0.874628 0 0.484795
    outer loop
      vertex 69.3694 74.5475 65.439
      vertex 69.2342 64.3429 65.1951
      vertex 69.3694 64.2216 65.439
    endloop
  endfacet
  facet normal -1 0 0
    outer loop
      vertex 69.2342 74.4086 5.87805
      vertex 69.2342 64.3914 5.87805
      vertex 69.2342 74.4086 64.9024
    endloop
  endfacet
  facet normal -1 0 0
    outer loop
      vertex 69.2342 64.3914 65.0976
      vertex 69.2342 74.4086 64.9024
      vertex 69.2342 64.3914 5.87805
    endloop
  endfacet
  facet normal -1 0 0
    outer loop
      vertex 69.2342 64.3914 65.0976
      vertex 69.2342 74.4596 65.1951
      vertex 69.2342 74.4086 64.9024
    endloop
  endfacet
  facet normal -1 -0 0
    outer loop
      vertex 69.2342 74.4596 65.1951
      vertex 69.2342 64.3914 65.0976
      vertex 69.2342 64.3429 65.1951
    endloop
  endfacet
  facet normal 0 -0.899946 0.436002
    outer loop
      vertex 5.79905 52.5948 65.5366
      vertex 69.3694 52.5475 65.439
      vertex 69.4375 52.5948 65.5366
    endloop
  endfacet
  facet normal 5.30428e-08 -0.899959 0.435974
    outer loop
      vertex 69.2883 52.4766 65.2927
      vertex 5.79905 52.5948 65.5366
      vertex 5.86478 52.5239 65.3902
    endloop
  endfacet
  facet normal 0 -0.899973 0.435946
    outer loop
      vertex 69.2883 52.4766 65.2927
      vertex 5.86478 52.5239 65.3902
      vertex 5.89859 52.4766 65.2927
    endloop
  endfacet
  facet normal -1.2422e-07 -0.899977 0.435937
    outer loop
      vertex 5.79905 52.5948 65.5366
      vertex 69.2883 52.4766 65.2927
      vertex 69.3694 52.5475 65.439
    endloop
  endfacet
  facet normal 0 -1 0
    outer loop
      vertex 6 52.4086 5.87805
      vertex 69.2342 52.4086 64.9024
      vertex 6 52.4086 64.9024
    endloop
  endfacet
  facet normal 0 -1 -0
    outer loop
      vertex 69.2342 52.4086 64.9024
      vertex 6 52.4086 5.87805
      vertex 69.2342 52.4086 5.87805
    endloop
  endfacet
  facet normal 0 0.895336 0.445392
    outer loop
      vertex 69.5736 64.076 65.7317
      vertex 5.75523 64.1245 65.6341
      vertex 5.58889 64.076 65.7317
    endloop
  endfacet
  facet normal 8.92012e-08 0.895359 0.445345
    outer loop
      vertex 69.3694 64.2216 65.439
      vertex 5.75523 64.1245 65.6341
      vertex 69.5736 64.076 65.7317
    endloop
  endfacet
  facet normal 7.50963e-08 0.895361 0.445342
    outer loop
      vertex 69.2342 64.3429 65.1951
      vertex 5.75523 64.1245 65.6341
      vertex 69.3694 64.2216 65.439
    endloop
  endfacet
  facet normal -1.18686e-07 0.895372 0.445319
    outer loop
      vertex 5.75523 64.1245 65.6341
      vertex 69.2342 64.3429 65.1951
      vertex 5.86478 64.2458 65.3902
    endloop
  endfacet
  facet normal -0 0.895364 0.445336
    outer loop
      vertex 5.9662 64.3914 65.0976
      vertex 69.2342 64.3429 65.1951
      vertex 69.2342 64.3914 65.0976
    endloop
  endfacet
  facet normal -1.80791e-08 0.895359 0.445345
    outer loop
      vertex 69.2342 64.3429 65.1951
      vertex 5.9662 64.3914 65.0976
      vertex 5.86478 64.2458 65.3902
    endloop
  endfacet
  facet normal 0 1 0
    outer loop
      vertex 69.2342 64.3914 65.0976
      vertex 6 64.3914 65
      vertex 5.9662 64.3914 65.0976
    endloop
  endfacet
  facet normal 0 1 -0
    outer loop
      vertex 69.2342 64.3914 5.87805
      vertex 6 64.3914 65
      vertex 69.2342 64.3914 65.0976
    endloop
  endfacet
  facet normal 0 1 0
    outer loop
      vertex 6 64.3914 65
      vertex 69.2342 64.3914 5.87805
      vertex 6 64.3914 5.87805
    endloop
  endfacet
  facet normal -0 0.396767 0.917919
    outer loop
      vertex 5.58889 64.076 65.7317
      vertex 69.6416 63.8503 65.8293
      vertex 69.5736 64.076 65.7317
    endloop
  endfacet
  facet normal -1.57122e-08 0.396763 0.917921
    outer loop
      vertex 5.33938 63.7374 65.8781
      vertex 69.6416 63.8503 65.8293
      vertex 5.58889 64.076 65.7317
    endloop
  endfacet
  facet normal 0 0.396756 0.917924
    outer loop
      vertex 69.6416 63.8503 65.8293
      vertex 5.33938 63.7374 65.8781
      vertex 70.5394 63.7374 65.8781
    endloop
  endfacet
  facet normal 0 -0.130626 0.991432
    outer loop
      vertex 69.6416 53.3672 65.8293
      vertex 5.50572 52.9969 65.7805
      vertex 69.6076 52.9969 65.7805
    endloop
  endfacet
  facet normal 0 -0.130626 0.991432
    outer loop
      vertex 5.33938 53.7374 65.8781
      vertex 69.6416 53.3672 65.8293
      vertex 70.5394 53.7374 65.8781
    endloop
  endfacet
  facet normal 0 -0.130626 0.991432
    outer loop
      vertex 69.6416 53.3672 65.8293
      vertex 5.33938 53.7374 65.8781
      vertex 5.50572 52.9969 65.7805
    endloop
  endfacet
  facet normal 0 -0.448637 0.893714
    outer loop
      vertex 69.6076 52.9969 65.7805
      vertex 5.67206 52.8026 65.6829
      vertex 69.5395 52.8026 65.6829
    endloop
  endfacet
  facet normal 0 -0.448637 0.893714
    outer loop
      vertex 5.67206 52.8026 65.6829
      vertex 69.6076 52.9969 65.7805
      vertex 5.50572 52.9969 65.7805
    endloop
  endfacet
  facet normal 7.67162e-08 -0.575786 0.8176
    outer loop
      vertex 5.75523 52.7333 65.6341
      vertex 69.4375 52.5948 65.5366
      vertex 69.5395 52.8026 65.6829
    endloop
  endfacet
  facet normal 0 -0.57581 0.817584
    outer loop
      vertex 69.4375 52.5948 65.5366
      vertex 5.75523 52.7333 65.6341
      vertex 5.79905 52.5948 65.5366
    endloop
  endfacet
  facet normal 0 -0.575739 0.817634
    outer loop
      vertex 5.75523 52.7333 65.6341
      vertex 69.5395 52.8026 65.6829
      vertex 5.67206 52.8026 65.6829
    endloop
  endfacet
  facet normal 0 -0.985144 0.171728
    outer loop
      vertex 5.89859 52.4766 65.2927
      vertex 69.2342 52.4596 65.1951
      vertex 69.2883 52.4766 65.2927
    endloop
  endfacet
  facet normal 1.28895e-08 -0.985143 0.171736
    outer loop
      vertex 6 52.4256 65
      vertex 69.2342 52.4596 65.1951
      vertex 5.89859 52.4766 65.2927
    endloop
  endfacet
  facet normal 8.01483e-08 -0.985147 0.171715
    outer loop
      vertex 6 52.4086 64.9024
      vertex 69.2342 52.4596 65.1951
      vertex 6 52.4256 65
    endloop
  endfacet
  facet normal 0 -0.985144 0.171732
    outer loop
      vertex 69.2342 52.4596 65.1951
      vertex 6 52.4086 64.9024
      vertex 69.2342 52.4086 64.9024
    endloop
  endfacet
  facet normal 1 -0 0
    outer loop
      vertex 6 42.3914 65
      vertex 6 52.4086 64.9024
      vertex 6 52.4256 65
    endloop
  endfacet
  facet normal 1 0 0
    outer loop
      vertex 6 42.3914 65
      vertex 6 52.4086 5.87805
      vertex 6 52.4086 64.9024
    endloop
  endfacet
  facet normal 1 0 0
    outer loop
      vertex 6 52.4086 5.87805
      vertex 6 42.3914 65
      vertex 6 42.3914 5.87805
    endloop
  endfacet
  facet normal 0.944883 1.6568e-07 0.327407
    outer loop
      vertex 5.89859 52.4766 65.2927
      vertex 5.9662 42.3914 65.0976
      vertex 6 52.4256 65
    endloop
  endfacet
  facet normal 0.944889 5.00026e-07 0.327391
    outer loop
      vertex 5.86478 52.5239 65.3902
      vertex 5.9662 42.3914 65.0976
      vertex 5.89859 52.4766 65.2927
    endloop
  endfacet
  facet normal 0.944883 0 0.327407
    outer loop
      vertex 5.9662 42.3914 65.0976
      vertex 5.86478 52.5239 65.3902
      vertex 5.86478 42.2458 65.3902
    endloop
  endfacet
  facet normal 0.944889 0 0.327392
    outer loop
      vertex 6 52.4256 65
      vertex 5.9662 42.3914 65.0976
      vertex 6 42.3914 65
    endloop
  endfacet
  facet normal 0.91221 0 0.409724
    outer loop
      vertex 5.79905 52.5948 65.5366
      vertex 5.86478 42.2458 65.3902
      vertex 5.86478 52.5239 65.3902
    endloop
  endfacet
  facet normal 0.912218 -0 0.409706
    outer loop
      vertex 5.75523 42.1245 65.6341
      vertex 5.79905 52.5948 65.5366
      vertex 5.75523 52.7333 65.6341
    endloop
  endfacet
  facet normal 0.912213 1.19976e-07 0.409717
    outer loop
      vertex 5.79905 52.5948 65.5366
      vertex 5.75523 42.1245 65.6341
      vertex 5.86478 42.2458 65.3902
    endloop
  endfacet
  facet normal 0.505869 6.09605e-07 0.86261
    outer loop
      vertex 5.58889 42.076 65.7317
      vertex 5.75523 52.7333 65.6341
      vertex 5.67206 52.8026 65.6829
    endloop
  endfacet
  facet normal 0.505898 0 0.862593
    outer loop
      vertex 5.75523 52.7333 65.6341
      vertex 5.58889 42.076 65.7317
      vertex 5.75523 42.1245 65.6341
    endloop
  endfacet
  facet normal 0.505928 0 0.862576
    outer loop
      vertex 5.50572 52.9969 65.7805
      vertex 5.58889 42.076 65.7317
      vertex 5.67206 52.8026 65.6829
    endloop
  endfacet
  facet normal 0.505928 -0 0.862576
    outer loop
      vertex 5.33938 41.7374 65.8781
      vertex 5.50572 52.9969 65.7805
      vertex 5.33938 53.7374 65.8781
    endloop
  endfacet
  facet normal 0.505928 0 0.862576
    outer loop
      vertex 5.50572 52.9969 65.7805
      vertex 5.33938 41.7374 65.8781
      vertex 5.58889 42.076 65.7317
    endloop
  endfacet
  facet normal -0.0542579 0 0.998527
    outer loop
      vertex 69.6416 53.3672 65.8293
      vertex 70.5394 41.7374 65.8781
      vertex 70.5394 53.7374 65.8781
    endloop
  endfacet
  facet normal -0.0542579 0 0.998527
    outer loop
      vertex 70.5394 41.7374 65.8781
      vertex 69.6416 53.3672 65.8293
      vertex 69.6416 41.8503 65.8293
    endloop
  endfacet
  facet normal -0.874618 0 0.484812
    outer loop
      vertex 69.2342 42.3429 65.1951
      vertex 69.2883 52.4766 65.2927
      vertex 69.2342 52.4596 65.1951
    endloop
  endfacet
  facet normal -0.874634 3.6669e-07 0.484783
    outer loop
      vertex 69.2342 42.3429 65.1951
      vertex 69.3694 52.5475 65.439
      vertex 69.2883 52.4766 65.2927
    endloop
  endfacet
  facet normal -0.874628 0 0.484795
    outer loop
      vertex 69.3694 52.5475 65.439
      vertex 69.2342 42.3429 65.1951
      vertex 69.3694 42.2216 65.439
    endloop
  endfacet
  facet normal -0.820192 0 0.572088
    outer loop
      vertex 69.3694 42.2216 65.439
      vertex 69.4375 52.5948 65.5366
      vertex 69.3694 52.5475 65.439
    endloop
  endfacet
  facet normal -0.820189 -6.05411e-08 0.572093
    outer loop
      vertex 69.5736 42.076 65.7317
      vertex 69.4375 52.5948 65.5366
      vertex 69.3694 42.2216 65.439
    endloop
  endfacet
  facet normal -0.820189 -5.84431e-08 0.572093
    outer loop
      vertex 69.4375 52.5948 65.5366
      vertex 69.5736 42.076 65.7317
      vertex 69.5395 52.8026 65.6829
    endloop
  endfacet
  facet normal -0.820213 -2.89074e-07 0.572059
    outer loop
      vertex 69.5395 52.8026 65.6829
      vertex 69.5736 42.076 65.7317
      vertex 69.6076 52.9969 65.7805
    endloop
  endfacet
  facet normal -0.820213 -2.83572e-07 0.572058
    outer loop
      vertex 69.6416 41.8503 65.8293
      vertex 69.6076 52.9969 65.7805
      vertex 69.5736 42.076 65.7317
    endloop
  endfacet
  facet normal -0.820183 0 0.572101
    outer loop
      vertex 69.6076 52.9969 65.7805
      vertex 69.6416 41.8503 65.8293
      vertex 69.6416 53.3672 65.8293
    endloop
  endfacet
  facet normal -1 0 0
    outer loop
      vertex 69.2342 52.4086 5.87805
      vertex 69.2342 42.3914 5.87805
      vertex 69.2342 52.4086 64.9024
    endloop
  endfacet
  facet normal -1 0 0
    outer loop
      vertex 69.2342 42.3914 65.0976
      vertex 69.2342 52.4086 64.9024
      vertex 69.2342 42.3914 5.87805
    endloop
  endfacet
  facet normal -1 0 0
    outer loop
      vertex 69.2342 42.3914 65.0976
      vertex 69.2342 52.4596 65.1951
      vertex 69.2342 52.4086 64.9024
    endloop
  endfacet
  facet normal -1 -0 0
    outer loop
      vertex 69.2342 52.4596 65.1951
      vertex 69.2342 42.3914 65.0976
      vertex 69.2342 42.3429 65.1951
    endloop
  endfacet
  facet normal 0 -0.448637 0.893714
    outer loop
      vertex 69.6076 30.9969 65.7805
      vertex 5.67206 30.8026 65.6829
      vertex 69.5395 30.8026 65.6829
    endloop
  endfacet
  facet normal 0 -0.448637 0.893714
    outer loop
      vertex 5.67206 30.8026 65.6829
      vertex 69.6076 30.9969 65.7805
      vertex 5.50572 30.9969 65.7805
    endloop
  endfacet
  facet normal 0 1 0
    outer loop
      vertex 69.2342 42.3914 65.0976
      vertex 6 42.3914 65
      vertex 5.9662 42.3914 65.0976
    endloop
  endfacet
  facet normal 0 1 -0
    outer loop
      vertex 69.2342 42.3914 5.87805
      vertex 6 42.3914 65
      vertex 69.2342 42.3914 65.0976
    endloop
  endfacet
  facet normal 0 1 0
    outer loop
      vertex 6 42.3914 65
      vertex 69.2342 42.3914 5.87805
      vertex 6 42.3914 5.87805
    endloop
  endfacet
  facet normal -0 0.396761 0.917922
    outer loop
      vertex 5.58889 42.076 65.7317
      vertex 69.6416 41.8503 65.8293
      vertex 69.5736 42.076 65.7317
    endloop
  endfacet
  facet normal -7.85601e-09 0.39676 0.917923
    outer loop
      vertex 5.33938 41.7374 65.8781
      vertex 69.6416 41.8503 65.8293
      vertex 5.58889 42.076 65.7317
    endloop
  endfacet
  facet normal 0 0.396756 0.917924
    outer loop
      vertex 69.6416 41.8503 65.8293
      vertex 5.33938 41.7374 65.8781
      vertex 70.5394 41.7374 65.8781
    endloop
  endfacet
  facet normal 0 0.895364 0.445336
    outer loop
      vertex 69.5736 42.076 65.7317
      vertex 5.75523 42.1245 65.6341
      vertex 5.58889 42.076 65.7317
    endloop
  endfacet
  facet normal -1.7952e-08 0.895359 0.445345
    outer loop
      vertex 69.3694 42.2216 65.439
      vertex 5.75523 42.1245 65.6341
      vertex 69.5736 42.076 65.7317
    endloop
  endfacet
  facet normal -7.49844e-08 0.895366 0.445331
    outer loop
      vertex 69.2342 42.3429 65.1951
      vertex 5.75523 42.1245 65.6341
      vertex 69.3694 42.2216 65.439
    endloop
  endfacet
  facet normal 2.16457e-08 0.895361 0.445342
    outer loop
      vertex 5.75523 42.1245 65.6341
      vertex 69.2342 42.3429 65.1951
      vertex 5.86478 42.2458 65.3902
    endloop
  endfacet
  facet normal -0 0.89535 0.445364
    outer loop
      vertex 5.9662 42.3914 65.0976
      vertex 69.2342 42.3429 65.1951
      vertex 69.2342 42.3914 65.0976
    endloop
  endfacet
  facet normal 3.5877e-08 0.895359 0.445345
    outer loop
      vertex 69.2342 42.3429 65.1951
      vertex 5.9662 42.3914 65.0976
      vertex 5.86478 42.2458 65.3902
    endloop
  endfacet
  facet normal 0 -1 0
    outer loop
      vertex 6 30.4086 5.87805
      vertex 69.2342 30.4086 64.9024
      vertex 6 30.4086 64.9024
    endloop
  endfacet
  facet normal 0 -1 -0
    outer loop
      vertex 69.2342 30.4086 64.9024
      vertex 6 30.4086 5.87805
      vertex 69.2342 30.4086 5.87805
    endloop
  endfacet
  facet normal 0 -0.130625 0.991432
    outer loop
      vertex 69.6416 31.3672 65.8293
      vertex 5.50572 30.9969 65.7805
      vertex 69.6076 30.9969 65.7805
    endloop
  endfacet
  facet normal 0 -0.130626 0.991432
    outer loop
      vertex 5.33938 31.7374 65.8781
      vertex 69.6416 31.3672 65.8293
      vertex 70.5394 31.7374 65.8781
    endloop
  endfacet
  facet normal 1.93983e-09 -0.130626 0.991432
    outer loop
      vertex 69.6416 31.3672 65.8293
      vertex 5.33938 31.7374 65.8781
      vertex 5.50572 30.9969 65.7805
    endloop
  endfacet
  facet normal 5.37472e-08 -0.575782 0.817603
    outer loop
      vertex 5.75523 30.7333 65.6341
      vertex 69.4375 30.5948 65.5366
      vertex 69.5395 30.8026 65.6829
    endloop
  endfacet
  facet normal 0 -0.575799 0.817591
    outer loop
      vertex 69.4375 30.5948 65.5366
      vertex 5.75523 30.7333 65.6341
      vertex 5.79905 30.5948 65.5366
    endloop
  endfacet
  facet normal 0 -0.575749 0.817626
    outer loop
      vertex 5.75523 30.7333 65.6341
      vertex 69.5395 30.8026 65.6829
      vertex 5.67206 30.8026 65.6829
    endloop
  endfacet
  facet normal 0 -0.899959 0.435974
    outer loop
      vertex 5.79905 30.5948 65.5366
      vertex 69.3694 30.5475 65.439
      vertex 69.4375 30.5948 65.5366
    endloop
  endfacet
  facet normal 3.49865e-08 -0.899964 0.435965
    outer loop
      vertex 69.2883 30.4766 65.2927
      vertex 5.79905 30.5948 65.5366
      vertex 5.86478 30.5239 65.3902
    endloop
  endfacet
  facet normal 0 -0.899973 0.435946
    outer loop
      vertex 69.2883 30.4766 65.2927
      vertex 5.86478 30.5239 65.3902
      vertex 5.89859 30.4766 65.2927
    endloop
  endfacet
  facet normal -5.22756e-08 -0.899973 0.435946
    outer loop
      vertex 5.79905 30.5948 65.5366
      vertex 69.2883 30.4766 65.2927
      vertex 69.3694 30.5475 65.439
    endloop
  endfacet
  facet normal 0 -0.985141 0.171747
    outer loop
      vertex 5.89859 30.4766 65.2927
      vertex 69.2342 30.4596 65.1951
      vertex 69.2883 30.4766 65.2927
    endloop
  endfacet
  facet normal -2.66881e-08 -0.985144 0.17173
    outer loop
      vertex 6 30.4256 65
      vertex 69.2342 30.4596 65.1951
      vertex 5.89859 30.4766 65.2927
    endloop
  endfacet
  facet normal -3.871e-08 -0.985143 0.171734
    outer loop
      vertex 6 30.4086 64.9024
      vertex 69.2342 30.4596 65.1951
      vertex 6 30.4256 65
    endloop
  endfacet
  facet normal 0 -0.985145 0.171726
    outer loop
      vertex 69.2342 30.4596 65.1951
      vertex 6 30.4086 64.9024
      vertex 69.2342 30.4086 64.9024
    endloop
  endfacet
  facet normal 0.91221 0 0.409724
    outer loop
      vertex 5.79905 30.5948 65.5366
      vertex 5.86478 20.2458 65.3902
      vertex 5.86478 30.5239 65.3902
    endloop
  endfacet
  facet normal 0.912218 -0 0.409706
    outer loop
      vertex 5.75523 20.1245 65.6341
      vertex 5.79905 30.5948 65.5366
      vertex 5.75523 30.7333 65.6341
    endloop
  endfacet
  facet normal 0.912213 1.19976e-07 0.409717
    outer loop
      vertex 5.79905 30.5948 65.5366
      vertex 5.75523 20.1245 65.6341
      vertex 5.86478 20.2458 65.3902
    endloop
  endfacet
  facet normal 1 -0 0
    outer loop
      vertex 6 20.3914 65
      vertex 6 30.4086 64.9024
      vertex 6 30.4256 65
    endloop
  endfacet
  facet normal 1 0 0
    outer loop
      vertex 6 20.3914 65
      vertex 6 30.4086 5.87805
      vertex 6 30.4086 64.9024
    endloop
  endfacet
  facet normal 1 0 0
    outer loop
      vertex 6 30.4086 5.87805
      vertex 6 20.3914 65
      vertex 6 20.3914 5.87805
    endloop
  endfacet
  facet normal 0.944883 1.6568e-07 0.327407
    outer loop
      vertex 5.89859 30.4766 65.2927
      vertex 5.9662 20.3914 65.0976
      vertex 6 30.4256 65
    endloop
  endfacet
  facet normal 0.944889 5.00026e-07 0.327391
    outer loop
      vertex 5.86478 30.5239 65.3902
      vertex 5.9662 20.3914 65.0976
      vertex 5.89859 30.4766 65.2927
    endloop
  endfacet
  facet normal 0.944883 0 0.327407
    outer loop
      vertex 5.9662 20.3914 65.0976
      vertex 5.86478 30.5239 65.3902
      vertex 5.86478 20.2458 65.3902
    endloop
  endfacet
  facet normal 0.944889 0 0.327392
    outer loop
      vertex 6 30.4256 65
      vertex 5.9662 20.3914 65.0976
      vertex 6 20.3914 65
    endloop
  endfacet
  facet normal 0.505869 6.09605e-07 0.86261
    outer loop
      vertex 5.58889 20.076 65.7317
      vertex 5.75523 30.7333 65.6341
      vertex 5.67206 30.8026 65.6829
    endloop
  endfacet
  facet normal 0.505898 0 0.862593
    outer loop
      vertex 5.75523 30.7333 65.6341
      vertex 5.58889 20.076 65.7317
      vertex 5.75523 20.1245 65.6341
    endloop
  endfacet
  facet normal 0.505928 0 0.862576
    outer loop
      vertex 5.50572 30.9969 65.7805
      vertex 5.58889 20.076 65.7317
      vertex 5.67206 30.8026 65.6829
    endloop
  endfacet
  facet normal 0.505928 -0 0.862576
    outer loop
      vertex 5.33938 19.7374 65.8781
      vertex 5.50572 30.9969 65.7805
      vertex 5.33938 31.7374 65.8781
    endloop
  endfacet
  facet normal 0.505928 0 0.862576
    outer loop
      vertex 5.50572 30.9969 65.7805
      vertex 5.33938 19.7374 65.8781
      vertex 5.58889 20.076 65.7317
    endloop
  endfacet
  facet normal -0.0542579 0 0.998527
    outer loop
      vertex 69.6416 31.3672 65.8293
      vertex 70.5394 19.7374 65.8781
      vertex 70.5394 31.7374 65.8781
    endloop
  endfacet
  facet normal -0.0542579 0 0.998527
    outer loop
      vertex 70.5394 19.7374 65.8781
      vertex 69.6416 31.3672 65.8293
      vertex 69.6416 19.8503 65.8293
    endloop
  endfacet
  facet normal -0.820192 0 0.572088
    outer loop
      vertex 69.3694 20.2216 65.439
      vertex 69.4375 30.5948 65.5366
      vertex 69.3694 30.5475 65.439
    endloop
  endfacet
  facet normal -0.820189 -6.05411e-08 0.572093
    outer loop
      vertex 69.5736 20.076 65.7317
      vertex 69.4375 30.5948 65.5366
      vertex 69.3694 20.2216 65.439
    endloop
  endfacet
  facet normal -0.820189 -5.84431e-08 0.572093
    outer loop
      vertex 69.4375 30.5948 65.5366
      vertex 69.5736 20.076 65.7317
      vertex 69.5395 30.8026 65.6829
    endloop
  endfacet
  facet normal -0.820213 -2.89074e-07 0.572059
    outer loop
      vertex 69.5395 30.8026 65.6829
      vertex 69.5736 20.076 65.7317
      vertex 69.6076 30.9969 65.7805
    endloop
  endfacet
  facet normal -0.820213 -2.83572e-07 0.572058
    outer loop
      vertex 69.6416 19.8503 65.8293
      vertex 69.6076 30.9969 65.7805
      vertex 69.5736 20.076 65.7317
    endloop
  endfacet
  facet normal -0.820183 0 0.572101
    outer loop
      vertex 69.6076 30.9969 65.7805
      vertex 69.6416 19.8503 65.8293
      vertex 69.6416 31.3672 65.8293
    endloop
  endfacet
  facet normal -0.874618 0 0.484812
    outer loop
      vertex 69.2342 20.3429 65.1951
      vertex 69.2883 30.4766 65.2927
      vertex 69.2342 30.4596 65.1951
    endloop
  endfacet
  facet normal -0.874634 3.6669e-07 0.484783
    outer loop
      vertex 69.2342 20.3429 65.1951
      vertex 69.3694 30.5475 65.439
      vertex 69.2883 30.4766 65.2927
    endloop
  endfacet
  facet normal -0.874628 0 0.484795
    outer loop
      vertex 69.3694 30.5475 65.439
      vertex 69.2342 20.3429 65.1951
      vertex 69.3694 20.2216 65.439
    endloop
  endfacet
  facet normal -1 0 0
    outer loop
      vertex 69.2342 30.4086 5.87805
      vertex 69.2342 20.3914 5.87805
      vertex 69.2342 30.4086 64.9024
    endloop
  endfacet
  facet normal -1 0 0
    outer loop
      vertex 69.2342 20.3914 65.0976
      vertex 69.2342 30.4086 64.9024
      vertex 69.2342 20.3914 5.87805
    endloop
  endfacet
  facet normal -1 0 0
    outer loop
      vertex 69.2342 20.3914 65.0976
      vertex 69.2342 30.4596 65.1951
      vertex 69.2342 30.4086 64.9024
    endloop
  endfacet
  facet normal -1 -0 0
    outer loop
      vertex 69.2342 30.4596 65.1951
      vertex 69.2342 20.3914 65.0976
      vertex 69.2342 20.3429 65.1951
    endloop
  endfacet
  facet normal 0 -0.448637 0.893714
    outer loop
      vertex 69.6076 8.99692 65.7805
      vertex 5.67206 8.80256 65.6829
      vertex 69.5395 8.80256 65.6829
    endloop
  endfacet
  facet normal 0 -0.448637 0.893714
    outer loop
      vertex 5.67206 8.80256 65.6829
      vertex 69.6076 8.99692 65.7805
      vertex 5.50572 8.99692 65.7805
    endloop
  endfacet
  facet normal 0 1 0
    outer loop
      vertex 69.2342 20.3914 65.0976
      vertex 6 20.3914 65
      vertex 5.9662 20.3914 65.0976
    endloop
  endfacet
  facet normal 0 1 -0
    outer loop
      vertex 69.2342 20.3914 5.87805
      vertex 6 20.3914 65
      vertex 69.2342 20.3914 65.0976
    endloop
  endfacet
  facet normal 0 1 0
    outer loop
      vertex 6 20.3914 65
      vertex 69.2342 20.3914 5.87805
      vertex 6 20.3914 5.87805
    endloop
  endfacet
  facet normal -0 0.396761 0.917922
    outer loop
      vertex 5.58889 20.076 65.7317
      vertex 69.6416 19.8503 65.8293
      vertex 69.5736 20.076 65.7317
    endloop
  endfacet
  facet normal 0 0.396761 0.917922
    outer loop
      vertex 5.33938 19.7374 65.8781
      vertex 69.6416 19.8503 65.8293
      vertex 5.58889 20.076 65.7317
    endloop
  endfacet
  facet normal 0 0.396761 0.917922
    outer loop
      vertex 69.6416 19.8503 65.8293
      vertex 5.33938 19.7374 65.8781
      vertex 70.5394 19.7374 65.8781
    endloop
  endfacet
  facet normal 0 0.895357 0.44535
    outer loop
      vertex 69.5736 20.076 65.7317
      vertex 5.75523 20.1245 65.6341
      vertex 5.58889 20.076 65.7317
    endloop
  endfacet
  facet normal 1.77656e-08 0.895361 0.445341
    outer loop
      vertex 69.3694 20.2216 65.439
      vertex 5.75523 20.1245 65.6341
      vertex 69.5736 20.076 65.7317
    endloop
  endfacet
  facet normal 5.61673e-11 0.895363 0.445336
    outer loop
      vertex 69.2342 20.3429 65.1951
      vertex 5.75523 20.1245 65.6341
      vertex 69.3694 20.2216 65.439
    endloop
  endfacet
  facet normal 5.65583e-11 0.895363 0.445336
    outer loop
      vertex 5.75523 20.1245 65.6341
      vertex 69.2342 20.3429 65.1951
      vertex 5.86478 20.2458 65.3902
    endloop
  endfacet
  facet normal -0 0.89535 0.445364
    outer loop
      vertex 5.9662 20.3914 65.0976
      vertex 69.2342 20.3429 65.1951
      vertex 69.2342 20.3914 65.0976
    endloop
  endfacet
  facet normal 3.5877e-08 0.895359 0.445345
    outer loop
      vertex 69.2342 20.3429 65.1951
      vertex 5.9662 20.3914 65.0976
      vertex 5.86478 20.2458 65.3902
    endloop
  endfacet
  facet normal 6.8103e-08 -0.575781 0.817604
    outer loop
      vertex 5.75523 8.7333 65.6341
      vertex 69.4375 8.59476 65.5366
      vertex 69.5395 8.80256 65.6829
    endloop
  endfacet
  facet normal 0 -0.575802 0.817589
    outer loop
      vertex 69.4375 8.59476 65.5366
      vertex 5.75523 8.7333 65.6341
      vertex 5.79905 8.59476 65.5366
    endloop
  endfacet
  facet normal 0 -0.575739 0.817634
    outer loop
      vertex 5.75523 8.7333 65.6341
      vertex 69.5395 8.80256 65.6829
      vertex 5.67206 8.80256 65.6829
    endloop
  endfacet
  facet normal 0 -1 0
    outer loop
      vertex 6 8.40859 5.87805
      vertex 69.2342 8.40859 64.9024
      vertex 6 8.40859 64.9024
    endloop
  endfacet
  facet normal 0 -1 -0
    outer loop
      vertex 69.2342 8.40859 64.9024
      vertex 6 8.40859 5.87805
      vertex 69.2342 8.40859 5.87805
    endloop
  endfacet
  facet normal 0 -0.130626 0.991432
    outer loop
      vertex 69.6416 9.36717 65.8293
      vertex 5.50572 8.99692 65.7805
      vertex 69.6076 8.99692 65.7805
    endloop
  endfacet
  facet normal 0 -0.130626 0.991432
    outer loop
      vertex 5.33938 9.73742 65.8781
      vertex 69.6416 9.36717 65.8293
      vertex 70.5394 9.73742 65.8781
    endloop
  endfacet
  facet normal 9.69918e-10 -0.130626 0.991432
    outer loop
      vertex 69.6416 9.36717 65.8293
      vertex 5.33938 9.73742 65.8781
      vertex 5.50572 8.99692 65.7805
    endloop
  endfacet
  facet normal 0 -0.899959 0.435974
    outer loop
      vertex 5.79905 8.59476 65.5366
      vertex 69.3694 8.5475 65.439
      vertex 69.4375 8.59476 65.5366
    endloop
  endfacet
  facet normal 4.40146e-08 -0.899961 0.435969
    outer loop
      vertex 69.2883 8.47661 65.2927
      vertex 5.79905 8.59476 65.5366
      vertex 5.86478 8.52387 65.3902
    endloop
  endfacet
  facet normal 0 -0.899973 0.435946
    outer loop
      vertex 69.2883 8.47661 65.2927
      vertex 5.86478 8.52387 65.3902
      vertex 5.89859 8.47661 65.2927
    endloop
  endfacet
  facet normal -4.3283e-08 -0.89997 0.435951
    outer loop
      vertex 5.79905 8.59476 65.5366
      vertex 69.2883 8.47661 65.2927
      vertex 69.3694 8.5475 65.439
    endloop
  endfacet
  facet normal 0 -0.985143 0.171737
    outer loop
      vertex 5.89859 8.47661 65.2927
      vertex 69.2342 8.4596 65.1951
      vertex 69.2883 8.47661 65.2927
    endloop
  endfacet
  facet normal -1.67935e-08 -0.985145 0.171727
    outer loop
      vertex 6 8.42559 65
      vertex 69.2342 8.4596 65.1951
      vertex 5.89859 8.47661 65.2927
    endloop
  endfacet
  facet normal -8.99611e-09 -0.985145 0.171724
    outer loop
      vertex 6 8.40859 64.9024
      vertex 69.2342 8.4596 65.1951
      vertex 6 8.42559 65
    endloop
  endfacet
  facet normal 0 -0.985145 0.171722
    outer loop
      vertex 69.2342 8.4596 65.1951
      vertex 6 8.40859 64.9024
      vertex 69.2342 8.40859 64.9024
    endloop
  endfacet
endsolid OpenSCAD_Model
