solid OpenSCAD_Model
  facet normal -1 0 0
    outer loop
      vertex -47.6 -50 0
      vertex -47.6 50 21.6667
      vertex -47.6 50 0
    endloop
  endfacet
  facet normal -1 -0 0
    outer loop
      vertex -47.6 50 21.6667
      vertex -47.6 -50 0
      vertex -47.6 -50 21.6667
    endloop
  endfacet
  facet normal 0 0 1
    outer loop
      vertex 47.6 50 21.6667
      vertex 32.6 35 21.6667
      vertex 47.6 -50 21.6667
    endloop
  endfacet
  facet normal 0 0 1
    outer loop
      vertex 47.6 50 21.6667
      vertex -32.6 35 21.6667
      vertex 32.6 35 21.6667
    endloop
  endfacet
  facet normal 0 0 1
    outer loop
      vertex -32.6 35 21.6667
      vertex -47.6 50 21.6667
      vertex -32.6 -35 21.6667
    endloop
  endfacet
  facet normal -0 0 1
    outer loop
      vertex -47.6 50 21.6667
      vertex -32.6 35 21.6667
      vertex 47.6 50 21.6667
    endloop
  endfacet
  facet normal -0 0 1
    outer loop
      vertex 32.6 -35 21.6667
      vertex 47.6 -50 21.6667
      vertex 32.6 35 21.6667
    endloop
  endfacet
  facet normal -0 0 1
    outer loop
      vertex -32.6 -35 21.6667
      vertex 47.6 -50 21.6667
      vertex 32.6 -35 21.6667
    endloop
  endfacet
  facet normal 0 0 1
    outer loop
      vertex -32.6 -35 21.6667
      vertex -47.6 -50 21.6667
      vertex 47.6 -50 21.6667
    endloop
  endfacet
  facet normal 0 0 1
    outer loop
      vertex -47.6 -50 21.6667
      vertex -32.6 -35 21.6667
      vertex -47.6 50 21.6667
    endloop
  endfacet
  facet normal 1 -0 0
    outer loop
      vertex 47.6 -50 21.6667
      vertex 47.6 50 0
      vertex 47.6 50 21.6667
    endloop
  endfacet
  facet normal 1 0 0
    outer loop
      vertex 47.6 50 0
      vertex 47.6 -50 21.6667
      vertex 47.6 -50 0
    endloop
  endfacet
  facet normal 0 1 -0
    outer loop
      vertex 47.6 50 0
      vertex -47.6 50 21.6667
      vertex 47.6 50 21.6667
    endloop
  endfacet
  facet normal 0 1 0
    outer loop
      vertex -47.6 50 21.6667
      vertex 47.6 50 0
      vertex -47.6 50 0
    endloop
  endfacet
  facet normal 0 0 -1
    outer loop
      vertex -47.6 -50 0
      vertex 47.6 50 0
      vertex 47.6 -50 0
    endloop
  endfacet
  facet normal -0 0 -1
    outer loop
      vertex 47.6 50 0
      vertex -47.6 -50 0
      vertex -47.6 50 0
    endloop
  endfacet
  facet normal 0 -1 0
    outer loop
      vertex -47.6 -50 0
      vertex 47.6 -50 21.6667
      vertex -47.6 -50 21.6667
    endloop
  endfacet
  facet normal 0 -1 -0
    outer loop
      vertex 47.6 -50 21.6667
      vertex -47.6 -50 0
      vertex 47.6 -50 0
    endloop
  endfacet
  facet normal 1 -0 0
    outer loop
      vertex -32.6 -35 21.6667
      vertex -32.6 35 5
      vertex -32.6 35 21.6667
    endloop
  endfacet
  facet normal 1 0 0
    outer loop
      vertex -32.6 35 5
      vertex -32.6 -35 21.6667
      vertex -32.6 -35 5
    endloop
  endfacet
  facet normal -1 0 0
    outer loop
      vertex 32.6 -35 5
      vertex 32.6 35 21.6667
      vertex 32.6 35 5
    endloop
  endfacet
  facet normal -1 -0 0
    outer loop
      vertex 32.6 35 21.6667
      vertex 32.6 -35 5
      vertex 32.6 -35 21.6667
    endloop
  endfacet
  facet normal 0 -1 0
    outer loop
      vertex -32.6 35 5
      vertex 32.6 35 21.6667
      vertex -32.6 35 21.6667
    endloop
  endfacet
  facet normal 0 -1 -0
    outer loop
      vertex 32.6 35 21.6667
      vertex -32.6 35 5
      vertex 32.6 35 5
    endloop
  endfacet
  facet normal -0 0 1
    outer loop
      vertex -32.6 35 5
      vertex 32.6 -35 5
      vertex 32.6 35 5
    endloop
  endfacet
  facet normal 0 0 1
    outer loop
      vertex 32.6 -35 5
      vertex -32.6 35 5
      vertex -32.6 -35 5
    endloop
  endfacet
  facet normal 0 1 -0
    outer loop
      vertex 32.6 -35 5
      vertex -32.6 -35 21.6667
      vertex 32.6 -35 21.6667
    endloop
  endfacet
  facet normal 0 1 0
    outer loop
      vertex -32.6 -35 21.6667
      vertex 32.6 -35 5
      vertex -32.6 -35 5
    endloop
  endfacet
  facet normal -1 0 0
    outer loop
      vertex -42.6 -45 21.6667
      vertex -42.6 45 54.1667
      vertex -42.6 45 21.6667
    endloop
  endfacet
  facet normal -1 -0 0
    outer loop
      vertex -42.6 45 54.1667
      vertex -42.6 -45 21.6667
      vertex -42.6 -45 54.1667
    endloop
  endfacet
  facet normal 0 0 1
    outer loop
      vertex 42.6 45 54.1667
      vertex 37.6 40 54.1667
      vertex 42.6 -45 54.1667
    endloop
  endfacet
  facet normal 0 0 1
    outer loop
      vertex 42.6 45 54.1667
      vertex -37.6 40 54.1667
      vertex 37.6 40 54.1667
    endloop
  endfacet
  facet normal 0 0 1
    outer loop
      vertex -37.6 40 54.1667
      vertex -42.6 45 54.1667
      vertex -37.6 -40 54.1667
    endloop
  endfacet
  facet normal -0 0 1
    outer loop
      vertex -42.6 45 54.1667
      vertex -37.6 40 54.1667
      vertex 42.6 45 54.1667
    endloop
  endfacet
  facet normal -0 0 1
    outer loop
      vertex 37.6 -40 54.1667
      vertex 42.6 -45 54.1667
      vertex 37.6 40 54.1667
    endloop
  endfacet
  facet normal -0 0 1
    outer loop
      vertex -37.6 -40 54.1667
      vertex 42.6 -45 54.1667
      vertex 37.6 -40 54.1667
    endloop
  endfacet
  facet normal 0 0 1
    outer loop
      vertex -37.6 -40 54.1667
      vertex -42.6 -45 54.1667
      vertex 42.6 -45 54.1667
    endloop
  endfacet
  facet normal 0 0 1
    outer loop
      vertex -42.6 -45 54.1667
      vertex -37.6 -40 54.1667
      vertex -42.6 45 54.1667
    endloop
  endfacet
  facet normal 1 -0 0
    outer loop
      vertex 42.6 -45 54.1667
      vertex 42.6 45 21.6667
      vertex 42.6 45 54.1667
    endloop
  endfacet
  facet normal 1 0 0
    outer loop
      vertex 42.6 45 21.6667
      vertex 42.6 -45 54.1667
      vertex 42.6 -45 21.6667
    endloop
  endfacet
  facet normal 0 1 -0
    outer loop
      vertex 42.6 45 21.6667
      vertex -42.6 45 54.1667
      vertex 42.6 45 54.1667
    endloop
  endfacet
  facet normal 0 1 0
    outer loop
      vertex -42.6 45 54.1667
      vertex 42.6 45 21.6667
      vertex -42.6 45 21.6667
    endloop
  endfacet
  facet normal 0 0 -1
    outer loop
      vertex 42.6 -45 21.6667
      vertex 37.6 -40 21.6667
      vertex 42.6 45 21.6667
    endloop
  endfacet
  facet normal 0 0 -1
    outer loop
      vertex 42.6 -45 21.6667
      vertex -37.6 -40 21.6667
      vertex 37.6 -40 21.6667
    endloop
  endfacet
  facet normal -0 0 -1
    outer loop
      vertex -37.6 -40 21.6667
      vertex -42.6 -45 21.6667
      vertex -37.6 40 21.6667
    endloop
  endfacet
  facet normal 0 0 -1
    outer loop
      vertex -42.6 -45 21.6667
      vertex -37.6 -40 21.6667
      vertex 42.6 -45 21.6667
    endloop
  endfacet
  facet normal 0 0 -1
    outer loop
      vertex 37.6 40 21.6667
      vertex 42.6 45 21.6667
      vertex 37.6 -40 21.6667
    endloop
  endfacet
  facet normal 0 0 -1
    outer loop
      vertex -37.6 40 21.6667
      vertex 42.6 45 21.6667
      vertex 37.6 40 21.6667
    endloop
  endfacet
  facet normal 0 0 -1
    outer loop
      vertex -37.6 40 21.6667
      vertex -42.6 45 21.6667
      vertex 42.6 45 21.6667
    endloop
  endfacet
  facet normal 0 0 -1
    outer loop
      vertex -42.6 45 21.6667
      vertex -37.6 40 21.6667
      vertex -42.6 -45 21.6667
    endloop
  endfacet
  facet normal 0 -1 0
    outer loop
      vertex -42.6 -45 21.6667
      vertex 42.6 -45 54.1667
      vertex -42.6 -45 54.1667
    endloop
  endfacet
  facet normal 0 -1 -0
    outer loop
      vertex 42.6 -45 54.1667
      vertex -42.6 -45 21.6667
      vertex 42.6 -45 21.6667
    endloop
  endfacet
  facet normal 1 -0 0
    outer loop
      vertex -37.6 -40 54.1667
      vertex -37.6 40 21.6667
      vertex -37.6 40 54.1667
    endloop
  endfacet
  facet normal 1 0 0
    outer loop
      vertex -37.6 40 21.6667
      vertex -37.6 -40 54.1667
      vertex -37.6 -40 21.6667
    endloop
  endfacet
  facet normal -1 0 0
    outer loop
      vertex 37.6 -40 21.6667
      vertex 37.6 40 54.1667
      vertex 37.6 40 21.6667
    endloop
  endfacet
  facet normal -1 -0 0
    outer loop
      vertex 37.6 40 54.1667
      vertex 37.6 -40 21.6667
      vertex 37.6 -40 54.1667
    endloop
  endfacet
  facet normal 0 -1 0
    outer loop
      vertex -37.6 40 21.6667
      vertex 37.6 40 54.1667
      vertex -37.6 40 54.1667
    endloop
  endfacet
  facet normal 0 -1 -0
    outer loop
      vertex 37.6 40 54.1667
      vertex -37.6 40 21.6667
      vertex 37.6 40 21.6667
    endloop
  endfacet
  facet normal 0 1 -0
    outer loop
      vertex 37.6 -40 21.6667
      vertex -37.6 -40 54.1667
      vertex 37.6 -40 54.1667
    endloop
  endfacet
  facet normal 0 1 0
    outer loop
      vertex -37.6 -40 54.1667
      vertex 37.6 -40 21.6667
      vertex -37.6 -40 21.6667
    endloop
  endfacet
endsolid OpenSCAD_Model
