solid OpenSCAD_Model
  facet normal -1 0 0
    outer loop
      vertex -39.6 -34.1 0
      vertex -39.6 34.1 25.6667
      vertex -39.6 34.1 0
    endloop
  endfacet
  facet normal -1 -0 0
    outer loop
      vertex -39.6 34.1 25.6667
      vertex -39.6 -34.1 0
      vertex -39.6 -34.1 25.6667
    endloop
  endfacet
  facet normal 0 0 1
    outer loop
      vertex 39.6 34.1 25.6667
      vertex 32.6 27.1 25.6667
      vertex 39.6 -34.1 25.6667
    endloop
  endfacet
  facet normal 0 0 1
    outer loop
      vertex 39.6 34.1 25.6667
      vertex -32.6 27.1 25.6667
      vertex 32.6 27.1 25.6667
    endloop
  endfacet
  facet normal 0 0 1
    outer loop
      vertex -32.6 27.1 25.6667
      vertex -39.6 34.1 25.6667
      vertex -32.6 -27.1 25.6667
    endloop
  endfacet
  facet normal -0 0 1
    outer loop
      vertex -39.6 34.1 25.6667
      vertex -32.6 27.1 25.6667
      vertex 39.6 34.1 25.6667
    endloop
  endfacet
  facet normal -0 0 1
    outer loop
      vertex 32.6 -27.1 25.6667
      vertex 39.6 -34.1 25.6667
      vertex 32.6 27.1 25.6667
    endloop
  endfacet
  facet normal -0 0 1
    outer loop
      vertex -32.6 -27.1 25.6667
      vertex 39.6 -34.1 25.6667
      vertex 32.6 -27.1 25.6667
    endloop
  endfacet
  facet normal 0 0 1
    outer loop
      vertex -32.6 -27.1 25.6667
      vertex -39.6 -34.1 25.6667
      vertex 39.6 -34.1 25.6667
    endloop
  endfacet
  facet normal 0 0 1
    outer loop
      vertex -39.6 -34.1 25.6667
      vertex -32.6 -27.1 25.6667
      vertex -39.6 34.1 25.6667
    endloop
  endfacet
  facet normal 1 -0 0
    outer loop
      vertex 39.6 -34.1 25.6667
      vertex 39.6 34.1 0
      vertex 39.6 34.1 25.6667
    endloop
  endfacet
  facet normal 1 0 0
    outer loop
      vertex 39.6 34.1 0
      vertex 39.6 -34.1 25.6667
      vertex 39.6 -34.1 0
    endloop
  endfacet
  facet normal 0 0 -1
    outer loop
      vertex -39.6 -34.1 0
      vertex 39.6 34.1 0
      vertex 39.6 -34.1 0
    endloop
  endfacet
  facet normal -0 0 -1
    outer loop
      vertex 39.6 34.1 0
      vertex -39.6 -34.1 0
      vertex -39.6 34.1 0
    endloop
  endfacet
  facet normal 0 -1 0
    outer loop
      vertex -39.6 -34.1 0
      vertex 39.6 -34.1 25.6667
      vertex -39.6 -34.1 25.6667
    endloop
  endfacet
  facet normal 0 -1 -0
    outer loop
      vertex 39.6 -34.1 25.6667
      vertex -39.6 -34.1 0
      vertex 39.6 -34.1 0
    endloop
  endfacet
  facet normal 0 1 -0
    outer loop
      vertex 39.6 34.1 0
      vertex -39.6 34.1 25.6667
      vertex 39.6 34.1 25.6667
    endloop
  endfacet
  facet normal 0 1 0
    outer loop
      vertex -39.6 34.1 25.6667
      vertex 39.6 34.1 0
      vertex -39.6 34.1 0
    endloop
  endfacet
  facet normal 1 -0 0
    outer loop
      vertex -32.6 -27.1 25.6667
      vertex -32.6 27.1 2
      vertex -32.6 27.1 25.6667
    endloop
  endfacet
  facet normal 1 0 0
    outer loop
      vertex -32.6 27.1 2
      vertex -32.6 -27.1 25.6667
      vertex -32.6 -27.1 2
    endloop
  endfacet
  facet normal -1 0 0
    outer loop
      vertex 32.6 -27.1 2
      vertex 32.6 27.1 25.6667
      vertex 32.6 27.1 2
    endloop
  endfacet
  facet normal -1 -0 0
    outer loop
      vertex 32.6 27.1 25.6667
      vertex 32.6 -27.1 2
      vertex 32.6 -27.1 25.6667
    endloop
  endfacet
  facet normal 0 -1 0
    outer loop
      vertex -32.6 27.1 2
      vertex 32.6 27.1 25.6667
      vertex -32.6 27.1 25.6667
    endloop
  endfacet
  facet normal 0 -1 -0
    outer loop
      vertex 32.6 27.1 25.6667
      vertex -32.6 27.1 2
      vertex 32.6 27.1 2
    endloop
  endfacet
  facet normal -0 0 1
    outer loop
      vertex -32.6 27.1 2
      vertex 32.6 -27.1 2
      vertex 32.6 27.1 2
    endloop
  endfacet
  facet normal 0 0 1
    outer loop
      vertex 32.6 -27.1 2
      vertex -32.6 27.1 2
      vertex -32.6 -27.1 2
    endloop
  endfacet
  facet normal 0 1 -0
    outer loop
      vertex 32.6 -27.1 2
      vertex -32.6 -27.1 25.6667
      vertex 32.6 -27.1 25.6667
    endloop
  endfacet
  facet normal 0 1 0
    outer loop
      vertex -32.6 -27.1 25.6667
      vertex 32.6 -27.1 2
      vertex -32.6 -27.1 2
    endloop
  endfacet
  facet normal -1 0 0
    outer loop
      vertex -37.6 -32.1 25.6667
      vertex -37.6 32.1 56.6667
      vertex -37.6 32.1 25.6667
    endloop
  endfacet
  facet normal -1 -0 0
    outer loop
      vertex -37.6 32.1 56.6667
      vertex -37.6 -32.1 25.6667
      vertex -37.6 -32.1 56.6667
    endloop
  endfacet
  facet normal 0 0 1
    outer loop
      vertex 37.6 32.1 56.6667
      vertex 34.6 29.1 56.6667
      vertex 37.6 -32.1 56.6667
    endloop
  endfacet
  facet normal 0 0 1
    outer loop
      vertex 37.6 32.1 56.6667
      vertex -34.6 29.1 56.6667
      vertex 34.6 29.1 56.6667
    endloop
  endfacet
  facet normal 0 0 1
    outer loop
      vertex -34.6 29.1 56.6667
      vertex -37.6 32.1 56.6667
      vertex -34.6 -29.1 56.6667
    endloop
  endfacet
  facet normal -0 0 1
    outer loop
      vertex -37.6 32.1 56.6667
      vertex -34.6 29.1 56.6667
      vertex 37.6 32.1 56.6667
    endloop
  endfacet
  facet normal -0 0 1
    outer loop
      vertex 34.6 -29.1 56.6667
      vertex 37.6 -32.1 56.6667
      vertex 34.6 29.1 56.6667
    endloop
  endfacet
  facet normal -0 0 1
    outer loop
      vertex -34.6 -29.1 56.6667
      vertex 37.6 -32.1 56.6667
      vertex 34.6 -29.1 56.6667
    endloop
  endfacet
  facet normal 0 0 1
    outer loop
      vertex -34.6 -29.1 56.6667
      vertex -37.6 -32.1 56.6667
      vertex 37.6 -32.1 56.6667
    endloop
  endfacet
  facet normal 0 0 1
    outer loop
      vertex -37.6 -32.1 56.6667
      vertex -34.6 -29.1 56.6667
      vertex -37.6 32.1 56.6667
    endloop
  endfacet
  facet normal 1 -0 0
    outer loop
      vertex 37.6 -32.1 56.6667
      vertex 37.6 32.1 25.6667
      vertex 37.6 32.1 56.6667
    endloop
  endfacet
  facet normal 1 0 0
    outer loop
      vertex 37.6 32.1 25.6667
      vertex 37.6 -32.1 56.6667
      vertex 37.6 -32.1 25.6667
    endloop
  endfacet
  facet normal 0 1 -0
    outer loop
      vertex 37.6 32.1 25.6667
      vertex -37.6 32.1 56.6667
      vertex 37.6 32.1 56.6667
    endloop
  endfacet
  facet normal 0 1 0
    outer loop
      vertex -37.6 32.1 56.6667
      vertex 37.6 32.1 25.6667
      vertex -37.6 32.1 25.6667
    endloop
  endfacet
  facet normal 0 0 -1
    outer loop
      vertex 37.6 -32.1 25.6667
      vertex 34.6 -29.1 25.6667
      vertex 37.6 32.1 25.6667
    endloop
  endfacet
  facet normal 0 0 -1
    outer loop
      vertex 37.6 -32.1 25.6667
      vertex -34.6 -29.1 25.6667
      vertex 34.6 -29.1 25.6667
    endloop
  endfacet
  facet normal -0 0 -1
    outer loop
      vertex -34.6 -29.1 25.6667
      vertex -37.6 -32.1 25.6667
      vertex -34.6 29.1 25.6667
    endloop
  endfacet
  facet normal 0 0 -1
    outer loop
      vertex -37.6 -32.1 25.6667
      vertex -34.6 -29.1 25.6667
      vertex 37.6 -32.1 25.6667
    endloop
  endfacet
  facet normal 0 0 -1
    outer loop
      vertex 34.6 29.1 25.6667
      vertex 37.6 32.1 25.6667
      vertex 34.6 -29.1 25.6667
    endloop
  endfacet
  facet normal 0 0 -1
    outer loop
      vertex -34.6 29.1 25.6667
      vertex 37.6 32.1 25.6667
      vertex 34.6 29.1 25.6667
    endloop
  endfacet
  facet normal 0 0 -1
    outer loop
      vertex -34.6 29.1 25.6667
      vertex -37.6 32.1 25.6667
      vertex 37.6 32.1 25.6667
    endloop
  endfacet
  facet normal 0 0 -1
    outer loop
      vertex -37.6 32.1 25.6667
      vertex -34.6 29.1 25.6667
      vertex -37.6 -32.1 25.6667
    endloop
  endfacet
  facet normal 0 -1 0
    outer loop
      vertex -37.6 -32.1 25.6667
      vertex 37.6 -32.1 56.6667
      vertex -37.6 -32.1 56.6667
    endloop
  endfacet
  facet normal 0 -1 -0
    outer loop
      vertex 37.6 -32.1 56.6667
      vertex -37.6 -32.1 25.6667
      vertex 37.6 -32.1 25.6667
    endloop
  endfacet
  facet normal 1 -0 0
    outer loop
      vertex -34.6 -29.1 56.6667
      vertex -34.6 29.1 25.6667
      vertex -34.6 29.1 56.6667
    endloop
  endfacet
  facet normal 1 0 0
    outer loop
      vertex -34.6 29.1 25.6667
      vertex -34.6 -29.1 56.6667
      vertex -34.6 -29.1 25.6667
    endloop
  endfacet
  facet normal -1 0 0
    outer loop
      vertex 34.6 -29.1 25.6667
      vertex 34.6 29.1 56.6667
      vertex 34.6 29.1 25.6667
    endloop
  endfacet
  facet normal -1 -0 0
    outer loop
      vertex 34.6 29.1 56.6667
      vertex 34.6 -29.1 25.6667
      vertex 34.6 -29.1 56.6667
    endloop
  endfacet
  facet normal 0 -1 0
    outer loop
      vertex -34.6 29.1 25.6667
      vertex 34.6 29.1 56.6667
      vertex -34.6 29.1 56.6667
    endloop
  endfacet
  facet normal 0 -1 -0
    outer loop
      vertex 34.6 29.1 56.6667
      vertex -34.6 29.1 25.6667
      vertex 34.6 29.1 25.6667
    endloop
  endfacet
  facet normal 0 1 -0
    outer loop
      vertex 34.6 -29.1 25.6667
      vertex -34.6 -29.1 56.6667
      vertex 34.6 -29.1 56.6667
    endloop
  endfacet
  facet normal 0 1 0
    outer loop
      vertex -34.6 -29.1 56.6667
      vertex 34.6 -29.1 25.6667
      vertex -34.6 -29.1 25.6667
    endloop
  endfacet
endsolid OpenSCAD_Model
