solid OpenSCAD_Model
  facet normal -1 0 0
    outer loop
      vertex -66 -27 5.9952e-15
      vertex -66 -27 1
      vertex -66 25 -5.55112e-15
    endloop
  endfacet
  facet normal -1 0 0
    outer loop
      vertex -66 25 -5.55112e-15
      vertex -66 -27 1
      vertex -66 25 1
    endloop
  endfacet
  facet normal 0 -1 2.22045e-16
    outer loop
      vertex -66 -27 5.9952e-15
      vertex 68 -27 5.9952e-15
      vertex 68 -27 1
    endloop
  endfacet
  facet normal 0 -1 2.22045e-16
    outer loop
      vertex -66 -27 1
      vertex -66 -27 5.9952e-15
      vertex 68 -27 1
    endloop
  endfacet
  facet normal 0 -2.22045e-16 -1
    outer loop
      vertex 68 25 -5.55112e-15
      vertex 68 -27 5.9952e-15
      vertex -66 25 -5.55112e-15
    endloop
  endfacet
  facet normal 0 -2.22045e-16 -1
    outer loop
      vertex -66 25 -5.55112e-15
      vertex 68 -27 5.9952e-15
      vertex -66 -27 5.9952e-15
    endloop
  endfacet
  facet normal 0 1 -2.22045e-16
    outer loop
      vertex -66 25 1
      vertex 68 25 1
      vertex -66 25 -5.55112e-15
    endloop
  endfacet
  facet normal 0 1 -2.22045e-16
    outer loop
      vertex -66 25 -5.55112e-15
      vertex 68 25 1
      vertex 68 25 -5.55112e-15
    endloop
  endfacet
  facet normal 0 2.22045e-16 1
    outer loop
      vertex -66 25 1
      vertex -66 -27 1
      vertex 68 -27 1
    endloop
  endfacet
  facet normal 0 2.22045e-16 1
    outer loop
      vertex 68 25 1
      vertex -66 25 1
      vertex 68 -27 1
    endloop
  endfacet
  facet normal 1 0 0
    outer loop
      vertex 68 25 -5.55112e-15
      vertex 68 25 1
      vertex 68 -27 1
    endloop
  endfacet
  facet normal 1 0 0
    outer loop
      vertex 68 -27 5.9952e-15
      vertex 68 25 -5.55112e-15
      vertex 68 -27 1
    endloop
  endfacet
endsolid OpenSCAD_Model
