solid OpenSCAD_Model
  facet normal -1 0 0
    outer loop
      vertex -24 13 -2.88658e-15
      vertex -24 2 -4.44089e-16
      vertex -24 13 1.25
    endloop
  endfacet
  facet normal -1 0 0
    outer loop
      vertex -24 13 1.25
      vertex -24 2 -4.44089e-16
      vertex -24 2 1.25
    endloop
  endfacet
  facet normal 0 -2.22045e-16 -1
    outer loop
      vertex -24 13 -2.88658e-15
      vertex 26 13 -2.88658e-15
      vertex -24 2 -4.44089e-16
    endloop
  endfacet
  facet normal 0 -2.22045e-16 -1
    outer loop
      vertex 24.8773 2 -4.44089e-16
      vertex 26 13 -2.88658e-15
      vertex 26 2 -4.44089e-16
    endloop
  endfacet
  facet normal 0 -2.22045e-16 -1
    outer loop
      vertex -24 2 -4.44089e-16
      vertex 26 13 -2.88658e-15
      vertex -22.7867 2 -4.44089e-16
    endloop
  endfacet
  facet normal 0 -2.22045e-16 -1
    outer loop
      vertex -21.5 -12.7067 2.82145e-15
      vertex 23.5 -15 3.33067e-15
      vertex -21.5 -15 3.33067e-15
    endloop
  endfacet
  facet normal 0 -2.22045e-16 -1
    outer loop
      vertex 24.8773 2 -4.44089e-16
      vertex 23.5 -13.7424 3.05142e-15
      vertex -22.7867 2 -4.44089e-16
    endloop
  endfacet
  facet normal 0 -2.22045e-16 -1
    outer loop
      vertex 24.8773 2 -4.44089e-16
      vertex -22.7867 2 -4.44089e-16
      vertex 26 13 -2.88658e-15
    endloop
  endfacet
  facet normal 0 -2.22045e-16 -1
    outer loop
      vertex -22.7867 2 -4.44089e-16
      vertex 23.5 -13.7424 3.05142e-15
      vertex 23.5 -15 3.33067e-15
    endloop
  endfacet
  facet normal 0 -2.22045e-16 -1
    outer loop
      vertex -22.7867 2 -4.44089e-16
      vertex 23.5 -15 3.33067e-15
      vertex -21.5 -12.7067 2.82145e-15
    endloop
  endfacet
  facet normal 0 1 -2.22045e-16
    outer loop
      vertex -24 13 -2.88658e-15
      vertex -24 13 1.25
      vertex 26 13 -2.88658e-15
    endloop
  endfacet
  facet normal 0 1 -2.22045e-16
    outer loop
      vertex 26 13 -2.88658e-15
      vertex -24 13 1.25
      vertex 26 13 1.25
    endloop
  endfacet
  facet normal 0 2.22045e-16 1
    outer loop
      vertex 26 13 1.25
      vertex -24 13 1.25
      vertex -24 2 1.25
    endloop
  endfacet
  facet normal 0 2.22045e-16 1
    outer loop
      vertex -21.5 -12.7067 1.25
      vertex 26 13 1.25
      vertex -22.7867 2 1.25
    endloop
  endfacet
  facet normal 0 2.22045e-16 1
    outer loop
      vertex -22.7867 2 1.25
      vertex 26 13 1.25
      vertex -24 2 1.25
    endloop
  endfacet
  facet normal 0 2.22045e-16 1
    outer loop
      vertex -21.5 -15 1.25
      vertex 26 13 1.25
      vertex -21.5 -12.7067 1.25
    endloop
  endfacet
  facet normal 0 2.22045e-16 1
    outer loop
      vertex 24.8773 2 1.25
      vertex 26 13 1.25
      vertex -21.5 -15 1.25
    endloop
  endfacet
  facet normal 0 2.22045e-16 1
    outer loop
      vertex 23.5 -15 1.25
      vertex 23.5 -13.7424 1.25
      vertex -21.5 -15 1.25
    endloop
  endfacet
  facet normal 0 2.22045e-16 1
    outer loop
      vertex 23.5 -13.7424 1.25
      vertex 24.8773 2 1.25
      vertex -21.5 -15 1.25
    endloop
  endfacet
  facet normal 0 2.22045e-16 1
    outer loop
      vertex 24.8773 2 1.25
      vertex 26 2 1.25
      vertex 26 13 1.25
    endloop
  endfacet
  facet normal 0 -1 2.22045e-16
    outer loop
      vertex -24 2 1.25
      vertex -24 2 -4.44089e-16
      vertex -22.7867 2 -4.44089e-16
    endloop
  endfacet
  facet normal 0 -1 2.22045e-16
    outer loop
      vertex -22.7867 2 1.25
      vertex -24 2 1.25
      vertex -22.7867 2 -4.44089e-16
    endloop
  endfacet
  facet normal -0.996195 -0.0871557 1.93525e-17
    outer loop
      vertex -22.7867 2 -4.44089e-16
      vertex -21.5 -12.7067 2.82145e-15
      vertex -22.7867 2 1.25
    endloop
  endfacet
  facet normal -0.996195 -0.0871557 1.93525e-17
    outer loop
      vertex -22.7867 2 1.25
      vertex -21.5 -12.7067 2.82145e-15
      vertex -21.5 -12.7067 1.25
    endloop
  endfacet
  facet normal -1 0 0
    outer loop
      vertex -21.5 -12.7067 2.82145e-15
      vertex -21.5 -15 3.33067e-15
      vertex -21.5 -12.7067 1.25
    endloop
  endfacet
  facet normal -1 0 0
    outer loop
      vertex -21.5 -12.7067 1.25
      vertex -21.5 -15 3.33067e-15
      vertex -21.5 -15 1.25
    endloop
  endfacet
  facet normal 0 -1 2.22045e-16
    outer loop
      vertex -21.5 -15 1.25
      vertex -21.5 -15 3.33067e-15
      vertex 23.5 -15 3.33067e-15
    endloop
  endfacet
  facet normal 0 -1 2.22045e-16
    outer loop
      vertex 23.5 -15 1.25
      vertex -21.5 -15 1.25
      vertex 23.5 -15 3.33067e-15
    endloop
  endfacet
  facet normal 1 0 0
    outer loop
      vertex 23.5 -15 3.33067e-15
      vertex 23.5 -13.7424 3.05142e-15
      vertex 23.5 -13.7424 1.25
    endloop
  endfacet
  facet normal 1 0 0
    outer loop
      vertex 23.5 -15 1.25
      vertex 23.5 -15 3.33067e-15
      vertex 23.5 -13.7424 1.25
    endloop
  endfacet
  facet normal 0.996195 -0.0871557 1.93525e-17
    outer loop
      vertex 23.5 -13.7424 1.25
      vertex 23.5 -13.7424 3.05142e-15
      vertex 24.8773 2 -4.44089e-16
    endloop
  endfacet
  facet normal 0.996195 -0.0871557 1.93525e-17
    outer loop
      vertex 24.8773 2 1.25
      vertex 23.5 -13.7424 1.25
      vertex 24.8773 2 -4.44089e-16
    endloop
  endfacet
  facet normal 0 -1 2.22045e-16
    outer loop
      vertex 24.8773 2 1.25
      vertex 24.8773 2 -4.44089e-16
      vertex 26 2 -4.44089e-16
    endloop
  endfacet
  facet normal 0 -1 2.22045e-16
    outer loop
      vertex 26 2 1.25
      vertex 24.8773 2 1.25
      vertex 26 2 -4.44089e-16
    endloop
  endfacet
  facet normal 1 0 0
    outer loop
      vertex 26 2 -4.44089e-16
      vertex 26 13 -2.88658e-15
      vertex 26 13 1.25
    endloop
  endfacet
  facet normal 1 0 0
    outer loop
      vertex 26 2 1.25
      vertex 26 2 -4.44089e-16
      vertex 26 13 1.25
    endloop
  endfacet
endsolid OpenSCAD_Model
