solid OpenSCAD_Model
  facet normal -1 0 0
    outer loop
      vertex 0 0 0
      vertex 0 0 21.5
      vertex 0 37 0
    endloop
  endfacet
  facet normal -1 0 0
    outer loop
      vertex 0 37 0
      vertex 0 0 21.5
      vertex 0 37 21.5
    endloop
  endfacet
  facet normal 0 -1 0
    outer loop
      vertex 4 0 2
      vertex 0 0 0
      vertex 26 0 0
    endloop
  endfacet
  facet normal 0 -1 0
    outer loop
      vertex 4 0 2
      vertex 4 0 21.5
      vertex 0 0 21.5
    endloop
  endfacet
  facet normal 0 -1 0
    outer loop
      vertex 26 0 21.5
      vertex 24 0 21.5
      vertex 26 0 0
    endloop
  endfacet
  facet normal 0 -1 0
    outer loop
      vertex 24 0 21.5
      vertex 24 0 2
      vertex 26 0 0
    endloop
  endfacet
  facet normal 0 -1 0
    outer loop
      vertex 0 0 21.5
      vertex 0 0 0
      vertex 4 0 2
    endloop
  endfacet
  facet normal 0 -1 0
    outer loop
      vertex 24 0 2
      vertex 4 0 2
      vertex 26 0 0
    endloop
  endfacet
  facet normal 0 0 -1
    outer loop
      vertex 0 0 0
      vertex 0 37 0
      vertex 26 0 0
    endloop
  endfacet
  facet normal 0 0 -1
    outer loop
      vertex 26 0 0
      vertex 0 37 0
      vertex 26 37 0
    endloop
  endfacet
  facet normal 0 1 0
    outer loop
      vertex 0 37 0
      vertex 0 37 21.5
      vertex 26 37 0
    endloop
  endfacet
  facet normal 0 1 0
    outer loop
      vertex 9 37 14.5
      vertex 0 37 21.5
      vertex 9 37 21.5
    endloop
  endfacet
  facet normal 0 1 0
    outer loop
      vertex 26 37 0
      vertex 0 37 21.5
      vertex 9 37 14.5
    endloop
  endfacet
  facet normal 0 1 0
    outer loop
      vertex 26 37 0
      vertex 18 37 14.5
      vertex 18 37 21.5
    endloop
  endfacet
  facet normal 0 1 0
    outer loop
      vertex 26 37 0
      vertex 18 37 21.5
      vertex 26 37 21.5
    endloop
  endfacet
  facet normal 0 1 0
    outer loop
      vertex 18 37 14.5
      vertex 26 37 0
      vertex 9 37 14.5
    endloop
  endfacet
  facet normal 0 0 1
    outer loop
      vertex 2 2.5 21.5
      vertex 0 0 21.5
      vertex 4 0 21.5
    endloop
  endfacet
  facet normal 0 0 1
    outer loop
      vertex 0.75 6.82 21.5
      vertex 0 0 21.5
      vertex 2 2.5 21.5
    endloop
  endfacet
  facet normal 0 0 1
    outer loop
      vertex 0.75 29.07 21.5
      vertex 2 29.07 21.5
      vertex 0 37 21.5
    endloop
  endfacet
  facet normal 0 0 1
    outer loop
      vertex 0 37 21.5
      vertex 0 0 21.5
      vertex 0.75 6.82 21.5
    endloop
  endfacet
  facet normal 0 0 1
    outer loop
      vertex 0.75 9.07 21.5
      vertex 2 9.07 21.5
      vertex 0 37 21.5
    endloop
  endfacet
  facet normal 0 0 1
    outer loop
      vertex 0 37 21.5
      vertex 0.75 6.82 21.5
      vertex 0.75 9.07 21.5
    endloop
  endfacet
  facet normal 0 0 1
    outer loop
      vertex 2 6.82 21.5
      vertex 0.75 6.82 21.5
      vertex 2 2.5 21.5
    endloop
  endfacet
  facet normal 0 0 1
    outer loop
      vertex 0 37 21.5
      vertex 2 9.07 21.5
      vertex 0.75 26.82 21.5
    endloop
  endfacet
  facet normal 0 0 1
    outer loop
      vertex 0 37 21.5
      vertex 0.75 26.82 21.5
      vertex 0.75 29.07 21.5
    endloop
  endfacet
  facet normal 0 0 1
    outer loop
      vertex 2 35 21.5
      vertex 0 37 21.5
      vertex 2 29.07 21.5
    endloop
  endfacet
  facet normal 0 0 1
    outer loop
      vertex 9 35 21.5
      vertex 0 37 21.5
      vertex 2 35 21.5
    endloop
  endfacet
  facet normal 0 0 1
    outer loop
      vertex 9 37 21.5
      vertex 0 37 21.5
      vertex 9 35 21.5
    endloop
  endfacet
  facet normal 0 0 1
    outer loop
      vertex 2 26.82 21.5
      vertex 0.75 26.82 21.5
      vertex 2 9.07 21.5
    endloop
  endfacet
  facet normal 0 0 1
    outer loop
      vertex 4 2.5 21.5
      vertex 2 2.5 21.5
      vertex 4 0 21.5
    endloop
  endfacet
  facet normal 1 0 0
    outer loop
      vertex 4 0 21.5
      vertex 4 0 2
      vertex 4 2.5 2
    endloop
  endfacet
  facet normal 1 0 0
    outer loop
      vertex 4 2.5 21.5
      vertex 4 0 21.5
      vertex 4 2.5 2
    endloop
  endfacet
  facet normal 0 0 1
    outer loop
      vertex 4 2.5 2
      vertex 4 0 2
      vertex 24 0 2
    endloop
  endfacet
  facet normal 0 0 1
    outer loop
      vertex 22 3 2
      vertex 4 2.5 2
      vertex 24 3 2
    endloop
  endfacet
  facet normal 0 0 1
    outer loop
      vertex 24 3 2
      vertex 4 2.5 2
      vertex 24 0 2
    endloop
  endfacet
  facet normal 0 0 1
    outer loop
      vertex 22 5 2
      vertex 4 2.5 2
      vertex 22 3 2
    endloop
  endfacet
  facet normal 0 0 1
    outer loop
      vertex 24 35 2
      vertex 4 2.5 2
      vertex 22 5 2
    endloop
  endfacet
  facet normal 0 0 1
    outer loop
      vertex 24 35 2
      vertex 22 5 2
      vertex 24 5 2
    endloop
  endfacet
  facet normal 0 0 1
    outer loop
      vertex 2 35 2
      vertex 4 2.5 2
      vertex 24 35 2
    endloop
  endfacet
  facet normal 0 0 1
    outer loop
      vertex 2 2.5 2
      vertex 4 2.5 2
      vertex 2 35 2
    endloop
  endfacet
  facet normal -1 0 0
    outer loop
      vertex 24 3 21.5
      vertex 24 3 2
      vertex 24 0 21.5
    endloop
  endfacet
  facet normal -1 0 0
    outer loop
      vertex 24 0 21.5
      vertex 24 3 2
      vertex 24 0 2
    endloop
  endfacet
  facet normal 0 0 1
    outer loop
      vertex 25 29.07 21.5
      vertex 26 37 21.5
      vertex 24 35 21.5
    endloop
  endfacet
  facet normal 0 0 1
    outer loop
      vertex 18 37 21.5
      vertex 18 35 21.5
      vertex 24 35 21.5
    endloop
  endfacet
  facet normal 0 0 1
    outer loop
      vertex 24 26.82 21.5
      vertex 24 9.07 21.5
      vertex 25 26.82 21.5
    endloop
  endfacet
  facet normal 0 0 1
    outer loop
      vertex 26 37 21.5
      vertex 18 37 21.5
      vertex 24 35 21.5
    endloop
  endfacet
  facet normal 0 0 1
    outer loop
      vertex 24 29.07 21.5
      vertex 25 29.07 21.5
      vertex 24 35 21.5
    endloop
  endfacet
  facet normal 0 0 1
    outer loop
      vertex 25 26.82 21.5
      vertex 26 0 21.5
      vertex 25 29.07 21.5
    endloop
  endfacet
  facet normal 0 0 1
    outer loop
      vertex 25 9.07 21.5
      vertex 26 0 21.5
      vertex 25 26.82 21.5
    endloop
  endfacet
  facet normal 0 0 1
    outer loop
      vertex 22 5 21.5
      vertex 22 3 21.5
      vertex 24 5 21.5
    endloop
  endfacet
  facet normal 0 0 1
    outer loop
      vertex 24 9.07 21.5
      vertex 25 9.07 21.5
      vertex 25 26.82 21.5
    endloop
  endfacet
  facet normal 0 0 1
    outer loop
      vertex 25 6.82 21.5
      vertex 26 0 21.5
      vertex 25 9.07 21.5
    endloop
  endfacet
  facet normal 0 0 1
    outer loop
      vertex 24 5 21.5
      vertex 24 3 21.5
      vertex 25 6.82 21.5
    endloop
  endfacet
  facet normal 0 0 1
    outer loop
      vertex 24 6.82 21.5
      vertex 24 5 21.5
      vertex 25 6.82 21.5
    endloop
  endfacet
  facet normal 0 0 1
    outer loop
      vertex 22 3 21.5
      vertex 24 3 21.5
      vertex 24 5 21.5
    endloop
  endfacet
  facet normal 0 0 1
    outer loop
      vertex 24 3 21.5
      vertex 24 0 21.5
      vertex 25 6.82 21.5
    endloop
  endfacet
  facet normal 0 0 1
    outer loop
      vertex 24 0 21.5
      vertex 26 0 21.5
      vertex 25 6.82 21.5
    endloop
  endfacet
  facet normal 0 0 1
    outer loop
      vertex 26 0 21.5
      vertex 26 37 21.5
      vertex 25 29.07 21.5
    endloop
  endfacet
  facet normal 1 0 0
    outer loop
      vertex 26 0 21.5
      vertex 26 0 0
      vertex 26 37 0
    endloop
  endfacet
  facet normal 1 0 0
    outer loop
      vertex 26 37 21.5
      vertex 26 0 21.5
      vertex 26 37 0
    endloop
  endfacet
  facet normal -1 0 0
    outer loop
      vertex 18 37 21.5
      vertex 18 37 14.5
      vertex 18 35 21.5
    endloop
  endfacet
  facet normal -1 0 0
    outer loop
      vertex 18 35 21.5
      vertex 18 37 14.5
      vertex 18 35 14.5
    endloop
  endfacet
  facet normal 0 0 1
    outer loop
      vertex 18 35 14.5
      vertex 18 37 14.5
      vertex 9 37 14.5
    endloop
  endfacet
  facet normal 0 0 1
    outer loop
      vertex 9 35 14.5
      vertex 18 35 14.5
      vertex 9 37 14.5
    endloop
  endfacet
  facet normal 1 0 0
    outer loop
      vertex 9 37 14.5
      vertex 9 37 21.5
      vertex 9 35 21.5
    endloop
  endfacet
  facet normal 1 0 0
    outer loop
      vertex 9 35 14.5
      vertex 9 37 14.5
      vertex 9 35 21.5
    endloop
  endfacet
  facet normal 0 -1 0
    outer loop
      vertex 24 35 2
      vertex 24 35 21.5
      vertex 18 35 21.5
    endloop
  endfacet
  facet normal 0 -1 0
    outer loop
      vertex 9 35 14.5
      vertex 24 35 2
      vertex 18 35 14.5
    endloop
  endfacet
  facet normal 0 -1 0
    outer loop
      vertex 18 35 14.5
      vertex 24 35 2
      vertex 18 35 21.5
    endloop
  endfacet
  facet normal 0 -1 0
    outer loop
      vertex 2 35 2
      vertex 24 35 2
      vertex 9 35 14.5
    endloop
  endfacet
  facet normal 0 -1 0
    outer loop
      vertex 2 35 21.5
      vertex 9 35 14.5
      vertex 9 35 21.5
    endloop
  endfacet
  facet normal 0 -1 0
    outer loop
      vertex 2 35 2
      vertex 9 35 14.5
      vertex 2 35 21.5
    endloop
  endfacet
  facet normal 1 0 0
    outer loop
      vertex 2 35 2
      vertex 2 35 21.5
      vertex 2 29.07 21.5
    endloop
  endfacet
  facet normal 1 0 0
    outer loop
      vertex 2 9.07 21.5
      vertex 2 35 2
      vertex 2 26.82 21.5
    endloop
  endfacet
  facet normal 1 0 0
    outer loop
      vertex 2 26.82 21.5
      vertex 2 35 2
      vertex 2 29.07 21.5
    endloop
  endfacet
  facet normal 1 0 0
    outer loop
      vertex 2 6.82 21.5
      vertex 2 35 2
      vertex 2 9.07 21.5
    endloop
  endfacet
  facet normal 1 0 0
    outer loop
      vertex 2 2.5 21.5
      vertex 2 35 2
      vertex 2 6.82 21.5
    endloop
  endfacet
  facet normal 1 0 0
    outer loop
      vertex 2 2.5 2
      vertex 2 35 2
      vertex 2 2.5 21.5
    endloop
  endfacet
  facet normal 1 0 0
    outer loop
      vertex 2 26.82 23
      vertex 2 26.82 21.5
      vertex 2 29.07 21.5
    endloop
  endfacet
  facet normal 1 0 0
    outer loop
      vertex 2 29.07 23
      vertex 2 26.82 23
      vertex 2 29.07 21.5
    endloop
  endfacet
  facet normal 0 1 0
    outer loop
      vertex 0.75 29.07 21.5
      vertex 0.75 29.07 23
      vertex 2 29.07 21.5
    endloop
  endfacet
  facet normal 0 1 0
    outer loop
      vertex 2 29.07 21.5
      vertex 0.75 29.07 23
      vertex 2 29.07 23
    endloop
  endfacet
  facet normal -1 0 0
    outer loop
      vertex 0.75 26.82 21.5
      vertex 0.75 26.82 23
      vertex 0.75 29.07 21.5
    endloop
  endfacet
  facet normal -1 0 0
    outer loop
      vertex 0.75 29.07 21.5
      vertex 0.75 26.82 23
      vertex 0.75 29.07 23
    endloop
  endfacet
  facet normal 0 -1 0
    outer loop
      vertex 0.75 26.82 23
      vertex 0.75 26.82 21.5
      vertex 2 26.82 21.5
    endloop
  endfacet
  facet normal 0 -1 0
    outer loop
      vertex 2 26.82 23
      vertex 0.75 26.82 23
      vertex 2 26.82 21.5
    endloop
  endfacet
  facet normal 1 0 0
    outer loop
      vertex 2 6.82 23
      vertex 2 6.82 21.5
      vertex 2 9.07 21.5
    endloop
  endfacet
  facet normal 1 0 0
    outer loop
      vertex 2 9.07 23
      vertex 2 6.82 23
      vertex 2 9.07 21.5
    endloop
  endfacet
  facet normal 0 1 0
    outer loop
      vertex 0.75 9.07 21.5
      vertex 0.75 9.07 23
      vertex 2 9.07 21.5
    endloop
  endfacet
  facet normal 0 1 0
    outer loop
      vertex 2 9.07 21.5
      vertex 0.75 9.07 23
      vertex 2 9.07 23
    endloop
  endfacet
  facet normal -1 0 0
    outer loop
      vertex 0.75 6.82 21.5
      vertex 0.75 6.82 23
      vertex 0.75 9.07 21.5
    endloop
  endfacet
  facet normal -1 0 0
    outer loop
      vertex 0.75 9.07 21.5
      vertex 0.75 6.82 23
      vertex 0.75 9.07 23
    endloop
  endfacet
  facet normal 0 -1 0
    outer loop
      vertex 0.75 6.82 23
      vertex 0.75 6.82 21.5
      vertex 2 6.82 21.5
    endloop
  endfacet
  facet normal 0 -1 0
    outer loop
      vertex 2 6.82 23
      vertex 0.75 6.82 23
      vertex 2 6.82 21.5
    endloop
  endfacet
  facet normal 0 1 0
    outer loop
      vertex 2 2.5 2
      vertex 2 2.5 21.5
      vertex 4 2.5 2
    endloop
  endfacet
  facet normal 0 1 0
    outer loop
      vertex 4 2.5 2
      vertex 2 2.5 21.5
      vertex 4 2.5 21.5
    endloop
  endfacet
  facet normal -1 0 0
    outer loop
      vertex 24 9.07 21.5
      vertex 24 35 2
      vertex 24 6.82 21.5
    endloop
  endfacet
  facet normal -1 0 0
    outer loop
      vertex 24 6.82 21.5
      vertex 24 35 2
      vertex 24 5 21.5
    endloop
  endfacet
  facet normal -1 0 0
    outer loop
      vertex 24 26.82 21.5
      vertex 24 35 2
      vertex 24 9.07 21.5
    endloop
  endfacet
  facet normal -1 0 0
    outer loop
      vertex 24 29.07 21.5
      vertex 24 35 2
      vertex 24 26.82 21.5
    endloop
  endfacet
  facet normal -1 0 0
    outer loop
      vertex 24 35 21.5
      vertex 24 35 2
      vertex 24 29.07 21.5
    endloop
  endfacet
  facet normal -1 0 0
    outer loop
      vertex 24 5 21.5
      vertex 24 35 2
      vertex 24 5 2
    endloop
  endfacet
  facet normal 0 1 0
    outer loop
      vertex 22 5 2
      vertex 22 5 21.5
      vertex 24 5 2
    endloop
  endfacet
  facet normal 0 1 0
    outer loop
      vertex 24 5 2
      vertex 22 5 21.5
      vertex 24 5 21.5
    endloop
  endfacet
  facet normal -1 0 0
    outer loop
      vertex 22 3 2
      vertex 22 3 21.5
      vertex 22 5 2
    endloop
  endfacet
  facet normal -1 0 0
    outer loop
      vertex 22 5 2
      vertex 22 3 21.5
      vertex 22 5 21.5
    endloop
  endfacet
  facet normal 0 -1 0
    outer loop
      vertex 22 3 21.5
      vertex 22 3 2
      vertex 24 3 2
    endloop
  endfacet
  facet normal 0 -1 0
    outer loop
      vertex 24 3 21.5
      vertex 22 3 21.5
      vertex 24 3 2
    endloop
  endfacet
  facet normal 0 0 -1
    outer loop
      vertex 24 9.07 21.5
      vertex 24 6.82 21.5
      vertex 23.75 9.07 21.5
    endloop
  endfacet
  facet normal 0 0 -1
    outer loop
      vertex 23.75 9.07 21.5
      vertex 24 6.82 21.5
      vertex 23.75 6.82 21.5
    endloop
  endfacet
  facet normal 0 -1 0
    outer loop
      vertex 23.75 6.82 23
      vertex 23.75 6.82 21.5
      vertex 24 6.82 21.5
    endloop
  endfacet
  facet normal 0 -1 0
    outer loop
      vertex 25 6.82 23
      vertex 23.75 6.82 23
      vertex 25 6.82 21.5
    endloop
  endfacet
  facet normal 0 -1 0
    outer loop
      vertex 25 6.82 21.5
      vertex 23.75 6.82 23
      vertex 24 6.82 21.5
    endloop
  endfacet
  facet normal 1 0 0
    outer loop
      vertex 25 6.82 23
      vertex 25 6.82 21.5
      vertex 25 9.07 21.5
    endloop
  endfacet
  facet normal 1 0 0
    outer loop
      vertex 25 9.07 23
      vertex 25 6.82 23
      vertex 25 9.07 21.5
    endloop
  endfacet
  facet normal 0 1 0
    outer loop
      vertex 23.75 9.07 21.5
      vertex 23.75 9.07 23
      vertex 24 9.07 21.5
    endloop
  endfacet
  facet normal 0 1 0
    outer loop
      vertex 24 9.07 21.5
      vertex 23.75 9.07 23
      vertex 25 9.07 23
    endloop
  endfacet
  facet normal 0 1 0
    outer loop
      vertex 24 9.07 21.5
      vertex 25 9.07 23
      vertex 25 9.07 21.5
    endloop
  endfacet
  facet normal 0 0 -1
    outer loop
      vertex 24 29.07 21.5
      vertex 24 26.82 21.5
      vertex 23.75 29.07 21.5
    endloop
  endfacet
  facet normal 0 0 -1
    outer loop
      vertex 23.75 29.07 21.5
      vertex 24 26.82 21.5
      vertex 23.75 26.82 21.5
    endloop
  endfacet
  facet normal 0 -1 0
    outer loop
      vertex 23.75 26.82 23
      vertex 23.75 26.82 21.5
      vertex 24 26.82 21.5
    endloop
  endfacet
  facet normal 0 -1 0
    outer loop
      vertex 25 26.82 23
      vertex 23.75 26.82 23
      vertex 25 26.82 21.5
    endloop
  endfacet
  facet normal 0 -1 0
    outer loop
      vertex 25 26.82 21.5
      vertex 23.75 26.82 23
      vertex 24 26.82 21.5
    endloop
  endfacet
  facet normal 1 0 0
    outer loop
      vertex 25 26.82 23
      vertex 25 26.82 21.5
      vertex 25 29.07 21.5
    endloop
  endfacet
  facet normal 1 0 0
    outer loop
      vertex 25 29.07 23
      vertex 25 26.82 23
      vertex 25 29.07 21.5
    endloop
  endfacet
  facet normal 0 1 0
    outer loop
      vertex 23.75 29.07 21.5
      vertex 23.75 29.07 23
      vertex 24 29.07 21.5
    endloop
  endfacet
  facet normal 0 1 0
    outer loop
      vertex 24 29.07 21.5
      vertex 23.75 29.07 23
      vertex 25 29.07 23
    endloop
  endfacet
  facet normal 0 1 0
    outer loop
      vertex 24 29.07 21.5
      vertex 25 29.07 23
      vertex 25 29.07 21.5
    endloop
  endfacet
  facet normal 0 0 1
    outer loop
      vertex 0.75 29.07 23
      vertex 0.75 26.82 23
      vertex 2 26.82 23
    endloop
  endfacet
  facet normal 0 0 1
    outer loop
      vertex 2 29.07 23
      vertex 0.75 29.07 23
      vertex 2 26.82 23
    endloop
  endfacet
  facet normal 0 0 1
    outer loop
      vertex 0.75 9.07 23
      vertex 0.75 6.82 23
      vertex 2 6.82 23
    endloop
  endfacet
  facet normal 0 0 1
    outer loop
      vertex 2 9.07 23
      vertex 0.75 9.07 23
      vertex 2 6.82 23
    endloop
  endfacet
  facet normal -1 0 0
    outer loop
      vertex 23.75 6.82 21.5
      vertex 23.75 6.82 23
      vertex 23.75 9.07 21.5
    endloop
  endfacet
  facet normal -1 0 0
    outer loop
      vertex 23.75 9.07 21.5
      vertex 23.75 6.82 23
      vertex 23.75 9.07 23
    endloop
  endfacet
  facet normal 0 0 1
    outer loop
      vertex 23.75 9.07 23
      vertex 23.75 6.82 23
      vertex 25 6.82 23
    endloop
  endfacet
  facet normal 0 0 1
    outer loop
      vertex 25 9.07 23
      vertex 23.75 9.07 23
      vertex 25 6.82 23
    endloop
  endfacet
  facet normal -1 0 0
    outer loop
      vertex 23.75 26.82 21.5
      vertex 23.75 26.82 23
      vertex 23.75 29.07 21.5
    endloop
  endfacet
  facet normal -1 0 0
    outer loop
      vertex 23.75 29.07 21.5
      vertex 23.75 26.82 23
      vertex 23.75 29.07 23
    endloop
  endfacet
  facet normal 0 0 1
    outer loop
      vertex 23.75 29.07 23
      vertex 23.75 26.82 23
      vertex 25 26.82 23
    endloop
  endfacet
  facet normal 0 0 1
    outer loop
      vertex 25 29.07 23
      vertex 23.75 29.07 23
      vertex 25 26.82 23
    endloop
  endfacet
endsolid OpenSCAD_Model
