solid OpenSCAD_Model
  facet normal -1 0 0
    outer loop
      vertex 0 0 0
      vertex 0 0 21.5
      vertex 0 37 0
    endloop
  endfacet
  facet normal -1 0 0
    outer loop
      vertex 0 37 0
      vertex 0 0 21.5
      vertex 0 37 21.5
    endloop
  endfacet
  facet normal 0 -1 0
    outer loop
      vertex 4 0 2
      vertex 0 0 0
      vertex 26 0 0
    endloop
  endfacet
  facet normal 0 -1 0
    outer loop
      vertex 4 0 2
      vertex 4 0 21.5
      vertex 0 0 21.5
    endloop
  endfacet
  facet normal 0 -1 0
    outer loop
      vertex 26 0 21.5
      vertex 24 0 21.5
      vertex 26 0 0
    endloop
  endfacet
  facet normal 0 -1 0
    outer loop
      vertex 24 0 21.5
      vertex 24 0 2
      vertex 26 0 0
    endloop
  endfacet
  facet normal 0 -1 0
    outer loop
      vertex 0 0 21.5
      vertex 0 0 0
      vertex 4 0 2
    endloop
  endfacet
  facet normal 0 -1 0
    outer loop
      vertex 24 0 2
      vertex 4 0 2
      vertex 26 0 0
    endloop
  endfacet
  facet normal 0 0 -1
    outer loop
      vertex 0 0 0
      vertex 0 37 0
      vertex 26 0 0
    endloop
  endfacet
  facet normal 0 0 -1
    outer loop
      vertex 26 0 0
      vertex 0 37 0
      vertex 26 37 0
    endloop
  endfacet
  facet normal 0 1 0
    outer loop
      vertex 0 37 0
      vertex 0 37 21.5
      vertex 26 37 0
    endloop
  endfacet
  facet normal 0 1 0
    outer loop
      vertex 9 37 14.5
      vertex 0 37 21.5
      vertex 9 37 21.5
    endloop
  endfacet
  facet normal 0 1 0
    outer loop
      vertex 26 37 0
      vertex 0 37 21.5
      vertex 9 37 14.5
    endloop
  endfacet
  facet normal 0 1 0
    outer loop
      vertex 26 37 0
      vertex 17 37 14.5
      vertex 17 37 21.5
    endloop
  endfacet
  facet normal 0 1 0
    outer loop
      vertex 26 37 0
      vertex 17 37 21.5
      vertex 26 37 21.5
    endloop
  endfacet
  facet normal 0 1 0
    outer loop
      vertex 17 37 14.5
      vertex 26 37 0
      vertex 9 37 14.5
    endloop
  endfacet
  facet normal 0 0 1
    outer loop
      vertex 2 2.5 21.5
      vertex 0 0 21.5
      vertex 4 0 21.5
    endloop
  endfacet
  facet normal 0 0 1
    outer loop
      vertex 0.5 26.82 21.5
      vertex 0.5 29.07 21.5
      vertex 0 37 21.5
    endloop
  endfacet
  facet normal 0 0 1
    outer loop
      vertex 0.5 6.82 21.5
      vertex 0 0 21.5
      vertex 2 2.5 21.5
    endloop
  endfacet
  facet normal 0 0 1
    outer loop
      vertex 2 26.82 21.5
      vertex 0.5 26.82 21.5
      vertex 2 9.07 21.5
    endloop
  endfacet
  facet normal 0 0 1
    outer loop
      vertex 0 37 21.5
      vertex 0 0 21.5
      vertex 0.5 6.82 21.5
    endloop
  endfacet
  facet normal 0 0 1
    outer loop
      vertex 0.5 29.07 21.5
      vertex 2 29.07 21.5
      vertex 0 37 21.5
    endloop
  endfacet
  facet normal 0 0 1
    outer loop
      vertex 0 37 21.5
      vertex 0.5 6.82 21.5
      vertex 0.5 9.07 21.5
    endloop
  endfacet
  facet normal 0 0 1
    outer loop
      vertex 0 37 21.5
      vertex 0.5 9.07 21.5
      vertex 0.5 26.82 21.5
    endloop
  endfacet
  facet normal 0 0 1
    outer loop
      vertex 0.5 9.07 21.5
      vertex 2 9.07 21.5
      vertex 0.5 26.82 21.5
    endloop
  endfacet
  facet normal 0 0 1
    outer loop
      vertex 2 35 21.5
      vertex 0 37 21.5
      vertex 2 29.07 21.5
    endloop
  endfacet
  facet normal 0 0 1
    outer loop
      vertex 9 35 21.5
      vertex 0 37 21.5
      vertex 2 35 21.5
    endloop
  endfacet
  facet normal 0 0 1
    outer loop
      vertex 9 37 21.5
      vertex 0 37 21.5
      vertex 9 35 21.5
    endloop
  endfacet
  facet normal 0 0 1
    outer loop
      vertex 4 2.5 21.5
      vertex 2 2.5 21.5
      vertex 4 0 21.5
    endloop
  endfacet
  facet normal 0 0 1
    outer loop
      vertex 2 6.82 21.5
      vertex 0.5 6.82 21.5
      vertex 2 2.5 21.5
    endloop
  endfacet
  facet normal 1 0 0
    outer loop
      vertex 4 0 21.5
      vertex 4 0 2
      vertex 4 2.5 2
    endloop
  endfacet
  facet normal 1 0 0
    outer loop
      vertex 4 2.5 21.5
      vertex 4 0 21.5
      vertex 4 2.5 2
    endloop
  endfacet
  facet normal 0 0 1
    outer loop
      vertex 4 2.5 2
      vertex 4 0 2
      vertex 24 0 2
    endloop
  endfacet
  facet normal 0 0 1
    outer loop
      vertex 22 3 2
      vertex 4 2.5 2
      vertex 24 3 2
    endloop
  endfacet
  facet normal 0 0 1
    outer loop
      vertex 24 3 2
      vertex 4 2.5 2
      vertex 24 0 2
    endloop
  endfacet
  facet normal 0 0 1
    outer loop
      vertex 22 5 2
      vertex 4 2.5 2
      vertex 22 3 2
    endloop
  endfacet
  facet normal 0 0 1
    outer loop
      vertex 24 35 2
      vertex 4 2.5 2
      vertex 22 5 2
    endloop
  endfacet
  facet normal 0 0 1
    outer loop
      vertex 24 35 2
      vertex 22 5 2
      vertex 24 5 2
    endloop
  endfacet
  facet normal 0 0 1
    outer loop
      vertex 2 35 2
      vertex 4 2.5 2
      vertex 24 35 2
    endloop
  endfacet
  facet normal 0 0 1
    outer loop
      vertex 2 2.5 2
      vertex 4 2.5 2
      vertex 2 35 2
    endloop
  endfacet
  facet normal -1 0 0
    outer loop
      vertex 24 3 21.5
      vertex 24 3 2
      vertex 24 0 21.5
    endloop
  endfacet
  facet normal -1 0 0
    outer loop
      vertex 24 0 21.5
      vertex 24 3 2
      vertex 24 0 2
    endloop
  endfacet
  facet normal 0 0 1
    outer loop
      vertex 25 29.07 21.5
      vertex 26 37 21.5
      vertex 24 35 21.5
    endloop
  endfacet
  facet normal 0 0 1
    outer loop
      vertex 17 37 21.5
      vertex 17 35 21.5
      vertex 24 35 21.5
    endloop
  endfacet
  facet normal 0 0 1
    outer loop
      vertex 24 26.82 21.5
      vertex 24 9.07 21.5
      vertex 25 26.82 21.5
    endloop
  endfacet
  facet normal 0 0 1
    outer loop
      vertex 26 37 21.5
      vertex 17 37 21.5
      vertex 24 35 21.5
    endloop
  endfacet
  facet normal 0 0 1
    outer loop
      vertex 24 29.07 21.5
      vertex 25 29.07 21.5
      vertex 24 35 21.5
    endloop
  endfacet
  facet normal 0 0 1
    outer loop
      vertex 25 26.82 21.5
      vertex 26 0 21.5
      vertex 25 29.07 21.5
    endloop
  endfacet
  facet normal 0 0 1
    outer loop
      vertex 25 9.07 21.5
      vertex 26 0 21.5
      vertex 25 26.82 21.5
    endloop
  endfacet
  facet normal 0 0 1
    outer loop
      vertex 22 5 21.5
      vertex 22 3 21.5
      vertex 24 5 21.5
    endloop
  endfacet
  facet normal 0 0 1
    outer loop
      vertex 24 9.07 21.5
      vertex 25 9.07 21.5
      vertex 25 26.82 21.5
    endloop
  endfacet
  facet normal 0 0 1
    outer loop
      vertex 25 6.82 21.5
      vertex 26 0 21.5
      vertex 25 9.07 21.5
    endloop
  endfacet
  facet normal 0 0 1
    outer loop
      vertex 24 5 21.5
      vertex 24 3 21.5
      vertex 25 6.82 21.5
    endloop
  endfacet
  facet normal 0 0 1
    outer loop
      vertex 24 6.82 21.5
      vertex 24 5 21.5
      vertex 25 6.82 21.5
    endloop
  endfacet
  facet normal 0 0 1
    outer loop
      vertex 22 3 21.5
      vertex 24 3 21.5
      vertex 24 5 21.5
    endloop
  endfacet
  facet normal 0 0 1
    outer loop
      vertex 24 3 21.5
      vertex 24 0 21.5
      vertex 25 6.82 21.5
    endloop
  endfacet
  facet normal 0 0 1
    outer loop
      vertex 24 0 21.5
      vertex 26 0 21.5
      vertex 25 6.82 21.5
    endloop
  endfacet
  facet normal 0 0 1
    outer loop
      vertex 26 0 21.5
      vertex 26 37 21.5
      vertex 25 29.07 21.5
    endloop
  endfacet
  facet normal 1 0 0
    outer loop
      vertex 26 0 21.5
      vertex 26 0 0
      vertex 26 37 0
    endloop
  endfacet
  facet normal 1 0 0
    outer loop
      vertex 26 37 21.5
      vertex 26 0 21.5
      vertex 26 37 0
    endloop
  endfacet
  facet normal -1 0 0
    outer loop
      vertex 17 37 21.5
      vertex 17 37 14.5
      vertex 17 35 21.5
    endloop
  endfacet
  facet normal -1 0 0
    outer loop
      vertex 17 35 21.5
      vertex 17 37 14.5
      vertex 17 35 14.5
    endloop
  endfacet
  facet normal 0 0 1
    outer loop
      vertex 17 35 14.5
      vertex 17 37 14.5
      vertex 9 37 14.5
    endloop
  endfacet
  facet normal 0 0 1
    outer loop
      vertex 9 35 14.5
      vertex 17 35 14.5
      vertex 9 37 14.5
    endloop
  endfacet
  facet normal 1 0 0
    outer loop
      vertex 9 37 14.5
      vertex 9 37 21.5
      vertex 9 35 21.5
    endloop
  endfacet
  facet normal 1 0 0
    outer loop
      vertex 9 35 14.5
      vertex 9 37 14.5
      vertex 9 35 21.5
    endloop
  endfacet
  facet normal 0 -1 0
    outer loop
      vertex 24 35 2
      vertex 24 35 21.5
      vertex 17 35 21.5
    endloop
  endfacet
  facet normal 0 -1 0
    outer loop
      vertex 9 35 14.5
      vertex 24 35 2
      vertex 17 35 14.5
    endloop
  endfacet
  facet normal 0 -1 0
    outer loop
      vertex 17 35 14.5
      vertex 24 35 2
      vertex 17 35 21.5
    endloop
  endfacet
  facet normal 0 -1 0
    outer loop
      vertex 2 35 2
      vertex 24 35 2
      vertex 9 35 14.5
    endloop
  endfacet
  facet normal 0 -1 0
    outer loop
      vertex 2 35 21.5
      vertex 9 35 14.5
      vertex 9 35 21.5
    endloop
  endfacet
  facet normal 0 -1 0
    outer loop
      vertex 2 35 2
      vertex 9 35 14.5
      vertex 2 35 21.5
    endloop
  endfacet
  facet normal 1 0 0
    outer loop
      vertex 2 35 2
      vertex 2 35 21.5
      vertex 2 29.07 21.5
    endloop
  endfacet
  facet normal 1 0 0
    outer loop
      vertex 2 9.07 21.5
      vertex 2 35 2
      vertex 2 26.82 21.5
    endloop
  endfacet
  facet normal 1 0 0
    outer loop
      vertex 2 26.82 21.5
      vertex 2 35 2
      vertex 2 29.07 21.5
    endloop
  endfacet
  facet normal 1 0 0
    outer loop
      vertex 2 6.82 21.5
      vertex 2 35 2
      vertex 2 9.07 21.5
    endloop
  endfacet
  facet normal 1 0 0
    outer loop
      vertex 2 2.5 21.5
      vertex 2 35 2
      vertex 2 6.82 21.5
    endloop
  endfacet
  facet normal 1 0 0
    outer loop
      vertex 2 2.5 2
      vertex 2 35 2
      vertex 2 2.5 21.5
    endloop
  endfacet
  facet normal 1 0 0
    outer loop
      vertex 2 26.82 23
      vertex 2 26.82 21.5
      vertex 2 29.07 21.5
    endloop
  endfacet
  facet normal 1 0 0
    outer loop
      vertex 2 29.07 23
      vertex 2 26.82 23
      vertex 2 29.07 21.5
    endloop
  endfacet
  facet normal 0 1 0
    outer loop
      vertex 0.5 29.07 21.5
      vertex 0.5 29.07 23
      vertex 2 29.07 21.5
    endloop
  endfacet
  facet normal 0 1 0
    outer loop
      vertex 2 29.07 21.5
      vertex 0.5 29.07 23
      vertex 2 29.07 23
    endloop
  endfacet
  facet normal -1 0 0
    outer loop
      vertex 0.5 26.82 21.5
      vertex 0.5 26.82 23
      vertex 0.5 29.07 21.5
    endloop
  endfacet
  facet normal -1 0 0
    outer loop
      vertex 0.5 29.07 21.5
      vertex 0.5 26.82 23
      vertex 0.5 29.07 23
    endloop
  endfacet
  facet normal 0 -1 0
    outer loop
      vertex 0.5 26.82 23
      vertex 0.5 26.82 21.5
      vertex 2 26.82 21.5
    endloop
  endfacet
  facet normal 0 -1 0
    outer loop
      vertex 2 26.82 23
      vertex 0.5 26.82 23
      vertex 2 26.82 21.5
    endloop
  endfacet
  facet normal 1 0 0
    outer loop
      vertex 2 6.82 23
      vertex 2 6.82 21.5
      vertex 2 9.07 21.5
    endloop
  endfacet
  facet normal 1 0 0
    outer loop
      vertex 2 9.07 23
      vertex 2 6.82 23
      vertex 2 9.07 21.5
    endloop
  endfacet
  facet normal 0 1 0
    outer loop
      vertex 0.5 9.07 21.5
      vertex 0.5 9.07 23
      vertex 2 9.07 21.5
    endloop
  endfacet
  facet normal 0 1 0
    outer loop
      vertex 2 9.07 21.5
      vertex 0.5 9.07 23
      vertex 2 9.07 23
    endloop
  endfacet
  facet normal -1 0 0
    outer loop
      vertex 0.5 6.82 21.5
      vertex 0.5 6.82 23
      vertex 0.5 9.07 21.5
    endloop
  endfacet
  facet normal -1 0 0
    outer loop
      vertex 0.5 9.07 21.5
      vertex 0.5 6.82 23
      vertex 0.5 9.07 23
    endloop
  endfacet
  facet normal 0 -1 0
    outer loop
      vertex 0.5 6.82 23
      vertex 0.5 6.82 21.5
      vertex 2 6.82 21.5
    endloop
  endfacet
  facet normal 0 -1 0
    outer loop
      vertex 2 6.82 23
      vertex 0.5 6.82 23
      vertex 2 6.82 21.5
    endloop
  endfacet
  facet normal 0 1 0
    outer loop
      vertex 2 2.5 2
      vertex 2 2.5 21.5
      vertex 4 2.5 2
    endloop
  endfacet
  facet normal 0 1 0
    outer loop
      vertex 4 2.5 2
      vertex 2 2.5 21.5
      vertex 4 2.5 21.5
    endloop
  endfacet
  facet normal -1 0 0
    outer loop
      vertex 24 9.07 21.5
      vertex 24 35 2
      vertex 24 6.82 21.5
    endloop
  endfacet
  facet normal -1 0 0
    outer loop
      vertex 24 6.82 21.5
      vertex 24 35 2
      vertex 24 5 21.5
    endloop
  endfacet
  facet normal -1 0 0
    outer loop
      vertex 24 26.82 21.5
      vertex 24 35 2
      vertex 24 9.07 21.5
    endloop
  endfacet
  facet normal -1 0 0
    outer loop
      vertex 24 29.07 21.5
      vertex 24 35 2
      vertex 24 26.82 21.5
    endloop
  endfacet
  facet normal -1 0 0
    outer loop
      vertex 24 35 21.5
      vertex 24 35 2
      vertex 24 29.07 21.5
    endloop
  endfacet
  facet normal -1 0 0
    outer loop
      vertex 24 5 21.5
      vertex 24 35 2
      vertex 24 5 2
    endloop
  endfacet
  facet normal 0 1 0
    outer loop
      vertex 22 5 2
      vertex 22 5 21.5
      vertex 24 5 2
    endloop
  endfacet
  facet normal 0 1 0
    outer loop
      vertex 24 5 2
      vertex 22 5 21.5
      vertex 24 5 21.5
    endloop
  endfacet
  facet normal -1 0 0
    outer loop
      vertex 22 3 2
      vertex 22 3 21.5
      vertex 22 5 2
    endloop
  endfacet
  facet normal -1 0 0
    outer loop
      vertex 22 5 2
      vertex 22 3 21.5
      vertex 22 5 21.5
    endloop
  endfacet
  facet normal 0 -1 0
    outer loop
      vertex 22 3 21.5
      vertex 22 3 2
      vertex 24 3 2
    endloop
  endfacet
  facet normal 0 -1 0
    outer loop
      vertex 24 3 21.5
      vertex 22 3 21.5
      vertex 24 3 2
    endloop
  endfacet
  facet normal 0 0 -1
    outer loop
      vertex 24 9.07 21.5
      vertex 24 6.82 21.5
      vertex 23.5 9.07 21.5
    endloop
  endfacet
  facet normal 0 0 -1
    outer loop
      vertex 23.5 9.07 21.5
      vertex 24 6.82 21.5
      vertex 23.5 6.82 21.5
    endloop
  endfacet
  facet normal 0 -1 0
    outer loop
      vertex 23.5 6.82 23
      vertex 23.5 6.82 21.5
      vertex 24 6.82 21.5
    endloop
  endfacet
  facet normal 0 -1 0
    outer loop
      vertex 25 6.82 23
      vertex 23.5 6.82 23
      vertex 25 6.82 21.5
    endloop
  endfacet
  facet normal 0 -1 0
    outer loop
      vertex 25 6.82 21.5
      vertex 23.5 6.82 23
      vertex 24 6.82 21.5
    endloop
  endfacet
  facet normal 1 0 0
    outer loop
      vertex 25 6.82 23
      vertex 25 6.82 21.5
      vertex 25 9.07 21.5
    endloop
  endfacet
  facet normal 1 0 0
    outer loop
      vertex 25 9.07 23
      vertex 25 6.82 23
      vertex 25 9.07 21.5
    endloop
  endfacet
  facet normal 0 1 0
    outer loop
      vertex 23.5 9.07 21.5
      vertex 23.5 9.07 23
      vertex 24 9.07 21.5
    endloop
  endfacet
  facet normal 0 1 0
    outer loop
      vertex 24 9.07 21.5
      vertex 23.5 9.07 23
      vertex 25 9.07 23
    endloop
  endfacet
  facet normal 0 1 0
    outer loop
      vertex 24 9.07 21.5
      vertex 25 9.07 23
      vertex 25 9.07 21.5
    endloop
  endfacet
  facet normal 0 0 -1
    outer loop
      vertex 24 29.07 21.5
      vertex 24 26.82 21.5
      vertex 23.5 29.07 21.5
    endloop
  endfacet
  facet normal 0 0 -1
    outer loop
      vertex 23.5 29.07 21.5
      vertex 24 26.82 21.5
      vertex 23.5 26.82 21.5
    endloop
  endfacet
  facet normal 0 -1 0
    outer loop
      vertex 23.5 26.82 23
      vertex 23.5 26.82 21.5
      vertex 24 26.82 21.5
    endloop
  endfacet
  facet normal 0 -1 0
    outer loop
      vertex 25 26.82 23
      vertex 23.5 26.82 23
      vertex 25 26.82 21.5
    endloop
  endfacet
  facet normal 0 -1 0
    outer loop
      vertex 25 26.82 21.5
      vertex 23.5 26.82 23
      vertex 24 26.82 21.5
    endloop
  endfacet
  facet normal 1 0 0
    outer loop
      vertex 25 26.82 23
      vertex 25 26.82 21.5
      vertex 25 29.07 21.5
    endloop
  endfacet
  facet normal 1 0 0
    outer loop
      vertex 25 29.07 23
      vertex 25 26.82 23
      vertex 25 29.07 21.5
    endloop
  endfacet
  facet normal 0 1 0
    outer loop
      vertex 23.5 29.07 21.5
      vertex 23.5 29.07 23
      vertex 24 29.07 21.5
    endloop
  endfacet
  facet normal 0 1 0
    outer loop
      vertex 24 29.07 21.5
      vertex 23.5 29.07 23
      vertex 25 29.07 23
    endloop
  endfacet
  facet normal 0 1 0
    outer loop
      vertex 24 29.07 21.5
      vertex 25 29.07 23
      vertex 25 29.07 21.5
    endloop
  endfacet
  facet normal 0 0 1
    outer loop
      vertex 0.5 29.07 23
      vertex 0.5 26.82 23
      vertex 2 26.82 23
    endloop
  endfacet
  facet normal 0 0 1
    outer loop
      vertex 2 29.07 23
      vertex 0.5 29.07 23
      vertex 2 26.82 23
    endloop
  endfacet
  facet normal 0 0 1
    outer loop
      vertex 0.5 9.07 23
      vertex 0.5 6.82 23
      vertex 2 6.82 23
    endloop
  endfacet
  facet normal 0 0 1
    outer loop
      vertex 2 9.07 23
      vertex 0.5 9.07 23
      vertex 2 6.82 23
    endloop
  endfacet
  facet normal -1 0 0
    outer loop
      vertex 23.5 6.82 21.5
      vertex 23.5 6.82 23
      vertex 23.5 9.07 21.5
    endloop
  endfacet
  facet normal -1 0 0
    outer loop
      vertex 23.5 9.07 21.5
      vertex 23.5 6.82 23
      vertex 23.5 9.07 23
    endloop
  endfacet
  facet normal 0 0 1
    outer loop
      vertex 23.5 9.07 23
      vertex 23.5 6.82 23
      vertex 25 6.82 23
    endloop
  endfacet
  facet normal 0 0 1
    outer loop
      vertex 25 9.07 23
      vertex 23.5 9.07 23
      vertex 25 6.82 23
    endloop
  endfacet
  facet normal -1 0 0
    outer loop
      vertex 23.5 26.82 21.5
      vertex 23.5 26.82 23
      vertex 23.5 29.07 21.5
    endloop
  endfacet
  facet normal -1 0 0
    outer loop
      vertex 23.5 29.07 21.5
      vertex 23.5 26.82 23
      vertex 23.5 29.07 23
    endloop
  endfacet
  facet normal 0 0 1
    outer loop
      vertex 23.5 29.07 23
      vertex 23.5 26.82 23
      vertex 25 26.82 23
    endloop
  endfacet
  facet normal 0 0 1
    outer loop
      vertex 25 29.07 23
      vertex 23.5 29.07 23
      vertex 25 26.82 23
    endloop
  endfacet
  facet normal -1 0 0
    outer loop
      vertex -30 0 0
      vertex -30 4.89859e-16 4
      vertex -30 37 -4.53119e-15
    endloop
  endfacet
  facet normal -1 0 0
    outer loop
      vertex -30 37 -4.53119e-15
      vertex -30 4.89859e-16 4
      vertex -30 37 4
    endloop
  endfacet
  facet normal 0 -1 1.22465e-16
    outer loop
      vertex -30 4.89859e-16 4
      vertex -30 0 0
      vertex -4 0 0
    endloop
  endfacet
  facet normal 0 -1 1.22465e-16
    outer loop
      vertex -4 4.89859e-16 4
      vertex -30 4.89859e-16 4
      vertex -4 0 0
    endloop
  endfacet
  facet normal 0 -1.22465e-16 -1
    outer loop
      vertex -30 0 0
      vertex -30 37 -4.53119e-15
      vertex -4 0 0
    endloop
  endfacet
  facet normal 0 -1.22465e-16 -1
    outer loop
      vertex -4 0 0
      vertex -30 37 -4.53119e-15
      vertex -4 37 -4.53119e-15
    endloop
  endfacet
  facet normal 0 1 -1.22465e-16
    outer loop
      vertex -30 37 -4.53119e-15
      vertex -30 37 4
      vertex -4 37 -4.53119e-15
    endloop
  endfacet
  facet normal 0 1 -1.22465e-16
    outer loop
      vertex -4 37 -4.53119e-15
      vertex -30 37 4
      vertex -21 37 4
    endloop
  endfacet
  facet normal 0 1 -1.22465e-16
    outer loop
      vertex -4 37 -4.53119e-15
      vertex -21 37 4
      vertex -21 37 6
    endloop
  endfacet
  facet normal 0 1 -1.22465e-16
    outer loop
      vertex -13 37 4
      vertex -21 37 6
      vertex -13 37 6
    endloop
  endfacet
  facet normal 0 1 -1.22465e-16
    outer loop
      vertex -4 37 -4.53119e-15
      vertex -21 37 6
      vertex -13 37 4
    endloop
  endfacet
  facet normal 0 1 -1.22465e-16
    outer loop
      vertex -4 37 4
      vertex -4 37 -4.53119e-15
      vertex -13 37 4
    endloop
  endfacet
  facet normal 0 1.22465e-16 1
    outer loop
      vertex -6 2 4
      vertex -30 4.89859e-16 4
      vertex -4 4.89859e-16 4
    endloop
  endfacet
  facet normal 0 1.22465e-16 1
    outer loop
      vertex -28 27.08 4
      vertex -29.5 27.08 4
      vertex -28 8.88 4
    endloop
  endfacet
  facet normal 0 1.22465e-16 1
    outer loop
      vertex -6 28.88 4
      vertex -4.5 28.88 4
      vertex -6 35 4
    endloop
  endfacet
  facet normal 0 1.22465e-16 1
    outer loop
      vertex -28 7.08 4
      vertex -29.5 7.08 4
      vertex -28 2 4
    endloop
  endfacet
  facet normal 0 1.22465e-16 1
    outer loop
      vertex -4 37 4
      vertex -13 37 4
      vertex -6 35 4
    endloop
  endfacet
  facet normal 0 1.22465e-16 1
    outer loop
      vertex -4.5 27.08 4
      vertex -6 27.08 4
      vertex -4.5 8.88 4
    endloop
  endfacet
  facet normal 0 1.22465e-16 1
    outer loop
      vertex -6 8.88 4
      vertex -4.5 8.88 4
      vertex -6 27.08 4
    endloop
  endfacet
  facet normal 0 1.22465e-16 1
    outer loop
      vertex -4 37 4
      vertex -4.5 28.88 4
      vertex -4 4.89859e-16 4
    endloop
  endfacet
  facet normal 0 1.22465e-16 1
    outer loop
      vertex -4 37 4
      vertex -6 35 4
      vertex -4.5 28.88 4
    endloop
  endfacet
  facet normal 0 1.22465e-16 1
    outer loop
      vertex -4.5 28.88 4
      vertex -4.5 27.08 4
      vertex -4 4.89859e-16 4
    endloop
  endfacet
  facet normal 0 1.22465e-16 1
    outer loop
      vertex -4.5 7.08 4
      vertex -6 7.08 4
      vertex -4 4.89859e-16 4
    endloop
  endfacet
  facet normal 0 1.22465e-16 1
    outer loop
      vertex -4.5 27.08 4
      vertex -4.5 8.88 4
      vertex -4 4.89859e-16 4
    endloop
  endfacet
  facet normal 0 1.22465e-16 1
    outer loop
      vertex -4.5 8.88 4
      vertex -4.5 7.08 4
      vertex -4 4.89859e-16 4
    endloop
  endfacet
  facet normal 0 1.22465e-16 1
    outer loop
      vertex -21 35 4
      vertex -21 37 4
      vertex -30 37 4
    endloop
  endfacet
  facet normal 0 1.22465e-16 1
    outer loop
      vertex -29.5 27.08 4
      vertex -29.5 28.88 4
      vertex -30 37 4
    endloop
  endfacet
  facet normal 0 1.22465e-16 1
    outer loop
      vertex -28 2 4
      vertex -30 4.89859e-16 4
      vertex -6 2 4
    endloop
  endfacet
  facet normal 0 1.22465e-16 1
    outer loop
      vertex -29.5 7.08 4
      vertex -30 4.89859e-16 4
      vertex -28 2 4
    endloop
  endfacet
  facet normal 0 1.22465e-16 1
    outer loop
      vertex -30 37 4
      vertex -30 4.89859e-16 4
      vertex -29.5 7.08 4
    endloop
  endfacet
  facet normal 0 1.22465e-16 1
    outer loop
      vertex -29.5 28.88 4
      vertex -28 28.88 4
      vertex -30 37 4
    endloop
  endfacet
  facet normal 0 1.22465e-16 1
    outer loop
      vertex -30 37 4
      vertex -29.5 7.08 4
      vertex -29.5 8.88 4
    endloop
  endfacet
  facet normal 0 1.22465e-16 1
    outer loop
      vertex -28 28.88 4
      vertex -28 35 4
      vertex -30 37 4
    endloop
  endfacet
  facet normal 0 1.22465e-16 1
    outer loop
      vertex -30 37 4
      vertex -29.5 8.88 4
      vertex -29.5 27.08 4
    endloop
  endfacet
  facet normal 0 1.22465e-16 1
    outer loop
      vertex -29.5 8.88 4
      vertex -28 8.88 4
      vertex -29.5 27.08 4
    endloop
  endfacet
  facet normal 0 1.22465e-16 1
    outer loop
      vertex -21 35 4
      vertex -30 37 4
      vertex -28 35 4
    endloop
  endfacet
  facet normal 0 1.22465e-16 1
    outer loop
      vertex -6 7.08 4
      vertex -6 2 4
      vertex -4 4.89859e-16 4
    endloop
  endfacet
  facet normal 0 1.22465e-16 1
    outer loop
      vertex -13 35 4
      vertex -6 35 4
      vertex -13 37 4
    endloop
  endfacet
  facet normal 1 0 0
    outer loop
      vertex -4 4.89859e-16 4
      vertex -4 0 0
      vertex -4 37 -4.53119e-15
    endloop
  endfacet
  facet normal 1 0 0
    outer loop
      vertex -4 37 4
      vertex -4 4.89859e-16 4
      vertex -4 37 -4.53119e-15
    endloop
  endfacet
  facet normal 1 0 0
    outer loop
      vertex -13 35 6
      vertex -13 35 4
      vertex -13 37 4
    endloop
  endfacet
  facet normal 1 0 0
    outer loop
      vertex -13 37 6
      vertex -13 35 6
      vertex -13 37 4
    endloop
  endfacet
  facet normal 0 1.22465e-16 1
    outer loop
      vertex -21 37 6
      vertex -21 35 6
      vertex -13 35 6
    endloop
  endfacet
  facet normal 0 1.22465e-16 1
    outer loop
      vertex -13 37 6
      vertex -21 37 6
      vertex -13 35 6
    endloop
  endfacet
  facet normal -1 0 0
    outer loop
      vertex -21 35 4
      vertex -21 35 6
      vertex -21 37 4
    endloop
  endfacet
  facet normal -1 0 0
    outer loop
      vertex -21 37 4
      vertex -21 35 6
      vertex -21 37 6
    endloop
  endfacet
  facet normal 0 -1 1.22465e-16
    outer loop
      vertex -21 35 6
      vertex -21 35 4
      vertex -13 35 4
    endloop
  endfacet
  facet normal 0 -1 1.22465e-16
    outer loop
      vertex -13 35 6
      vertex -21 35 6
      vertex -13 35 4
    endloop
  endfacet
  facet normal 0 -1 1.22465e-16
    outer loop
      vertex -6 35 1
      vertex -6 35 4
      vertex -13 35 4
    endloop
  endfacet
  facet normal 0 -1 1.22465e-16
    outer loop
      vertex -28 35 4
      vertex -6 35 1
      vertex -21 35 4
    endloop
  endfacet
  facet normal 0 -1 1.22465e-16
    outer loop
      vertex -21 35 4
      vertex -6 35 1
      vertex -13 35 4
    endloop
  endfacet
  facet normal 0 -1 1.22465e-16
    outer loop
      vertex -28 35 1
      vertex -6 35 1
      vertex -28 35 4
    endloop
  endfacet
  facet normal 1 0 0
    outer loop
      vertex -28 35 1
      vertex -28 35 4
      vertex -28 28.88 4
    endloop
  endfacet
  facet normal 1 0 0
    outer loop
      vertex -28 27.08 2.5
      vertex -28 35 1
      vertex -28 28.88 2.5
    endloop
  endfacet
  facet normal 1 0 0
    outer loop
      vertex -28 28.88 2.5
      vertex -28 35 1
      vertex -28 28.88 4
    endloop
  endfacet
  facet normal 1 0 0
    outer loop
      vertex -28 8.88 4
      vertex -28 35 1
      vertex -28 27.08 2.5
    endloop
  endfacet
  facet normal 1 0 0
    outer loop
      vertex -28 8.88 4
      vertex -28 27.08 2.5
      vertex -28 27.08 4
    endloop
  endfacet
  facet normal 1 0 0
    outer loop
      vertex -28 8.88 2.5
      vertex -28 35 1
      vertex -28 8.88 4
    endloop
  endfacet
  facet normal 1 0 0
    outer loop
      vertex -28 7.08 2.5
      vertex -28 35 1
      vertex -28 8.88 2.5
    endloop
  endfacet
  facet normal 1 0 0
    outer loop
      vertex -28 2 1
      vertex -28 35 1
      vertex -28 7.08 2.5
    endloop
  endfacet
  facet normal 1 0 0
    outer loop
      vertex -28 2 4
      vertex -28 7.08 2.5
      vertex -28 7.08 4
    endloop
  endfacet
  facet normal 1 0 0
    outer loop
      vertex -28 2 1
      vertex -28 7.08 2.5
      vertex -28 2 4
    endloop
  endfacet
  facet normal 0 -1 1.22465e-16
    outer loop
      vertex -28 28.88 2.5
      vertex -28 28.88 4
      vertex -29.5 28.88 4
    endloop
  endfacet
  facet normal 0 -1 1.22465e-16
    outer loop
      vertex -29.5 28.88 2.5
      vertex -28 28.88 2.5
      vertex -29.5 28.88 4
    endloop
  endfacet
  facet normal 1 0 0
    outer loop
      vertex -29.5 28.88 2.5
      vertex -29.5 28.88 4
      vertex -29.5 27.08 4
    endloop
  endfacet
  facet normal 1 0 0
    outer loop
      vertex -29.5 27.08 2.5
      vertex -29.5 28.88 2.5
      vertex -29.5 27.08 4
    endloop
  endfacet
  facet normal 0 1 -1.22465e-16
    outer loop
      vertex -28 27.08 4
      vertex -28 27.08 2.5
      vertex -29.5 27.08 4
    endloop
  endfacet
  facet normal 0 1 -1.22465e-16
    outer loop
      vertex -29.5 27.08 4
      vertex -28 27.08 2.5
      vertex -29.5 27.08 2.5
    endloop
  endfacet
  facet normal 0 -1 1.22465e-16
    outer loop
      vertex -28 8.88 2.5
      vertex -28 8.88 4
      vertex -29.5 8.88 4
    endloop
  endfacet
  facet normal 0 -1 1.22465e-16
    outer loop
      vertex -29.5 8.88 2.5
      vertex -28 8.88 2.5
      vertex -29.5 8.88 4
    endloop
  endfacet
  facet normal 1 0 0
    outer loop
      vertex -29.5 8.88 2.5
      vertex -29.5 8.88 4
      vertex -29.5 7.08 4
    endloop
  endfacet
  facet normal 1 0 0
    outer loop
      vertex -29.5 7.08 2.5
      vertex -29.5 8.88 2.5
      vertex -29.5 7.08 4
    endloop
  endfacet
  facet normal 0 1 -1.22465e-16
    outer loop
      vertex -28 7.08 4
      vertex -28 7.08 2.5
      vertex -29.5 7.08 4
    endloop
  endfacet
  facet normal 0 1 -1.22465e-16
    outer loop
      vertex -29.5 7.08 4
      vertex -28 7.08 2.5
      vertex -29.5 7.08 2.5
    endloop
  endfacet
  facet normal 0 1 -1.22465e-16
    outer loop
      vertex -6 2 4
      vertex -6 2 1
      vertex -28 2 4
    endloop
  endfacet
  facet normal 0 1 -1.22465e-16
    outer loop
      vertex -28 2 4
      vertex -6 2 1
      vertex -28 2 1
    endloop
  endfacet
  facet normal -1 0 0
    outer loop
      vertex -6 7.08 4
      vertex -6 7.08 2.5
      vertex -6 2 4
    endloop
  endfacet
  facet normal -1 0 0
    outer loop
      vertex -6 2 1
      vertex -6 7.08 2.5
      vertex -6 35 1
    endloop
  endfacet
  facet normal -1 0 0
    outer loop
      vertex -6 27.08 4
      vertex -6 8.88 2.5
      vertex -6 8.88 4
    endloop
  endfacet
  facet normal -1 0 0
    outer loop
      vertex -6 27.08 2.5
      vertex -6 8.88 2.5
      vertex -6 27.08 4
    endloop
  endfacet
  facet normal -1 0 0
    outer loop
      vertex -6 7.08 2.5
      vertex -6 8.88 2.5
      vertex -6 35 1
    endloop
  endfacet
  facet normal -1 0 0
    outer loop
      vertex -6 8.88 2.5
      vertex -6 27.08 2.5
      vertex -6 35 1
    endloop
  endfacet
  facet normal -1 0 0
    outer loop
      vertex -6 35 4
      vertex -6 28.88 2.5
      vertex -6 28.88 4
    endloop
  endfacet
  facet normal -1 0 0
    outer loop
      vertex -6 35 1
      vertex -6 28.88 2.5
      vertex -6 35 4
    endloop
  endfacet
  facet normal -1 0 0
    outer loop
      vertex -6 27.08 2.5
      vertex -6 28.88 2.5
      vertex -6 35 1
    endloop
  endfacet
  facet normal -1 0 0
    outer loop
      vertex -6 2 4
      vertex -6 7.08 2.5
      vertex -6 2 1
    endloop
  endfacet
  facet normal 0 1 -1.22465e-16
    outer loop
      vertex -4.5 7.08 4
      vertex -4.5 7.08 2.5
      vertex -6 7.08 4
    endloop
  endfacet
  facet normal 0 1 -1.22465e-16
    outer loop
      vertex -6 7.08 4
      vertex -4.5 7.08 2.5
      vertex -6 7.08 2.5
    endloop
  endfacet
  facet normal -1 0 0
    outer loop
      vertex -4.5 8.88 4
      vertex -4.5 8.88 2.5
      vertex -4.5 7.08 4
    endloop
  endfacet
  facet normal -1 0 0
    outer loop
      vertex -4.5 7.08 4
      vertex -4.5 8.88 2.5
      vertex -4.5 7.08 2.5
    endloop
  endfacet
  facet normal 0 -1 1.22465e-16
    outer loop
      vertex -4.5 8.88 2.5
      vertex -4.5 8.88 4
      vertex -6 8.88 4
    endloop
  endfacet
  facet normal 0 -1 1.22465e-16
    outer loop
      vertex -6 8.88 2.5
      vertex -4.5 8.88 2.5
      vertex -6 8.88 4
    endloop
  endfacet
  facet normal 0 1 -1.22465e-16
    outer loop
      vertex -4.5 27.08 4
      vertex -4.5 27.08 2.5
      vertex -6 27.08 4
    endloop
  endfacet
  facet normal 0 1 -1.22465e-16
    outer loop
      vertex -6 27.08 4
      vertex -4.5 27.08 2.5
      vertex -6 27.08 2.5
    endloop
  endfacet
  facet normal -1 0 0
    outer loop
      vertex -4.5 28.88 4
      vertex -4.5 28.88 2.5
      vertex -4.5 27.08 4
    endloop
  endfacet
  facet normal -1 0 0
    outer loop
      vertex -4.5 27.08 4
      vertex -4.5 28.88 2.5
      vertex -4.5 27.08 2.5
    endloop
  endfacet
  facet normal 0 -1 1.22465e-16
    outer loop
      vertex -4.5 28.88 2.5
      vertex -4.5 28.88 4
      vertex -6 28.88 4
    endloop
  endfacet
  facet normal 0 -1 1.22465e-16
    outer loop
      vertex -6 28.88 2.5
      vertex -4.5 28.88 2.5
      vertex -6 28.88 4
    endloop
  endfacet
  facet normal 0 1.22465e-16 1
    outer loop
      vertex -6 2 1
      vertex -6 35 1
      vertex -28 35 1
    endloop
  endfacet
  facet normal 0 1.22465e-16 1
    outer loop
      vertex -28 2 1
      vertex -6 2 1
      vertex -28 35 1
    endloop
  endfacet
  facet normal 0 1.22465e-16 1
    outer loop
      vertex -28 7.08 2.5
      vertex -28 8.88 2.5
      vertex -29.5 8.88 2.5
    endloop
  endfacet
  facet normal 0 1.22465e-16 1
    outer loop
      vertex -29.5 7.08 2.5
      vertex -28 7.08 2.5
      vertex -29.5 8.88 2.5
    endloop
  endfacet
  facet normal 0 1.22465e-16 1
    outer loop
      vertex -28 27.08 2.5
      vertex -28 28.88 2.5
      vertex -29.5 28.88 2.5
    endloop
  endfacet
  facet normal 0 1.22465e-16 1
    outer loop
      vertex -29.5 27.08 2.5
      vertex -28 27.08 2.5
      vertex -29.5 28.88 2.5
    endloop
  endfacet
  facet normal 0 1.22465e-16 1
    outer loop
      vertex -4.5 27.08 2.5
      vertex -4.5 28.88 2.5
      vertex -6 28.88 2.5
    endloop
  endfacet
  facet normal 0 1.22465e-16 1
    outer loop
      vertex -6 27.08 2.5
      vertex -4.5 27.08 2.5
      vertex -6 28.88 2.5
    endloop
  endfacet
  facet normal 0 1.22465e-16 1
    outer loop
      vertex -4.5 7.08 2.5
      vertex -4.5 8.88 2.5
      vertex -6 8.88 2.5
    endloop
  endfacet
  facet normal 0 1.22465e-16 1
    outer loop
      vertex -6 7.08 2.5
      vertex -4.5 7.08 2.5
      vertex -6 8.88 2.5
    endloop
  endfacet
endsolid OpenSCAD_Model
