solid OpenSCAD_Model
  facet normal -1 0 0
    outer loop
      vertex 0 0 0
      vertex 0 0 20
      vertex 0 36 0
    endloop
  endfacet
  facet normal -1 0 0
    outer loop
      vertex 0 36 0
      vertex 0 0 20
      vertex 0 8 20
    endloop
  endfacet
  facet normal -1 0 0
    outer loop
      vertex 0 10 20
      vertex 0 8 20
      vertex 0 8 23
    endloop
  endfacet
  facet normal -1 0 0
    outer loop
      vertex 0 36 0
      vertex 0 8 20
      vertex 0 10 20
    endloop
  endfacet
  facet normal -1 0 0
    outer loop
      vertex 0 28 20
      vertex 0 36 0
      vertex 0 10 20
    endloop
  endfacet
  facet normal -1 0 0
    outer loop
      vertex 0 36 20
      vertex 0 36 0
      vertex 0 30 20
    endloop
  endfacet
  facet normal -1 0 0
    outer loop
      vertex 0 36 0
      vertex 0 28 20
      vertex 0 28 23
    endloop
  endfacet
  facet normal -1 0 0
    outer loop
      vertex 0 30 20
      vertex 0 28 23
      vertex 0 30 23
    endloop
  endfacet
  facet normal -1 0 0
    outer loop
      vertex 0 36 0
      vertex 0 28 23
      vertex 0 30 20
    endloop
  endfacet
  facet normal -1 0 0
    outer loop
      vertex 0 10 20
      vertex 0 8 23
      vertex 0 10 23
    endloop
  endfacet
  facet normal 0 -1 0
    outer loop
      vertex 2 0 2
      vertex 0 0 0
      vertex 26 0 0
    endloop
  endfacet
  facet normal 0 -1 0
    outer loop
      vertex 2 0 2
      vertex 2 0 20
      vertex 0 0 20
    endloop
  endfacet
  facet normal 0 -1 0
    outer loop
      vertex 26 0 20
      vertex 24 0 20
      vertex 26 0 0
    endloop
  endfacet
  facet normal 0 -1 0
    outer loop
      vertex 24 0 20
      vertex 24 0 2
      vertex 26 0 0
    endloop
  endfacet
  facet normal 0 -1 0
    outer loop
      vertex 0 0 20
      vertex 0 0 0
      vertex 2 0 2
    endloop
  endfacet
  facet normal 0 -1 0
    outer loop
      vertex 24 0 2
      vertex 2 0 2
      vertex 26 0 0
    endloop
  endfacet
  facet normal 0 0 -1
    outer loop
      vertex 0 0 0
      vertex 0 36 0
      vertex 26 0 0
    endloop
  endfacet
  facet normal 0 0 -1
    outer loop
      vertex 26 0 0
      vertex 0 36 0
      vertex 26 36 0
    endloop
  endfacet
  facet normal 0 1 0
    outer loop
      vertex 19 36 13.3333
      vertex 26 36 0
      vertex 7 36 13.3333
    endloop
  endfacet
  facet normal 0 1 0
    outer loop
      vertex 0 36 0
      vertex 0 36 20
      vertex 7 36 13.3333
    endloop
  endfacet
  facet normal 0 1 0
    outer loop
      vertex 0 36 0
      vertex 7 36 13.3333
      vertex 26 36 0
    endloop
  endfacet
  facet normal 0 1 0
    outer loop
      vertex 26 36 0
      vertex 19 36 13.3333
      vertex 19 36 20
    endloop
  endfacet
  facet normal 0 1 0
    outer loop
      vertex 26 36 0
      vertex 19 36 20
      vertex 26 36 20
    endloop
  endfacet
  facet normal 0 1 0
    outer loop
      vertex 7 36 13.3333
      vertex 0 36 20
      vertex 7 36 20
    endloop
  endfacet
  facet normal 0 0 1
    outer loop
      vertex 0 36 20
      vertex 0 30 20
      vertex 2 30 20
    endloop
  endfacet
  facet normal 0 0 1
    outer loop
      vertex 7 34 20
      vertex 0 36 20
      vertex 2 34 20
    endloop
  endfacet
  facet normal 0 0 1
    outer loop
      vertex 2 34 20
      vertex 0 36 20
      vertex 2 30 20
    endloop
  endfacet
  facet normal 0 0 1
    outer loop
      vertex 7 36 20
      vertex 0 36 20
      vertex 7 34 20
    endloop
  endfacet
  facet normal 0 1 0
    outer loop
      vertex 0 30 20
      vertex 0 30 23
      vertex 2 30 20
    endloop
  endfacet
  facet normal 0 1 0
    outer loop
      vertex 2 30 20
      vertex 0 30 23
      vertex 2 30 23
    endloop
  endfacet
  facet normal 0 0 1
    outer loop
      vertex 0 30 23
      vertex 0 28 23
      vertex 2 28 23
    endloop
  endfacet
  facet normal 0 0 1
    outer loop
      vertex 2 30 23
      vertex 0 30 23
      vertex 2 28 23
    endloop
  endfacet
  facet normal 0 -1 0
    outer loop
      vertex 0 28 23
      vertex 0 28 20
      vertex 2 28 20
    endloop
  endfacet
  facet normal 0 -1 0
    outer loop
      vertex 2 28 23
      vertex 0 28 23
      vertex 2 28 20
    endloop
  endfacet
  facet normal 0 0 1
    outer loop
      vertex 0 28 20
      vertex 0 10 20
      vertex 2 10 20
    endloop
  endfacet
  facet normal 0 0 1
    outer loop
      vertex 2 28 20
      vertex 0 28 20
      vertex 2 10 20
    endloop
  endfacet
  facet normal 0 1 0
    outer loop
      vertex 0 10 20
      vertex 0 10 23
      vertex 2 10 20
    endloop
  endfacet
  facet normal 0 1 0
    outer loop
      vertex 2 10 20
      vertex 0 10 23
      vertex 2 10 23
    endloop
  endfacet
  facet normal 0 0 1
    outer loop
      vertex 0 10 23
      vertex 0 8 23
      vertex 2 8 23
    endloop
  endfacet
  facet normal 0 0 1
    outer loop
      vertex 2 10 23
      vertex 0 10 23
      vertex 2 8 23
    endloop
  endfacet
  facet normal 0 -1 0
    outer loop
      vertex 0 8 23
      vertex 0 8 20
      vertex 2 8 20
    endloop
  endfacet
  facet normal 0 -1 0
    outer loop
      vertex 2 8 23
      vertex 0 8 23
      vertex 2 8 20
    endloop
  endfacet
  facet normal 0 0 1
    outer loop
      vertex 0 8 20
      vertex 0 0 20
      vertex 2 0 20
    endloop
  endfacet
  facet normal 0 0 1
    outer loop
      vertex 2 8 20
      vertex 0 8 20
      vertex 2 0 20
    endloop
  endfacet
  facet normal 1 0 0
    outer loop
      vertex 2 34 2
      vertex 2 34 20
      vertex 2 30 20
    endloop
  endfacet
  facet normal 1 0 0
    outer loop
      vertex 2 10 20
      vertex 2 34 2
      vertex 2 28 20
    endloop
  endfacet
  facet normal 1 0 0
    outer loop
      vertex 2 28 20
      vertex 2 34 2
      vertex 2 30 20
    endloop
  endfacet
  facet normal 1 0 0
    outer loop
      vertex 2 8 20
      vertex 2 34 2
      vertex 2 10 20
    endloop
  endfacet
  facet normal 1 0 0
    outer loop
      vertex 2 0 20
      vertex 2 34 2
      vertex 2 8 20
    endloop
  endfacet
  facet normal 1 0 0
    outer loop
      vertex 2 0 2
      vertex 2 34 2
      vertex 2 0 20
    endloop
  endfacet
  facet normal 0 0 1
    outer loop
      vertex 24 0 2
      vertex 24 34 2
      vertex 2 34 2
    endloop
  endfacet
  facet normal 0 0 1
    outer loop
      vertex 2 0 2
      vertex 24 0 2
      vertex 2 34 2
    endloop
  endfacet
  facet normal -1 0 0
    outer loop
      vertex 24 10 20
      vertex 24 34 2
      vertex 24 8 20
    endloop
  endfacet
  facet normal -1 0 0
    outer loop
      vertex 24 8 20
      vertex 24 34 2
      vertex 24 0 20
    endloop
  endfacet
  facet normal -1 0 0
    outer loop
      vertex 24 28 20
      vertex 24 34 2
      vertex 24 10 20
    endloop
  endfacet
  facet normal -1 0 0
    outer loop
      vertex 24 30 20
      vertex 24 34 2
      vertex 24 28 20
    endloop
  endfacet
  facet normal -1 0 0
    outer loop
      vertex 24 34 20
      vertex 24 34 2
      vertex 24 30 20
    endloop
  endfacet
  facet normal -1 0 0
    outer loop
      vertex 24 0 20
      vertex 24 34 2
      vertex 24 0 2
    endloop
  endfacet
  facet normal 0 0 1
    outer loop
      vertex 24 8 20
      vertex 24 0 20
      vertex 26 0 20
    endloop
  endfacet
  facet normal 0 0 1
    outer loop
      vertex 26 8 20
      vertex 24 8 20
      vertex 26 0 20
    endloop
  endfacet
  facet normal 1 0 0
    outer loop
      vertex 26 0 20
      vertex 26 0 0
      vertex 26 36 0
    endloop
  endfacet
  facet normal 1 0 0
    outer loop
      vertex 26 28 20
      vertex 26 10 20
      vertex 26 36 0
    endloop
  endfacet
  facet normal 1 0 0
    outer loop
      vertex 26 30 20
      vertex 26 28 20
      vertex 26 36 0
    endloop
  endfacet
  facet normal 1 0 0
    outer loop
      vertex 26 36 20
      vertex 26 30 20
      vertex 26 36 0
    endloop
  endfacet
  facet normal 1 0 0
    outer loop
      vertex 26 30 23
      vertex 26 28 20
      vertex 26 30 20
    endloop
  endfacet
  facet normal 1 0 0
    outer loop
      vertex 26 10 20
      vertex 26 8 20
      vertex 26 36 0
    endloop
  endfacet
  facet normal 1 0 0
    outer loop
      vertex 26 8 20
      vertex 26 0 20
      vertex 26 36 0
    endloop
  endfacet
  facet normal 1 0 0
    outer loop
      vertex 26 10 20
      vertex 26 10 23
      vertex 26 8 20
    endloop
  endfacet
  facet normal 1 0 0
    outer loop
      vertex 26 8 23
      vertex 26 8 20
      vertex 26 10 23
    endloop
  endfacet
  facet normal 1 0 0
    outer loop
      vertex 26 28 23
      vertex 26 28 20
      vertex 26 30 23
    endloop
  endfacet
  facet normal 0 0 1
    outer loop
      vertex 19 36 20
      vertex 19 34 20
      vertex 24 34 20
    endloop
  endfacet
  facet normal 0 0 1
    outer loop
      vertex 26 36 20
      vertex 19 36 20
      vertex 24 34 20
    endloop
  endfacet
  facet normal 0 0 1
    outer loop
      vertex 24 30 20
      vertex 26 30 20
      vertex 24 34 20
    endloop
  endfacet
  facet normal 0 0 1
    outer loop
      vertex 26 30 20
      vertex 26 36 20
      vertex 24 34 20
    endloop
  endfacet
  facet normal -1 0 0
    outer loop
      vertex 19 36 20
      vertex 19 36 13.3333
      vertex 19 34 20
    endloop
  endfacet
  facet normal -1 0 0
    outer loop
      vertex 19 34 20
      vertex 19 36 13.3333
      vertex 19 34 13.3333
    endloop
  endfacet
  facet normal 0 0 1
    outer loop
      vertex 19 34 13.3333
      vertex 19 36 13.3333
      vertex 7 36 13.3333
    endloop
  endfacet
  facet normal 0 0 1
    outer loop
      vertex 7 34 13.3333
      vertex 19 34 13.3333
      vertex 7 36 13.3333
    endloop
  endfacet
  facet normal 1 0 0
    outer loop
      vertex 7 36 13.3333
      vertex 7 36 20
      vertex 7 34 20
    endloop
  endfacet
  facet normal 1 0 0
    outer loop
      vertex 7 34 13.3333
      vertex 7 36 13.3333
      vertex 7 34 20
    endloop
  endfacet
  facet normal 0 -1 0
    outer loop
      vertex 24 34 2
      vertex 24 34 20
      vertex 19 34 20
    endloop
  endfacet
  facet normal 0 -1 0
    outer loop
      vertex 7 34 13.3333
      vertex 24 34 2
      vertex 19 34 13.3333
    endloop
  endfacet
  facet normal 0 -1 0
    outer loop
      vertex 19 34 13.3333
      vertex 24 34 2
      vertex 19 34 20
    endloop
  endfacet
  facet normal 0 -1 0
    outer loop
      vertex 2 34 2
      vertex 24 34 2
      vertex 7 34 13.3333
    endloop
  endfacet
  facet normal 0 -1 0
    outer loop
      vertex 2 34 20
      vertex 7 34 13.3333
      vertex 7 34 20
    endloop
  endfacet
  facet normal 0 -1 0
    outer loop
      vertex 2 34 2
      vertex 7 34 13.3333
      vertex 2 34 20
    endloop
  endfacet
  facet normal 1 0 0
    outer loop
      vertex 2 28 23
      vertex 2 28 20
      vertex 2 30 20
    endloop
  endfacet
  facet normal 1 0 0
    outer loop
      vertex 2 30 23
      vertex 2 28 23
      vertex 2 30 20
    endloop
  endfacet
  facet normal 1 0 0
    outer loop
      vertex 2 8 23
      vertex 2 8 20
      vertex 2 10 20
    endloop
  endfacet
  facet normal 1 0 0
    outer loop
      vertex 2 10 23
      vertex 2 8 23
      vertex 2 10 20
    endloop
  endfacet
  facet normal -1 0 0
    outer loop
      vertex 24 28 20
      vertex 24 28 23
      vertex 24 30 20
    endloop
  endfacet
  facet normal -1 0 0
    outer loop
      vertex 24 30 20
      vertex 24 28 23
      vertex 24 30 23
    endloop
  endfacet
  facet normal 0 1 0
    outer loop
      vertex 24 30 20
      vertex 24 30 23
      vertex 26 30 20
    endloop
  endfacet
  facet normal 0 1 0
    outer loop
      vertex 26 30 20
      vertex 24 30 23
      vertex 26 30 23
    endloop
  endfacet
  facet normal 0 0 1
    outer loop
      vertex 24 28 20
      vertex 24 10 20
      vertex 26 10 20
    endloop
  endfacet
  facet normal 0 0 1
    outer loop
      vertex 26 28 20
      vertex 24 28 20
      vertex 26 10 20
    endloop
  endfacet
  facet normal 0 -1 0
    outer loop
      vertex 24 28 23
      vertex 24 28 20
      vertex 26 28 20
    endloop
  endfacet
  facet normal 0 -1 0
    outer loop
      vertex 26 28 23
      vertex 24 28 23
      vertex 26 28 20
    endloop
  endfacet
  facet normal -1 0 0
    outer loop
      vertex 24 8 20
      vertex 24 8 23
      vertex 24 10 20
    endloop
  endfacet
  facet normal -1 0 0
    outer loop
      vertex 24 10 20
      vertex 24 8 23
      vertex 24 10 23
    endloop
  endfacet
  facet normal 0 1 0
    outer loop
      vertex 24 10 20
      vertex 24 10 23
      vertex 26 10 20
    endloop
  endfacet
  facet normal 0 1 0
    outer loop
      vertex 26 10 20
      vertex 24 10 23
      vertex 26 10 23
    endloop
  endfacet
  facet normal 0 -1 0
    outer loop
      vertex 24 8 23
      vertex 24 8 20
      vertex 26 8 20
    endloop
  endfacet
  facet normal 0 -1 0
    outer loop
      vertex 26 8 23
      vertex 24 8 23
      vertex 26 8 20
    endloop
  endfacet
  facet normal 0 0 1
    outer loop
      vertex 24 10 23
      vertex 24 8 23
      vertex 26 8 23
    endloop
  endfacet
  facet normal 0 0 1
    outer loop
      vertex 26 10 23
      vertex 24 10 23
      vertex 26 8 23
    endloop
  endfacet
  facet normal 0 0 1
    outer loop
      vertex 24 30 23
      vertex 24 28 23
      vertex 26 28 23
    endloop
  endfacet
  facet normal 0 0 1
    outer loop
      vertex 26 30 23
      vertex 24 30 23
      vertex 26 28 23
    endloop
  endfacet
  facet normal -1 0 0
    outer loop
      vertex -30 -28 4
      vertex -30 -10 1
      vertex -30 -28 1
    endloop
  endfacet
  facet normal -1 0 0
    outer loop
      vertex -30 -36 4.40873e-15
      vertex -30 -36 4
      vertex -30 -30 1
    endloop
  endfacet
  facet normal -1 0 0
    outer loop
      vertex -30 -36 4.40873e-15
      vertex -30 -30 1
      vertex -30 0 0
    endloop
  endfacet
  facet normal -1 0 0
    outer loop
      vertex -30 -30 1
      vertex -30 -28 1
      vertex -30 0 0
    endloop
  endfacet
  facet normal -1 0 0
    outer loop
      vertex -30 -10 1
      vertex -30 -28 4
      vertex -30 -10 4
    endloop
  endfacet
  facet normal -1 0 0
    outer loop
      vertex -30 -8 4
      vertex -30 0 0
      vertex -30 -8 1
    endloop
  endfacet
  facet normal -1 0 0
    outer loop
      vertex -30 -28 1
      vertex -30 -10 1
      vertex -30 0 0
    endloop
  endfacet
  facet normal -1 0 0
    outer loop
      vertex -30 0 0
      vertex -30 -8 4
      vertex -30 4.89859e-16 4
    endloop
  endfacet
  facet normal -1 0 0
    outer loop
      vertex -30 -30 1
      vertex -30 -36 4
      vertex -30 -30 4
    endloop
  endfacet
  facet normal -1 0 0
    outer loop
      vertex -30 -8 1
      vertex -30 0 0
      vertex -30 -10 1
    endloop
  endfacet
  facet normal 0 -1 1.22465e-16
    outer loop
      vertex -30 -36 4
      vertex -30 -36 4.40873e-15
      vertex -4 -36 4.40873e-15
    endloop
  endfacet
  facet normal 0 -1 1.22465e-16
    outer loop
      vertex -4 -36 4
      vertex -30 -36 4
      vertex -4 -36 4.40873e-15
    endloop
  endfacet
  facet normal 0 -1.22465e-16 -1
    outer loop
      vertex -30 -36 4.40873e-15
      vertex -30 0 0
      vertex -4 -36 4.40873e-15
    endloop
  endfacet
  facet normal 0 -1.22465e-16 -1
    outer loop
      vertex -4 -36 4.40873e-15
      vertex -30 0 0
      vertex -4 0 0
    endloop
  endfacet
  facet normal 0 1 -1.22465e-16
    outer loop
      vertex -30 0 0
      vertex -30 4.89859e-16 4
      vertex -4 0 0
    endloop
  endfacet
  facet normal 0 1 -1.22465e-16
    outer loop
      vertex -4 0 0
      vertex -30 4.89859e-16 4
      vertex -4 4.89859e-16 4
    endloop
  endfacet
  facet normal 0 1.22465e-16 1
    outer loop
      vertex -30 4.89859e-16 4
      vertex -30 -8 4
      vertex -28 -8 4
    endloop
  endfacet
  facet normal 0 1.22465e-16 1
    outer loop
      vertex -6 -2 4
      vertex -30 4.89859e-16 4
      vertex -28 -2 4
    endloop
  endfacet
  facet normal 0 1.22465e-16 1
    outer loop
      vertex -28 -2 4
      vertex -30 4.89859e-16 4
      vertex -28 -8 4
    endloop
  endfacet
  facet normal 0 1.22465e-16 1
    outer loop
      vertex -4 4.89859e-16 4
      vertex -30 4.89859e-16 4
      vertex -6 -2 4
    endloop
  endfacet
  facet normal 0 1.22465e-16 1
    outer loop
      vertex -4 -8 4
      vertex -6 -2 4
      vertex -6 -8 4
    endloop
  endfacet
  facet normal 0 1.22465e-16 1
    outer loop
      vertex -4 4.89859e-16 4
      vertex -6 -2 4
      vertex -4 -8 4
    endloop
  endfacet
  facet normal 0 -1 1.22465e-16
    outer loop
      vertex -28 -8 1
      vertex -28 -8 4
      vertex -30 -8 4
    endloop
  endfacet
  facet normal 0 -1 1.22465e-16
    outer loop
      vertex -30 -8 1
      vertex -28 -8 1
      vertex -30 -8 4
    endloop
  endfacet
  facet normal 0 1.22465e-16 1
    outer loop
      vertex -28 -30 1
      vertex -28 -34 1
      vertex -6 -34 1
    endloop
  endfacet
  facet normal 0 1.22465e-16 1
    outer loop
      vertex -4 -28 1
      vertex -28 -30 1
      vertex -6 -30 1
    endloop
  endfacet
  facet normal 0 1.22465e-16 1
    outer loop
      vertex -6 -30 1
      vertex -28 -30 1
      vertex -6 -34 1
    endloop
  endfacet
  facet normal 0 1.22465e-16 1
    outer loop
      vertex -4 -28 1
      vertex -6 -30 1
      vertex -4 -30 1
    endloop
  endfacet
  facet normal 0 1.22465e-16 1
    outer loop
      vertex -6 -28 1
      vertex -28 -30 1
      vertex -4 -28 1
    endloop
  endfacet
  facet normal 0 1.22465e-16 1
    outer loop
      vertex -6 -10 1
      vertex -28 -30 1
      vertex -6 -28 1
    endloop
  endfacet
  facet normal 0 1.22465e-16 1
    outer loop
      vertex -4 -8 1
      vertex -28 -30 1
      vertex -6 -10 1
    endloop
  endfacet
  facet normal 0 1.22465e-16 1
    outer loop
      vertex -4 -8 1
      vertex -6 -10 1
      vertex -4 -10 1
    endloop
  endfacet
  facet normal 0 1.22465e-16 1
    outer loop
      vertex -6 -8 1
      vertex -28 -30 1
      vertex -4 -8 1
    endloop
  endfacet
  facet normal 0 1.22465e-16 1
    outer loop
      vertex -6 -2 1
      vertex -28 -30 1
      vertex -6 -8 1
    endloop
  endfacet
  facet normal 0 1.22465e-16 1
    outer loop
      vertex -28 -8 1
      vertex -28 -10 1
      vertex -6 -2 1
    endloop
  endfacet
  facet normal 0 1.22465e-16 1
    outer loop
      vertex -28 -10 1
      vertex -28 -28 1
      vertex -6 -2 1
    endloop
  endfacet
  facet normal 0 1.22465e-16 1
    outer loop
      vertex -28 -2 1
      vertex -28 -8 1
      vertex -6 -2 1
    endloop
  endfacet
  facet normal 0 1.22465e-16 1
    outer loop
      vertex -30 -8 1
      vertex -28 -10 1
      vertex -28 -8 1
    endloop
  endfacet
  facet normal 0 1.22465e-16 1
    outer loop
      vertex -28 -28 1
      vertex -28 -30 1
      vertex -6 -2 1
    endloop
  endfacet
  facet normal 0 1.22465e-16 1
    outer loop
      vertex -28 -28 1
      vertex -30 -28 1
      vertex -28 -30 1
    endloop
  endfacet
  facet normal 0 1.22465e-16 1
    outer loop
      vertex -30 -10 1
      vertex -28 -10 1
      vertex -30 -8 1
    endloop
  endfacet
  facet normal 0 1.22465e-16 1
    outer loop
      vertex -30 -30 1
      vertex -28 -30 1
      vertex -30 -28 1
    endloop
  endfacet
  facet normal 0 1 -1.22465e-16
    outer loop
      vertex -28 -10 4
      vertex -28 -10 1
      vertex -30 -10 4
    endloop
  endfacet
  facet normal 0 1 -1.22465e-16
    outer loop
      vertex -30 -10 4
      vertex -28 -10 1
      vertex -30 -10 1
    endloop
  endfacet
  facet normal 0 1.22465e-16 1
    outer loop
      vertex -30 -10 4
      vertex -30 -28 4
      vertex -28 -28 4
    endloop
  endfacet
  facet normal 0 1.22465e-16 1
    outer loop
      vertex -28 -10 4
      vertex -30 -10 4
      vertex -28 -28 4
    endloop
  endfacet
  facet normal 0 -1 1.22465e-16
    outer loop
      vertex -28 -28 1
      vertex -28 -28 4
      vertex -30 -28 4
    endloop
  endfacet
  facet normal 0 -1 1.22465e-16
    outer loop
      vertex -30 -28 1
      vertex -28 -28 1
      vertex -30 -28 4
    endloop
  endfacet
  facet normal 0 1 -1.22465e-16
    outer loop
      vertex -28 -30 4
      vertex -28 -30 1
      vertex -30 -30 4
    endloop
  endfacet
  facet normal 0 1 -1.22465e-16
    outer loop
      vertex -30 -30 4
      vertex -28 -30 1
      vertex -30 -30 1
    endloop
  endfacet
  facet normal 0 1.22465e-16 1
    outer loop
      vertex -28 -34 4
      vertex -30 -36 4
      vertex -4 -36 4
    endloop
  endfacet
  facet normal 0 1.22465e-16 1
    outer loop
      vertex -28 -34 4
      vertex -28 -30 4
      vertex -30 -30 4
    endloop
  endfacet
  facet normal 0 1.22465e-16 1
    outer loop
      vertex -4 -30 4
      vertex -6 -30 4
      vertex -4 -36 4
    endloop
  endfacet
  facet normal 0 1.22465e-16 1
    outer loop
      vertex -6 -30 4
      vertex -6 -34 4
      vertex -4 -36 4
    endloop
  endfacet
  facet normal 0 1.22465e-16 1
    outer loop
      vertex -30 -30 4
      vertex -30 -36 4
      vertex -28 -34 4
    endloop
  endfacet
  facet normal 0 1.22465e-16 1
    outer loop
      vertex -6 -34 4
      vertex -28 -34 4
      vertex -4 -36 4
    endloop
  endfacet
  facet normal 1 0 0
    outer loop
      vertex -4 -10 1
      vertex -4 -36 4.40873e-15
      vertex -4 0 0
    endloop
  endfacet
  facet normal 1 0 0
    outer loop
      vertex -4 -30 1
      vertex -4 -30 4
      vertex -4 -36 4
    endloop
  endfacet
  facet normal 1 0 0
    outer loop
      vertex -4 4.89859e-16 4
      vertex -4 -8 4
      vertex -4 0 0
    endloop
  endfacet
  facet normal 1 0 0
    outer loop
      vertex -4 -8 4
      vertex -4 -8 1
      vertex -4 0 0
    endloop
  endfacet
  facet normal 1 0 0
    outer loop
      vertex -4 -28 4
      vertex -4 -28 1
      vertex -4 -10 1
    endloop
  endfacet
  facet normal 1 0 0
    outer loop
      vertex -4 -28 1
      vertex -4 -36 4.40873e-15
      vertex -4 -10 1
    endloop
  endfacet
  facet normal 1 0 0
    outer loop
      vertex -4 -30 1
      vertex -4 -36 4.40873e-15
      vertex -4 -28 1
    endloop
  endfacet
  facet normal 1 0 0
    outer loop
      vertex -4 -36 4
      vertex -4 -36 4.40873e-15
      vertex -4 -30 1
    endloop
  endfacet
  facet normal 1 0 0
    outer loop
      vertex -4 -8 1
      vertex -4 -10 1
      vertex -4 0 0
    endloop
  endfacet
  facet normal 1 0 0
    outer loop
      vertex -4 -10 1
      vertex -4 -10 4
      vertex -4 -28 4
    endloop
  endfacet
  facet normal 0 -1 1.22465e-16
    outer loop
      vertex -4 -8 1
      vertex -4 -8 4
      vertex -6 -8 4
    endloop
  endfacet
  facet normal 0 -1 1.22465e-16
    outer loop
      vertex -6 -8 1
      vertex -4 -8 1
      vertex -6 -8 4
    endloop
  endfacet
  facet normal -1 0 0
    outer loop
      vertex -6 -2 4
      vertex -6 -2 1
      vertex -6 -8 4
    endloop
  endfacet
  facet normal -1 0 0
    outer loop
      vertex -6 -8 4
      vertex -6 -2 1
      vertex -6 -8 1
    endloop
  endfacet
  facet normal 0 -1 1.22465e-16
    outer loop
      vertex -6 -2 1
      vertex -6 -2 4
      vertex -28 -2 4
    endloop
  endfacet
  facet normal 0 -1 1.22465e-16
    outer loop
      vertex -28 -2 1
      vertex -6 -2 1
      vertex -28 -2 4
    endloop
  endfacet
  facet normal 1 0 0
    outer loop
      vertex -28 -2 1
      vertex -28 -2 4
      vertex -28 -8 4
    endloop
  endfacet
  facet normal 1 0 0
    outer loop
      vertex -28 -8 1
      vertex -28 -2 1
      vertex -28 -8 4
    endloop
  endfacet
  facet normal 1 0 0
    outer loop
      vertex -28 -30 1
      vertex -28 -30 4
      vertex -28 -34 4
    endloop
  endfacet
  facet normal 1 0 0
    outer loop
      vertex -28 -34 1
      vertex -28 -30 1
      vertex -28 -34 4
    endloop
  endfacet
  facet normal 1 0 0
    outer loop
      vertex -28 -10 1
      vertex -28 -10 4
      vertex -28 -28 4
    endloop
  endfacet
  facet normal 1 0 0
    outer loop
      vertex -28 -28 1
      vertex -28 -10 1
      vertex -28 -28 4
    endloop
  endfacet
  facet normal 0 1 -1.22465e-16
    outer loop
      vertex -4 -10 4
      vertex -4 -10 1
      vertex -6 -10 4
    endloop
  endfacet
  facet normal 0 1 -1.22465e-16
    outer loop
      vertex -6 -10 4
      vertex -4 -10 1
      vertex -6 -10 1
    endloop
  endfacet
  facet normal -1 0 0
    outer loop
      vertex -6 -10 4
      vertex -6 -10 1
      vertex -6 -28 4
    endloop
  endfacet
  facet normal -1 0 0
    outer loop
      vertex -6 -28 4
      vertex -6 -10 1
      vertex -6 -28 1
    endloop
  endfacet
  facet normal 0 -1 1.22465e-16
    outer loop
      vertex -4 -28 1
      vertex -4 -28 4
      vertex -6 -28 4
    endloop
  endfacet
  facet normal 0 -1 1.22465e-16
    outer loop
      vertex -6 -28 1
      vertex -4 -28 1
      vertex -6 -28 4
    endloop
  endfacet
  facet normal 0 1 -1.22465e-16
    outer loop
      vertex -4 -30 4
      vertex -4 -30 1
      vertex -6 -30 4
    endloop
  endfacet
  facet normal 0 1 -1.22465e-16
    outer loop
      vertex -6 -30 4
      vertex -4 -30 1
      vertex -6 -30 1
    endloop
  endfacet
  facet normal -1 0 0
    outer loop
      vertex -6 -30 4
      vertex -6 -30 1
      vertex -6 -34 4
    endloop
  endfacet
  facet normal -1 0 0
    outer loop
      vertex -6 -34 4
      vertex -6 -30 1
      vertex -6 -34 1
    endloop
  endfacet
  facet normal 0 1 -1.22465e-16
    outer loop
      vertex -6 -34 4
      vertex -6 -34 1
      vertex -28 -34 4
    endloop
  endfacet
  facet normal 0 1 -1.22465e-16
    outer loop
      vertex -28 -34 4
      vertex -6 -34 1
      vertex -28 -34 1
    endloop
  endfacet
  facet normal 0 1.22465e-16 1
    outer loop
      vertex -6 -10 4
      vertex -6 -28 4
      vertex -4 -28 4
    endloop
  endfacet
  facet normal 0 1.22465e-16 1
    outer loop
      vertex -4 -10 4
      vertex -6 -10 4
      vertex -4 -28 4
    endloop
  endfacet
endsolid OpenSCAD_Model
