solid OpenSCAD_Model
  facet normal -1 0 0
    outer loop
      vertex -30 37 4
      vertex -30 37 -4.53119e-15
      vertex -30 4.89859e-16 4
    endloop
  endfacet
  facet normal -1 0 0
    outer loop
      vertex -30 4.89859e-16 4
      vertex -30 37 -4.53119e-15
      vertex -30 0 0
    endloop
  endfacet
  facet normal 0 1 -1.22465e-16
    outer loop
      vertex -30 37 4
      vertex -21 37 4
      vertex -30 37 -4.53119e-15
    endloop
  endfacet
  facet normal 0 1 -1.22465e-16
    outer loop
      vertex -12 37 6
      vertex -21 37 4
      vertex -21 37 6
    endloop
  endfacet
  facet normal 0 1 -1.22465e-16
    outer loop
      vertex -30 37 -4.53119e-15
      vertex -21 37 4
      vertex -12 37 6
    endloop
  endfacet
  facet normal 0 1 -1.22465e-16
    outer loop
      vertex -30 37 -4.53119e-15
      vertex -12 37 6
      vertex -12 37 4
    endloop
  endfacet
  facet normal 0 1 -1.22465e-16
    outer loop
      vertex -30 37 -4.53119e-15
      vertex -12 37 4
      vertex -4 37 4
    endloop
  endfacet
  facet normal 0 1 -1.22465e-16
    outer loop
      vertex -30 37 -4.53119e-15
      vertex -4 37 4
      vertex -4 37 -4.53119e-15
    endloop
  endfacet
  facet normal 0 1.22465e-16 1
    outer loop
      vertex -29.25 7.08 4
      vertex -30 37 4
      vertex -30 4.89859e-16 4
    endloop
  endfacet
  facet normal 0 1.22465e-16 1
    outer loop
      vertex -6 7.08 4
      vertex -6 2 4
      vertex -4 4.89859e-16 4
    endloop
  endfacet
  facet normal 0 1.22465e-16 1
    outer loop
      vertex -4.75 27.08 4
      vertex -6 27.08 4
      vertex -4 4.89859e-16 4
    endloop
  endfacet
  facet normal 0 1.22465e-16 1
    outer loop
      vertex -4 37 4
      vertex -12 37 4
      vertex -6 35 4
    endloop
  endfacet
  facet normal 0 1.22465e-16 1
    outer loop
      vertex -4.75 7.08 4
      vertex -6 7.08 4
      vertex -4 4.89859e-16 4
    endloop
  endfacet
  facet normal 0 1.22465e-16 1
    outer loop
      vertex -6 8.88 4
      vertex -4.75 8.88 4
      vertex -6 27.08 4
    endloop
  endfacet
  facet normal 0 1.22465e-16 1
    outer loop
      vertex -4 37 4
      vertex -4.75 28.88 4
      vertex -4 4.89859e-16 4
    endloop
  endfacet
  facet normal 0 1.22465e-16 1
    outer loop
      vertex -4 37 4
      vertex -6 35 4
      vertex -4.75 28.88 4
    endloop
  endfacet
  facet normal 0 1.22465e-16 1
    outer loop
      vertex -4.75 28.88 4
      vertex -4.75 27.08 4
      vertex -4 4.89859e-16 4
    endloop
  endfacet
  facet normal 0 1.22465e-16 1
    outer loop
      vertex -28 35 4
      vertex -21 35 4
      vertex -21 37 4
    endloop
  endfacet
  facet normal 0 1.22465e-16 1
    outer loop
      vertex -6 27.08 4
      vertex -4.75 8.88 4
      vertex -4 4.89859e-16 4
    endloop
  endfacet
  facet normal 0 1.22465e-16 1
    outer loop
      vertex -6 28.88 4
      vertex -4.75 28.88 4
      vertex -6 35 4
    endloop
  endfacet
  facet normal 0 1.22465e-16 1
    outer loop
      vertex -4.75 8.88 4
      vertex -4.75 7.08 4
      vertex -4 4.89859e-16 4
    endloop
  endfacet
  facet normal 0 1.22465e-16 1
    outer loop
      vertex -4 4.89859e-16 4
      vertex -6 2 4
      vertex -30 4.89859e-16 4
    endloop
  endfacet
  facet normal 0 1.22465e-16 1
    outer loop
      vertex -6 2 4
      vertex -28 2 4
      vertex -30 4.89859e-16 4
    endloop
  endfacet
  facet normal 0 1.22465e-16 1
    outer loop
      vertex -28 2 4
      vertex -28 7.08 4
      vertex -30 4.89859e-16 4
    endloop
  endfacet
  facet normal 0 1.22465e-16 1
    outer loop
      vertex -29.25 8.88 4
      vertex -30 37 4
      vertex -29.25 7.08 4
    endloop
  endfacet
  facet normal 0 1.22465e-16 1
    outer loop
      vertex -28 8.88 4
      vertex -28 27.08 4
      vertex -29.25 8.88 4
    endloop
  endfacet
  facet normal 0 1.22465e-16 1
    outer loop
      vertex -29.25 27.08 4
      vertex -30 37 4
      vertex -29.25 8.88 4
    endloop
  endfacet
  facet normal 0 1.22465e-16 1
    outer loop
      vertex -29.25 28.88 4
      vertex -28 28.88 4
      vertex -30 37 4
    endloop
  endfacet
  facet normal 0 1.22465e-16 1
    outer loop
      vertex -28 27.08 4
      vertex -29.25 27.08 4
      vertex -29.25 8.88 4
    endloop
  endfacet
  facet normal 0 1.22465e-16 1
    outer loop
      vertex -29.25 28.88 4
      vertex -30 37 4
      vertex -29.25 27.08 4
    endloop
  endfacet
  facet normal 0 1.22465e-16 1
    outer loop
      vertex -28 35 4
      vertex -30 37 4
      vertex -28 28.88 4
    endloop
  endfacet
  facet normal 0 1.22465e-16 1
    outer loop
      vertex -21 37 4
      vertex -30 37 4
      vertex -28 35 4
    endloop
  endfacet
  facet normal 0 1.22465e-16 1
    outer loop
      vertex -28 7.08 4
      vertex -29.25 7.08 4
      vertex -30 4.89859e-16 4
    endloop
  endfacet
  facet normal 0 1.22465e-16 1
    outer loop
      vertex -12 35 4
      vertex -6 35 4
      vertex -12 37 4
    endloop
  endfacet
  facet normal 0 -1 1.22465e-16
    outer loop
      vertex -4 4.89859e-16 4
      vertex -30 4.89859e-16 4
      vertex -30 0 0
    endloop
  endfacet
  facet normal 0 -1 1.22465e-16
    outer loop
      vertex -4 0 0
      vertex -4 4.89859e-16 4
      vertex -30 0 0
    endloop
  endfacet
  facet normal 0 -1.22465e-16 -1
    outer loop
      vertex -30 37 -4.53119e-15
      vertex -4 37 -4.53119e-15
      vertex -30 0 0
    endloop
  endfacet
  facet normal 0 -1.22465e-16 -1
    outer loop
      vertex -30 0 0
      vertex -4 37 -4.53119e-15
      vertex -4 0 0
    endloop
  endfacet
  facet normal 1 0 0
    outer loop
      vertex -4 37 -4.53119e-15
      vertex -4 37 4
      vertex -4 4.89859e-16 4
    endloop
  endfacet
  facet normal 1 0 0
    outer loop
      vertex -4 0 0
      vertex -4 37 -4.53119e-15
      vertex -4 4.89859e-16 4
    endloop
  endfacet
  facet normal 1 0 0
    outer loop
      vertex -12 37 4
      vertex -12 37 6
      vertex -12 35 6
    endloop
  endfacet
  facet normal 1 0 0
    outer loop
      vertex -12 35 4
      vertex -12 37 4
      vertex -12 35 6
    endloop
  endfacet
  facet normal 0 1.22465e-16 1
    outer loop
      vertex -12 37 6
      vertex -21 37 6
      vertex -21 35 6
    endloop
  endfacet
  facet normal 0 1.22465e-16 1
    outer loop
      vertex -12 35 6
      vertex -12 37 6
      vertex -21 35 6
    endloop
  endfacet
  facet normal -1 0 0
    outer loop
      vertex -21 37 6
      vertex -21 37 4
      vertex -21 35 6
    endloop
  endfacet
  facet normal -1 0 0
    outer loop
      vertex -21 35 6
      vertex -21 37 4
      vertex -21 35 4
    endloop
  endfacet
  facet normal 0 -1 1.22465e-16
    outer loop
      vertex -12 35 6
      vertex -21 35 6
      vertex -21 35 4
    endloop
  endfacet
  facet normal 0 -1 1.22465e-16
    outer loop
      vertex -12 35 4
      vertex -12 35 6
      vertex -21 35 4
    endloop
  endfacet
  facet normal 0 -1 1.22465e-16
    outer loop
      vertex -28 35 1
      vertex -6 35 1
      vertex -6 35 4
    endloop
  endfacet
  facet normal 0 -1 1.22465e-16
    outer loop
      vertex -21 35 4
      vertex -28 35 1
      vertex -12 35 4
    endloop
  endfacet
  facet normal 0 -1 1.22465e-16
    outer loop
      vertex -12 35 4
      vertex -28 35 1
      vertex -6 35 4
    endloop
  endfacet
  facet normal 0 -1 1.22465e-16
    outer loop
      vertex -28 35 4
      vertex -28 35 1
      vertex -21 35 4
    endloop
  endfacet
  facet normal 1 0 0
    outer loop
      vertex -28 2 1
      vertex -28 28.88 2.5
      vertex -28 27.08 2.5
    endloop
  endfacet
  facet normal 1 0 0
    outer loop
      vertex -28 8.88 2.5
      vertex -28 2 1
      vertex -28 27.08 2.5
    endloop
  endfacet
  facet normal 1 0 0
    outer loop
      vertex -28 28.88 4
      vertex -28 28.88 2.5
      vertex -28 35 1
    endloop
  endfacet
  facet normal 1 0 0
    outer loop
      vertex -28 27.08 4
      vertex -28 8.88 4
      vertex -28 27.08 2.5
    endloop
  endfacet
  facet normal 1 0 0
    outer loop
      vertex -28 8.88 4
      vertex -28 8.88 2.5
      vertex -28 27.08 2.5
    endloop
  endfacet
  facet normal 1 0 0
    outer loop
      vertex -28 7.08 2.5
      vertex -28 2 1
      vertex -28 8.88 2.5
    endloop
  endfacet
  facet normal 1 0 0
    outer loop
      vertex -28 7.08 4
      vertex -28 2 4
      vertex -28 7.08 2.5
    endloop
  endfacet
  facet normal 1 0 0
    outer loop
      vertex -28 2 4
      vertex -28 2 1
      vertex -28 7.08 2.5
    endloop
  endfacet
  facet normal 1 0 0
    outer loop
      vertex -28 2 1
      vertex -28 35 1
      vertex -28 28.88 2.5
    endloop
  endfacet
  facet normal 1 0 0
    outer loop
      vertex -28 35 1
      vertex -28 35 4
      vertex -28 28.88 4
    endloop
  endfacet
  facet normal 0 -1 1.22465e-16
    outer loop
      vertex -29.25 28.88 2.5
      vertex -28 28.88 2.5
      vertex -28 28.88 4
    endloop
  endfacet
  facet normal 0 -1 1.22465e-16
    outer loop
      vertex -29.25 28.88 4
      vertex -29.25 28.88 2.5
      vertex -28 28.88 4
    endloop
  endfacet
  facet normal 1 0 0
    outer loop
      vertex -29.25 27.08 4
      vertex -29.25 27.08 2.5
      vertex -29.25 28.88 2.5
    endloop
  endfacet
  facet normal 1 0 0
    outer loop
      vertex -29.25 28.88 4
      vertex -29.25 27.08 4
      vertex -29.25 28.88 2.5
    endloop
  endfacet
  facet normal 0 1 -1.22465e-16
    outer loop
      vertex -28 27.08 2.5
      vertex -29.25 27.08 2.5
      vertex -28 27.08 4
    endloop
  endfacet
  facet normal 0 1 -1.22465e-16
    outer loop
      vertex -28 27.08 4
      vertex -29.25 27.08 2.5
      vertex -29.25 27.08 4
    endloop
  endfacet
  facet normal 0 -1 1.22465e-16
    outer loop
      vertex -29.25 8.88 2.5
      vertex -28 8.88 2.5
      vertex -28 8.88 4
    endloop
  endfacet
  facet normal 0 -1 1.22465e-16
    outer loop
      vertex -29.25 8.88 4
      vertex -29.25 8.88 2.5
      vertex -28 8.88 4
    endloop
  endfacet
  facet normal 1 0 0
    outer loop
      vertex -29.25 7.08 4
      vertex -29.25 7.08 2.5
      vertex -29.25 8.88 2.5
    endloop
  endfacet
  facet normal 1 0 0
    outer loop
      vertex -29.25 8.88 4
      vertex -29.25 7.08 4
      vertex -29.25 8.88 2.5
    endloop
  endfacet
  facet normal 0 1 -1.22465e-16
    outer loop
      vertex -28 7.08 2.5
      vertex -29.25 7.08 2.5
      vertex -28 7.08 4
    endloop
  endfacet
  facet normal 0 1 -1.22465e-16
    outer loop
      vertex -28 7.08 4
      vertex -29.25 7.08 2.5
      vertex -29.25 7.08 4
    endloop
  endfacet
  facet normal 0 1 -1.22465e-16
    outer loop
      vertex -6 2 1
      vertex -28 2 1
      vertex -6 2 4
    endloop
  endfacet
  facet normal 0 1 -1.22465e-16
    outer loop
      vertex -6 2 4
      vertex -28 2 1
      vertex -28 2 4
    endloop
  endfacet
  facet normal -1 0 0
    outer loop
      vertex -6 2 1
      vertex -6 2 4
      vertex -6 7.08 2.5
    endloop
  endfacet
  facet normal -1 0 0
    outer loop
      vertex -6 2 1
      vertex -6 7.08 2.5
      vertex -6 35 1
    endloop
  endfacet
  facet normal -1 0 0
    outer loop
      vertex -6 8.88 4
      vertex -6 35 1
      vertex -6 8.88 2.5
    endloop
  endfacet
  facet normal -1 0 0
    outer loop
      vertex -6 7.08 2.5
      vertex -6 8.88 2.5
      vertex -6 35 1
    endloop
  endfacet
  facet normal -1 0 0
    outer loop
      vertex -6 28.88 4
      vertex -6 35 1
      vertex -6 28.88 2.5
    endloop
  endfacet
  facet normal -1 0 0
    outer loop
      vertex -6 27.08 2.5
      vertex -6 8.88 4
      vertex -6 27.08 4
    endloop
  endfacet
  facet normal -1 0 0
    outer loop
      vertex -6 35 1
      vertex -6 8.88 4
      vertex -6 27.08 2.5
    endloop
  endfacet
  facet normal -1 0 0
    outer loop
      vertex -6 35 1
      vertex -6 27.08 2.5
      vertex -6 28.88 2.5
    endloop
  endfacet
  facet normal -1 0 0
    outer loop
      vertex -6 35 1
      vertex -6 28.88 4
      vertex -6 35 4
    endloop
  endfacet
  facet normal -1 0 0
    outer loop
      vertex -6 7.08 2.5
      vertex -6 2 4
      vertex -6 7.08 4
    endloop
  endfacet
  facet normal 0 1 -1.22465e-16
    outer loop
      vertex -4.75 7.08 2.5
      vertex -6 7.08 2.5
      vertex -4.75 7.08 4
    endloop
  endfacet
  facet normal 0 1 -1.22465e-16
    outer loop
      vertex -4.75 7.08 4
      vertex -6 7.08 2.5
      vertex -6 7.08 4
    endloop
  endfacet
  facet normal -1 0 0
    outer loop
      vertex -4.75 7.08 2.5
      vertex -4.75 7.08 4
      vertex -4.75 8.88 2.5
    endloop
  endfacet
  facet normal -1 0 0
    outer loop
      vertex -4.75 8.88 2.5
      vertex -4.75 7.08 4
      vertex -4.75 8.88 4
    endloop
  endfacet
  facet normal 0 -1 1.22465e-16
    outer loop
      vertex -6 8.88 2.5
      vertex -4.75 8.88 2.5
      vertex -4.75 8.88 4
    endloop
  endfacet
  facet normal 0 -1 1.22465e-16
    outer loop
      vertex -6 8.88 4
      vertex -6 8.88 2.5
      vertex -4.75 8.88 4
    endloop
  endfacet
  facet normal 0 1 -1.22465e-16
    outer loop
      vertex -4.75 27.08 2.5
      vertex -6 27.08 2.5
      vertex -4.75 27.08 4
    endloop
  endfacet
  facet normal 0 1 -1.22465e-16
    outer loop
      vertex -4.75 27.08 4
      vertex -6 27.08 2.5
      vertex -6 27.08 4
    endloop
  endfacet
  facet normal -1 0 0
    outer loop
      vertex -4.75 27.08 2.5
      vertex -4.75 27.08 4
      vertex -4.75 28.88 2.5
    endloop
  endfacet
  facet normal -1 0 0
    outer loop
      vertex -4.75 28.88 2.5
      vertex -4.75 27.08 4
      vertex -4.75 28.88 4
    endloop
  endfacet
  facet normal 0 -1 1.22465e-16
    outer loop
      vertex -6 28.88 2.5
      vertex -4.75 28.88 2.5
      vertex -4.75 28.88 4
    endloop
  endfacet
  facet normal 0 -1 1.22465e-16
    outer loop
      vertex -6 28.88 4
      vertex -6 28.88 2.5
      vertex -4.75 28.88 4
    endloop
  endfacet
  facet normal 0 1.22465e-16 1
    outer loop
      vertex -28 2 1
      vertex -6 2 1
      vertex -6 35 1
    endloop
  endfacet
  facet normal 0 1.22465e-16 1
    outer loop
      vertex -28 35 1
      vertex -28 2 1
      vertex -6 35 1
    endloop
  endfacet
  facet normal 0 1.22465e-16 1
    outer loop
      vertex -29.25 7.08 2.5
      vertex -28 7.08 2.5
      vertex -28 8.88 2.5
    endloop
  endfacet
  facet normal 0 1.22465e-16 1
    outer loop
      vertex -29.25 8.88 2.5
      vertex -29.25 7.08 2.5
      vertex -28 8.88 2.5
    endloop
  endfacet
  facet normal 0 1.22465e-16 1
    outer loop
      vertex -29.25 27.08 2.5
      vertex -28 27.08 2.5
      vertex -28 28.88 2.5
    endloop
  endfacet
  facet normal 0 1.22465e-16 1
    outer loop
      vertex -29.25 28.88 2.5
      vertex -29.25 27.08 2.5
      vertex -28 28.88 2.5
    endloop
  endfacet
  facet normal 0 1.22465e-16 1
    outer loop
      vertex -6 27.08 2.5
      vertex -4.75 27.08 2.5
      vertex -4.75 28.88 2.5
    endloop
  endfacet
  facet normal 0 1.22465e-16 1
    outer loop
      vertex -6 28.88 2.5
      vertex -6 27.08 2.5
      vertex -4.75 28.88 2.5
    endloop
  endfacet
  facet normal 0 1.22465e-16 1
    outer loop
      vertex -6 7.08 2.5
      vertex -4.75 7.08 2.5
      vertex -4.75 8.88 2.5
    endloop
  endfacet
  facet normal 0 1.22465e-16 1
    outer loop
      vertex -6 8.88 2.5
      vertex -6 7.08 2.5
      vertex -4.75 8.88 2.5
    endloop
  endfacet
endsolid OpenSCAD_Model
