solid OpenSCAD_Model
  facet normal -1 0 0
    outer loop
      vertex -19.5 0 0
      vertex -19.5 0 24
      vertex -19.5 2 0
    endloop
  endfacet
  facet normal -1 0 0
    outer loop
      vertex -19.5 2 0
      vertex -19.5 0 24
      vertex -19.5 2 24
    endloop
  endfacet
  facet normal 0 -1 0
    outer loop
      vertex -19.5 0 24
      vertex -19.5 0 0
      vertex -19 0 0
    endloop
  endfacet
  facet normal 0 -1 0
    outer loop
      vertex 19 0 1
      vertex -19.5 0 24
      vertex -19 0 1
    endloop
  endfacet
  facet normal 0 -1 0
    outer loop
      vertex -19 0 1
      vertex -19.5 0 24
      vertex -19 0 0
    endloop
  endfacet
  facet normal 0 -1 0
    outer loop
      vertex 15.5 0 24
      vertex -15.5 0 24
      vertex 19 0 1
    endloop
  endfacet
  facet normal 0 -1 0
    outer loop
      vertex 19.5 0 0
      vertex 19 0 1
      vertex 19 0 0
    endloop
  endfacet
  facet normal 0 -1 0
    outer loop
      vertex 19.5 0 24
      vertex 19 0 1
      vertex 19.5 0 0
    endloop
  endfacet
  facet normal 0 -1 0
    outer loop
      vertex -15.5 0 24
      vertex -19.5 0 24
      vertex 19 0 1
    endloop
  endfacet
  facet normal 0 -1 0
    outer loop
      vertex 19.5 0 24
      vertex 15.5 0 24
      vertex 19 0 1
    endloop
  endfacet
  facet normal 0 -1 0
    outer loop
      vertex 15.5 0 27
      vertex -15.5 0 24
      vertex 15.5 0 24
    endloop
  endfacet
  facet normal 0 -1 0
    outer loop
      vertex -15.5 0 27
      vertex -15.5 0 24
      vertex 15.5 0 27
    endloop
  endfacet
  facet normal 0 0 -1
    outer loop
      vertex -19.5 0 0
      vertex -19.5 2 0
      vertex -19 0 0
    endloop
  endfacet
  facet normal 0 0 -1
    outer loop
      vertex -19 0 0
      vertex -19.5 2 0
      vertex -19 2 0
    endloop
  endfacet
  facet normal 0 0 -1
    outer loop
      vertex -19 2 0
      vertex -19 4 0
      vertex 19 4 0
    endloop
  endfacet
  facet normal 0 0 -1
    outer loop
      vertex -19 2 0
      vertex 19 4 0
      vertex -19 0 0
    endloop
  endfacet
  facet normal 0 0 -1
    outer loop
      vertex -19 0 0
      vertex 19 4 0
      vertex 19 2 0
    endloop
  endfacet
  facet normal 0 0 -1
    outer loop
      vertex -19 0 0
      vertex 19 2 0
      vertex 19.5 2 0
    endloop
  endfacet
  facet normal 0 0 -1
    outer loop
      vertex 19 0 0
      vertex 19.5 2 0
      vertex 19.5 0 0
    endloop
  endfacet
  facet normal 0 0 -1
    outer loop
      vertex -19 0 0
      vertex 19.5 2 0
      vertex 19 0 0
    endloop
  endfacet
  facet normal 0 0 -1
    outer loop
      vertex 19 0 0
      vertex 19 -2 0
      vertex -19 0 0
    endloop
  endfacet
  facet normal 0 0 -1
    outer loop
      vertex -19 0 0
      vertex 19 -2 0
      vertex -19 -2 0
    endloop
  endfacet
  facet normal 0 1 0
    outer loop
      vertex -19.5 2 0
      vertex -19.5 2 24
      vertex -19 2 0
    endloop
  endfacet
  facet normal 0 1 0
    outer loop
      vertex -19 2 1
      vertex -19.5 2 24
      vertex -15.5 2 24
    endloop
  endfacet
  facet normal 0 1 0
    outer loop
      vertex -15.5 2 24
      vertex -15.5 2 27
      vertex 15.5 2 27
    endloop
  endfacet
  facet normal 0 1 0
    outer loop
      vertex 19 2 0
      vertex 19.5 2 24
      vertex 19.5 2 0
    endloop
  endfacet
  facet normal 0 1 0
    outer loop
      vertex 19 2 1
      vertex 19.5 2 24
      vertex 19 2 0
    endloop
  endfacet
  facet normal 0 1 0
    outer loop
      vertex -19 2 0
      vertex -19.5 2 24
      vertex -19 2 1
    endloop
  endfacet
  facet normal 0 1 0
    outer loop
      vertex -19 2 1
      vertex -15.5 2 24
      vertex 15.5 2 27
    endloop
  endfacet
  facet normal 0 1 0
    outer loop
      vertex -19 2 1
      vertex 15.5 2 27
      vertex 15.5 2 24
    endloop
  endfacet
  facet normal 0 1 0
    outer loop
      vertex -19 2 1
      vertex 15.5 2 24
      vertex 19.5 2 24
    endloop
  endfacet
  facet normal 0 1 0
    outer loop
      vertex -19 2 1
      vertex 19.5 2 24
      vertex 19 2 1
    endloop
  endfacet
  facet normal 0 0 1
    outer loop
      vertex -15.5 0 24
      vertex -15.5 2 24
      vertex -19.5 2 24
    endloop
  endfacet
  facet normal 0 0 1
    outer loop
      vertex -19.5 0 24
      vertex -15.5 0 24
      vertex -19.5 2 24
    endloop
  endfacet
  facet normal -1 0 0
    outer loop
      vertex -15.5 2 27
      vertex -15.5 2 24
      vertex -15.5 0 27
    endloop
  endfacet
  facet normal -1 0 0
    outer loop
      vertex -15.5 0 27
      vertex -15.5 2 24
      vertex -15.5 0 24
    endloop
  endfacet
  facet normal 0 0 1
    outer loop
      vertex -15.5 2 27
      vertex -15.5 0 27
      vertex 15.5 0 27
    endloop
  endfacet
  facet normal 0 0 1
    outer loop
      vertex 15.5 2 27
      vertex -15.5 2 27
      vertex 15.5 0 27
    endloop
  endfacet
  facet normal 1 0 0
    outer loop
      vertex 15.5 2 24
      vertex 15.5 2 27
      vertex 15.5 0 27
    endloop
  endfacet
  facet normal 1 0 0
    outer loop
      vertex 15.5 0 24
      vertex 15.5 2 24
      vertex 15.5 0 27
    endloop
  endfacet
  facet normal 0 0 1
    outer loop
      vertex 19.5 0 24
      vertex 19.5 2 24
      vertex 15.5 2 24
    endloop
  endfacet
  facet normal 0 0 1
    outer loop
      vertex 15.5 0 24
      vertex 19.5 0 24
      vertex 15.5 2 24
    endloop
  endfacet
  facet normal 1 0 0
    outer loop
      vertex 19.5 0 24
      vertex 19.5 0 0
      vertex 19.5 2 0
    endloop
  endfacet
  facet normal 1 0 0
    outer loop
      vertex 19.5 2 24
      vertex 19.5 0 24
      vertex 19.5 2 0
    endloop
  endfacet
  facet normal 1 0 0
    outer loop
      vertex 19 -2 1
      vertex 19 -2 0
      vertex 19 0 0
    endloop
  endfacet
  facet normal 1 0 0
    outer loop
      vertex 19 0 1
      vertex 19 -2 1
      vertex 19 0 0
    endloop
  endfacet
  facet normal 0 0 1
    outer loop
      vertex -19 0 1
      vertex -19 -2 1
      vertex 19 -2 1
    endloop
  endfacet
  facet normal 0 0 1
    outer loop
      vertex 19 0 1
      vertex -19 0 1
      vertex 19 -2 1
    endloop
  endfacet
  facet normal -1 0 0
    outer loop
      vertex -19 -2 0
      vertex -19 -2 1
      vertex -19 0 0
    endloop
  endfacet
  facet normal -1 0 0
    outer loop
      vertex -19 0 0
      vertex -19 -2 1
      vertex -19 0 1
    endloop
  endfacet
  facet normal 0 -1 0
    outer loop
      vertex -19 -2 1
      vertex -19 -2 0
      vertex 19 -2 0
    endloop
  endfacet
  facet normal 0 -1 0
    outer loop
      vertex 19 -2 1
      vertex -19 -2 1
      vertex 19 -2 0
    endloop
  endfacet
  facet normal 1 0 0
    outer loop
      vertex 19 2 1
      vertex 19 2 0
      vertex 19 4 0
    endloop
  endfacet
  facet normal 1 0 0
    outer loop
      vertex 19 4 1
      vertex 19 2 1
      vertex 19 4 0
    endloop
  endfacet
  facet normal 0 1 0
    outer loop
      vertex -19 4 0
      vertex -19 4 1
      vertex 19 4 0
    endloop
  endfacet
  facet normal 0 1 0
    outer loop
      vertex 19 4 0
      vertex -19 4 1
      vertex 19 4 1
    endloop
  endfacet
  facet normal -1 0 0
    outer loop
      vertex -19 2 0
      vertex -19 2 1
      vertex -19 4 0
    endloop
  endfacet
  facet normal -1 0 0
    outer loop
      vertex -19 4 0
      vertex -19 2 1
      vertex -19 4 1
    endloop
  endfacet
  facet normal 0 0 1
    outer loop
      vertex -19 4 1
      vertex -19 2 1
      vertex 19 2 1
    endloop
  endfacet
  facet normal 0 0 1
    outer loop
      vertex 19 4 1
      vertex -19 4 1
      vertex 19 2 1
    endloop
  endfacet
endsolid OpenSCAD_Model
