solid OpenSCAD_Model
  facet normal -1 2.26258e-05 -1.42423e-06
    outer loop
      vertex -2 3.96846 10.4987
      vertex -2 3.95274 10.5
      vertex -2 3.96854 10.5
    endloop
  endfacet
  facet normal -1 2.24451e-05 -3.55492e-06
    outer loop
      vertex -2 3.95274 10.5
      vertex -2 3.96846 10.4987
      vertex -2 3.92915 10.2505
    endloop
  endfacet
  facet normal -1 0 -2.38419e-07
    outer loop
      vertex -2 1.9612 8
      vertex -2 3.63673 10.5
      vertex -2 3.6602 10.5
    endloop
  endfacet
  facet normal -1 0 -2.38419e-07
    outer loop
      vertex -2 3.63673 10.5
      vertex -2 1.9612 8
      vertex -2 1.82037 8
    endloop
  endfacet
  facet normal 1 3.50048e-06 -2.07018e-06
    outer loop
      vertex 2 2.5497 7.91795
      vertex 2 3.37731 8.85669
      vertex 2 3.50523 9.07298
    endloop
  endfacet
  facet normal 0 0.891007 -0.45399
    outer loop
      vertex 2 3.50523 9.07298
      vertex -2 3.61931 9.29688
      vertex 2 3.61931 9.29688
    endloop
  endfacet
  facet normal 0 0.891007 -0.45399
    outer loop
      vertex -2 3.61931 9.29688
      vertex 2 3.50523 9.07298
      vertex -2 3.50523 9.07298
    endloop
  endfacet
  facet normal 1 0 2.7701e-07
    outer loop
      vertex 2 2.5497 7.91795
      vertex 2 3.66705 10.5
      vertex 2 3.572 10.5
    endloop
  endfacet
  facet normal 0 -0.509042 -0.860741
    outer loop
      vertex -2 -2.14331 7.62269
      vertex 2 -2 7.53794
      vertex 2 -2.14331 7.62269
    endloop
  endfacet
  facet normal -0 -0.509042 -0.860741
    outer loop
      vertex 2 -2 7.53794
      vertex -2 -2.14331 7.62269
      vertex -2 -2 7.53794
    endloop
  endfacet
  facet normal -1 0 -2.38419e-07
    outer loop
      vertex -2 -1.67296 8
      vertex -2 -3.58636 10.5
      vertex -2 -1.51818 8
    endloop
  endfacet
  facet normal -1 -0 -2.38419e-07
    outer loop
      vertex -2 -3.58636 10.5
      vertex -2 -1.67296 8
      vertex -2 -3.61216 10.5
    endloop
  endfacet
  facet normal -1 0 -2.38419e-07
    outer loop
      vertex -2 1.82037 8
      vertex -2 3.61216 10.5
      vertex -2 3.63673 10.5
    endloop
  endfacet
  facet normal -1 0 -2.38419e-07
    outer loop
      vertex -2 3.61216 10.5
      vertex -2 1.82037 8
      vertex -2 1.67296 8
    endloop
  endfacet
  facet normal 0 0.750113 -0.66131
    outer loop
      vertex 2 2.91587 8.26181
      vertex -2 3.08205 8.4503
      vertex 2 3.08205 8.4503
    endloop
  endfacet
  facet normal 0 0.750113 -0.66131
    outer loop
      vertex -2 3.08205 8.4503
      vertex 2 2.91587 8.26181
      vertex -2 2.91587 8.26181
    endloop
  endfacet
  facet normal -1 6.64019e-06 -2.73958e-06
    outer loop
      vertex -2 3.08205 8.4503
      vertex -2 3.80204 10.5
      vertex -2 3.81999 10.5
    endloop
  endfacet
  facet normal -1 7.67638e-07 -6.7676e-07
    outer loop
      vertex -2 3.80204 10.5
      vertex -2 3.08205 8.4503
      vertex -2 2.91587 8.26181
    endloop
  endfacet
  facet normal -1 -1.08941e-06 -7.40357e-07
    outer loop
      vertex -2 -3.37731 8.85669
      vertex -2 -3.83754 10.5
      vertex -2 -3.23607 8.64886
    endloop
  endfacet
  facet normal -1 -0 -4.35254e-07
    outer loop
      vertex -2 -3.83754 10.5
      vertex -2 -3.37731 8.85669
      vertex -2 -3.85474 10.5
    endloop
  endfacet
  facet normal -1 0 -4.05449e-07
    outer loop
      vertex -2 -1.18281 8
      vertex -2 -1.29402 8.29402
      vertex -2 -1 8
    endloop
  endfacet
  facet normal -1 -2.55901e-07 -5.02238e-07
    outer loop
      vertex -2 -1.18281 8
      vertex -2 -1.44526 8.37108
      vertex -2 -1.29402 8.29402
    endloop
  endfacet
  facet normal -1 -3.26594e-07 -5.52236e-07
    outer loop
      vertex -2 -1.18281 8
      vertex -2 -1.60748 8.46702
      vertex -2 -1.44526 8.37108
    endloop
  endfacet
  facet normal -1 -4.54064e-07 -6.68147e-07
    outer loop
      vertex -2 -1.60748 8.46702
      vertex -2 -1.18281 8
      vertex -2 -1.64587 8.4931
    endloop
  endfacet
  facet normal -1 5.67774e-07 2.89293e-07
    outer loop
      vertex -2 -3.53047 10.5
      vertex -2 -2.70598 9.70598
      vertex -2 -2.62892 9.55474
    endloop
  endfacet
  facet normal -1 6.96066e-07 4.11652e-07
    outer loop
      vertex -2 -3.53047 10.5
      vertex -2 -2.62892 9.55474
      vertex -2 -2.60529 9.51479
    endloop
  endfacet
  facet normal -1 0 -3.00268e-07
    outer loop
      vertex -2 -2.70598 9.70598
      vertex -2 -3.53047 10.5
      vertex -2 -3.5 10.5
    endloop
  endfacet
  facet normal -1 -4.25067e-07 -0
    outer loop
      vertex -2 2 8
      vertex -2 3.68269 10.5
      vertex -2 2 7.84851
    endloop
  endfacet
  facet normal -1 -0 -2.86102e-07
    outer loop
      vertex -2 3.68269 10.5
      vertex -2 2 8
      vertex -2 3.6602 10.5
    endloop
  endfacet
  facet normal -1 3.07258e-06 -2.32654e-06
    outer loop
      vertex -2 3.6602 10.5
      vertex -2 2 8
      vertex -2 1.9612 8
    endloop
  endfacet
  facet normal 1 0 0
    outer loop
      vertex 2 -2 7.91795
      vertex 2 -2.14331 7.62269
      vertex 2 -2 7.53794
    endloop
  endfacet
  facet normal 1 0 0
    outer loop
      vertex 2 -2 7.91795
      vertex 2 -2.35114 7.76393
      vertex 2 -2.14331 7.62269
    endloop
  endfacet
  facet normal 1 0 -0
    outer loop
      vertex 2 -2.35114 7.76393
      vertex 2 -2 7.91795
      vertex 2 -2.5497 7.91795
    endloop
  endfacet
  facet normal 1 0 0
    outer loop
      vertex 2 -2 7.91795
      vertex 2 2 7.91795
      vertex 2 2 8
    endloop
  endfacet
  facet normal 1 0 0
    outer loop
      vertex 2 2 7.91795
      vertex 2 -2 7.91795
      vertex 2 2 7.53794
    endloop
  endfacet
  facet normal 1 0 0
    outer loop
      vertex 2 -2 7.91795
      vertex 2 2 8
      vertex 2 -2 8
    endloop
  endfacet
  facet normal 1 0 0
    outer loop
      vertex 2 2 7.53794
      vertex 2 -2 7.91795
      vertex 2 -2 7.53794
    endloop
  endfacet
  facet normal 1 0 0
    outer loop
      vertex 2 2 7.53794
      vertex 2 -2 7.53794
      vertex 2 2 2
    endloop
  endfacet
  facet normal 1 0 0
    outer loop
      vertex 2 2 2
      vertex 2 -2 7.53794
      vertex 2 -2 2
    endloop
  endfacet
  facet normal 1 -0 0
    outer loop
      vertex 2 2 7.91795
      vertex 2 2.35114 7.76393
      vertex 2 2.5497 7.91795
    endloop
  endfacet
  facet normal 1 0 0
    outer loop
      vertex 2 2.35114 7.76393
      vertex 2 2 7.91795
      vertex 2 2.14331 7.62269
    endloop
  endfacet
  facet normal 1 0 0
    outer loop
      vertex 2 2.14331 7.62269
      vertex 2 2 7.91795
      vertex 2 2 7.53794
    endloop
  endfacet
  facet normal 1 -3.15889e-07 1.60952e-07
    outer loop
      vertex 2 2.62892 9.55474
      vertex 2 2.5497 7.91795
      vertex 2 2.65602 9.60793
    endloop
  endfacet
  facet normal 1 -2.68255e-07 1.58646e-07
    outer loop
      vertex 2 2.5497 7.91795
      vertex 2 2.62892 9.55474
      vertex 2 2.59957 9.50512
    endloop
  endfacet
  facet normal -1 0 -3.45409e-07
    outer loop
      vertex -2 2.73819 8.08412
      vertex -2 3.76472 10.5
      vertex -2 3.78363 10.5
    endloop
  endfacet
  facet normal -1 4.86921e-07 -5.52307e-07
    outer loop
      vertex -2 3.76472 10.5
      vertex -2 2.73819 8.08412
      vertex -2 2.5497 7.91795
    endloop
  endfacet
  facet normal -1 0 0
    outer loop
      vertex -2 3.96846 10.4987
      vertex -2 3.96854 10.5
      vertex -2 3.96858 10.5
    endloop
  endfacet
  facet normal 0 0.940881 -0.338738
    outer loop
      vertex 2 3.71911 9.5275
      vertex -2 3.80423 9.76393
      vertex 2 3.80423 9.76393
    endloop
  endfacet
  facet normal 0 0.940881 -0.338738
    outer loop
      vertex -2 3.80423 9.76393
      vertex 2 3.71911 9.5275
      vertex -2 3.71911 9.5275
    endloop
  endfacet
  facet normal 1 -2.34012e-07 1.59034e-07
    outer loop
      vertex 2 2.5497 7.91795
      vertex 2 2.50466 9.35085
      vertex 2 2.46337 9.29008
    endloop
  endfacet
  facet normal 1 -7.57077e-07 2.72566e-07
    outer loop
      vertex 2 2.78933 9.89563
      vertex 2 2.5497 7.91795
      vertex 2 2.80505 9.9393
    endloop
  endfacet
  facet normal 1 -5.80391e-07 2.51158e-07
    outer loop
      vertex 2 2.5497 7.91795
      vertex 2 2.78933 9.89563
      vertex 2 2.72192 9.73984
    endloop
  endfacet
  facet normal -1 0 -5.01225e-07
    outer loop
      vertex -2 3.50523 9.07298
      vertex -2 3.85474 10.5
      vertex -2 3.87162 10.5
    endloop
  endfacet
  facet normal -1 1.44664e-06 -8.55541e-07
    outer loop
      vertex -2 3.85474 10.5
      vertex -2 3.50523 9.07298
      vertex -2 3.37731 8.85669
    endloop
  endfacet
  facet normal 0 0.995555 -0.094179
    outer loop
      vertex 2 3.96846 10.4987
      vertex -2 3.96858 10.5
      vertex 2 3.96858 10.5
    endloop
  endfacet
  facet normal 0 0.995555 -0.094179
    outer loop
      vertex -2 3.96858 10.5
      vertex 2 3.96846 10.4987
      vertex -2 3.96846 10.4987
    endloop
  endfacet
  facet normal 1 1.51319e-05 -1.33405e-05
    outer loop
      vertex 2 2.5497 7.91795
      vertex 2 2.91587 8.26181
      vertex 2 3.08205 8.4503
    endloop
  endfacet
  facet normal 0 0.860741 -0.509043
    outer loop
      vertex 2 3.37731 8.85669
      vertex -2 3.50523 9.07298
      vertex 2 3.50523 9.07298
    endloop
  endfacet
  facet normal 0 0.860741 -0.509043
    outer loop
      vertex -2 3.50523 9.07298
      vertex 2 3.37731 8.85669
      vertex -2 3.37731 8.85669
    endloop
  endfacet
  facet normal -1 0 0
    outer loop
      vertex -2 -1 8
      vertex -2 -0.188371 8.00592
      vertex -2 0 8
    endloop
  endfacet
  facet normal -1 0 0
    outer loop
      vertex -2 -1 8
      vertex -2 -0.375999 8.02366
      vertex -2 -0.188371 8.00592
    endloop
  endfacet
  facet normal -1 0 0
    outer loop
      vertex -2 -1 8
      vertex -2 -0.562143 8.05314
      vertex -2 -0.375999 8.02366
    endloop
  endfacet
  facet normal -1 0 0
    outer loop
      vertex -2 -1 8
      vertex -2 -0.746069 8.09425
      vertex -2 -0.562143 8.05314
    endloop
  endfacet
  facet normal -1 0 0
    outer loop
      vertex -2 -1 8
      vertex -2 -0.927051 8.14683
      vertex -2 -0.746069 8.09425
    endloop
  endfacet
  facet normal -1 0 0
    outer loop
      vertex -2 -1 8
      vertex -2 -1.10437 8.21067
      vertex -2 -0.927051 8.14683
    endloop
  endfacet
  facet normal -1 8.77301e-07 4.34643e-07
    outer loop
      vertex -2 -1 8
      vertex -2 -1.27734 8.28552
      vertex -2 -1.10437 8.21067
    endloop
  endfacet
  facet normal -1 -4.21181e-07 -8.2663e-07
    outer loop
      vertex -2 -1.27734 8.28552
      vertex -2 -1 8
      vertex -2 -1.29402 8.29402
    endloop
  endfacet
  facet normal -1 4.21181e-07 -8.2663e-07
    outer loop
      vertex -2 1 8
      vertex -2 1.27734 8.28552
      vertex -2 1.29402 8.29402
    endloop
  endfacet
  facet normal -1 -8.77301e-07 4.34643e-07
    outer loop
      vertex -2 1 8
      vertex -2 1.10437 8.21067
      vertex -2 1.27734 8.28552
    endloop
  endfacet
  facet normal -1 0 0
    outer loop
      vertex -2 1 8
      vertex -2 0.927051 8.14683
      vertex -2 1.10437 8.21067
    endloop
  endfacet
  facet normal -1 0 0
    outer loop
      vertex -2 1 8
      vertex -2 0.746069 8.09425
      vertex -2 0.927051 8.14683
    endloop
  endfacet
  facet normal -1 0 0
    outer loop
      vertex -2 1 8
      vertex -2 0.562143 8.05314
      vertex -2 0.746069 8.09425
    endloop
  endfacet
  facet normal -1 0 0
    outer loop
      vertex -2 1 8
      vertex -2 0.375999 8.02366
      vertex -2 0.562143 8.05314
    endloop
  endfacet
  facet normal -1 0 0
    outer loop
      vertex -2 1 8
      vertex -2 0.188371 8.00592
      vertex -2 0.375999 8.02366
    endloop
  endfacet
  facet normal -1 0 -0
    outer loop
      vertex -2 0.188371 8.00592
      vertex -2 1 8
      vertex -2 0 8
    endloop
  endfacet
  facet normal -1 0 0
    outer loop
      vertex -2 -2.94686 10.4379
      vertex -2 -3.5 10.5
      vertex -2 -2.9567 10.5
    endloop
  endfacet
  facet normal -1 0 0
    outer loop
      vertex -2 -2.90575 10.2539
      vertex -2 -3.5 10.5
      vertex -2 -2.94686 10.4379
    endloop
  endfacet
  facet normal -1 -3.10049e-07 -7.48759e-07
    outer loop
      vertex -2 -2.85317 10.0729
      vertex -2 -3.5 10.5
      vertex -2 -2.90575 10.2539
    endloop
  endfacet
  facet normal -1 2.41764e-07 8.70417e-08
    outer loop
      vertex -2 -2.78933 9.89563
      vertex -2 -3.5 10.5
      vertex -2 -2.85317 10.0729
    endloop
  endfacet
  facet normal -1 -6.62013e-07 -9.75692e-07
    outer loop
      vertex -2 -2.71448 9.72266
      vertex -2 -3.5 10.5
      vertex -2 -2.78933 9.89563
    endloop
  endfacet
  facet normal -1 6.12192e-07 3.11923e-07
    outer loop
      vertex -2 -3.5 10.5
      vertex -2 -2.71448 9.72266
      vertex -2 -2.70598 9.70598
    endloop
  endfacet
  facet normal -1 -0 0
    outer loop
      vertex -2 3.5 10.5
      vertex -2 2.94686 10.4379
      vertex -2 2.9567 10.5
    endloop
  endfacet
  facet normal -1 0 0
    outer loop
      vertex -2 3.5 10.5
      vertex -2 2.90575 10.2539
      vertex -2 2.94686 10.4379
    endloop
  endfacet
  facet normal -1 3.10049e-07 -7.48759e-07
    outer loop
      vertex -2 3.5 10.5
      vertex -2 2.85317 10.0729
      vertex -2 2.90575 10.2539
    endloop
  endfacet
  facet normal -1 -2.41764e-07 8.70417e-08
    outer loop
      vertex -2 3.5 10.5
      vertex -2 2.78933 9.89563
      vertex -2 2.85317 10.0729
    endloop
  endfacet
  facet normal -1 6.62013e-07 -9.75692e-07
    outer loop
      vertex -2 3.5 10.5
      vertex -2 2.71448 9.72266
      vertex -2 2.78933 9.89563
    endloop
  endfacet
  facet normal -1 -6.12192e-07 3.11923e-07
    outer loop
      vertex -2 2.71448 9.72266
      vertex -2 3.5 10.5
      vertex -2 2.70598 9.70598
    endloop
  endfacet
  facet normal 1 9.39054e-08 8.27892e-08
    outer loop
      vertex 2 -2.23505 9.00097
      vertex 2 -2.26337 9.03309
      vertex 2 -2.5497 7.91795
    endloop
  endfacet
  facet normal -1 4.54064e-07 -6.68147e-07
    outer loop
      vertex -2 1.18281 8
      vertex -2 1.60748 8.46702
      vertex -2 1.64587 8.4931
    endloop
  endfacet
  facet normal -1 3.26594e-07 -5.52236e-07
    outer loop
      vertex -2 1.18281 8
      vertex -2 1.44526 8.37108
      vertex -2 1.60748 8.46702
    endloop
  endfacet
  facet normal -1 2.55901e-07 -5.02238e-07
    outer loop
      vertex -2 1.18281 8
      vertex -2 1.29402 8.29402
      vertex -2 1.44526 8.37108
    endloop
  endfacet
  facet normal -1 0 -4.05449e-07
    outer loop
      vertex -2 1.29402 8.29402
      vertex -2 1.18281 8
      vertex -2 1 8
    endloop
  endfacet
  facet normal -1 -0 -3.00268e-07
    outer loop
      vertex -2 3.53047 10.5
      vertex -2 2.70598 9.70598
      vertex -2 3.5 10.5
    endloop
  endfacet
  facet normal -1 -5.67774e-07 2.89293e-07
    outer loop
      vertex -2 3.53047 10.5
      vertex -2 2.62892 9.55474
      vertex -2 2.70598 9.70598
    endloop
  endfacet
  facet normal -1 -6.96066e-07 4.11652e-07
    outer loop
      vertex -2 2.62892 9.55474
      vertex -2 3.53047 10.5
      vertex -2 2.60529 9.51479
    endloop
  endfacet
  facet normal -1 0 -2.41752e-07
    outer loop
      vertex -2 -1.35514 8
      vertex -2 -1.64587 8.4931
      vertex -2 -1.18281 8
    endloop
  endfacet
  facet normal -1 -2.74135e-07 -4.03377e-07
    outer loop
      vertex -2 -1.35514 8
      vertex -2 -1.76336 8.57295
      vertex -2 -1.64587 8.4931
    endloop
  endfacet
  facet normal -1 -3.60769e-07 -4.65101e-07
    outer loop
      vertex -2 -1.35514 8
      vertex -2 -1.91227 8.68846
      vertex -2 -1.76336 8.57295
    endloop
  endfacet
  facet normal -1 2.40996e-06 1.77708e-06
    outer loop
      vertex -2 -1.35514 8
      vertex -2 -2.05364 8.81309
      vertex -2 -1.91227 8.68846
    endloop
  endfacet
  facet normal -1 -2.0805e-06 -2.0805e-06
    outer loop
      vertex -2 -1.35514 8
      vertex -2 -2.18691 8.94636
      vertex -2 -2.05364 8.81309
    endloop
  endfacet
  facet normal -1 -9.28451e-05 -8.18542e-05
    outer loop
      vertex -2 -1.35514 8
      vertex -2 -2.31154 9.08773
      vertex -2 -2.18691 8.94636
    endloop
  endfacet
  facet normal -1 6.42224e-07 3.79814e-07
    outer loop
      vertex -2 -3.55919 10.5
      vertex -2 -2.60529 9.51479
      vertex -2 -2.53298 9.39252
    endloop
  endfacet
  facet normal -1 -2.22451e-06 -2.27654e-06
    outer loop
      vertex -2 -3.55919 10.5
      vertex -2 -2.53298 9.39252
      vertex -2 -2.42705 9.23664
    endloop
  endfacet
  facet normal -1 2.34998e-06 1.82282e-06
    outer loop
      vertex -2 -3.55919 10.5
      vertex -2 -2.42705 9.23664
      vertex -2 -2.31154 9.08773
    endloop
  endfacet
  facet normal -1 0 -2.41997e-07
    outer loop
      vertex -2 -2.60529 9.51479
      vertex -2 -3.55919 10.5
      vertex -2 -3.53047 10.5
    endloop
  endfacet
  facet normal -1 8.15357e-06 6.94992e-06
    outer loop
      vertex -2 -3.55919 10.5
      vertex -2 -2.31154 9.08773
      vertex -2 -1.35514 8
    endloop
  endfacet
  facet normal 1 9.39066e-08 8.2789e-08
    outer loop
      vertex 2 -2.31154 9.08773
      vertex 2 -2.5497 7.91795
      vertex 2 -2.29294 9.06662
    endloop
  endfacet
  facet normal 1 1.04062e-07 8.07213e-08
    outer loop
      vertex 2 -2.5497 7.91795
      vertex 2 -2.31154 9.08773
      vertex 2 -2.32359 9.10326
    endloop
  endfacet
  facet normal 1 -2.68255e-07 1.58646e-07
    outer loop
      vertex 2 2.5497 7.91795
      vertex 2 2.59957 9.50512
      vertex 2 2.5497 9.42078
    endloop
  endfacet
  facet normal 1 -9.39049e-08 8.27894e-08
    outer loop
      vertex 2 2.5497 7.91795
      vertex 2 2.23505 9.00097
      vertex 2 2.20783 8.97009
    endloop
  endfacet
  facet normal 1 -1.04065e-07 8.07209e-08
    outer loop
      vertex 2 2.5497 7.91795
      vertex 2 2.35545 9.14434
      vertex 2 2.32359 9.10326
    endloop
  endfacet
  facet normal -1 0 -2.38419e-07
    outer loop
      vertex -2 1.67296 8
      vertex -2 3.58636 10.5
      vertex -2 3.61216 10.5
    endloop
  endfacet
  facet normal -1 0 -2.38419e-07
    outer loop
      vertex -2 3.58636 10.5
      vertex -2 1.67296 8
      vertex -2 1.51818 8
    endloop
  endfacet
  facet normal -1 0 -3.7283e-07
    outer loop
      vertex -2 2.91587 8.26181
      vertex -2 3.78363 10.5
      vertex -2 3.80204 10.5
    endloop
  endfacet
  facet normal -1 6.08906e-07 -6.08906e-07
    outer loop
      vertex -2 3.78363 10.5
      vertex -2 2.91587 8.26181
      vertex -2 2.73819 8.08412
    endloop
  endfacet
  facet normal 1 2.59849e-06 -1.32399e-06
    outer loop
      vertex 2 2.5497 7.91795
      vertex 2 3.50523 9.07298
      vertex 2 3.61931 9.29688
    endloop
  endfacet
  facet normal 1 1.32782e-06 -3.85766e-07
    outer loop
      vertex 2 2.5497 7.91795
      vertex 2 3.80423 9.76393
      vertex 2 3.87433 10.0052
    endloop
  endfacet
  facet normal 1 -2.0813e-07 1.61442e-07
    outer loop
      vertex 2 2.5497 7.91795
      vertex 2 2.42526 9.23433
      vertex 2 2.38926 9.18792
    endloop
  endfacet
  facet normal -1 3.85559e-07 -5.17581e-07
    outer loop
      vertex -2 2 7.84851
      vertex -2 3.7043 10.5
      vertex -2 2 7.61819
    endloop
  endfacet
  facet normal -1 -0 -2.69756e-07
    outer loop
      vertex -2 3.7043 10.5
      vertex -2 2 7.84851
      vertex -2 3.68269 10.5
    endloop
  endfacet
  facet normal -1 0 -3.23179e-07
    outer loop
      vertex -2 2.5497 7.91795
      vertex -2 3.74524 10.5
      vertex -2 3.76472 10.5
    endloop
  endfacet
  facet normal -1 3.91181e-07 -5.04304e-07
    outer loop
      vertex -2 3.74524 10.5
      vertex -2 2.5497 7.91795
      vertex -2 2.35114 7.76393
    endloop
  endfacet
  facet normal 0 0.707107 -0.707107
    outer loop
      vertex 2 2.73819 8.08412
      vertex -2 2.91587 8.26181
      vertex 2 2.91587 8.26181
    endloop
  endfacet
  facet normal 0 0.707107 -0.707107
    outer loop
      vertex -2 2.91587 8.26181
      vertex 2 2.73819 8.08412
      vertex -2 2.73819 8.08412
    endloop
  endfacet
  facet normal -1 0 -4.35254e-07
    outer loop
      vertex -2 3.37731 8.85669
      vertex -2 3.83754 10.5
      vertex -2 3.85474 10.5
    endloop
  endfacet
  facet normal -1 1.08941e-06 -7.40357e-07
    outer loop
      vertex -2 3.83754 10.5
      vertex -2 3.37731 8.85669
      vertex -2 3.23607 8.64886
    endloop
  endfacet
  facet normal 1 1.22055e-06 -2.51171e-07
    outer loop
      vertex 2 2.5497 7.91795
      vertex 2 3.76472 10.5
      vertex 2 3.66705 10.5
    endloop
  endfacet
  facet normal -1 0 -5.94502e-07
    outer loop
      vertex -2 3.61931 9.29688
      vertex -2 3.87162 10.5
      vertex -2 3.88824 10.5
    endloop
  endfacet
  facet normal -1 1.98295e-06 -1.01036e-06
    outer loop
      vertex -2 3.87162 10.5
      vertex -2 3.61931 9.29688
      vertex -2 3.50523 9.07298
    endloop
  endfacet
  facet normal -1 0 -8.0977e-07
    outer loop
      vertex -2 3.80423 9.76393
      vertex -2 3.90462 10.5
      vertex -2 3.92081 10.5
    endloop
  endfacet
  facet normal -1 3.62102e-06 -1.30365e-06
    outer loop
      vertex -2 3.90462 10.5
      vertex -2 3.80423 9.76393
      vertex -2 3.71911 9.5275
    endloop
  endfacet
  facet normal 0 0.960294 -0.27899
    outer loop
      vertex 2 3.80423 9.76393
      vertex -2 3.87433 10.0052
      vertex 2 3.87433 10.0052
    endloop
  endfacet
  facet normal 0 0.960294 -0.27899
    outer loop
      vertex -2 3.87433 10.0052
      vertex 2 3.80423 9.76393
      vertex -2 3.80423 9.76393
    endloop
  endfacet
  facet normal -1 0 -2.38419e-07
    outer loop
      vertex -2 -1.51818 8
      vertex -2 -3.55919 10.5
      vertex -2 -1.35514 8
    endloop
  endfacet
  facet normal -1 -0 -2.38419e-07
    outer loop
      vertex -2 -3.55919 10.5
      vertex -2 -1.51818 8
      vertex -2 -3.58636 10.5
    endloop
  endfacet
  facet normal 0 -0.562081 -0.827082
    outer loop
      vertex -2 -2.35114 7.76393
      vertex 2 -2.14331 7.62269
      vertex 2 -2.35114 7.76393
    endloop
  endfacet
  facet normal -0 -0.562081 -0.827082
    outer loop
      vertex 2 -2.14331 7.62269
      vertex -2 -2.35114 7.76393
      vertex -2 -2.14331 7.62269
    endloop
  endfacet
  facet normal 1 -1.61658e-06 -5.82004e-07
    outer loop
      vertex 2 -2.5497 7.91795
      vertex 2 -3.80423 9.76393
      vertex 2 -3.71911 9.5275
    endloop
  endfacet
  facet normal 1 2.34015e-07 1.59034e-07
    outer loop
      vertex 2 -2.53298 9.39252
      vertex 2 -2.5497 7.91795
      vertex 2 -2.50466 9.35085
    endloop
  endfacet
  facet normal 1 2.68252e-07 1.58646e-07
    outer loop
      vertex 2 -2.5497 7.91795
      vertex 2 -2.53298 9.39252
      vertex 2 -2.5497 9.42078
    endloop
  endfacet
  facet normal 1 -1.22055e-06 -2.51171e-07
    outer loop
      vertex 2 -3.66705 10.5
      vertex 2 -3.76472 10.5
      vertex 2 -2.5497 7.91795
    endloop
  endfacet
  facet normal 1 8.5688e-08 8.5688e-08
    outer loop
      vertex 2 -2.18691 8.94636
      vertex 2 -2.5497 7.91795
      vertex 2 -2.18142 8.94087
    endloop
  endfacet
  facet normal 1 9.39069e-08 8.27887e-08
    outer loop
      vertex 2 -2.5497 7.91795
      vertex 2 -2.18691 8.94636
      vertex 2 -2.20783 8.97009
    endloop
  endfacet
  facet normal 1 0 0
    outer loop
      vertex 2 2.94686 10.4379
      vertex 2 2.95865 10.5
      vertex 2 2.9567 10.5
    endloop
  endfacet
  facet normal 1 -5.89118e-06 1.11774e-06
    outer loop
      vertex 2 2.94686 10.4379
      vertex 2 2.5497 7.91795
      vertex 2 2.95865 10.5
    endloop
  endfacet
  facet normal 1 -2.87085e-06 6.41707e-07
    outer loop
      vertex 2 2.90575 10.2539
      vertex 2 2.5497 7.91795
      vertex 2 2.94686 10.4379
    endloop
  endfacet
  facet normal 1 3.29138e-06 -2.97551e-07
    outer loop
      vertex 2 2.85317 10.0729
      vertex 2 2.5497 7.91795
      vertex 2 2.90575 10.2539
    endloop
  endfacet
  facet normal 1 -7.57067e-07 2.72565e-07
    outer loop
      vertex 2 2.5497 7.91795
      vertex 2 2.85317 10.0729
      vertex 2 2.80505 9.9393
    endloop
  endfacet
  facet normal 1 -9.39048e-08 8.27894e-08
    outer loop
      vertex 2 2.5497 7.91795
      vertex 2 2.29294 9.06662
      vertex 2 2.26337 9.03309
    endloop
  endfacet
  facet normal -1 -0 -2.41997e-07
    outer loop
      vertex -2 3.55919 10.5
      vertex -2 2.60529 9.51479
      vertex -2 3.53047 10.5
    endloop
  endfacet
  facet normal -1 -6.42224e-07 3.79814e-07
    outer loop
      vertex -2 3.55919 10.5
      vertex -2 2.53298 9.39252
      vertex -2 2.60529 9.51479
    endloop
  endfacet
  facet normal -1 2.22451e-06 -2.27654e-06
    outer loop
      vertex -2 3.55919 10.5
      vertex -2 2.42705 9.23664
      vertex -2 2.53298 9.39252
    endloop
  endfacet
  facet normal -1 -2.34998e-06 1.82282e-06
    outer loop
      vertex -2 3.55919 10.5
      vertex -2 2.31154 9.08773
      vertex -2 2.42705 9.23664
    endloop
  endfacet
  facet normal -1 -0.000139602 0.000123076
    outer loop
      vertex -2 3.55919 10.5
      vertex -2 2.18691 8.94636
      vertex -2 2.31154 9.08773
    endloop
  endfacet
  facet normal -1 4.98485e-06 -4.63316e-06
    outer loop
      vertex -2 1.35514 8
      vertex -2 2.18691 8.94636
      vertex -2 3.55919 10.5
    endloop
  endfacet
  facet normal -1 2.0805e-06 -2.0805e-06
    outer loop
      vertex -2 1.35514 8
      vertex -2 2.05364 8.81309
      vertex -2 2.18691 8.94636
    endloop
  endfacet
  facet normal -1 -2.40996e-06 1.77708e-06
    outer loop
      vertex -2 1.35514 8
      vertex -2 1.91227 8.68846
      vertex -2 2.05364 8.81309
    endloop
  endfacet
  facet normal -1 3.60769e-07 -4.65101e-07
    outer loop
      vertex -2 1.35514 8
      vertex -2 1.76336 8.57295
      vertex -2 1.91227 8.68846
    endloop
  endfacet
  facet normal -1 2.74135e-07 -4.03377e-07
    outer loop
      vertex -2 1.35514 8
      vertex -2 1.64587 8.4931
      vertex -2 1.76336 8.57295
    endloop
  endfacet
  facet normal -1 0 -2.41752e-07
    outer loop
      vertex -2 1.64587 8.4931
      vertex -2 1.35514 8
      vertex -2 1.18281 8
    endloop
  endfacet
  facet normal -1 0 -2.38419e-07
    outer loop
      vertex -2 1.51818 8
      vertex -2 3.55919 10.5
      vertex -2 3.58636 10.5
    endloop
  endfacet
  facet normal -1 0 -2.38419e-07
    outer loop
      vertex -2 3.55919 10.5
      vertex -2 1.51818 8
      vertex -2 1.35514 8
    endloop
  endfacet
  facet normal 0 0.987689 -0.156433
    outer loop
      vertex 2 3.92915 10.2505
      vertex -2 3.96846 10.4987
      vertex 2 3.96846 10.4987
    endloop
  endfacet
  facet normal 0 0.987689 -0.156433
    outer loop
      vertex -2 3.96846 10.4987
      vertex 2 3.92915 10.2505
      vertex -2 3.92915 10.2505
    endloop
  endfacet
  facet normal 1 1.28582e-06 -2.32081e-07
    outer loop
      vertex 2 2.5497 7.91795
      vertex 2 3.572 10.5
      vertex 2 3.47929 10.5
    endloop
  endfacet
  facet normal 1 2.0167e-06 -8.72708e-07
    outer loop
      vertex 2 2.5497 7.91795
      vertex 2 3.61931 9.29688
      vertex 2 3.71911 9.5275
    endloop
  endfacet
  facet normal 1 -9.39054e-08 8.27892e-08
    outer loop
      vertex 2 2.5497 7.91795
      vertex 2 2.26337 9.03309
      vertex 2 2.23505 9.00097
    endloop
  endfacet
  facet normal 1 -2.34013e-07 1.59034e-07
    outer loop
      vertex 2 2.42705 9.23664
      vertex 2 2.5497 7.91795
      vertex 2 2.46337 9.29008
    endloop
  endfacet
  facet normal 1 -2.08146e-07 1.6144e-07
    outer loop
      vertex 2 2.5497 7.91795
      vertex 2 2.42705 9.23664
      vertex 2 2.42526 9.23433
    endloop
  endfacet
  facet normal -1 0 -2.90016e-07
    outer loop
      vertex -2 2.14331 7.62269
      vertex -2 3.7043 10.5
      vertex -2 3.72512 10.5
    endloop
  endfacet
  facet normal -1 0 0
    outer loop
      vertex -2 2 7.61819
      vertex -2 2.14331 7.62269
      vertex -2 2 7.53794
    endloop
  endfacet
  facet normal -1 9.27147e-09 -2.95045e-07
    outer loop
      vertex -2 2.14331 7.62269
      vertex -2 2 7.61819
      vertex -2 3.7043 10.5
    endloop
  endfacet
  facet normal -1 0 -3.04987e-07
    outer loop
      vertex -2 2.35114 7.76393
      vertex -2 3.72512 10.5
      vertex -2 3.74524 10.5
    endloop
  endfacet
  facet normal -1 3.14649e-07 -4.62995e-07
    outer loop
      vertex -2 3.72512 10.5
      vertex -2 2.35114 7.76393
      vertex -2 2.14331 7.62269
    endloop
  endfacet
  facet normal 1 -2.68252e-07 1.58646e-07
    outer loop
      vertex 2 2.53298 9.39252
      vertex 2 2.5497 7.91795
      vertex 2 2.5497 9.42078
    endloop
  endfacet
  facet normal 1 -2.34015e-07 1.59034e-07
    outer loop
      vertex 2 2.5497 7.91795
      vertex 2 2.53298 9.39252
      vertex 2 2.50466 9.35085
    endloop
  endfacet
  facet normal -1 0 -3.86386e-07
    outer loop
      vertex -2 3.23607 8.64886
      vertex -2 3.81999 10.5
      vertex -2 3.83754 10.5
    endloop
  endfacet
  facet normal -1 8.39518e-07 -6.51202e-07
    outer loop
      vertex -2 3.81999 10.5
      vertex -2 3.23607 8.64886
      vertex -2 3.08205 8.4503
    endloop
  endfacet
  facet normal 0 0.827082 -0.562081
    outer loop
      vertex 2 3.23607 8.64886
      vertex -2 3.37731 8.85669
      vertex 2 3.37731 8.85669
    endloop
  endfacet
  facet normal 0 0.827082 -0.562081
    outer loop
      vertex -2 3.37731 8.85669
      vertex 2 3.23607 8.64886
      vertex -2 3.23607 8.64886
    endloop
  endfacet
  facet normal -1 7.27622e-06 -2.00092e-06
    outer loop
      vertex -2 3.71911 9.5275
      vertex -2 3.88824 10.5
      vertex -2 3.90462 10.5
    endloop
  endfacet
  facet normal -1 2.84159e-06 -1.22967e-06
    outer loop
      vertex -2 3.88824 10.5
      vertex -2 3.71911 9.5275
      vertex -2 3.61931 9.29688
    endloop
  endfacet
  facet normal 1 0 2.30842e-07
    outer loop
      vertex 2 2.5497 7.91795
      vertex 2 3.47929 10.5
      vertex 2 3.38866 10.5
    endloop
  endfacet
  facet normal 0 0.790153 -0.61291
    outer loop
      vertex 2 3.08205 8.4503
      vertex -2 3.23607 8.64886
      vertex 2 3.23607 8.64886
    endloop
  endfacet
  facet normal 0 0.790153 -0.61291
    outer loop
      vertex -2 3.23607 8.64886
      vertex 2 3.08205 8.4503
      vertex -2 3.08205 8.4503
    endloop
  endfacet
  facet normal 1 7.9862e-06 -6.19478e-06
    outer loop
      vertex 2 2.5497 7.91795
      vertex 2 3.08205 8.4503
      vertex 2 3.23607 8.64886
    endloop
  endfacet
  facet normal 1 1.11142e-06 -2.48431e-07
    outer loop
      vertex 2 2.5497 7.91795
      vertex 2 3.87433 10.0052
      vertex 2 3.92915 10.2505
    endloop
  endfacet
  facet normal 1 5.02861e-06 -3.41742e-06
    outer loop
      vertex 2 2.5497 7.91795
      vertex 2 3.23607 8.64886
      vertex 2 3.37731 8.85669
    endloop
  endfacet
  facet normal -1 7.43782e-06 -1.90339e-06
    outer loop
      vertex -2 3.87433 10.0052
      vertex -2 3.92081 10.5
      vertex -2 3.93684 10.5
    endloop
  endfacet
  facet normal -1 6.12807e-06 -1.78036e-06
    outer loop
      vertex -2 3.92081 10.5
      vertex -2 3.87433 10.0052
      vertex -2 3.80423 9.76393
    endloop
  endfacet
  facet normal -1 7.49715e-06 -2.14192e-06
    outer loop
      vertex -2 3.92915 10.2505
      vertex -2 3.93684 10.5
      vertex -2 3.95274 10.5
    endloop
  endfacet
  facet normal -1 9.9157e-06 -2.21642e-06
    outer loop
      vertex -2 3.93684 10.5
      vertex -2 3.92915 10.2505
      vertex -2 3.87433 10.0052
    endloop
  endfacet
  facet normal -1 0 -2.38419e-07
    outer loop
      vertex -2 -1.82037 8
      vertex -2 -3.61216 10.5
      vertex -2 -1.67296 8
    endloop
  endfacet
  facet normal -1 -0 -2.38419e-07
    outer loop
      vertex -2 -3.61216 10.5
      vertex -2 -1.82037 8
      vertex -2 -3.63673 10.5
    endloop
  endfacet
  facet normal -1 -3.91181e-07 -5.04304e-07
    outer loop
      vertex -2 -2.5497 7.91795
      vertex -2 -3.74524 10.5
      vertex -2 -2.35114 7.76393
    endloop
  endfacet
  facet normal -1 -0 -3.23179e-07
    outer loop
      vertex -2 -3.74524 10.5
      vertex -2 -2.5497 7.91795
      vertex -2 -3.76472 10.5
    endloop
  endfacet
  facet normal 0 -0.61291 -0.790153
    outer loop
      vertex -2 -2.5497 7.91795
      vertex 2 -2.35114 7.76393
      vertex 2 -2.5497 7.91795
    endloop
  endfacet
  facet normal -0 -0.61291 -0.790153
    outer loop
      vertex 2 -2.35114 7.76393
      vertex -2 -2.5497 7.91795
      vertex -2 -2.35114 7.76393
    endloop
  endfacet
  facet normal -1 -3.14649e-07 -4.62995e-07
    outer loop
      vertex -2 -2.35114 7.76393
      vertex -2 -3.72512 10.5
      vertex -2 -2.14331 7.62269
    endloop
  endfacet
  facet normal -1 -0 -3.04987e-07
    outer loop
      vertex -2 -3.72512 10.5
      vertex -2 -2.35114 7.76393
      vertex -2 -3.74524 10.5
    endloop
  endfacet
  facet normal -1 -6.12807e-06 -1.78036e-06
    outer loop
      vertex -2 -3.87433 10.0052
      vertex -2 -3.92081 10.5
      vertex -2 -3.80423 9.76393
    endloop
  endfacet
  facet normal -1 -7.43782e-06 -1.90339e-06
    outer loop
      vertex -2 -3.92081 10.5
      vertex -2 -3.87433 10.0052
      vertex -2 -3.93684 10.5
    endloop
  endfacet
  facet normal 1 -1.11142e-06 -2.48431e-07
    outer loop
      vertex 2 -2.5497 7.91795
      vertex 2 -3.92915 10.2505
      vertex 2 -3.87433 10.0052
    endloop
  endfacet
  facet normal 1 1.04065e-07 8.07209e-08
    outer loop
      vertex 2 -2.32359 9.10326
      vertex 2 -2.35545 9.14434
      vertex 2 -2.5497 7.91795
    endloop
  endfacet
  facet normal 1 9.39048e-08 8.27894e-08
    outer loop
      vertex 2 -2.26337 9.03309
      vertex 2 -2.29294 9.06662
      vertex 2 -2.5497 7.91795
    endloop
  endfacet
  facet normal 1 0 2.30842e-07
    outer loop
      vertex 2 2.5497 7.91795
      vertex 2 3.38866 10.5
      vertex 2 3.29985 10.5
    endloop
  endfacet
  facet normal 1 -5.80394e-07 2.51158e-07
    outer loop
      vertex 2 2.71448 9.72266
      vertex 2 2.5497 7.91795
      vertex 2 2.72192 9.73984
    endloop
  endfacet
  facet normal 1 2.01051e-06 1.45873e-08
    outer loop
      vertex 2 2.5497 7.91795
      vertex 2 2.71448 9.72266
      vertex 2 2.65602 9.60793
    endloop
  endfacet
  facet normal 1 0 0
    outer loop
      vertex 2 -0.188371 8.00592
      vertex 2 -2 8
      vertex 2 0 8
    endloop
  endfacet
  facet normal 1 0 0
    outer loop
      vertex 2 -0.375999 8.02366
      vertex 2 -2 8
      vertex 2 -0.188371 8.00592
    endloop
  endfacet
  facet normal 1 0 0
    outer loop
      vertex 2 -0.562143 8.05314
      vertex 2 -2 8
      vertex 2 -0.375999 8.02366
    endloop
  endfacet
  facet normal 1 0 0
    outer loop
      vertex 2 -0.746069 8.09425
      vertex 2 -2 8
      vertex 2 -0.562143 8.05314
    endloop
  endfacet
  facet normal 1 0 0
    outer loop
      vertex 2 -0.927051 8.14683
      vertex 2 -2 8
      vertex 2 -0.746069 8.09425
    endloop
  endfacet
  facet normal 1 0 0
    outer loop
      vertex 2 -1.10437 8.21067
      vertex 2 -2 8
      vertex 2 -0.927051 8.14683
    endloop
  endfacet
  facet normal 1 0 0
    outer loop
      vertex 2 -1.27734 8.28552
      vertex 2 -2 8
      vertex 2 -1.10437 8.21067
    endloop
  endfacet
  facet normal 1 -3.10051e-07 7.84756e-07
    outer loop
      vertex 2 -1.44526 8.37108
      vertex 2 -2 8
      vertex 2 -1.27734 8.28552
    endloop
  endfacet
  facet normal 1 1.00837e-07 1.70505e-07
    outer loop
      vertex 2 -1.60748 8.46702
      vertex 2 -2 8
      vertex 2 -1.44526 8.37108
    endloop
  endfacet
  facet normal 1 1.10408e-07 1.62461e-07
    outer loop
      vertex 2 -1.76336 8.57295
      vertex 2 -2 8
      vertex 2 -1.60748 8.46702
    endloop
  endfacet
  facet normal 1 1.2223e-07 1.57578e-07
    outer loop
      vertex 2 -1.91227 8.68846
      vertex 2 -2 8
      vertex 2 -1.76336 8.57295
    endloop
  endfacet
  facet normal 1 1.37238e-07 1.55666e-07
    outer loop
      vertex 2 -2.05364 8.81309
      vertex 2 -2 8
      vertex 2 -1.91227 8.68846
    endloop
  endfacet
  facet normal 1 -2.16714e-08 1.45182e-07
    outer loop
      vertex 2 -2.5497 7.91795
      vertex 2 -2 8
      vertex 2 -2.05364 8.81309
    endloop
  endfacet
  facet normal 1 8.5688e-08 8.5688e-08
    outer loop
      vertex 2 -2.5497 7.91795
      vertex 2 -2.05364 8.81309
      vertex 2 -2.18142 8.94087
    endloop
  endfacet
  facet normal 1 0 0
    outer loop
      vertex 2 -2 8
      vertex 2 -2.5497 7.91795
      vertex 2 -2 7.91795
    endloop
  endfacet
  facet normal 1 -1.37238e-07 1.55666e-07
    outer loop
      vertex 2 1.91227 8.68846
      vertex 2 2 8
      vertex 2 2.05364 8.81309
    endloop
  endfacet
  facet normal 1 -1.2223e-07 1.57578e-07
    outer loop
      vertex 2 1.76336 8.57295
      vertex 2 2 8
      vertex 2 1.91227 8.68846
    endloop
  endfacet
  facet normal 1 -1.10408e-07 1.62461e-07
    outer loop
      vertex 2 1.60748 8.46702
      vertex 2 2 8
      vertex 2 1.76336 8.57295
    endloop
  endfacet
  facet normal 1 -1.00837e-07 1.70505e-07
    outer loop
      vertex 2 1.44526 8.37108
      vertex 2 2 8
      vertex 2 1.60748 8.46702
    endloop
  endfacet
  facet normal 1 3.10051e-07 7.84756e-07
    outer loop
      vertex 2 1.27734 8.28552
      vertex 2 2 8
      vertex 2 1.44526 8.37108
    endloop
  endfacet
  facet normal 1 -0 0
    outer loop
      vertex 2 1.10437 8.21067
      vertex 2 2 8
      vertex 2 1.27734 8.28552
    endloop
  endfacet
  facet normal 1 -0 0
    outer loop
      vertex 2 0.927051 8.14683
      vertex 2 2 8
      vertex 2 1.10437 8.21067
    endloop
  endfacet
  facet normal 1 -0 0
    outer loop
      vertex 2 0.746069 8.09425
      vertex 2 2 8
      vertex 2 0.927051 8.14683
    endloop
  endfacet
  facet normal 1 -0 0
    outer loop
      vertex 2 0.562143 8.05314
      vertex 2 2 8
      vertex 2 0.746069 8.09425
    endloop
  endfacet
  facet normal 1 -0 0
    outer loop
      vertex 2 0.375999 8.02366
      vertex 2 2 8
      vertex 2 0.562143 8.05314
    endloop
  endfacet
  facet normal 1 -0 0
    outer loop
      vertex 2 0.188371 8.00592
      vertex 2 2 8
      vertex 2 0.375999 8.02366
    endloop
  endfacet
  facet normal 1 0 0
    outer loop
      vertex 2 2 8
      vertex 2 0.188371 8.00592
      vertex 2 0 8
    endloop
  endfacet
  facet normal 1 -8.5688e-08 8.5688e-08
    outer loop
      vertex 2 2.05364 8.81309
      vertex 2 2.5497 7.91795
      vertex 2 2.18142 8.94087
    endloop
  endfacet
  facet normal 1 2.16714e-08 1.45182e-07
    outer loop
      vertex 2 2 8
      vertex 2 2.5497 7.91795
      vertex 2 2.05364 8.81309
    endloop
  endfacet
  facet normal 1 0 0
    outer loop
      vertex 2 2.5497 7.91795
      vertex 2 2 8
      vertex 2 2 7.91795
    endloop
  endfacet
  facet normal 1 -9.39069e-08 8.27887e-08
    outer loop
      vertex 2 2.18691 8.94636
      vertex 2 2.5497 7.91795
      vertex 2 2.20783 8.97009
    endloop
  endfacet
  facet normal 1 -8.5688e-08 8.5688e-08
    outer loop
      vertex 2 2.5497 7.91795
      vertex 2 2.18691 8.94636
      vertex 2 2.18142 8.94087
    endloop
  endfacet
  facet normal 0 0.61291 -0.790153
    outer loop
      vertex -2 2.35114 7.76393
      vertex 2 2.5497 7.91795
      vertex 2 2.35114 7.76393
    endloop
  endfacet
  facet normal 0 0.61291 -0.790153
    outer loop
      vertex 2 2.5497 7.91795
      vertex -2 2.35114 7.76393
      vertex -2 2.5497 7.91795
    endloop
  endfacet
  facet normal 1 0 3.23179e-07
    outer loop
      vertex 2 2.5497 7.91795
      vertex 2 3.86532 10.5
      vertex 2 3.76472 10.5
    endloop
  endfacet
  facet normal 1 -1.04062e-07 8.07213e-08
    outer loop
      vertex 2 2.31154 9.08773
      vertex 2 2.5497 7.91795
      vertex 2 2.32359 9.10326
    endloop
  endfacet
  facet normal 1 -9.39066e-08 8.2789e-08
    outer loop
      vertex 2 2.5497 7.91795
      vertex 2 2.31154 9.08773
      vertex 2 2.29294 9.06662
    endloop
  endfacet
  facet normal 1 2.82427e-06 5.44523e-07
    outer loop
      vertex 2 2.5497 7.91795
      vertex 2 2.38926 9.18792
      vertex 2 2.35545 9.14434
    endloop
  endfacet
  facet normal 1 0 2.30842e-07
    outer loop
      vertex 2 2.5497 7.91795
      vertex 2 3.29985 10.5
      vertex 2 3.21265 10.5
    endloop
  endfacet
  facet normal 1 0 1.84674e-07
    outer loop
      vertex 2 2.5497 7.91795
      vertex 2 3.04225 10.5
      vertex 2 2.95865 10.5
    endloop
  endfacet
  facet normal 0 0.917754 -0.39715
    outer loop
      vertex 2 3.61931 9.29688
      vertex -2 3.71911 9.5275
      vertex 2 3.71911 9.5275
    endloop
  endfacet
  facet normal 0 0.917754 -0.39715
    outer loop
      vertex -2 3.71911 9.5275
      vertex 2 3.61931 9.29688
      vertex -2 3.61931 9.29688
    endloop
  endfacet
  facet normal 1 1.61658e-06 -5.82004e-07
    outer loop
      vertex 2 2.5497 7.91795
      vertex 2 3.71911 9.5275
      vertex 2 3.80423 9.76393
    endloop
  endfacet
  facet normal 0 0.66131 -0.750113
    outer loop
      vertex -2 2.5497 7.91795
      vertex 2 2.73819 8.08412
      vertex 2 2.5497 7.91795
    endloop
  endfacet
  facet normal 0 0.66131 -0.750113
    outer loop
      vertex 2 2.73819 8.08412
      vertex -2 2.5497 7.91795
      vertex -2 2.73819 8.08412
    endloop
  endfacet
  facet normal 1 4.27369e-05 -4.27369e-05
    outer loop
      vertex 2 2.5497 7.91795
      vertex 2 2.73819 8.08412
      vertex 2 2.91587 8.26181
    endloop
  endfacet
  facet normal 0 0.975917 -0.218143
    outer loop
      vertex 2 3.87433 10.0052
      vertex -2 3.92915 10.2505
      vertex 2 3.92915 10.2505
    endloop
  endfacet
  facet normal 0 0.975917 -0.218143
    outer loop
      vertex -2 3.92915 10.2505
      vertex 2 3.87433 10.0052
      vertex -2 3.87433 10.0052
    endloop
  endfacet
  facet normal -1 0 0
    outer loop
      vertex -2 -2.14331 7.62269
      vertex -2 -2 7.61819
      vertex -2 -2 7.53794
    endloop
  endfacet
  facet normal -1 -9.27147e-09 -2.95045e-07
    outer loop
      vertex -2 -2.14331 7.62269
      vertex -2 -3.7043 10.5
      vertex -2 -2 7.61819
    endloop
  endfacet
  facet normal -1 -0 -2.90016e-07
    outer loop
      vertex -2 -3.7043 10.5
      vertex -2 -2.14331 7.62269
      vertex -2 -3.72512 10.5
    endloop
  endfacet
  facet normal -1 0 -2.38419e-07
    outer loop
      vertex -2 -1.9612 8
      vertex -2 -3.63673 10.5
      vertex -2 -1.82037 8
    endloop
  endfacet
  facet normal -1 -0 -2.38419e-07
    outer loop
      vertex -2 -3.63673 10.5
      vertex -2 -1.9612 8
      vertex -2 -3.6602 10.5
    endloop
  endfacet
  facet normal 0 -0.975917 -0.218143
    outer loop
      vertex -2 -3.87433 10.0052
      vertex 2 -3.92915 10.2505
      vertex -2 -3.92915 10.2505
    endloop
  endfacet
  facet normal 0 -0.975917 -0.218143
    outer loop
      vertex 2 -3.92915 10.2505
      vertex -2 -3.87433 10.0052
      vertex 2 -3.87433 10.0052
    endloop
  endfacet
  facet normal 1 -7.9862e-06 -6.19478e-06
    outer loop
      vertex 2 -2.5497 7.91795
      vertex 2 -3.23607 8.64886
      vertex 2 -3.08205 8.4503
    endloop
  endfacet
  facet normal 0 -0.790153 -0.61291
    outer loop
      vertex -2 -3.08205 8.4503
      vertex 2 -3.23607 8.64886
      vertex -2 -3.23607 8.64886
    endloop
  endfacet
  facet normal 0 -0.790153 -0.61291
    outer loop
      vertex 2 -3.23607 8.64886
      vertex -2 -3.08205 8.4503
      vertex 2 -3.08205 8.4503
    endloop
  endfacet
  facet normal -1 -2.24451e-05 -3.55492e-06
    outer loop
      vertex -2 -3.96846 10.4987
      vertex -2 -3.95274 10.5
      vertex -2 -3.92915 10.2505
    endloop
  endfacet
  facet normal -1 -2.26258e-05 -1.42423e-06
    outer loop
      vertex -2 -3.95274 10.5
      vertex -2 -3.96846 10.4987
      vertex -2 -3.96854 10.5
    endloop
  endfacet
  facet normal 1 -1.15238e-06 -2.63988e-07
    outer loop
      vertex 2 -3.86532 10.5
      vertex 2 -3.96846 10.4987
      vertex 2 -2.5497 7.91795
    endloop
  endfacet
  facet normal 1 -1.15438e-06 -1.09204e-07
    outer loop
      vertex 2 -3.96846 10.4987
      vertex 2 -3.86532 10.5
      vertex 2 -3.96858 10.5
    endloop
  endfacet
  facet normal 1 0 1.84674e-07
    outer loop
      vertex 2 -3.04225 10.5
      vertex 2 -3.12685 10.5
      vertex 2 -2.5497 7.91795
    endloop
  endfacet
  facet normal 1 -2.01051e-06 1.45873e-08
    outer loop
      vertex 2 -2.71448 9.72266
      vertex 2 -2.5497 7.91795
      vertex 2 -2.65602 9.60793
    endloop
  endfacet
  facet normal 1 5.80394e-07 2.51158e-07
    outer loop
      vertex 2 -2.5497 7.91795
      vertex 2 -2.71448 9.72266
      vertex 2 -2.72192 9.73984
    endloop
  endfacet
  facet normal 1 2.08146e-07 1.6144e-07
    outer loop
      vertex 2 -2.42705 9.23664
      vertex 2 -2.5497 7.91795
      vertex 2 -2.42526 9.23433
    endloop
  endfacet
  facet normal 1 2.34013e-07 1.59034e-07
    outer loop
      vertex 2 -2.5497 7.91795
      vertex 2 -2.42705 9.23664
      vertex 2 -2.46337 9.29008
    endloop
  endfacet
  facet normal 1 2.0813e-07 1.61442e-07
    outer loop
      vertex 2 -2.38926 9.18792
      vertex 2 -2.42526 9.23433
      vertex 2 -2.5497 7.91795
    endloop
  endfacet
  facet normal 1 -2.82427e-06 5.44523e-07
    outer loop
      vertex 2 -2.35545 9.14434
      vertex 2 -2.38926 9.18792
      vertex 2 -2.5497 7.91795
    endloop
  endfacet
  facet normal 1 9.39049e-08 8.27894e-08
    outer loop
      vertex 2 -2.20783 8.97009
      vertex 2 -2.23505 9.00097
      vertex 2 -2.5497 7.91795
    endloop
  endfacet
  facet normal 1 0 1.84674e-07
    outer loop
      vertex 2 2.5497 7.91795
      vertex 2 3.12685 10.5
      vertex 2 3.04225 10.5
    endloop
  endfacet
  facet normal 1 1.38936e-06 -1.25885e-07
    outer loop
      vertex 2 2.5497 7.91795
      vertex 2 3.21265 10.5
      vertex 2 3.12685 10.5
    endloop
  endfacet
  facet normal 1 1.15438e-06 -1.09204e-07
    outer loop
      vertex 2 3.86532 10.5
      vertex 2 3.96846 10.4987
      vertex 2 3.96858 10.5
    endloop
  endfacet
  facet normal 1 1.15238e-06 -2.63988e-07
    outer loop
      vertex 2 3.96846 10.4987
      vertex 2 3.86532 10.5
      vertex 2 2.5497 7.91795
    endloop
  endfacet
  facet normal 1 9.44212e-07 -1.49547e-07
    outer loop
      vertex 2 2.5497 7.91795
      vertex 2 3.92915 10.2505
      vertex 2 3.96846 10.4987
    endloop
  endfacet
  facet normal 0 0.562081 -0.827082
    outer loop
      vertex -2 2.14331 7.62269
      vertex 2 2.35114 7.76393
      vertex 2 2.14331 7.62269
    endloop
  endfacet
  facet normal 0 0.562081 -0.827082
    outer loop
      vertex 2 2.35114 7.76393
      vertex -2 2.14331 7.62269
      vertex -2 2.35114 7.76393
    endloop
  endfacet
  facet normal -1 -4.86921e-07 -5.52307e-07
    outer loop
      vertex -2 -2.73819 8.08412
      vertex -2 -3.76472 10.5
      vertex -2 -2.5497 7.91795
    endloop
  endfacet
  facet normal -1 -0 -3.45409e-07
    outer loop
      vertex -2 -3.76472 10.5
      vertex -2 -2.73819 8.08412
      vertex -2 -3.78363 10.5
    endloop
  endfacet
  facet normal -1 -1.98295e-06 -1.01036e-06
    outer loop
      vertex -2 -3.61931 9.29688
      vertex -2 -3.87162 10.5
      vertex -2 -3.50523 9.07298
    endloop
  endfacet
  facet normal -1 -0 -5.94502e-07
    outer loop
      vertex -2 -3.87162 10.5
      vertex -2 -3.61931 9.29688
      vertex -2 -3.88824 10.5
    endloop
  endfacet
  facet normal 1 -3.50048e-06 -2.07018e-06
    outer loop
      vertex 2 -2.5497 7.91795
      vertex 2 -3.50523 9.07298
      vertex 2 -3.37731 8.85669
    endloop
  endfacet
  facet normal -1 -6.08906e-07 -6.08906e-07
    outer loop
      vertex -2 -2.91587 8.26181
      vertex -2 -3.78363 10.5
      vertex -2 -2.73819 8.08412
    endloop
  endfacet
  facet normal -1 -0 -3.7283e-07
    outer loop
      vertex -2 -3.78363 10.5
      vertex -2 -2.91587 8.26181
      vertex -2 -3.80204 10.5
    endloop
  endfacet
  facet normal 1 -4.27369e-05 -4.27369e-05
    outer loop
      vertex 2 -2.5497 7.91795
      vertex 2 -2.91587 8.26181
      vertex 2 -2.73819 8.08412
    endloop
  endfacet
  facet normal 0 -0.960294 -0.27899
    outer loop
      vertex -2 -3.80423 9.76393
      vertex 2 -3.87433 10.0052
      vertex -2 -3.87433 10.0052
    endloop
  endfacet
  facet normal 0 -0.960294 -0.27899
    outer loop
      vertex 2 -3.87433 10.0052
      vertex -2 -3.80423 9.76393
      vertex 2 -3.80423 9.76393
    endloop
  endfacet
  facet normal 0 -0.995555 -0.094179
    outer loop
      vertex -2 -3.96846 10.4987
      vertex 2 -3.96858 10.5
      vertex -2 -3.96858 10.5
    endloop
  endfacet
  facet normal 0 -0.995555 -0.094179
    outer loop
      vertex 2 -3.96858 10.5
      vertex -2 -3.96846 10.4987
      vertex 2 -3.96846 10.4987
    endloop
  endfacet
  facet normal 1 -1.32782e-06 -3.85766e-07
    outer loop
      vertex 2 -2.5497 7.91795
      vertex 2 -3.87433 10.0052
      vertex 2 -3.80423 9.76393
    endloop
  endfacet
  facet normal 1 0 3.23179e-07
    outer loop
      vertex 2 -3.76472 10.5
      vertex 2 -3.86532 10.5
      vertex 2 -2.5497 7.91795
    endloop
  endfacet
  facet normal 1 -1.28582e-06 -2.32081e-07
    outer loop
      vertex 2 -3.47929 10.5
      vertex 2 -3.572 10.5
      vertex 2 -2.5497 7.91795
    endloop
  endfacet
  facet normal 1 2.68255e-07 1.58646e-07
    outer loop
      vertex 2 -2.62892 9.55474
      vertex 2 -2.5497 7.91795
      vertex 2 -2.59957 9.50512
    endloop
  endfacet
  facet normal 1 3.15889e-07 1.60952e-07
    outer loop
      vertex 2 -2.5497 7.91795
      vertex 2 -2.62892 9.55474
      vertex 2 -2.65602 9.60793
    endloop
  endfacet
  facet normal 1 7.57067e-07 2.72565e-07
    outer loop
      vertex 2 -2.85317 10.0729
      vertex 2 -2.5497 7.91795
      vertex 2 -2.80505 9.9393
    endloop
  endfacet
  facet normal 1 -3.29138e-06 -2.97551e-07
    outer loop
      vertex 2 -2.90575 10.2539
      vertex 2 -2.5497 7.91795
      vertex 2 -2.85317 10.0729
    endloop
  endfacet
  facet normal 1 2.87085e-06 6.41707e-07
    outer loop
      vertex 2 -2.94686 10.4379
      vertex 2 -2.5497 7.91795
      vertex 2 -2.90575 10.2539
    endloop
  endfacet
  facet normal 1 -0 0
    outer loop
      vertex 2 -2.95865 10.5
      vertex 2 -2.94686 10.4379
      vertex 2 -2.9567 10.5
    endloop
  endfacet
  facet normal 1 5.89118e-06 1.11774e-06
    outer loop
      vertex 2 -2.94686 10.4379
      vertex 2 -2.95865 10.5
      vertex 2 -2.5497 7.91795
    endloop
  endfacet
  facet normal 1 2.34012e-07 1.59034e-07
    outer loop
      vertex 2 -2.46337 9.29008
      vertex 2 -2.50466 9.35085
      vertex 2 -2.5497 7.91795
    endloop
  endfacet
  facet normal 0 0.509042 -0.860741
    outer loop
      vertex -2 2 7.53794
      vertex 2 2.14331 7.62269
      vertex 2 2 7.53794
    endloop
  endfacet
  facet normal 0 0.509042 -0.860741
    outer loop
      vertex 2 2.14331 7.62269
      vertex -2 2 7.53794
      vertex -2 2.14331 7.62269
    endloop
  endfacet
  facet normal -1 -3.85559e-07 -5.17581e-07
    outer loop
      vertex -2 -3.7043 10.5
      vertex -2 -2 7.84851
      vertex -2 -2 7.61819
    endloop
  endfacet
  facet normal -1 0 -2.69756e-07
    outer loop
      vertex -2 -2 7.84851
      vertex -2 -3.7043 10.5
      vertex -2 -3.68269 10.5
    endloop
  endfacet
  facet normal -1 4.25067e-07 0
    outer loop
      vertex -2 -3.68269 10.5
      vertex -2 -2 8
      vertex -2 -2 7.84851
    endloop
  endfacet
  facet normal -1 0 -2.86102e-07
    outer loop
      vertex -2 -2 8
      vertex -2 -3.68269 10.5
      vertex -2 -3.6602 10.5
    endloop
  endfacet
  facet normal -1 -3.07258e-06 -2.32654e-06
    outer loop
      vertex -2 -1.9612 8
      vertex -2 -2 8
      vertex -2 -3.6602 10.5
    endloop
  endfacet
  facet normal 0 -0.860741 -0.509043
    outer loop
      vertex -2 -3.37731 8.85669
      vertex 2 -3.50523 9.07298
      vertex -2 -3.50523 9.07298
    endloop
  endfacet
  facet normal 0 -0.860741 -0.509043
    outer loop
      vertex 2 -3.50523 9.07298
      vertex -2 -3.37731 8.85669
      vertex 2 -3.37731 8.85669
    endloop
  endfacet
  facet normal -1 -1.44664e-06 -8.55541e-07
    outer loop
      vertex -2 -3.50523 9.07298
      vertex -2 -3.85474 10.5
      vertex -2 -3.37731 8.85669
    endloop
  endfacet
  facet normal -1 -0 -5.01225e-07
    outer loop
      vertex -2 -3.85474 10.5
      vertex -2 -3.50523 9.07298
      vertex -2 -3.87162 10.5
    endloop
  endfacet
  facet normal 0 -0.940881 -0.338738
    outer loop
      vertex -2 -3.71911 9.5275
      vertex 2 -3.80423 9.76393
      vertex -2 -3.80423 9.76393
    endloop
  endfacet
  facet normal 0 -0.940881 -0.338738
    outer loop
      vertex 2 -3.80423 9.76393
      vertex -2 -3.71911 9.5275
      vertex 2 -3.71911 9.5275
    endloop
  endfacet
  facet normal -1 -3.62102e-06 -1.30365e-06
    outer loop
      vertex -2 -3.80423 9.76393
      vertex -2 -3.90462 10.5
      vertex -2 -3.71911 9.5275
    endloop
  endfacet
  facet normal -1 -0 -8.0977e-07
    outer loop
      vertex -2 -3.90462 10.5
      vertex -2 -3.80423 9.76393
      vertex -2 -3.92081 10.5
    endloop
  endfacet
  facet normal 1 -2.0167e-06 -8.72708e-07
    outer loop
      vertex 2 -2.5497 7.91795
      vertex 2 -3.71911 9.5275
      vertex 2 -3.61931 9.29688
    endloop
  endfacet
  facet normal 0 -0.707107 -0.707107
    outer loop
      vertex -2 -2.73819 8.08412
      vertex 2 -2.91587 8.26181
      vertex -2 -2.91587 8.26181
    endloop
  endfacet
  facet normal 0 -0.707107 -0.707107
    outer loop
      vertex 2 -2.91587 8.26181
      vertex -2 -2.73819 8.08412
      vertex 2 -2.73819 8.08412
    endloop
  endfacet
  facet normal 1 -1.51319e-05 -1.33405e-05
    outer loop
      vertex 2 -2.5497 7.91795
      vertex 2 -3.08205 8.4503
      vertex 2 -2.91587 8.26181
    endloop
  endfacet
  facet normal -1 -7.67638e-07 -6.7676e-07
    outer loop
      vertex -2 -3.08205 8.4503
      vertex -2 -3.80204 10.5
      vertex -2 -2.91587 8.26181
    endloop
  endfacet
  facet normal -1 -6.64019e-06 -2.73958e-06
    outer loop
      vertex -2 -3.80204 10.5
      vertex -2 -3.08205 8.4503
      vertex -2 -3.81999 10.5
    endloop
  endfacet
  facet normal 0 -0.750113 -0.66131
    outer loop
      vertex -2 -2.91587 8.26181
      vertex 2 -3.08205 8.4503
      vertex -2 -3.08205 8.4503
    endloop
  endfacet
  facet normal 0 -0.750113 -0.66131
    outer loop
      vertex 2 -3.08205 8.4503
      vertex -2 -2.91587 8.26181
      vertex 2 -2.91587 8.26181
    endloop
  endfacet
  facet normal 0 -0.66131 -0.750113
    outer loop
      vertex -2 -2.73819 8.08412
      vertex 2 -2.5497 7.91795
      vertex 2 -2.73819 8.08412
    endloop
  endfacet
  facet normal -0 -0.66131 -0.750113
    outer loop
      vertex 2 -2.5497 7.91795
      vertex -2 -2.73819 8.08412
      vertex -2 -2.5497 7.91795
    endloop
  endfacet
  facet normal -1 -9.9157e-06 -2.21642e-06
    outer loop
      vertex -2 -3.92915 10.2505
      vertex -2 -3.93684 10.5
      vertex -2 -3.87433 10.0052
    endloop
  endfacet
  facet normal -1 -7.49715e-06 -2.14192e-06
    outer loop
      vertex -2 -3.93684 10.5
      vertex -2 -3.92915 10.2505
      vertex -2 -3.95274 10.5
    endloop
  endfacet
  facet normal 0 -0.987689 -0.156433
    outer loop
      vertex -2 -3.92915 10.2505
      vertex 2 -3.96846 10.4987
      vertex -2 -3.96846 10.4987
    endloop
  endfacet
  facet normal 0 -0.987689 -0.156433
    outer loop
      vertex 2 -3.96846 10.4987
      vertex -2 -3.92915 10.2505
      vertex 2 -3.92915 10.2505
    endloop
  endfacet
  facet normal 1 -9.44212e-07 -1.49547e-07
    outer loop
      vertex 2 -2.5497 7.91795
      vertex 2 -3.96846 10.4987
      vertex 2 -3.92915 10.2505
    endloop
  endfacet
  facet normal 1 0 2.7701e-07
    outer loop
      vertex 2 -3.572 10.5
      vertex 2 -3.66705 10.5
      vertex 2 -2.5497 7.91795
    endloop
  endfacet
  facet normal 1 0 2.30842e-07
    outer loop
      vertex 2 -3.38866 10.5
      vertex 2 -3.47929 10.5
      vertex 2 -2.5497 7.91795
    endloop
  endfacet
  facet normal 1 0 2.30842e-07
    outer loop
      vertex 2 -3.21265 10.5
      vertex 2 -3.29985 10.5
      vertex 2 -2.5497 7.91795
    endloop
  endfacet
  facet normal 1 -1.38936e-06 -1.25885e-07
    outer loop
      vertex 2 -3.12685 10.5
      vertex 2 -3.21265 10.5
      vertex 2 -2.5497 7.91795
    endloop
  endfacet
  facet normal 1 2.68255e-07 1.58646e-07
    outer loop
      vertex 2 -2.5497 9.42078
      vertex 2 -2.59957 9.50512
      vertex 2 -2.5497 7.91795
    endloop
  endfacet
  facet normal 1 5.80391e-07 2.51158e-07
    outer loop
      vertex 2 -2.78933 9.89563
      vertex 2 -2.5497 7.91795
      vertex 2 -2.72192 9.73984
    endloop
  endfacet
  facet normal 1 7.57077e-07 2.72566e-07
    outer loop
      vertex 2 -2.5497 7.91795
      vertex 2 -2.78933 9.89563
      vertex 2 -2.80505 9.9393
    endloop
  endfacet
  facet normal 1 0 1.84674e-07
    outer loop
      vertex 2 -2.95865 10.5
      vertex 2 -3.04225 10.5
      vertex 2 -2.5497 7.91795
    endloop
  endfacet
  facet normal 0 -0.827082 -0.562081
    outer loop
      vertex -2 -3.23607 8.64886
      vertex 2 -3.37731 8.85669
      vertex -2 -3.37731 8.85669
    endloop
  endfacet
  facet normal 0 -0.827082 -0.562081
    outer loop
      vertex 2 -3.37731 8.85669
      vertex -2 -3.23607 8.64886
      vertex 2 -3.23607 8.64886
    endloop
  endfacet
  facet normal 1 -5.02861e-06 -3.41742e-06
    outer loop
      vertex 2 -2.5497 7.91795
      vertex 2 -3.37731 8.85669
      vertex 2 -3.23607 8.64886
    endloop
  endfacet
  facet normal 0 -0.917754 -0.39715
    outer loop
      vertex -2 -3.61931 9.29688
      vertex 2 -3.71911 9.5275
      vertex -2 -3.71911 9.5275
    endloop
  endfacet
  facet normal 0 -0.917754 -0.39715
    outer loop
      vertex 2 -3.71911 9.5275
      vertex -2 -3.61931 9.29688
      vertex 2 -3.61931 9.29688
    endloop
  endfacet
  facet normal -1 -2.84159e-06 -1.22967e-06
    outer loop
      vertex -2 -3.71911 9.5275
      vertex -2 -3.88824 10.5
      vertex -2 -3.61931 9.29688
    endloop
  endfacet
  facet normal -1 -7.27622e-06 -2.00092e-06
    outer loop
      vertex -2 -3.88824 10.5
      vertex -2 -3.71911 9.5275
      vertex -2 -3.90462 10.5
    endloop
  endfacet
  facet normal -1 -8.39518e-07 -6.51202e-07
    outer loop
      vertex -2 -3.23607 8.64886
      vertex -2 -3.81999 10.5
      vertex -2 -3.08205 8.4503
    endloop
  endfacet
  facet normal -1 -0 -3.86386e-07
    outer loop
      vertex -2 -3.81999 10.5
      vertex -2 -3.23607 8.64886
      vertex -2 -3.83754 10.5
    endloop
  endfacet
  facet normal -1 0 0
    outer loop
      vertex -2 -3.96858 10.5
      vertex -2 -3.96854 10.5
      vertex -2 -3.96846 10.4987
    endloop
  endfacet
  facet normal 1 0 2.30842e-07
    outer loop
      vertex 2 -3.29985 10.5
      vertex 2 -3.38866 10.5
      vertex 2 -2.5497 7.91795
    endloop
  endfacet
  facet normal 0 -0.891007 -0.45399
    outer loop
      vertex -2 -3.50523 9.07298
      vertex 2 -3.61931 9.29688
      vertex -2 -3.61931 9.29688
    endloop
  endfacet
  facet normal 0 -0.891007 -0.45399
    outer loop
      vertex 2 -3.61931 9.29688
      vertex -2 -3.50523 9.07298
      vertex 2 -3.50523 9.07298
    endloop
  endfacet
  facet normal 1 -2.59849e-06 -1.32399e-06
    outer loop
      vertex 2 -2.5497 7.91795
      vertex 2 -3.61931 9.29688
      vertex 2 -3.50523 9.07298
    endloop
  endfacet
  facet normal 0 -0.338742 0.940879
    outer loop
      vertex -2 1.10437 8.21067
      vertex 2 0.927051 8.14683
      vertex 2 1.10437 8.21067
    endloop
  endfacet
  facet normal 0 -0.338742 0.940879
    outer loop
      vertex 2 0.927051 8.14683
      vertex -2 1.10437 8.21067
      vertex -2 0.927051 8.14683
    endloop
  endfacet
  facet normal 0 0.960294 0.27899
    outer loop
      vertex 2 -2.85317 10.0729
      vertex -2 -2.90575 10.2539
      vertex 2 -2.90575 10.2539
    endloop
  endfacet
  facet normal 0 0.960294 0.27899
    outer loop
      vertex -2 -2.90575 10.2539
      vertex 2 -2.85317 10.0729
      vertex -2 -2.85317 10.0729
    endloop
  endfacet
  facet normal 0 0.707107 0.707107
    outer loop
      vertex 2 -2.18142 8.94087
      vertex -2 -2.18691 8.94636
      vertex 2 -2.18691 8.94636
    endloop
  endfacet
  facet normal 0 0.707107 0.707107
    outer loop
      vertex 2 -2.05364 8.81309
      vertex -2 -2.18691 8.94636
      vertex 2 -2.18142 8.94087
    endloop
  endfacet
  facet normal 0 0.707107 0.707107
    outer loop
      vertex -2 -2.18691 8.94636
      vertex 2 -2.05364 8.81309
      vertex -2 -2.05364 8.81309
    endloop
  endfacet
  facet normal 0 -0.750115 0.661308
    outer loop
      vertex -2 2.31154 9.08773
      vertex 2 2.29294 9.06662
      vertex 2 2.31154 9.08773
    endloop
  endfacet
  facet normal 8.43674e-08 -0.750107 0.661317
    outer loop
      vertex -2 2.31154 9.08773
      vertex 2 2.26337 9.03309
      vertex 2 2.29294 9.06662
    endloop
  endfacet
  facet normal 7.41871e-09 -0.750109 0.661314
    outer loop
      vertex -2 2.31154 9.08773
      vertex 2 2.23505 9.00097
      vertex 2 2.26337 9.03309
    endloop
  endfacet
  facet normal -2.32195e-08 -0.75011 0.661313
    outer loop
      vertex -2 2.18691 8.94636
      vertex 2 2.23505 9.00097
      vertex -2 2.31154 9.08773
    endloop
  endfacet
  facet normal -1.15016e-07 -0.750107 0.661317
    outer loop
      vertex 2 2.23505 9.00097
      vertex -2 2.18691 8.94636
      vertex 2 2.20783 8.97009
    endloop
  endfacet
  facet normal 0 -0.750116 0.661306
    outer loop
      vertex 2 2.20783 8.97009
      vertex -2 2.18691 8.94636
      vertex 2 2.18691 8.94636
    endloop
  endfacet
  facet normal 0 -0.975917 0.218142
    outer loop
      vertex -2 2.90575 10.2539
      vertex 2 2.94686 10.4379
      vertex -2 2.94686 10.4379
    endloop
  endfacet
  facet normal 0 -0.975917 0.218142
    outer loop
      vertex 2 2.94686 10.4379
      vertex -2 2.90575 10.2539
      vertex 2 2.90575 10.2539
    endloop
  endfacet
  facet normal 0 -0.790182 0.612872
    outer loop
      vertex -2 2.42705 9.23664
      vertex 2 2.42526 9.23433
      vertex 2 2.42705 9.23664
    endloop
  endfacet
  facet normal 2.99909e-08 -0.790157 0.612905
    outer loop
      vertex -2 2.42705 9.23664
      vertex 2 2.38926 9.18792
      vertex 2 2.42526 9.23433
    endloop
  endfacet
  facet normal 9.36892e-09 -0.790158 0.612904
    outer loop
      vertex -2 2.42705 9.23664
      vertex 2 2.35545 9.14434
      vertex 2 2.38926 9.18792
    endloop
  endfacet
  facet normal 8.89929e-08 -0.790156 0.612906
    outer loop
      vertex -2 2.31154 9.08773
      vertex 2 2.35545 9.14434
      vertex -2 2.42705 9.23664
    endloop
  endfacet
  facet normal 6.95795e-08 -0.790155 0.612907
    outer loop
      vertex 2 2.35545 9.14434
      vertex -2 2.31154 9.08773
      vertex 2 2.32359 9.10326
    endloop
  endfacet
  facet normal 0 -0.790147 0.612918
    outer loop
      vertex 2 2.32359 9.10326
      vertex -2 2.31154 9.08773
      vertex 2 2.31154 9.08773
    endloop
  endfacet
  facet normal 0 -0.917755 0.397148
    outer loop
      vertex -2 2.78933 9.89563
      vertex 2 2.72192 9.73984
      vertex 2 2.78933 9.89563
    endloop
  endfacet
  facet normal -6.35259e-09 -0.917755 0.397148
    outer loop
      vertex -2 2.71448 9.72266
      vertex 2 2.72192 9.73984
      vertex -2 2.78933 9.89563
    endloop
  endfacet
  facet normal 0 -0.917755 0.397146
    outer loop
      vertex 2 2.72192 9.73984
      vertex -2 2.71448 9.72266
      vertex 2 2.71448 9.72266
    endloop
  endfacet
  facet normal 0 -0.860742 0.509041
    outer loop
      vertex -2 2.60529 9.51479
      vertex 2 2.62892 9.55474
      vertex -2 2.62892 9.55474
    endloop
  endfacet
  facet normal -3.7201e-08 -0.860741 0.509044
    outer loop
      vertex -2 2.60529 9.51479
      vertex 2 2.59957 9.50512
      vertex 2 2.62892 9.55474
    endloop
  endfacet
  facet normal -3.93183e-08 -0.860741 0.509043
    outer loop
      vertex -2 2.60529 9.51479
      vertex 2 2.5497 9.42078
      vertex 2 2.59957 9.50512
    endloop
  endfacet
  facet normal 2.09473e-08 -0.86074 0.509045
    outer loop
      vertex -2 2.53298 9.39252
      vertex 2 2.5497 9.42078
      vertex -2 2.60529 9.51479
    endloop
  endfacet
  facet normal 0 -0.860739 0.509047
    outer loop
      vertex 2 2.5497 9.42078
      vertex -2 2.53298 9.39252
      vertex 2 2.53298 9.39252
    endloop
  endfacet
  facet normal 0 -0.940879 0.338743
    outer loop
      vertex -2 2.85317 10.0729
      vertex 2 2.80505 9.9393
      vertex 2 2.85317 10.0729
    endloop
  endfacet
  facet normal -2.49543e-08 -0.940879 0.338742
    outer loop
      vertex -2 2.78933 9.89563
      vertex 2 2.80505 9.9393
      vertex -2 2.85317 10.0729
    endloop
  endfacet
  facet normal 0 -0.94088 0.33874
    outer loop
      vertex 2 2.80505 9.9393
      vertex -2 2.78933 9.89563
      vertex 2 2.78933 9.89563
    endloop
  endfacet
  facet normal 0 -0.612906 0.790156
    outer loop
      vertex -2 1.91227 8.68846
      vertex 2 1.76336 8.57295
      vertex 2 1.91227 8.68846
    endloop
  endfacet
  facet normal 0 -0.612906 0.790156
    outer loop
      vertex 2 1.76336 8.57295
      vertex -2 1.91227 8.68846
      vertex -2 1.76336 8.57295
    endloop
  endfacet
  facet normal 0 -0.453987 0.891008
    outer loop
      vertex -2 1.44526 8.37108
      vertex 2 1.27734 8.28552
      vertex 2 1.44526 8.37108
    endloop
  endfacet
  facet normal -2.32936e-08 -0.453988 0.891008
    outer loop
      vertex -2 1.29402 8.29402
      vertex 2 1.27734 8.28552
      vertex -2 1.44526 8.37108
    endloop
  endfacet
  facet normal 0 -0.453983 0.89101
    outer loop
      vertex 2 1.27734 8.28552
      vertex -2 1.29402 8.29402
      vertex -2 1.27734 8.28552
    endloop
  endfacet
  facet normal 0 -0.509044 0.86074
    outer loop
      vertex -2 1.60748 8.46702
      vertex 2 1.44526 8.37108
      vertex 2 1.60748 8.46702
    endloop
  endfacet
  facet normal 0 -0.509044 0.86074
    outer loop
      vertex 2 1.44526 8.37108
      vertex -2 1.60748 8.46702
      vertex -2 1.44526 8.37108
    endloop
  endfacet
  facet normal 0 -0.156432 0.987689
    outer loop
      vertex -2 0.562143 8.05314
      vertex 2 0.375999 8.02366
      vertex 2 0.562143 8.05314
    endloop
  endfacet
  facet normal 0 -0.156432 0.987689
    outer loop
      vertex 2 0.375999 8.02366
      vertex -2 0.562143 8.05314
      vertex -2 0.375999 8.02366
    endloop
  endfacet
  facet normal 0 -0.27899 0.960294
    outer loop
      vertex -2 0.927051 8.14683
      vertex 2 0.746069 8.09425
      vertex 2 0.927051 8.14683
    endloop
  endfacet
  facet normal 0 -0.27899 0.960294
    outer loop
      vertex 2 0.746069 8.09425
      vertex -2 0.927051 8.14683
      vertex -2 0.746069 8.09425
    endloop
  endfacet
  facet normal 0 -0.218142 0.975917
    outer loop
      vertex -2 0.746069 8.09425
      vertex 2 0.562143 8.05314
      vertex 2 0.746069 8.09425
    endloop
  endfacet
  facet normal 0 -0.218142 0.975917
    outer loop
      vertex 2 0.562143 8.05314
      vertex -2 0.746069 8.09425
      vertex -2 0.562143 8.05314
    endloop
  endfacet
  facet normal -0 0.031409 0.999507
    outer loop
      vertex -2 0 8
      vertex 2 -0.188371 8.00592
      vertex 2 0 8
    endloop
  endfacet
  facet normal 0 0.031409 0.999507
    outer loop
      vertex 2 -0.188371 8.00592
      vertex -2 0 8
      vertex -2 -0.188371 8.00592
    endloop
  endfacet
  facet normal -0 0.509044 0.86074
    outer loop
      vertex -2 -1.44526 8.37108
      vertex 2 -1.60748 8.46702
      vertex 2 -1.44526 8.37108
    endloop
  endfacet
  facet normal 0 0.509044 0.86074
    outer loop
      vertex 2 -1.60748 8.46702
      vertex -2 -1.44526 8.37108
      vertex -2 -1.60748 8.46702
    endloop
  endfacet
  facet normal 0 0.917755 0.397148
    outer loop
      vertex 2 -2.72192 9.73984
      vertex -2 -2.78933 9.89563
      vertex 2 -2.78933 9.89563
    endloop
  endfacet
  facet normal -0 0.917755 0.397146
    outer loop
      vertex -2 -2.71448 9.72266
      vertex 2 -2.72192 9.73984
      vertex 2 -2.71448 9.72266
    endloop
  endfacet
  facet normal -6.35259e-09 0.917755 0.397148
    outer loop
      vertex 2 -2.72192 9.73984
      vertex -2 -2.71448 9.72266
      vertex -2 -2.78933 9.89563
    endloop
  endfacet
  facet normal 0 0.891009 0.453986
    outer loop
      vertex 2 -2.71448 9.72266
      vertex -2 -2.70598 9.70598
      vertex -2 -2.71448 9.72266
    endloop
  endfacet
  facet normal -7.63759e-09 0.891008 0.453988
    outer loop
      vertex 2 -2.65602 9.60793
      vertex -2 -2.70598 9.70598
      vertex 2 -2.71448 9.72266
    endloop
  endfacet
  facet normal -0 0.891008 0.453987
    outer loop
      vertex -2 -2.62892 9.55474
      vertex 2 -2.65602 9.60793
      vertex 2 -2.62892 9.55474
    endloop
  endfacet
  facet normal -3.91137e-09 0.891008 0.453988
    outer loop
      vertex 2 -2.65602 9.60793
      vertex -2 -2.62892 9.55474
      vertex -2 -2.70598 9.70598
    endloop
  endfacet
  facet normal 0 0.790182 0.612872
    outer loop
      vertex 2 -2.42526 9.23433
      vertex -2 -2.42705 9.23664
      vertex 2 -2.42705 9.23664
    endloop
  endfacet
  facet normal 2.99909e-08 0.790157 0.612905
    outer loop
      vertex 2 -2.38926 9.18792
      vertex -2 -2.42705 9.23664
      vertex 2 -2.42526 9.23433
    endloop
  endfacet
  facet normal 9.36892e-09 0.790158 0.612904
    outer loop
      vertex 2 -2.35545 9.14434
      vertex -2 -2.42705 9.23664
      vertex 2 -2.38926 9.18792
    endloop
  endfacet
  facet normal 6.95795e-08 0.790155 0.612907
    outer loop
      vertex -2 -2.31154 9.08773
      vertex 2 -2.35545 9.14434
      vertex 2 -2.32359 9.10326
    endloop
  endfacet
  facet normal -0 0.790147 0.612918
    outer loop
      vertex -2 -2.31154 9.08773
      vertex 2 -2.32359 9.10326
      vertex 2 -2.31154 9.08773
    endloop
  endfacet
  facet normal 8.89929e-08 0.790156 0.612906
    outer loop
      vertex 2 -2.35545 9.14434
      vertex -2 -2.31154 9.08773
      vertex -2 -2.42705 9.23664
    endloop
  endfacet
  facet normal 0 0.860742 0.509041
    outer loop
      vertex 2 -2.62892 9.55474
      vertex -2 -2.60529 9.51479
      vertex -2 -2.62892 9.55474
    endloop
  endfacet
  facet normal -3.7201e-08 0.860741 0.509044
    outer loop
      vertex 2 -2.59957 9.50512
      vertex -2 -2.60529 9.51479
      vertex 2 -2.62892 9.55474
    endloop
  endfacet
  facet normal -3.93183e-08 0.860741 0.509043
    outer loop
      vertex 2 -2.5497 9.42078
      vertex -2 -2.60529 9.51479
      vertex 2 -2.59957 9.50512
    endloop
  endfacet
  facet normal -0 0.860739 0.509047
    outer loop
      vertex -2 -2.53298 9.39252
      vertex 2 -2.5497 9.42078
      vertex 2 -2.53298 9.39252
    endloop
  endfacet
  facet normal 2.09473e-08 0.86074 0.509045
    outer loop
      vertex 2 -2.5497 9.42078
      vertex -2 -2.53298 9.39252
      vertex -2 -2.60529 9.51479
    endloop
  endfacet
  facet normal 0 -0.987688 0.156434
    outer loop
      vertex -2 2.94686 10.4379
      vertex 2 2.9567 10.5
      vertex -2 2.9567 10.5
    endloop
  endfacet
  facet normal 0 -0.987688 0.156434
    outer loop
      vertex 2 2.9567 10.5
      vertex -2 2.94686 10.4379
      vertex 2 2.94686 10.4379
    endloop
  endfacet
  facet normal 0 -0.891009 0.453986
    outer loop
      vertex -2 2.70598 9.70598
      vertex 2 2.71448 9.72266
      vertex -2 2.71448 9.72266
    endloop
  endfacet
  facet normal -7.63759e-09 -0.891008 0.453988
    outer loop
      vertex -2 2.70598 9.70598
      vertex 2 2.65602 9.60793
      vertex 2 2.71448 9.72266
    endloop
  endfacet
  facet normal -3.91137e-09 -0.891008 0.453988
    outer loop
      vertex -2 2.62892 9.55474
      vertex 2 2.65602 9.60793
      vertex -2 2.70598 9.70598
    endloop
  endfacet
  facet normal 0 -0.891008 0.453987
    outer loop
      vertex 2 2.65602 9.60793
      vertex -2 2.62892 9.55474
      vertex 2 2.62892 9.55474
    endloop
  endfacet
  facet normal 0 -0.960294 0.27899
    outer loop
      vertex -2 2.85317 10.0729
      vertex 2 2.90575 10.2539
      vertex -2 2.90575 10.2539
    endloop
  endfacet
  facet normal 0 -0.960294 0.27899
    outer loop
      vertex 2 2.90575 10.2539
      vertex -2 2.85317 10.0729
      vertex 2 2.85317 10.0729
    endloop
  endfacet
  facet normal 0 -0.661313 0.75011
    outer loop
      vertex 2 2.05364 8.81309
      vertex -2 1.91227 8.68846
      vertex 2 1.91227 8.68846
    endloop
  endfacet
  facet normal 0 -0.661313 0.75011
    outer loop
      vertex -2 1.91227 8.68846
      vertex 2 2.05364 8.81309
      vertex -2 2.05364 8.81309
    endloop
  endfacet
  facet normal 0 -0.562082 0.827082
    outer loop
      vertex -2 1.76336 8.57295
      vertex 2 1.60748 8.46702
      vertex 2 1.76336 8.57295
    endloop
  endfacet
  facet normal -1.02115e-07 -0.562084 0.82708
    outer loop
      vertex -2 1.64587 8.4931
      vertex 2 1.60748 8.46702
      vertex -2 1.76336 8.57295
    endloop
  endfacet
  facet normal 0 -0.562076 0.827085
    outer loop
      vertex 2 1.60748 8.46702
      vertex -2 1.64587 8.4931
      vertex -2 1.60748 8.46702
    endloop
  endfacet
  facet normal 0 -0.707107 0.707107
    outer loop
      vertex -2 2.18691 8.94636
      vertex 2 2.18142 8.94087
      vertex 2 2.18691 8.94636
    endloop
  endfacet
  facet normal 0 -0.707107 0.707107
    outer loop
      vertex -2 2.05364 8.81309
      vertex 2 2.18142 8.94087
      vertex -2 2.18691 8.94636
    endloop
  endfacet
  facet normal 0 -0.707107 0.707107
    outer loop
      vertex 2 2.18142 8.94087
      vertex -2 2.05364 8.81309
      vertex 2 2.05364 8.81309
    endloop
  endfacet
  facet normal 0 -0.397148 0.917755
    outer loop
      vertex 2 1.27734 8.28552
      vertex -2 1.10437 8.21067
      vertex 2 1.10437 8.21067
    endloop
  endfacet
  facet normal 0 -0.397148 0.917755
    outer loop
      vertex -2 1.10437 8.21067
      vertex 2 1.27734 8.28552
      vertex -2 1.27734 8.28552
    endloop
  endfacet
  facet normal 0 -0.0941099 0.995562
    outer loop
      vertex -2 0.375999 8.02366
      vertex 2 0.188371 8.00592
      vertex 2 0.375999 8.02366
    endloop
  endfacet
  facet normal 0 -0.0941099 0.995562
    outer loop
      vertex 2 0.188371 8.00592
      vertex -2 0.375999 8.02366
      vertex -2 0.188371 8.00592
    endloop
  endfacet
  facet normal 0 -0.031409 0.999507
    outer loop
      vertex -2 0.188371 8.00592
      vertex 2 0 8
      vertex 2 0.188371 8.00592
    endloop
  endfacet
  facet normal 0 -0.031409 0.999507
    outer loop
      vertex 2 0 8
      vertex -2 0.188371 8.00592
      vertex -2 0 8
    endloop
  endfacet
  facet normal -0 0.27899 0.960294
    outer loop
      vertex -2 -0.746069 8.09425
      vertex 2 -0.927051 8.14683
      vertex 2 -0.746069 8.09425
    endloop
  endfacet
  facet normal 0 0.27899 0.960294
    outer loop
      vertex 2 -0.927051 8.14683
      vertex -2 -0.746069 8.09425
      vertex -2 -0.927051 8.14683
    endloop
  endfacet
  facet normal 0 0.453983 0.89101
    outer loop
      vertex -2 -1.29402 8.29402
      vertex 2 -1.27734 8.28552
      vertex -2 -1.27734 8.28552
    endloop
  endfacet
  facet normal -2.09797e-08 0.453987 0.891008
    outer loop
      vertex 2 -1.27734 8.28552
      vertex -2 -1.29402 8.29402
      vertex 2 -1.44526 8.37108
    endloop
  endfacet
  facet normal 0 0.453988 0.891008
    outer loop
      vertex 2 -1.44526 8.37108
      vertex -2 -1.29402 8.29402
      vertex -2 -1.44526 8.37108
    endloop
  endfacet
  facet normal -0 0.661313 0.75011
    outer loop
      vertex -2 -1.91227 8.68846
      vertex 2 -2.05364 8.81309
      vertex 2 -1.91227 8.68846
    endloop
  endfacet
  facet normal 0 0.661313 0.75011
    outer loop
      vertex 2 -2.05364 8.81309
      vertex -2 -1.91227 8.68846
      vertex -2 -2.05364 8.81309
    endloop
  endfacet
  facet normal 0 0.940879 0.338743
    outer loop
      vertex 2 -2.80505 9.9393
      vertex -2 -2.85317 10.0729
      vertex 2 -2.85317 10.0729
    endloop
  endfacet
  facet normal -0 0.94088 0.33874
    outer loop
      vertex -2 -2.78933 9.89563
      vertex 2 -2.80505 9.9393
      vertex 2 -2.78933 9.89563
    endloop
  endfacet
  facet normal -2.49543e-08 0.940879 0.338742
    outer loop
      vertex 2 -2.80505 9.9393
      vertex -2 -2.78933 9.89563
      vertex -2 -2.85317 10.0729
    endloop
  endfacet
  facet normal 0 0.750115 0.661308
    outer loop
      vertex 2 -2.29294 9.06662
      vertex -2 -2.31154 9.08773
      vertex 2 -2.31154 9.08773
    endloop
  endfacet
  facet normal 8.43674e-08 0.750107 0.661317
    outer loop
      vertex 2 -2.26337 9.03309
      vertex -2 -2.31154 9.08773
      vertex 2 -2.29294 9.06662
    endloop
  endfacet
  facet normal 7.41871e-09 0.750109 0.661314
    outer loop
      vertex 2 -2.23505 9.00097
      vertex -2 -2.31154 9.08773
      vertex 2 -2.26337 9.03309
    endloop
  endfacet
  facet normal -1.15016e-07 0.750107 0.661317
    outer loop
      vertex -2 -2.18691 8.94636
      vertex 2 -2.23505 9.00097
      vertex 2 -2.20783 8.97009
    endloop
  endfacet
  facet normal -0 0.750116 0.661306
    outer loop
      vertex -2 -2.18691 8.94636
      vertex 2 -2.20783 8.97009
      vertex 2 -2.18691 8.94636
    endloop
  endfacet
  facet normal -2.32195e-08 0.75011 0.661313
    outer loop
      vertex 2 -2.23505 9.00097
      vertex -2 -2.18691 8.94636
      vertex -2 -2.31154 9.08773
    endloop
  endfacet
  facet normal 0 -0.827084 0.562078
    outer loop
      vertex -2 2.53298 9.39252
      vertex 2 2.50466 9.35085
      vertex 2 2.53298 9.39252
    endloop
  endfacet
  facet normal 8.68588e-08 -0.82708 0.562084
    outer loop
      vertex -2 2.53298 9.39252
      vertex 2 2.46337 9.29008
      vertex 2 2.50466 9.35085
    endloop
  endfacet
  facet normal 1.24733e-08 -0.827082 0.562082
    outer loop
      vertex -2 2.42705 9.23664
      vertex 2 2.46337 9.29008
      vertex -2 2.53298 9.39252
    endloop
  endfacet
  facet normal 0 -0.827081 0.562082
    outer loop
      vertex 2 2.46337 9.29008
      vertex -2 2.42705 9.23664
      vertex 2 2.42705 9.23664
    endloop
  endfacet
  facet normal -0 0.397148 0.917755
    outer loop
      vertex -2 -1.10437 8.21067
      vertex 2 -1.27734 8.28552
      vertex 2 -1.10437 8.21067
    endloop
  endfacet
  facet normal 0 0.397148 0.917755
    outer loop
      vertex 2 -1.27734 8.28552
      vertex -2 -1.10437 8.21067
      vertex -2 -1.27734 8.28552
    endloop
  endfacet
  facet normal 0 0.975917 0.218142
    outer loop
      vertex 2 -2.90575 10.2539
      vertex -2 -2.94686 10.4379
      vertex 2 -2.94686 10.4379
    endloop
  endfacet
  facet normal 0 0.975917 0.218142
    outer loop
      vertex -2 -2.94686 10.4379
      vertex 2 -2.90575 10.2539
      vertex -2 -2.90575 10.2539
    endloop
  endfacet
  facet normal 0 0.827084 0.562078
    outer loop
      vertex 2 -2.50466 9.35085
      vertex -2 -2.53298 9.39252
      vertex 2 -2.53298 9.39252
    endloop
  endfacet
  facet normal 8.68588e-08 0.82708 0.562084
    outer loop
      vertex 2 -2.46337 9.29008
      vertex -2 -2.53298 9.39252
      vertex 2 -2.50466 9.35085
    endloop
  endfacet
  facet normal -0 0.827081 0.562082
    outer loop
      vertex -2 -2.42705 9.23664
      vertex 2 -2.46337 9.29008
      vertex 2 -2.42705 9.23664
    endloop
  endfacet
  facet normal 1.24733e-08 0.827082 0.562082
    outer loop
      vertex 2 -2.46337 9.29008
      vertex -2 -2.42705 9.23664
      vertex -2 -2.53298 9.39252
    endloop
  endfacet
  facet normal -0 0.156432 0.987689
    outer loop
      vertex -2 -0.375999 8.02366
      vertex 2 -0.562143 8.05314
      vertex 2 -0.375999 8.02366
    endloop
  endfacet
  facet normal 0 0.156432 0.987689
    outer loop
      vertex 2 -0.562143 8.05314
      vertex -2 -0.375999 8.02366
      vertex -2 -0.562143 8.05314
    endloop
  endfacet
  facet normal -0 0.218142 0.975917
    outer loop
      vertex -2 -0.562143 8.05314
      vertex 2 -0.746069 8.09425
      vertex 2 -0.562143 8.05314
    endloop
  endfacet
  facet normal 0 0.218142 0.975917
    outer loop
      vertex 2 -0.746069 8.09425
      vertex -2 -0.562143 8.05314
      vertex -2 -0.746069 8.09425
    endloop
  endfacet
  facet normal -0 0.0941099 0.995562
    outer loop
      vertex -2 -0.188371 8.00592
      vertex 2 -0.375999 8.02366
      vertex 2 -0.188371 8.00592
    endloop
  endfacet
  facet normal 0 0.0941099 0.995562
    outer loop
      vertex 2 -0.375999 8.02366
      vertex -2 -0.188371 8.00592
      vertex -2 -0.375999 8.02366
    endloop
  endfacet
  facet normal -0 0.338742 0.940879
    outer loop
      vertex -2 -0.927051 8.14683
      vertex 2 -1.10437 8.21067
      vertex 2 -0.927051 8.14683
    endloop
  endfacet
  facet normal 0 0.338742 0.940879
    outer loop
      vertex 2 -1.10437 8.21067
      vertex -2 -0.927051 8.14683
      vertex -2 -1.10437 8.21067
    endloop
  endfacet
  facet normal 0 0.562076 0.827085
    outer loop
      vertex -2 -1.64587 8.4931
      vertex 2 -1.60748 8.46702
      vertex -2 -1.60748 8.46702
    endloop
  endfacet
  facet normal -7.69662e-08 0.562082 0.827082
    outer loop
      vertex 2 -1.60748 8.46702
      vertex -2 -1.64587 8.4931
      vertex 2 -1.76336 8.57295
    endloop
  endfacet
  facet normal 0 0.562084 0.82708
    outer loop
      vertex 2 -1.76336 8.57295
      vertex -2 -1.64587 8.4931
      vertex -2 -1.76336 8.57295
    endloop
  endfacet
  facet normal -0 0.612906 0.790156
    outer loop
      vertex -2 -1.76336 8.57295
      vertex 2 -1.91227 8.68846
      vertex 2 -1.76336 8.57295
    endloop
  endfacet
  facet normal 0 0.612906 0.790156
    outer loop
      vertex 2 -1.91227 8.68846
      vertex -2 -1.76336 8.57295
      vertex -2 -1.91227 8.68846
    endloop
  endfacet
  facet normal 0 0.987688 0.156434
    outer loop
      vertex 2 -2.94686 10.4379
      vertex -2 -2.9567 10.5
      vertex 2 -2.9567 10.5
    endloop
  endfacet
  facet normal 0 0.987688 0.156434
    outer loop
      vertex -2 -2.9567 10.5
      vertex 2 -2.94686 10.4379
      vertex -2 -2.94686 10.4379
    endloop
  endfacet
  facet normal -0 0 1
    outer loop
      vertex -2 -2.9567 10.5
      vertex 2 -2.95865 10.5
      vertex 2 -2.9567 10.5
    endloop
  endfacet
  facet normal 0 0 1
    outer loop
      vertex 2 -2.95865 10.5
      vertex -2 -2.9567 10.5
      vertex 2 -3.04225 10.5
    endloop
  endfacet
  facet normal 0 0 1
    outer loop
      vertex 2 -3.04225 10.5
      vertex -2 -2.9567 10.5
      vertex 2 -3.12685 10.5
    endloop
  endfacet
  facet normal 0 0 1
    outer loop
      vertex -2 -3.5 10.5
      vertex 2 -3.29985 10.5
      vertex 2 -3.21265 10.5
    endloop
  endfacet
  facet normal 0 0 1
    outer loop
      vertex 2 -3.29985 10.5
      vertex -2 -3.5 10.5
      vertex 2 -3.38866 10.5
    endloop
  endfacet
  facet normal 0 0 1
    outer loop
      vertex 2 -3.38866 10.5
      vertex -2 -3.5 10.5
      vertex 2 -3.47929 10.5
    endloop
  endfacet
  facet normal -0 0 1
    outer loop
      vertex -2 -3.63673 10.5
      vertex 2 -3.66705 10.5
      vertex 2 -3.572 10.5
    endloop
  endfacet
  facet normal 0 0 1
    outer loop
      vertex 2 -3.47929 10.5
      vertex -2 -3.5 10.5
      vertex 2 -3.572 10.5
    endloop
  endfacet
  facet normal -0 0 1
    outer loop
      vertex -2 -3.83754 10.5
      vertex 2 -3.86532 10.5
      vertex 2 -3.76472 10.5
    endloop
  endfacet
  facet normal -0 0 1
    outer loop
      vertex -2 -3.53047 10.5
      vertex 2 -3.572 10.5
      vertex -2 -3.5 10.5
    endloop
  endfacet
  facet normal 0 0 1
    outer loop
      vertex 2 -3.12685 10.5
      vertex -2 -2.9567 10.5
      vertex 2 -3.21265 10.5
    endloop
  endfacet
  facet normal -0 0 1
    outer loop
      vertex -2 -3.55919 10.5
      vertex 2 -3.572 10.5
      vertex -2 -3.53047 10.5
    endloop
  endfacet
  facet normal 0 0 1
    outer loop
      vertex 2 -3.96858 10.5
      vertex -2 -3.95274 10.5
      vertex -2 -3.96854 10.5
    endloop
  endfacet
  facet normal 0 0 1
    outer loop
      vertex 2 -3.96858 10.5
      vertex -2 -3.93684 10.5
      vertex -2 -3.95274 10.5
    endloop
  endfacet
  facet normal 0 0 1
    outer loop
      vertex 2 -3.96858 10.5
      vertex -2 -3.90462 10.5
      vertex -2 -3.93684 10.5
    endloop
  endfacet
  facet normal 0 0 1
    outer loop
      vertex 2 -3.86532 10.5
      vertex -2 -3.83754 10.5
      vertex -2 -3.85474 10.5
    endloop
  endfacet
  facet normal 0 0 1
    outer loop
      vertex 2 -3.21265 10.5
      vertex -2 -2.9567 10.5
      vertex -2 -3.5 10.5
    endloop
  endfacet
  facet normal 0 0 1
    outer loop
      vertex -2 -3.58636 10.5
      vertex 2 -3.572 10.5
      vertex -2 -3.55919 10.5
    endloop
  endfacet
  facet normal 0 0 1
    outer loop
      vertex -2 -3.61216 10.5
      vertex 2 -3.572 10.5
      vertex -2 -3.58636 10.5
    endloop
  endfacet
  facet normal 0 0 1
    outer loop
      vertex -2 -3.63673 10.5
      vertex 2 -3.572 10.5
      vertex -2 -3.61216 10.5
    endloop
  endfacet
  facet normal -0 0 1
    outer loop
      vertex -2 -3.6602 10.5
      vertex 2 -3.66705 10.5
      vertex -2 -3.63673 10.5
    endloop
  endfacet
  facet normal 0 0 1
    outer loop
      vertex -2 -3.68269 10.5
      vertex 2 -3.66705 10.5
      vertex -2 -3.6602 10.5
    endloop
  endfacet
  facet normal 0 0 1
    outer loop
      vertex -2 -3.7043 10.5
      vertex 2 -3.66705 10.5
      vertex -2 -3.68269 10.5
    endloop
  endfacet
  facet normal 0 0 1
    outer loop
      vertex 2 -3.66705 10.5
      vertex -2 -3.7043 10.5
      vertex 2 -3.76472 10.5
    endloop
  endfacet
  facet normal -0 0 1
    outer loop
      vertex -2 -3.72512 10.5
      vertex 2 -3.76472 10.5
      vertex -2 -3.7043 10.5
    endloop
  endfacet
  facet normal -0 0 1
    outer loop
      vertex -2 -3.74524 10.5
      vertex 2 -3.76472 10.5
      vertex -2 -3.72512 10.5
    endloop
  endfacet
  facet normal 0 0 1
    outer loop
      vertex -2 -3.76472 10.5
      vertex 2 -3.76472 10.5
      vertex -2 -3.74524 10.5
    endloop
  endfacet
  facet normal 0 0 1
    outer loop
      vertex -2 -3.78363 10.5
      vertex 2 -3.76472 10.5
      vertex -2 -3.76472 10.5
    endloop
  endfacet
  facet normal 0 -0 1
    outer loop
      vertex -2 -3.81999 10.5
      vertex 2 -3.76472 10.5
      vertex -2 -3.78363 10.5
    endloop
  endfacet
  facet normal 0 0 1
    outer loop
      vertex -2 -3.83754 10.5
      vertex 2 -3.76472 10.5
      vertex -2 -3.81999 10.5
    endloop
  endfacet
  facet normal 0 0 1
    outer loop
      vertex -2 -3.81999 10.5
      vertex -2 -3.78363 10.5
      vertex -2 -3.80204 10.5
    endloop
  endfacet
  facet normal 0 0 1
    outer loop
      vertex 2 -3.96858 10.5
      vertex -2 -3.96854 10.5
      vertex -2 -3.96858 10.5
    endloop
  endfacet
  facet normal 0 0 1
    outer loop
      vertex -2 -3.93684 10.5
      vertex -2 -3.90462 10.5
      vertex -2 -3.92081 10.5
    endloop
  endfacet
  facet normal 0 0 1
    outer loop
      vertex -2 -3.87162 10.5
      vertex 2 -3.86532 10.5
      vertex -2 -3.85474 10.5
    endloop
  endfacet
  facet normal 0 -0 1
    outer loop
      vertex -2 -3.90462 10.5
      vertex 2 -3.86532 10.5
      vertex -2 -3.87162 10.5
    endloop
  endfacet
  facet normal 0 0 1
    outer loop
      vertex 2 -3.86532 10.5
      vertex -2 -3.90462 10.5
      vertex 2 -3.96858 10.5
    endloop
  endfacet
  facet normal 0 0 1
    outer loop
      vertex -2 -3.90462 10.5
      vertex -2 -3.87162 10.5
      vertex -2 -3.88824 10.5
    endloop
  endfacet
  facet normal -0 0 1
    outer loop
      vertex -2 3.90462 10.5
      vertex 2 3.86532 10.5
      vertex 2 3.96858 10.5
    endloop
  endfacet
  facet normal -0 0 1
    outer loop
      vertex -2 3.7043 10.5
      vertex 2 3.66705 10.5
      vertex 2 3.76472 10.5
    endloop
  endfacet
  facet normal 0 0 1
    outer loop
      vertex -2 3.5 10.5
      vertex 2 3.38866 10.5
      vertex 2 3.47929 10.5
    endloop
  endfacet
  facet normal 0 0 1
    outer loop
      vertex 2 3.38866 10.5
      vertex -2 3.5 10.5
      vertex 2 3.29985 10.5
    endloop
  endfacet
  facet normal -0 0 1
    outer loop
      vertex -2 3.5 10.5
      vertex 2 3.47929 10.5
      vertex 2 3.572 10.5
    endloop
  endfacet
  facet normal 0 0 1
    outer loop
      vertex -2 2.9567 10.5
      vertex 2 3.04225 10.5
      vertex 2 3.12685 10.5
    endloop
  endfacet
  facet normal 0 0 1
    outer loop
      vertex 2 3.04225 10.5
      vertex -2 2.9567 10.5
      vertex 2 2.95865 10.5
    endloop
  endfacet
  facet normal 0 0 1
    outer loop
      vertex -2 2.9567 10.5
      vertex 2 3.12685 10.5
      vertex 2 3.21265 10.5
    endloop
  endfacet
  facet normal 0 0 1
    outer loop
      vertex 2 3.66705 10.5
      vertex -2 3.63673 10.5
      vertex 2 3.572 10.5
    endloop
  endfacet
  facet normal 0 0 1
    outer loop
      vertex -2 3.83754 10.5
      vertex 2 3.86532 10.5
      vertex -2 3.85474 10.5
    endloop
  endfacet
  facet normal 0 0 1
    outer loop
      vertex 2 3.572 10.5
      vertex -2 3.55919 10.5
      vertex -2 3.53047 10.5
    endloop
  endfacet
  facet normal 0 0 1
    outer loop
      vertex -2 3.96854 10.5
      vertex 2 3.96858 10.5
      vertex -2 3.96858 10.5
    endloop
  endfacet
  facet normal 0 0 1
    outer loop
      vertex -2 3.95274 10.5
      vertex 2 3.96858 10.5
      vertex -2 3.96854 10.5
    endloop
  endfacet
  facet normal 0 0 1
    outer loop
      vertex -2 3.93684 10.5
      vertex 2 3.96858 10.5
      vertex -2 3.95274 10.5
    endloop
  endfacet
  facet normal 0 0 1
    outer loop
      vertex -2 3.92081 10.5
      vertex 2 3.96858 10.5
      vertex -2 3.93684 10.5
    endloop
  endfacet
  facet normal 0 0 1
    outer loop
      vertex -2 3.90462 10.5
      vertex 2 3.96858 10.5
      vertex -2 3.92081 10.5
    endloop
  endfacet
  facet normal 0 0 1
    outer loop
      vertex 2 3.86532 10.5
      vertex -2 3.90462 10.5
      vertex -2 3.88824 10.5
    endloop
  endfacet
  facet normal 0 0 1
    outer loop
      vertex 2 3.86532 10.5
      vertex -2 3.88824 10.5
      vertex -2 3.87162 10.5
    endloop
  endfacet
  facet normal 0 0 1
    outer loop
      vertex 2 3.86532 10.5
      vertex -2 3.87162 10.5
      vertex -2 3.85474 10.5
    endloop
  endfacet
  facet normal 0 0 1
    outer loop
      vertex 2 3.86532 10.5
      vertex -2 3.83754 10.5
      vertex 2 3.76472 10.5
    endloop
  endfacet
  facet normal 0 0 1
    outer loop
      vertex 2 3.76472 10.5
      vertex -2 3.83754 10.5
      vertex -2 3.81999 10.5
    endloop
  endfacet
  facet normal 0 0 1
    outer loop
      vertex 2 3.76472 10.5
      vertex -2 3.81999 10.5
      vertex -2 3.80204 10.5
    endloop
  endfacet
  facet normal 0 0 1
    outer loop
      vertex 2 3.76472 10.5
      vertex -2 3.80204 10.5
      vertex -2 3.78363 10.5
    endloop
  endfacet
  facet normal 0 0 1
    outer loop
      vertex 2 3.76472 10.5
      vertex -2 3.78363 10.5
      vertex -2 3.76472 10.5
    endloop
  endfacet
  facet normal 0 0 1
    outer loop
      vertex 2 3.76472 10.5
      vertex -2 3.76472 10.5
      vertex -2 3.74524 10.5
    endloop
  endfacet
  facet normal 0 0 1
    outer loop
      vertex 2 3.76472 10.5
      vertex -2 3.74524 10.5
      vertex -2 3.72512 10.5
    endloop
  endfacet
  facet normal 0 0 1
    outer loop
      vertex 2 3.76472 10.5
      vertex -2 3.72512 10.5
      vertex -2 3.7043 10.5
    endloop
  endfacet
  facet normal 0 0 1
    outer loop
      vertex 2 3.66705 10.5
      vertex -2 3.7043 10.5
      vertex -2 3.68269 10.5
    endloop
  endfacet
  facet normal 0 0 1
    outer loop
      vertex 2 3.66705 10.5
      vertex -2 3.68269 10.5
      vertex -2 3.6602 10.5
    endloop
  endfacet
  facet normal 0 0 1
    outer loop
      vertex 2 3.66705 10.5
      vertex -2 3.6602 10.5
      vertex -2 3.63673 10.5
    endloop
  endfacet
  facet normal 0 0 1
    outer loop
      vertex 2 3.572 10.5
      vertex -2 3.63673 10.5
      vertex -2 3.61216 10.5
    endloop
  endfacet
  facet normal 0 0 1
    outer loop
      vertex 2 3.572 10.5
      vertex -2 3.61216 10.5
      vertex -2 3.58636 10.5
    endloop
  endfacet
  facet normal 0 0 1
    outer loop
      vertex 2 3.572 10.5
      vertex -2 3.58636 10.5
      vertex -2 3.55919 10.5
    endloop
  endfacet
  facet normal 0 0 1
    outer loop
      vertex 2 3.572 10.5
      vertex -2 3.53047 10.5
      vertex -2 3.5 10.5
    endloop
  endfacet
  facet normal 0 0 1
    outer loop
      vertex 2 3.29985 10.5
      vertex -2 3.5 10.5
      vertex 2 3.21265 10.5
    endloop
  endfacet
  facet normal 0 0 1
    outer loop
      vertex -2 2.9567 10.5
      vertex 2 3.21265 10.5
      vertex -2 3.5 10.5
    endloop
  endfacet
  facet normal 0 0 1
    outer loop
      vertex 2 2.95865 10.5
      vertex -2 2.9567 10.5
      vertex 2 2.9567 10.5
    endloop
  endfacet
  facet normal -1 0 0
    outer loop
      vertex -2 -2 2
      vertex -2 2 8
      vertex -2 2 2
    endloop
  endfacet
  facet normal -1 -0 0
    outer loop
      vertex -2 2 8
      vertex -2 -2 2
      vertex -2 -2 8
    endloop
  endfacet
  facet normal 0 0 0
    outer loop
      vertex -2 1.9612 8
      vertex -2 1.67296 8
      vertex -2 1.82037 8
    endloop
  endfacet
  facet normal 0 0 0
    outer loop
      vertex -2 1.9612 8
      vertex -2 1.51818 8
      vertex -2 1.67296 8
    endloop
  endfacet
  facet normal 0 0 0
    outer loop
      vertex -2 1.9612 8
      vertex -2 1.35514 8
      vertex -2 1.51818 8
    endloop
  endfacet
  facet normal 0 0 0
    outer loop
      vertex -2 1.9612 8
      vertex -2 1.18281 8
      vertex -2 1.35514 8
    endloop
  endfacet
  facet normal 0 0 0
    outer loop
      vertex -2 1.9612 8
      vertex -2 1 8
      vertex -2 1.18281 8
    endloop
  endfacet
  facet normal 0 0 0
    outer loop
      vertex -2 1.9612 8
      vertex -2 0 8
      vertex -2 1 8
    endloop
  endfacet
  facet normal 0 0 0
    outer loop
      vertex -2 1.9612 8
      vertex -2 -1 8
      vertex -2 0 8
    endloop
  endfacet
  facet normal 0 0 0
    outer loop
      vertex -2 1.9612 8
      vertex -2 -1.18281 8
      vertex -2 -1 8
    endloop
  endfacet
  facet normal 0 0 0
    outer loop
      vertex -2 1.9612 8
      vertex -2 -1.35514 8
      vertex -2 -1.18281 8
    endloop
  endfacet
  facet normal 0 0 0
    outer loop
      vertex -2 1.9612 8
      vertex -2 -1.51818 8
      vertex -2 -1.35514 8
    endloop
  endfacet
  facet normal 0 0 0
    outer loop
      vertex -2 1.9612 8
      vertex -2 -1.67296 8
      vertex -2 -1.51818 8
    endloop
  endfacet
  facet normal 0 0 0
    outer loop
      vertex -2 1.9612 8
      vertex -2 -1.82037 8
      vertex -2 -1.67296 8
    endloop
  endfacet
  facet normal 0 0 0
    outer loop
      vertex -2 1.9612 8
      vertex -2 -1.9612 8
      vertex -2 -1.82037 8
    endloop
  endfacet
  facet normal 0 0 1
    outer loop
      vertex -2 1.9612 8
      vertex -2 2 8
      vertex -2 -1.9612 8
    endloop
  endfacet
  facet normal 0 0 1
    outer loop
      vertex -2 -2 8
      vertex -2 -1.9612 8
      vertex -2 2 8
    endloop
  endfacet
  facet normal 0 0 0
    outer loop
      vertex 2 0 8
      vertex 2 -2 8
      vertex 2 2 8
    endloop
  endfacet
  facet normal 0 1 0
    outer loop
      vertex 2 2 7.53794
      vertex 2 2 2
      vertex -2 2 7.53794
    endloop
  endfacet
  facet normal 0 1 0
    outer loop
      vertex -2 2 7.61819
      vertex -2 2 8
      vertex -2 2 7.84851
    endloop
  endfacet
  facet normal 0 1 -0
    outer loop
      vertex -2 2 7.53794
      vertex -2 2 8
      vertex -2 2 7.61819
    endloop
  endfacet
  facet normal 0 1 0
    outer loop
      vertex -2 2 7.53794
      vertex -2 2 2
      vertex -2 2 8
    endloop
  endfacet
  facet normal 0 1 0
    outer loop
      vertex -2 2 2
      vertex -2 2 7.53794
      vertex 2 2 2
    endloop
  endfacet
  facet normal 0 0 1
    outer loop
      vertex 5 5 2
      vertex 2 2 2
      vertex 5 -5 2
    endloop
  endfacet
  facet normal 0 0 1
    outer loop
      vertex 5 5 2
      vertex -2 2 2
      vertex 2 2 2
    endloop
  endfacet
  facet normal 0 0 1
    outer loop
      vertex -2 2 2
      vertex -5 5 2
      vertex -2 -2 2
    endloop
  endfacet
  facet normal -0 0 1
    outer loop
      vertex -5 5 2
      vertex -2 2 2
      vertex 5 5 2
    endloop
  endfacet
  facet normal -0 0 1
    outer loop
      vertex 2 -2 2
      vertex 5 -5 2
      vertex 2 2 2
    endloop
  endfacet
  facet normal -0 0 1
    outer loop
      vertex -2 -2 2
      vertex 5 -5 2
      vertex 2 -2 2
    endloop
  endfacet
  facet normal 0 0 1
    outer loop
      vertex -2 -2 2
      vertex -5 -5 2
      vertex 5 -5 2
    endloop
  endfacet
  facet normal 0 0 1
    outer loop
      vertex -5 -5 2
      vertex -2 -2 2
      vertex -5 5 2
    endloop
  endfacet
  facet normal 0 -1 0
    outer loop
      vertex -2 -2 8
      vertex -2 -2 7.61819
      vertex -2 -2 7.84851
    endloop
  endfacet
  facet normal 0 -1 0
    outer loop
      vertex -2 -2 8
      vertex -2 -2 7.53794
      vertex -2 -2 7.61819
    endloop
  endfacet
  facet normal 0 -1 0
    outer loop
      vertex -2 -2 2
      vertex -2 -2 7.53794
      vertex -2 -2 8
    endloop
  endfacet
  facet normal 0 -1 0
    outer loop
      vertex -2 -2 2
      vertex 2 -2 7.53794
      vertex -2 -2 7.53794
    endloop
  endfacet
  facet normal 0 -1 -0
    outer loop
      vertex 2 -2 7.53794
      vertex -2 -2 2
      vertex 2 -2 2
    endloop
  endfacet
  facet normal -1 0 0
    outer loop
      vertex -5 -5 0
      vertex -5 5 2
      vertex -5 5 0
    endloop
  endfacet
  facet normal -1 -0 0
    outer loop
      vertex -5 5 2
      vertex -5 -5 0
      vertex -5 -5 2
    endloop
  endfacet
  facet normal 1 -0 0
    outer loop
      vertex 5 -5 2
      vertex 5 5 0
      vertex 5 5 2
    endloop
  endfacet
  facet normal 1 0 0
    outer loop
      vertex 5 5 0
      vertex 5 -5 2
      vertex 5 -5 0
    endloop
  endfacet
  facet normal 0 1 -0
    outer loop
      vertex 5 5 0
      vertex -5 5 2
      vertex 5 5 2
    endloop
  endfacet
  facet normal 0 1 0
    outer loop
      vertex -5 5 2
      vertex 5 5 0
      vertex -5 5 0
    endloop
  endfacet
  facet normal 0 0 -1
    outer loop
      vertex -5 -5 0
      vertex 5 5 0
      vertex 5 -5 0
    endloop
  endfacet
  facet normal -0 0 -1
    outer loop
      vertex 5 5 0
      vertex -5 -5 0
      vertex -5 5 0
    endloop
  endfacet
  facet normal 0 -1 0
    outer loop
      vertex -5 -5 0
      vertex 5 -5 2
      vertex -5 -5 2
    endloop
  endfacet
  facet normal 0 -1 -0
    outer loop
      vertex 5 -5 2
      vertex -5 -5 0
      vertex 5 -5 0
    endloop
  endfacet
endsolid OpenSCAD_Model
