solid OpenSCAD_Model
  facet normal 0 0.309017 -0.951057
    outer loop
      vertex -1 0 15
      vertex -1.5 0 15
      vertex -1 1 15.3249
    endloop
  endfacet
  facet normal 0 0.309017 -0.951057
    outer loop
      vertex 1 1 15.3249
      vertex 1.5 0 15
      vertex 1 0 15
    endloop
  endfacet
  facet normal -6.04832e-07 0.309017 -0.951057
    outer loop
      vertex 1.5 0 15
      vertex 1 1 15.3249
      vertex 1.5 2.35114 15.7639
    endloop
  endfacet
  facet normal 0 0.309017 -0.951057
    outer loop
      vertex -1 1 15.3249
      vertex 1.5 2.35114 15.7639
      vertex 1 1 15.3249
    endloop
  endfacet
  facet normal 0 0.309017 -0.951057
    outer loop
      vertex -1 1 15.3249
      vertex -1.5 2.35114 15.7639
      vertex 1.5 2.35114 15.7639
    endloop
  endfacet
  facet normal 6.04832e-07 0.309017 -0.951057
    outer loop
      vertex -1.5 2.35114 15.7639
      vertex -1 1 15.3249
      vertex -1.5 0 15
    endloop
  endfacet
  facet normal 1 0 0
    outer loop
      vertex 1.5 2.35114 15.7639
      vertex 1.5 -2.35114 15.7639
      vertex 1.5 0 15
    endloop
  endfacet
  facet normal 1 -1.01405e-07 7.36754e-08
    outer loop
      vertex 1.5 1.76336 16.5729
      vertex 1.5 2.35114 15.7639
      vertex 1.5 1.98787 16.882
    endloop
  endfacet
  facet normal 1 1.59591e-08 1.58946e-07
    outer loop
      vertex 1.5 0 16
      vertex 1.5 2.35114 15.7639
      vertex 1.5 1.76336 16.5729
    endloop
  endfacet
  facet normal 1 0 0
    outer loop
      vertex 1.5 0 16
      vertex 1.5 -2.35114 15.7639
      vertex 1.5 2.35114 15.7639
    endloop
  endfacet
  facet normal 1 -1.59591e-08 1.58946e-07
    outer loop
      vertex 1.5 -1.76336 16.5729
      vertex 1.5 -2.35114 15.7639
      vertex 1.5 0 16
    endloop
  endfacet
  facet normal 1 1.01405e-07 7.36754e-08
    outer loop
      vertex 1.5 -2.35114 15.7639
      vertex 1.5 -1.76336 16.5729
      vertex 1.5 -1.98787 16.882
    endloop
  endfacet
  facet normal 1 3.08055e-07 -0
    outer loop
      vertex 1.5 2.85317 18.0729
      vertex 1.5 3.24014 18.5
      vertex 1.5 2.85317 18.5
    endloop
  endfacet
  facet normal 1 2.721e-07 1.47351e-07
    outer loop
      vertex 1.5 2.35114 15.7639
      vertex 1.5 2.85317 18.0729
      vertex 1.5 2.35114 17.382
    endloop
  endfacet
  facet normal 1 1.05461e-07 1.83582e-07
    outer loop
      vertex 1.5 2.85317 18.0729
      vertex 1.5 2.35114 15.7639
      vertex 1.5 3.24014 18.5
    endloop
  endfacet
  facet normal 0 0.809017 -0.587785
    outer loop
      vertex 1.5 2.35114 15.7639
      vertex -1.5 3.80423 17.7639
      vertex 1.5 3.80423 17.7639
    endloop
  endfacet
  facet normal 0 0.809017 -0.587785
    outer loop
      vertex -1.5 3.80423 17.7639
      vertex 1.5 2.35114 15.7639
      vertex -1.5 2.35114 15.7639
    endloop
  endfacet
  facet normal 1 1.25344e-07 1.47351e-07
    outer loop
      vertex 1.5 2.35114 15.7639
      vertex 1.5 2.35114 17.382
      vertex 1.5 1.98787 16.882
    endloop
  endfacet
  facet normal 0 1 -0
    outer loop
      vertex 1.5 3.80423 17.7639
      vertex -1.5 3.80423 18.5
      vertex 1.5 3.80423 18.5
    endloop
  endfacet
  facet normal 0 1 0
    outer loop
      vertex -1.5 3.80423 18.5
      vertex 1.5 3.80423 17.7639
      vertex -1.5 3.80423 17.7639
    endloop
  endfacet
  facet normal 1 6.33999e-07 0
    outer loop
      vertex 1.5 3.24014 18.5
      vertex 1.5 3.80423 17.7639
      vertex 1.5 3.80423 18.5
    endloop
  endfacet
  facet normal 1 6.44857e-07 8.32093e-09
    outer loop
      vertex 1.5 3.80423 17.7639
      vertex 1.5 3.24014 18.5
      vertex 1.5 2.35114 15.7639
    endloop
  endfacet
  facet normal 1 -3.08055e-07 0
    outer loop
      vertex 1.5 -2.85317 18.5
      vertex 1.5 -3.24014 18.5
      vertex 1.5 -2.85317 18.0729
    endloop
  endfacet
  facet normal 1 -2.721e-07 1.47351e-07
    outer loop
      vertex 1.5 -2.85317 18.0729
      vertex 1.5 -2.35114 15.7639
      vertex 1.5 -2.35114 17.382
    endloop
  endfacet
  facet normal 1 -1.05461e-07 1.83582e-07
    outer loop
      vertex 1.5 -2.35114 15.7639
      vertex 1.5 -2.85317 18.0729
      vertex 1.5 -3.24014 18.5
    endloop
  endfacet
  facet normal -6.04832e-07 -0.309017 -0.951057
    outer loop
      vertex 1.5 -2.35114 15.7639
      vertex 1 -1 15.3249
      vertex 1.5 0 15
    endloop
  endfacet
  facet normal 0 -0.309017 -0.951057
    outer loop
      vertex 1.5 -2.35114 15.7639
      vertex -1 -1 15.3249
      vertex 1 -1 15.3249
    endloop
  endfacet
  facet normal 0 -0.309017 -0.951057
    outer loop
      vertex -1.5 -2.35114 15.7639
      vertex -1 -1 15.3249
      vertex 1.5 -2.35114 15.7639
    endloop
  endfacet
  facet normal 6.04832e-07 -0.309017 -0.951057
    outer loop
      vertex -1.5 0 15
      vertex -1 -1 15.3249
      vertex -1.5 -2.35114 15.7639
    endloop
  endfacet
  facet normal 0 -0.309017 -0.951057
    outer loop
      vertex -1 -1 15.3249
      vertex -1.5 0 15
      vertex -1 0 15
    endloop
  endfacet
  facet normal -0 -0.309017 -0.951057
    outer loop
      vertex 1.5 0 15
      vertex 1 -1 15.3249
      vertex 1 0 15
    endloop
  endfacet
  facet normal 1 -1.25344e-07 1.47351e-07
    outer loop
      vertex 1.5 -1.98787 16.882
      vertex 1.5 -2.35114 17.382
      vertex 1.5 -2.35114 15.7639
    endloop
  endfacet
  facet normal 0 -1 0
    outer loop
      vertex -1.5 -3.80423 17.7639
      vertex 1.5 -3.80423 18.5
      vertex -1.5 -3.80423 18.5
    endloop
  endfacet
  facet normal 0 -1 -0
    outer loop
      vertex 1.5 -3.80423 18.5
      vertex -1.5 -3.80423 17.7639
      vertex 1.5 -3.80423 17.7639
    endloop
  endfacet
  facet normal -1 0 0
    outer loop
      vertex -1.5 3.80423 17.7639
      vertex -1.5 2.85317 18.0729
      vertex -1.5 3.80423 18.5
    endloop
  endfacet
  facet normal -1 0 0
    outer loop
      vertex -1.5 2.35114 15.7639
      vertex -1.5 2.85317 18.0729
      vertex -1.5 3.80423 17.7639
    endloop
  endfacet
  facet normal -1 0 0
    outer loop
      vertex -1.5 2.35114 15.7639
      vertex -1.5 1.76336 16.5729
      vertex -1.5 2.85317 18.0729
    endloop
  endfacet
  facet normal -1 0 0
    outer loop
      vertex -1.5 0 15
      vertex -1.5 1.76336 16.5729
      vertex -1.5 2.35114 15.7639
    endloop
  endfacet
  facet normal -1 0 0
    outer loop
      vertex -1.5 0 15
      vertex -1.5 0 16
      vertex -1.5 1.76336 16.5729
    endloop
  endfacet
  facet normal -1 0 0
    outer loop
      vertex -1.5 0 15
      vertex -1.5 -1.76336 16.5729
      vertex -1.5 0 16
    endloop
  endfacet
  facet normal -1 0 0
    outer loop
      vertex -1.5 -2.35114 15.7639
      vertex -1.5 -1.76336 16.5729
      vertex -1.5 0 15
    endloop
  endfacet
  facet normal -1 0 0
    outer loop
      vertex -1.5 -2.35114 15.7639
      vertex -1.5 -2.85317 18.0729
      vertex -1.5 -1.76336 16.5729
    endloop
  endfacet
  facet normal -1 0 0
    outer loop
      vertex -1.5 -3.80423 17.7639
      vertex -1.5 -2.85317 18.0729
      vertex -1.5 -2.35114 15.7639
    endloop
  endfacet
  facet normal -1 0 0
    outer loop
      vertex -1.5 -3.80423 18.5
      vertex -1.5 -2.85317 18.0729
      vertex -1.5 -3.80423 17.7639
    endloop
  endfacet
  facet normal -1 0 0
    outer loop
      vertex -1.5 -2.85317 18.0729
      vertex -1.5 -3.80423 18.5
      vertex -1.5 -2.85317 18.5
    endloop
  endfacet
  facet normal -1 -0 0
    outer loop
      vertex -1.5 3.80423 18.5
      vertex -1.5 2.85317 18.0729
      vertex -1.5 2.85317 18.5
    endloop
  endfacet
  facet normal 0 -0.809017 -0.587785
    outer loop
      vertex -1.5 -2.35114 15.7639
      vertex 1.5 -3.80423 17.7639
      vertex -1.5 -3.80423 17.7639
    endloop
  endfacet
  facet normal 0 -0.809017 -0.587785
    outer loop
      vertex 1.5 -3.80423 17.7639
      vertex -1.5 -2.35114 15.7639
      vertex 1.5 -2.35114 15.7639
    endloop
  endfacet
  facet normal 1 -6.33999e-07 0
    outer loop
      vertex 1.5 -3.80423 17.7639
      vertex 1.5 -3.24014 18.5
      vertex 1.5 -3.80423 18.5
    endloop
  endfacet
  facet normal 1 -6.44857e-07 8.32093e-09
    outer loop
      vertex 1.5 -3.24014 18.5
      vertex 1.5 -3.80423 17.7639
      vertex 1.5 -2.35114 15.7639
    endloop
  endfacet
  facet normal 0 -0.309017 0.951057
    outer loop
      vertex 1.5 1.76336 16.5729
      vertex 1 0 16
      vertex 1.5 0 16
    endloop
  endfacet
  facet normal 0 -0.309017 0.951057
    outer loop
      vertex 1.5 1.76336 16.5729
      vertex -1 0 16
      vertex 1 0 16
    endloop
  endfacet
  facet normal 0 -0.309017 0.951057
    outer loop
      vertex -1.5 1.76336 16.5729
      vertex -1 0 16
      vertex 1.5 1.76336 16.5729
    endloop
  endfacet
  facet normal 0 -0.309017 0.951057
    outer loop
      vertex -1 0 16
      vertex -1.5 1.76336 16.5729
      vertex -1.5 0 16
    endloop
  endfacet
  facet normal 0 -1 0
    outer loop
      vertex -1.5 2.85317 18.0729
      vertex 1.5 2.85317 18.5
      vertex -1.5 2.85317 18.5
    endloop
  endfacet
  facet normal 0 -1 -0
    outer loop
      vertex 1.5 2.85317 18.5
      vertex -1.5 2.85317 18.0729
      vertex 1.5 2.85317 18.0729
    endloop
  endfacet
  facet normal 0 -0.809017 0.587785
    outer loop
      vertex -1.5 2.85317 18.0729
      vertex 1.5 2.35114 17.382
      vertex 1.5 2.85317 18.0729
    endloop
  endfacet
  facet normal 3.23888e-08 -0.809017 0.587785
    outer loop
      vertex -1.5 1.76336 16.5729
      vertex 1.5 2.35114 17.382
      vertex -1.5 2.85317 18.0729
    endloop
  endfacet
  facet normal 4.97273e-08 -0.809017 0.587785
    outer loop
      vertex 1.5 2.35114 17.382
      vertex -1.5 1.76336 16.5729
      vertex 1.5 1.98787 16.882
    endloop
  endfacet
  facet normal 0 -0.809017 0.587786
    outer loop
      vertex 1.5 1.98787 16.882
      vertex -1.5 1.76336 16.5729
      vertex 1.5 1.76336 16.5729
    endloop
  endfacet
  facet normal 0 0.809017 0.587785
    outer loop
      vertex 1.5 -2.35114 17.382
      vertex -1.5 -2.85317 18.0729
      vertex 1.5 -2.85317 18.0729
    endloop
  endfacet
  facet normal 4.97273e-08 0.809017 0.587785
    outer loop
      vertex -1.5 -1.76336 16.5729
      vertex 1.5 -2.35114 17.382
      vertex 1.5 -1.98787 16.882
    endloop
  endfacet
  facet normal -0 0.809017 0.587786
    outer loop
      vertex -1.5 -1.76336 16.5729
      vertex 1.5 -1.98787 16.882
      vertex 1.5 -1.76336 16.5729
    endloop
  endfacet
  facet normal 3.23888e-08 0.809017 0.587785
    outer loop
      vertex 1.5 -2.35114 17.382
      vertex -1.5 -1.76336 16.5729
      vertex -1.5 -2.85317 18.0729
    endloop
  endfacet
  facet normal 0 1 -0
    outer loop
      vertex 1.5 -2.85317 18.0729
      vertex -1.5 -2.85317 18.5
      vertex 1.5 -2.85317 18.5
    endloop
  endfacet
  facet normal 0 1 0
    outer loop
      vertex -1.5 -2.85317 18.5
      vertex 1.5 -2.85317 18.0729
      vertex -1.5 -2.85317 18.0729
    endloop
  endfacet
  facet normal -0 0.309017 0.951057
    outer loop
      vertex 1 0 16
      vertex 1.5 -1.76336 16.5729
      vertex 1.5 0 16
    endloop
  endfacet
  facet normal -0 0.309017 0.951057
    outer loop
      vertex -1 0 16
      vertex 1.5 -1.76336 16.5729
      vertex 1 0 16
    endloop
  endfacet
  facet normal 0 0.309017 0.951057
    outer loop
      vertex -1.5 -1.76336 16.5729
      vertex -1 0 16
      vertex -1.5 0 16
    endloop
  endfacet
  facet normal 0 0.309017 0.951057
    outer loop
      vertex -1 0 16
      vertex -1.5 -1.76336 16.5729
      vertex 1.5 -1.76336 16.5729
    endloop
  endfacet
  facet normal -0 0 1
    outer loop
      vertex -1.5 3.80423 18.5
      vertex 1.5 3.24014 18.5
      vertex 1.5 3.80423 18.5
    endloop
  endfacet
  facet normal 0 0 1
    outer loop
      vertex -1.5 2.85317 18.5
      vertex 1.5 3.24014 18.5
      vertex -1.5 3.80423 18.5
    endloop
  endfacet
  facet normal 0 0 1
    outer loop
      vertex 1.5 3.24014 18.5
      vertex -1.5 2.85317 18.5
      vertex 1.5 2.85317 18.5
    endloop
  endfacet
  facet normal -0 0 1
    outer loop
      vertex -1.5 -2.85317 18.5
      vertex 1.5 -3.24014 18.5
      vertex 1.5 -2.85317 18.5
    endloop
  endfacet
  facet normal 0 0 1
    outer loop
      vertex -1.5 -3.80423 18.5
      vertex 1.5 -3.24014 18.5
      vertex -1.5 -2.85317 18.5
    endloop
  endfacet
  facet normal 0 0 1
    outer loop
      vertex 1.5 -3.24014 18.5
      vertex -1.5 -3.80423 18.5
      vertex 1.5 -3.80423 18.5
    endloop
  endfacet
  facet normal -1 0 0
    outer loop
      vertex -1 1 1
      vertex -1 0 15
      vertex -1 1 15.3249
    endloop
  endfacet
  facet normal -1 0 0
    outer loop
      vertex -1 -1 1
      vertex -1 0 15
      vertex -1 1 1
    endloop
  endfacet
  facet normal -1 -0 0
    outer loop
      vertex -1 0 15
      vertex -1 -1 1
      vertex -1 -1 15.3249
    endloop
  endfacet
  facet normal 1 -0 0
    outer loop
      vertex 1 0 15
      vertex 1 1 1
      vertex 1 1 15.3249
    endloop
  endfacet
  facet normal 1 0 0
    outer loop
      vertex 1 -1 1
      vertex 1 0 15
      vertex 1 -1 15.3249
    endloop
  endfacet
  facet normal 1 0 0
    outer loop
      vertex 1 0 15
      vertex 1 -1 1
      vertex 1 1 1
    endloop
  endfacet
  facet normal 0 1 -0
    outer loop
      vertex 1 1 1
      vertex -1 1 15.3249
      vertex 1 1 15.3249
    endloop
  endfacet
  facet normal 0 1 0
    outer loop
      vertex -1 1 15.3249
      vertex 1 1 1
      vertex -1 1 1
    endloop
  endfacet
  facet normal 0 0 1
    outer loop
      vertex 5 5 1
      vertex 1 1 1
      vertex 5 -5 1
    endloop
  endfacet
  facet normal 0 0 1
    outer loop
      vertex 5 5 1
      vertex -1 1 1
      vertex 1 1 1
    endloop
  endfacet
  facet normal 0 0 1
    outer loop
      vertex -1 1 1
      vertex -5 5 1
      vertex -1 -1 1
    endloop
  endfacet
  facet normal -0 0 1
    outer loop
      vertex -5 5 1
      vertex -1 1 1
      vertex 5 5 1
    endloop
  endfacet
  facet normal -0 0 1
    outer loop
      vertex 1 -1 1
      vertex 5 -5 1
      vertex 1 1 1
    endloop
  endfacet
  facet normal -0 0 1
    outer loop
      vertex -1 -1 1
      vertex 5 -5 1
      vertex 1 -1 1
    endloop
  endfacet
  facet normal 0 0 1
    outer loop
      vertex -1 -1 1
      vertex -5 -5 1
      vertex 5 -5 1
    endloop
  endfacet
  facet normal 0 0 1
    outer loop
      vertex -5 -5 1
      vertex -1 -1 1
      vertex -5 5 1
    endloop
  endfacet
  facet normal 0 -1 0
    outer loop
      vertex -1 -1 1
      vertex 1 -1 15.3249
      vertex -1 -1 15.3249
    endloop
  endfacet
  facet normal 0 -1 -0
    outer loop
      vertex 1 -1 15.3249
      vertex -1 -1 1
      vertex 1 -1 1
    endloop
  endfacet
  facet normal -1 0 0
    outer loop
      vertex -5 -5 0
      vertex -5 5 1
      vertex -5 5 0
    endloop
  endfacet
  facet normal -1 -0 0
    outer loop
      vertex -5 5 1
      vertex -5 -5 0
      vertex -5 -5 1
    endloop
  endfacet
  facet normal 1 -0 0
    outer loop
      vertex 5 -5 1
      vertex 5 5 0
      vertex 5 5 1
    endloop
  endfacet
  facet normal 1 0 0
    outer loop
      vertex 5 5 0
      vertex 5 -5 1
      vertex 5 -5 0
    endloop
  endfacet
  facet normal 0 1 -0
    outer loop
      vertex 5 5 0
      vertex -5 5 1
      vertex 5 5 1
    endloop
  endfacet
  facet normal 0 1 0
    outer loop
      vertex -5 5 1
      vertex 5 5 0
      vertex -5 5 0
    endloop
  endfacet
  facet normal 0 0 -1
    outer loop
      vertex -5 -5 0
      vertex 5 5 0
      vertex 5 -5 0
    endloop
  endfacet
  facet normal -0 0 -1
    outer loop
      vertex 5 5 0
      vertex -5 -5 0
      vertex -5 5 0
    endloop
  endfacet
  facet normal 0 -1 0
    outer loop
      vertex -5 -5 0
      vertex 5 -5 1
      vertex -5 -5 1
    endloop
  endfacet
  facet normal 0 -1 -0
    outer loop
      vertex 5 -5 1
      vertex -5 -5 0
      vertex 5 -5 0
    endloop
  endfacet
endsolid OpenSCAD_Model
