solid OpenSCAD_Model
  facet normal 0 -0.094109 -0.995562
    outer loop
      vertex -1.5 -0.501332 15.0315
      vertex -1 -0.251162 15.0079
      vertex -1 -0.501332 15.0315
    endloop
  endfacet
  facet normal -0 -0.094109 -0.995562
    outer loop
      vertex -1 -0.251162 15.0079
      vertex -1.5 -0.501332 15.0315
      vertex -1.5 -0.251162 15.0079
    endloop
  endfacet
  facet normal 0 -0.094109 -0.995562
    outer loop
      vertex 1 -0.501332 15.0315
      vertex 1.5 -0.251162 15.0079
      vertex 1.5 -0.501332 15.0315
    endloop
  endfacet
  facet normal -0 -0.094109 -0.995562
    outer loop
      vertex 1.5 -0.251162 15.0079
      vertex 1 -0.501332 15.0315
      vertex 1 -0.251162 15.0079
    endloop
  endfacet
  facet normal 1 0 2.7701e-07
    outer loop
      vertex 1.5 2.5497 15.9179
      vertex 1.5 3.66705 18.5
      vertex 1.5 3.572 18.5
    endloop
  endfacet
  facet normal 0 -0.0314089 -0.999507
    outer loop
      vertex 1 -0.251162 15.0079
      vertex 1.5 0 15
      vertex 1.5 -0.251162 15.0079
    endloop
  endfacet
  facet normal -0 -0.0314089 -0.999507
    outer loop
      vertex 1.5 0 15
      vertex 1 -0.251162 15.0079
      vertex 1 0 15
    endloop
  endfacet
  facet normal 0 -0.0314089 -0.999507
    outer loop
      vertex -1.5 -0.251162 15.0079
      vertex -1 0 15
      vertex -1 -0.251162 15.0079
    endloop
  endfacet
  facet normal -0 -0.0314089 -0.999507
    outer loop
      vertex -1 0 15
      vertex -1.5 -0.251162 15.0079
      vertex -1.5 0 15
    endloop
  endfacet
  facet normal 1 0 0
    outer loop
      vertex 1.5 2.5497 15.9179
      vertex 1.5 2.14331 15.6227
      vertex 1.5 2.35114 15.7639
    endloop
  endfacet
  facet normal 1 0 0
    outer loop
      vertex 1.5 2.5497 15.9179
      vertex 1.5 1.92701 15.4948
      vertex 1.5 2.14331 15.6227
    endloop
  endfacet
  facet normal 1 0 0
    outer loop
      vertex 1.5 2.5497 15.9179
      vertex 1.5 1.70312 15.3807
      vertex 1.5 1.92701 15.4948
    endloop
  endfacet
  facet normal 1 0 0
    outer loop
      vertex 1.5 2.5497 15.9179
      vertex 1.5 1.4725 15.2809
      vertex 1.5 1.70312 15.3807
    endloop
  endfacet
  facet normal 1 0 0
    outer loop
      vertex 1.5 2.5497 15.9179
      vertex 1.5 1.23607 15.1958
      vertex 1.5 1.4725 15.2809
    endloop
  endfacet
  facet normal 1 0 0
    outer loop
      vertex 1.5 2.5497 15.9179
      vertex 1.5 0.994759 15.1257
      vertex 1.5 1.23607 15.1958
    endloop
  endfacet
  facet normal 1 0 0
    outer loop
      vertex 1.5 2.5497 15.9179
      vertex 1.5 0.749525 15.0709
      vertex 1.5 0.994759 15.1257
    endloop
  endfacet
  facet normal 1 0 0
    outer loop
      vertex 1.5 2.5497 15.9179
      vertex 1.5 0.501332 15.0315
      vertex 1.5 0.749525 15.0709
    endloop
  endfacet
  facet normal 1 0 0
    outer loop
      vertex 1.5 2.5497 15.9179
      vertex 1.5 0.251162 15.0079
      vertex 1.5 0.501332 15.0315
    endloop
  endfacet
  facet normal 1 0 0
    outer loop
      vertex 1.5 2.5497 15.9179
      vertex 1.5 0 15
      vertex 1.5 0.251162 15.0079
    endloop
  endfacet
  facet normal 1 0 0
    outer loop
      vertex 1.5 2.5497 15.9179
      vertex 1.5 -0.251162 15.0079
      vertex 1.5 0 15
    endloop
  endfacet
  facet normal 1 0 0
    outer loop
      vertex 1.5 2.5497 15.9179
      vertex 1.5 -0.501332 15.0315
      vertex 1.5 -0.251162 15.0079
    endloop
  endfacet
  facet normal 1 0 0
    outer loop
      vertex 1.5 2.5497 15.9179
      vertex 1.5 -0.749525 15.0709
      vertex 1.5 -0.501332 15.0315
    endloop
  endfacet
  facet normal 1 0 0
    outer loop
      vertex 1.5 2.5497 15.9179
      vertex 1.5 -0.994759 15.1257
      vertex 1.5 -0.749525 15.0709
    endloop
  endfacet
  facet normal 1 0 0
    outer loop
      vertex 1.5 2.5497 15.9179
      vertex 1.5 -1.23607 15.1958
      vertex 1.5 -0.994759 15.1257
    endloop
  endfacet
  facet normal 1 0 0
    outer loop
      vertex 1.5 2.5497 15.9179
      vertex 1.5 -1.4725 15.2809
      vertex 1.5 -1.23607 15.1958
    endloop
  endfacet
  facet normal 1 0 0
    outer loop
      vertex 1.5 2.5497 15.9179
      vertex 1.5 -1.70312 15.3807
      vertex 1.5 -1.4725 15.2809
    endloop
  endfacet
  facet normal 1 0 0
    outer loop
      vertex 1.5 2.5497 15.9179
      vertex 1.5 -1.92701 15.4948
      vertex 1.5 -1.70312 15.3807
    endloop
  endfacet
  facet normal 1 0 0
    outer loop
      vertex 1.5 2.5497 15.9179
      vertex 1.5 -2.14331 15.6227
      vertex 1.5 -1.92701 15.4948
    endloop
  endfacet
  facet normal 1 0 0
    outer loop
      vertex 1.5 2.5497 15.9179
      vertex 1.5 -2.35114 15.7639
      vertex 1.5 -2.14331 15.6227
    endloop
  endfacet
  facet normal 1 0 -0
    outer loop
      vertex 1.5 -2.35114 15.7639
      vertex 1.5 2.5497 15.9179
      vertex 1.5 -2.5497 15.9179
    endloop
  endfacet
  facet normal 1 2.01671e-06 -8.72716e-07
    outer loop
      vertex 1.5 2.5497 15.9179
      vertex 1.5 3.61931 17.2969
      vertex 1.5 3.71911 17.5275
    endloop
  endfacet
  facet normal 0 0.827085 -0.562077
    outer loop
      vertex 1.5 3.23607 16.6489
      vertex -1.5 3.37731 16.8567
      vertex 1.5 3.37731 16.8567
    endloop
  endfacet
  facet normal 0 0.827085 -0.562077
    outer loop
      vertex -1.5 3.37731 16.8567
      vertex 1.5 3.23607 16.6489
      vertex -1.5 3.23607 16.6489
    endloop
  endfacet
  facet normal 0 0.975916 -0.218145
    outer loop
      vertex 1.5 3.87433 18.0052
      vertex -1.5 3.92915 18.2505
      vertex 1.5 3.92915 18.2505
    endloop
  endfacet
  facet normal 0 0.975916 -0.218145
    outer loop
      vertex -1.5 3.92915 18.2505
      vertex 1.5 3.87433 18.0052
      vertex -1.5 3.87433 18.0052
    endloop
  endfacet
  facet normal -4.96249e-07 -0.27899 -0.960294
    outer loop
      vertex 1.5 -1.23607 15.1958
      vertex 1 -1 15.1272
      vertex 1.5 -0.994759 15.1257
    endloop
  endfacet
  facet normal 0 -0.278989 -0.960294
    outer loop
      vertex 1.5 -1.23607 15.1958
      vertex -1 -1 15.1272
      vertex 1 -1 15.1272
    endloop
  endfacet
  facet normal 0 -0.278989 -0.960294
    outer loop
      vertex -1.5 -1.23607 15.1958
      vertex -1 -1 15.1272
      vertex 1.5 -1.23607 15.1958
    endloop
  endfacet
  facet normal 4.96249e-07 -0.27899 -0.960294
    outer loop
      vertex -1.5 -0.994759 15.1257
      vertex -1 -1 15.1272
      vertex -1.5 -1.23607 15.1958
    endloop
  endfacet
  facet normal 0 -0.279034 -0.960281
    outer loop
      vertex -1 -1 15.1272
      vertex -1.5 -0.994759 15.1257
      vertex -1 -0.994759 15.1257
    endloop
  endfacet
  facet normal -0 -0.279034 -0.960281
    outer loop
      vertex 1.5 -0.994759 15.1257
      vertex 1 -1 15.1272
      vertex 1 -0.994759 15.1257
    endloop
  endfacet
  facet normal 0 -0.156433 -0.987689
    outer loop
      vertex -1.5 -0.749525 15.0709
      vertex -1 -0.501332 15.0315
      vertex -1 -0.749525 15.0709
    endloop
  endfacet
  facet normal -0 -0.156433 -0.987689
    outer loop
      vertex -1 -0.501332 15.0315
      vertex -1.5 -0.749525 15.0709
      vertex -1.5 -0.501332 15.0315
    endloop
  endfacet
  facet normal 0 -0.156433 -0.987689
    outer loop
      vertex 1 -0.749525 15.0709
      vertex 1.5 -0.501332 15.0315
      vertex 1.5 -0.749525 15.0709
    endloop
  endfacet
  facet normal -0 -0.156433 -0.987689
    outer loop
      vertex 1.5 -0.501332 15.0315
      vertex 1 -0.749525 15.0709
      vertex 1 -0.501332 15.0315
    endloop
  endfacet
  facet normal 1 9.39076e-08 8.27886e-08
    outer loop
      vertex 1.5 -2.23505 17.001
      vertex 1.5 -2.26337 17.0331
      vertex 1.5 -2.5497 15.9179
    endloop
  endfacet
  facet normal 1 9.38998e-08 8.27904e-08
    outer loop
      vertex 1.5 -2.31154 17.0877
      vertex 1.5 -2.5497 15.9179
      vertex 1.5 -2.29294 17.0666
    endloop
  endfacet
  facet normal 1 1.04067e-07 8.07204e-08
    outer loop
      vertex 1.5 -2.5497 15.9179
      vertex 1.5 -2.31154 17.0877
      vertex 1.5 -2.32359 17.1033
    endloop
  endfacet
  facet normal 0 0.562081 -0.827082
    outer loop
      vertex -1.5 2.14331 15.6227
      vertex 1.5 2.35114 15.7639
      vertex 1.5 2.14331 15.6227
    endloop
  endfacet
  facet normal 0 0.562081 -0.827082
    outer loop
      vertex 1.5 2.35114 15.7639
      vertex -1.5 2.14331 15.6227
      vertex -1.5 2.35114 15.7639
    endloop
  endfacet
  facet normal 1 2.82427e-06 5.44523e-07
    outer loop
      vertex 1.5 2.5497 15.9179
      vertex 1.5 2.38926 17.1879
      vertex 1.5 2.35545 17.1443
    endloop
  endfacet
  facet normal 0 0.86074 -0.509044
    outer loop
      vertex 1.5 3.37731 16.8567
      vertex -1.5 3.50523 17.073
      vertex 1.5 3.50523 17.073
    endloop
  endfacet
  facet normal 0 0.86074 -0.509044
    outer loop
      vertex -1.5 3.50523 17.073
      vertex 1.5 3.37731 16.8567
      vertex -1.5 3.37731 16.8567
    endloop
  endfacet
  facet normal 0 0.790151 -0.612912
    outer loop
      vertex 1.5 3.08205 16.4503
      vertex -1.5 3.23607 16.6489
      vertex 1.5 3.23607 16.6489
    endloop
  endfacet
  facet normal 0 0.790151 -0.612912
    outer loop
      vertex -1.5 3.23607 16.6489
      vertex 1.5 3.08205 16.4503
      vertex -1.5 3.08205 16.4503
    endloop
  endfacet
  facet normal 0 0.960294 -0.278989
    outer loop
      vertex 1.5 3.80423 17.7639
      vertex -1.5 3.87433 18.0052
      vertex 1.5 3.87433 18.0052
    endloop
  endfacet
  facet normal 0 0.960294 -0.278989
    outer loop
      vertex -1.5 3.87433 18.0052
      vertex 1.5 3.80423 17.7639
      vertex -1.5 3.80423 17.7639
    endloop
  endfacet
  facet normal 1 3.50051e-06 -2.07021e-06
    outer loop
      vertex 1.5 2.5497 15.9179
      vertex 1.5 3.37731 16.8567
      vertex 1.5 3.50523 17.073
    endloop
  endfacet
  facet normal 0 0.940881 -0.338737
    outer loop
      vertex 1.5 3.71911 17.5275
      vertex -1.5 3.80423 17.7639
      vertex 1.5 3.80423 17.7639
    endloop
  endfacet
  facet normal 0 0.940881 -0.338737
    outer loop
      vertex -1.5 3.80423 17.7639
      vertex 1.5 3.71911 17.5275
      vertex -1.5 3.71911 17.5275
    endloop
  endfacet
  facet normal 1 -8.5688e-08 8.5688e-08
    outer loop
      vertex 1.5 2.05364 16.8131
      vertex 1.5 2.5497 15.9179
      vertex 1.5 2.18142 16.9409
    endloop
  endfacet
  facet normal 1 -7.88736e-08 8.94643e-08
    outer loop
      vertex 1.5 1.91227 16.6885
      vertex 1.5 2.5497 15.9179
      vertex 1.5 2.05364 16.8131
    endloop
  endfacet
  facet normal 1 -7.31002e-08 9.42405e-08
    outer loop
      vertex 1.5 1.76336 16.5729
      vertex 1.5 2.5497 15.9179
      vertex 1.5 1.91227 16.6885
    endloop
  endfacet
  facet normal 1 -6.81138e-08 1.00227e-07
    outer loop
      vertex 1.5 1.60748 16.467
      vertex 1.5 2.5497 15.9179
      vertex 1.5 1.76336 16.5729
    endloop
  endfacet
  facet normal 1 -6.3727e-08 1.07755e-07
    outer loop
      vertex 1.5 1.44526 16.3711
      vertex 1.5 2.5497 15.9179
      vertex 1.5 1.60748 16.467
    endloop
  endfacet
  facet normal 1 2.56866e-07 8.89148e-07
    outer loop
      vertex 1.5 1.27734 16.2855
      vertex 1.5 2.5497 15.9179
      vertex 1.5 1.44526 16.3711
    endloop
  endfacet
  facet normal 1 -0 0
    outer loop
      vertex 1.5 1.10437 16.2107
      vertex 1.5 2.5497 15.9179
      vertex 1.5 1.27734 16.2855
    endloop
  endfacet
  facet normal 1 -0 0
    outer loop
      vertex 1.5 0.927051 16.1468
      vertex 1.5 2.5497 15.9179
      vertex 1.5 1.10437 16.2107
    endloop
  endfacet
  facet normal 1 -0 0
    outer loop
      vertex 1.5 0.746069 16.0942
      vertex 1.5 2.5497 15.9179
      vertex 1.5 0.927051 16.1468
    endloop
  endfacet
  facet normal 1 -0 0
    outer loop
      vertex 1.5 0.562143 16.0531
      vertex 1.5 2.5497 15.9179
      vertex 1.5 0.746069 16.0942
    endloop
  endfacet
  facet normal 1 -0 0
    outer loop
      vertex 1.5 0.375999 16.0237
      vertex 1.5 2.5497 15.9179
      vertex 1.5 0.562143 16.0531
    endloop
  endfacet
  facet normal 1 -0 0
    outer loop
      vertex 1.5 0.188371 16.0059
      vertex 1.5 2.5497 15.9179
      vertex 1.5 0.375999 16.0237
    endloop
  endfacet
  facet normal 1 -0 0
    outer loop
      vertex 1.5 0 16
      vertex 1.5 2.5497 15.9179
      vertex 1.5 0.188371 16.0059
    endloop
  endfacet
  facet normal 1 0 0
    outer loop
      vertex 1.5 -2.5497 15.9179
      vertex 1.5 0 16
      vertex 1.5 -0.188371 16.0059
    endloop
  endfacet
  facet normal 1 0 0
    outer loop
      vertex 1.5 0 16
      vertex 1.5 -2.5497 15.9179
      vertex 1.5 2.5497 15.9179
    endloop
  endfacet
  facet normal 1 0 0
    outer loop
      vertex 1.5 -0.375999 16.0237
      vertex 1.5 -2.5497 15.9179
      vertex 1.5 -0.188371 16.0059
    endloop
  endfacet
  facet normal 1 0 0
    outer loop
      vertex 1.5 -0.562143 16.0531
      vertex 1.5 -2.5497 15.9179
      vertex 1.5 -0.375999 16.0237
    endloop
  endfacet
  facet normal 1 0 0
    outer loop
      vertex 1.5 -0.746069 16.0942
      vertex 1.5 -2.5497 15.9179
      vertex 1.5 -0.562143 16.0531
    endloop
  endfacet
  facet normal 1 0 0
    outer loop
      vertex 1.5 -0.927051 16.1468
      vertex 1.5 -2.5497 15.9179
      vertex 1.5 -0.746069 16.0942
    endloop
  endfacet
  facet normal 1 0 0
    outer loop
      vertex 1.5 -1.10437 16.2107
      vertex 1.5 -2.5497 15.9179
      vertex 1.5 -0.927051 16.1468
    endloop
  endfacet
  facet normal 1 0 0
    outer loop
      vertex 1.5 -1.27734 16.2855
      vertex 1.5 -2.5497 15.9179
      vertex 1.5 -1.10437 16.2107
    endloop
  endfacet
  facet normal 1 -2.56866e-07 8.89148e-07
    outer loop
      vertex 1.5 -1.44526 16.3711
      vertex 1.5 -2.5497 15.9179
      vertex 1.5 -1.27734 16.2855
    endloop
  endfacet
  facet normal 1 6.3727e-08 1.07755e-07
    outer loop
      vertex 1.5 -1.60748 16.467
      vertex 1.5 -2.5497 15.9179
      vertex 1.5 -1.44526 16.3711
    endloop
  endfacet
  facet normal 1 6.81138e-08 1.00227e-07
    outer loop
      vertex 1.5 -1.76336 16.5729
      vertex 1.5 -2.5497 15.9179
      vertex 1.5 -1.60748 16.467
    endloop
  endfacet
  facet normal 1 7.31002e-08 9.42405e-08
    outer loop
      vertex 1.5 -1.91227 16.6885
      vertex 1.5 -2.5497 15.9179
      vertex 1.5 -1.76336 16.5729
    endloop
  endfacet
  facet normal 1 7.88736e-08 8.94643e-08
    outer loop
      vertex 1.5 -2.05364 16.8131
      vertex 1.5 -2.5497 15.9179
      vertex 1.5 -1.91227 16.6885
    endloop
  endfacet
  facet normal 1 8.5688e-08 8.5688e-08
    outer loop
      vertex 1.5 -2.5497 15.9179
      vertex 1.5 -2.05364 16.8131
      vertex 1.5 -2.18142 16.9409
    endloop
  endfacet
  facet normal 0 0.45399 -0.891007
    outer loop
      vertex -1.5 1.70312 15.3807
      vertex 1.5 1.92701 15.4948
      vertex 1.5 1.70312 15.3807
    endloop
  endfacet
  facet normal 0 0.45399 -0.891007
    outer loop
      vertex 1.5 1.92701 15.4948
      vertex -1.5 1.70312 15.3807
      vertex -1.5 1.92701 15.4948
    endloop
  endfacet
  facet normal 1 -5.80353e-07 2.51154e-07
    outer loop
      vertex 1.5 2.71448 17.7227
      vertex 1.5 2.5497 15.9179
      vertex 1.5 2.72192 17.7398
    endloop
  endfacet
  facet normal 1 2.01051e-06 1.45873e-08
    outer loop
      vertex 1.5 2.5497 15.9179
      vertex 1.5 2.71448 17.7227
      vertex 1.5 2.65602 17.6079
    endloop
  endfacet
  facet normal 0 0.156433 -0.987689
    outer loop
      vertex -1.5 0.501332 15.0315
      vertex -1 0.749525 15.0709
      vertex -1 0.501332 15.0315
    endloop
  endfacet
  facet normal 0 0.156433 -0.987689
    outer loop
      vertex -1 0.749525 15.0709
      vertex -1.5 0.501332 15.0315
      vertex -1.5 0.749525 15.0709
    endloop
  endfacet
  facet normal 0 0.156433 -0.987689
    outer loop
      vertex 1 0.501332 15.0315
      vertex 1.5 0.749525 15.0709
      vertex 1.5 0.501332 15.0315
    endloop
  endfacet
  facet normal 0 0.156433 -0.987689
    outer loop
      vertex 1.5 0.749525 15.0709
      vertex 1 0.501332 15.0315
      vertex 1 0.749525 15.0709
    endloop
  endfacet
  facet normal 0 0.0314089 -0.999507
    outer loop
      vertex -1.5 0 15
      vertex -1 0.251162 15.0079
      vertex -1 0 15
    endloop
  endfacet
  facet normal 0 0.0314089 -0.999507
    outer loop
      vertex -1 0.251162 15.0079
      vertex -1.5 0 15
      vertex -1.5 0.251162 15.0079
    endloop
  endfacet
  facet normal 0 0.0314089 -0.999507
    outer loop
      vertex 1 0 15
      vertex 1.5 0.251162 15.0079
      vertex 1.5 0 15
    endloop
  endfacet
  facet normal 0 0.0314089 -0.999507
    outer loop
      vertex 1.5 0.251162 15.0079
      vertex 1 0 15
      vertex 1 0.251162 15.0079
    endloop
  endfacet
  facet normal 0 -0.509043 -0.860741
    outer loop
      vertex -1.5 -2.14331 15.6227
      vertex 1.5 -1.92701 15.4948
      vertex 1.5 -2.14331 15.6227
    endloop
  endfacet
  facet normal -0 -0.509043 -0.860741
    outer loop
      vertex 1.5 -1.92701 15.4948
      vertex -1.5 -2.14331 15.6227
      vertex -1.5 -1.92701 15.4948
    endloop
  endfacet
  facet normal 0 -0.562081 -0.827082
    outer loop
      vertex -1.5 -2.35114 15.7639
      vertex 1.5 -2.14331 15.6227
      vertex 1.5 -2.35114 15.7639
    endloop
  endfacet
  facet normal -0 -0.562081 -0.827082
    outer loop
      vertex 1.5 -2.14331 15.6227
      vertex -1.5 -2.35114 15.7639
      vertex -1.5 -2.14331 15.6227
    endloop
  endfacet
  facet normal 1 -1.22055e-06 -2.51171e-07
    outer loop
      vertex 1.5 -3.66705 18.5
      vertex 1.5 -3.76472 18.5
      vertex 1.5 -2.5497 15.9179
    endloop
  endfacet
  facet normal 1 8.56771e-08 8.5692e-08
    outer loop
      vertex 1.5 -2.18691 16.9464
      vertex 1.5 -2.5497 15.9179
      vertex 1.5 -2.18142 16.9409
    endloop
  endfacet
  facet normal 1 9.39096e-08 8.27878e-08
    outer loop
      vertex 1.5 -2.5497 15.9179
      vertex 1.5 -2.18691 16.9464
      vertex 1.5 -2.20783 16.9701
    endloop
  endfacet
  facet normal 1 0 0
    outer loop
      vertex 1.5 2.94686 18.4379
      vertex 1.5 2.95865 18.5
      vertex 1.5 2.9567 18.5
    endloop
  endfacet
  facet normal 1 -5.89173e-06 1.11783e-06
    outer loop
      vertex 1.5 2.94686 18.4379
      vertex 1.5 2.5497 15.9179
      vertex 1.5 2.95865 18.5
    endloop
  endfacet
  facet normal 1 -2.87086e-06 6.41708e-07
    outer loop
      vertex 1.5 2.90575 18.2539
      vertex 1.5 2.5497 15.9179
      vertex 1.5 2.94686 18.4379
    endloop
  endfacet
  facet normal 1 3.29137e-06 -2.9755e-07
    outer loop
      vertex 1.5 2.85317 18.0729
      vertex 1.5 2.5497 15.9179
      vertex 1.5 2.90575 18.2539
    endloop
  endfacet
  facet normal 1 -7.57067e-07 2.72565e-07
    outer loop
      vertex 1.5 2.5497 15.9179
      vertex 1.5 2.85317 18.0729
      vertex 1.5 2.80505 17.9393
    endloop
  endfacet
  facet normal 1 -2.34012e-07 1.59034e-07
    outer loop
      vertex 1.5 2.5497 15.9179
      vertex 1.5 2.50466 17.3508
      vertex 1.5 2.46337 17.2901
    endloop
  endfacet
  facet normal 1 -9.39069e-08 8.27888e-08
    outer loop
      vertex 1.5 2.5497 15.9179
      vertex 1.5 2.29294 17.0666
      vertex 1.5 2.26337 17.0331
    endloop
  endfacet
  facet normal 0 0.707103 -0.707111
    outer loop
      vertex -1.5 2.73819 16.0841
      vertex 1.5 2.91587 16.2618
      vertex 1.5 2.73819 16.0841
    endloop
  endfacet
  facet normal 0 0.707103 -0.707111
    outer loop
      vertex 1.5 2.91587 16.2618
      vertex -1.5 2.73819 16.0841
      vertex -1.5 2.91587 16.2618
    endloop
  endfacet
  facet normal 0 0.61291 -0.790153
    outer loop
      vertex -1.5 2.35114 15.7639
      vertex 1.5 2.5497 15.9179
      vertex 1.5 2.35114 15.7639
    endloop
  endfacet
  facet normal 0 0.61291 -0.790153
    outer loop
      vertex 1.5 2.5497 15.9179
      vertex -1.5 2.35114 15.7639
      vertex -1.5 2.5497 15.9179
    endloop
  endfacet
  facet normal 0 0.750115 -0.661308
    outer loop
      vertex 1.5 2.91587 16.2618
      vertex -1.5 3.08205 16.4503
      vertex 1.5 3.08205 16.4503
    endloop
  endfacet
  facet normal 0 0.750115 -0.661308
    outer loop
      vertex -1.5 3.08205 16.4503
      vertex 1.5 2.91587 16.2618
      vertex -1.5 2.91587 16.2618
    endloop
  endfacet
  facet normal 1 -9.39096e-08 8.27878e-08
    outer loop
      vertex 1.5 2.18691 16.9464
      vertex 1.5 2.5497 15.9179
      vertex 1.5 2.20783 16.9701
    endloop
  endfacet
  facet normal 1 -8.56771e-08 8.5692e-08
    outer loop
      vertex 1.5 2.5497 15.9179
      vertex 1.5 2.18691 16.9464
      vertex 1.5 2.18142 16.9409
    endloop
  endfacet
  facet normal 0 0.987689 -0.156432
    outer loop
      vertex 1.5 3.92915 18.2505
      vertex -1.5 3.96846 18.4987
      vertex 1.5 3.96846 18.4987
    endloop
  endfacet
  facet normal 0 0.987689 -0.156432
    outer loop
      vertex -1.5 3.96846 18.4987
      vertex 1.5 3.92915 18.2505
      vertex -1.5 3.92915 18.2505
    endloop
  endfacet
  facet normal 0 0.995555 -0.094179
    outer loop
      vertex 1.5 3.96846 18.4987
      vertex -1.5 3.96858 18.5
      vertex 1.5 3.96858 18.5
    endloop
  endfacet
  facet normal 0 0.995555 -0.094179
    outer loop
      vertex -1.5 3.96858 18.5
      vertex 1.5 3.96846 18.4987
      vertex -1.5 3.96846 18.4987
    endloop
  endfacet
  facet normal 0 0.917753 -0.397152
    outer loop
      vertex 1.5 3.61931 17.2969
      vertex -1.5 3.71911 17.5275
      vertex 1.5 3.71911 17.5275
    endloop
  endfacet
  facet normal 0 0.917753 -0.397152
    outer loop
      vertex -1.5 3.71911 17.5275
      vertex 1.5 3.61931 17.2969
      vertex -1.5 3.61931 17.2969
    endloop
  endfacet
  facet normal 1 1.11142e-06 -2.48434e-07
    outer loop
      vertex 1.5 2.5497 15.9179
      vertex 1.5 3.87433 18.0052
      vertex 1.5 3.92915 18.2505
    endloop
  endfacet
  facet normal 1 0 3.23179e-07
    outer loop
      vertex 1.5 2.5497 15.9179
      vertex 1.5 3.86532 18.5
      vertex 1.5 3.76472 18.5
    endloop
  endfacet
  facet normal 1 0 2.30842e-07
    outer loop
      vertex 1.5 2.5497 15.9179
      vertex 1.5 3.29985 18.5
      vertex 1.5 3.21265 18.5
    endloop
  endfacet
  facet normal 0 0.509043 -0.860741
    outer loop
      vertex -1.5 1.92701 15.4948
      vertex 1.5 2.14331 15.6227
      vertex 1.5 1.92701 15.4948
    endloop
  endfacet
  facet normal 0 0.509043 -0.860741
    outer loop
      vertex 1.5 2.14331 15.6227
      vertex -1.5 1.92701 15.4948
      vertex -1.5 2.14331 15.6227
    endloop
  endfacet
  facet normal 0 0.279034 -0.960281
    outer loop
      vertex -1 0.994759 15.1257
      vertex -1.5 0.994759 15.1257
      vertex -1 1 15.1272
    endloop
  endfacet
  facet normal 0 0.279034 -0.960281
    outer loop
      vertex 1 1 15.1272
      vertex 1.5 0.994759 15.1257
      vertex 1 0.994759 15.1257
    endloop
  endfacet
  facet normal -4.96249e-07 0.27899 -0.960294
    outer loop
      vertex 1.5 0.994759 15.1257
      vertex 1 1 15.1272
      vertex 1.5 1.23607 15.1958
    endloop
  endfacet
  facet normal 0 0.278989 -0.960294
    outer loop
      vertex -1 1 15.1272
      vertex 1.5 1.23607 15.1958
      vertex 1 1 15.1272
    endloop
  endfacet
  facet normal 4.96249e-07 0.27899 -0.960294
    outer loop
      vertex -1.5 1.23607 15.1958
      vertex -1 1 15.1272
      vertex -1.5 0.994759 15.1257
    endloop
  endfacet
  facet normal 0 0.278989 -0.960294
    outer loop
      vertex -1 1 15.1272
      vertex -1.5 1.23607 15.1958
      vertex 1.5 1.23607 15.1958
    endloop
  endfacet
  facet normal 0 0.39715 -0.917754
    outer loop
      vertex -1.5 1.4725 15.2809
      vertex 1.5 1.70312 15.3807
      vertex 1.5 1.4725 15.2809
    endloop
  endfacet
  facet normal 0 0.39715 -0.917754
    outer loop
      vertex 1.5 1.70312 15.3807
      vertex -1.5 1.4725 15.2809
      vertex -1.5 1.70312 15.3807
    endloop
  endfacet
  facet normal 0 0.218143 -0.975917
    outer loop
      vertex 1 0.749525 15.0709
      vertex 1.5 0.994759 15.1257
      vertex 1.5 0.749525 15.0709
    endloop
  endfacet
  facet normal 0 0.218143 -0.975917
    outer loop
      vertex 1.5 0.994759 15.1257
      vertex 1 0.749525 15.0709
      vertex 1 0.994759 15.1257
    endloop
  endfacet
  facet normal 0 0.218143 -0.975917
    outer loop
      vertex -1.5 0.749525 15.0709
      vertex -1 0.994759 15.1257
      vertex -1 0.749525 15.0709
    endloop
  endfacet
  facet normal 0 0.218143 -0.975917
    outer loop
      vertex -1 0.994759 15.1257
      vertex -1.5 0.749525 15.0709
      vertex -1.5 0.994759 15.1257
    endloop
  endfacet
  facet normal 0 0.094109 -0.995562
    outer loop
      vertex -1.5 0.251162 15.0079
      vertex -1 0.501332 15.0315
      vertex -1 0.251162 15.0079
    endloop
  endfacet
  facet normal 0 0.094109 -0.995562
    outer loop
      vertex -1 0.501332 15.0315
      vertex -1.5 0.251162 15.0079
      vertex -1.5 0.501332 15.0315
    endloop
  endfacet
  facet normal 0 0.094109 -0.995562
    outer loop
      vertex 1 0.251162 15.0079
      vertex 1.5 0.501332 15.0315
      vertex 1.5 0.251162 15.0079
    endloop
  endfacet
  facet normal 0 0.094109 -0.995562
    outer loop
      vertex 1.5 0.501332 15.0315
      vertex 1 0.251162 15.0079
      vertex 1 0.501332 15.0315
    endloop
  endfacet
  facet normal 0 -0.218143 -0.975917
    outer loop
      vertex 1 -0.994759 15.1257
      vertex 1.5 -0.749525 15.0709
      vertex 1.5 -0.994759 15.1257
    endloop
  endfacet
  facet normal -0 -0.218143 -0.975917
    outer loop
      vertex 1.5 -0.749525 15.0709
      vertex 1 -0.994759 15.1257
      vertex 1 -0.749525 15.0709
    endloop
  endfacet
  facet normal 0 -0.218143 -0.975917
    outer loop
      vertex -1.5 -0.994759 15.1257
      vertex -1 -0.749525 15.0709
      vertex -1 -0.994759 15.1257
    endloop
  endfacet
  facet normal -0 -0.218143 -0.975917
    outer loop
      vertex -1 -0.749525 15.0709
      vertex -1.5 -0.994759 15.1257
      vertex -1.5 -0.749525 15.0709
    endloop
  endfacet
  facet normal 1 -1.32782e-06 -3.85763e-07
    outer loop
      vertex 1.5 -2.5497 15.9179
      vertex 1.5 -3.87433 18.0052
      vertex 1.5 -3.80423 17.7639
    endloop
  endfacet
  facet normal 1 0 1.84674e-07
    outer loop
      vertex 1.5 -2.95865 18.5
      vertex 1.5 -3.04225 18.5
      vertex 1.5 -2.5497 15.9179
    endloop
  endfacet
  facet normal 1 1.04065e-07 8.07209e-08
    outer loop
      vertex 1.5 -2.32359 17.1033
      vertex 1.5 -2.35545 17.1443
      vertex 1.5 -2.5497 15.9179
    endloop
  endfacet
  facet normal 1 9.39069e-08 8.27888e-08
    outer loop
      vertex 1.5 -2.26337 17.0331
      vertex 1.5 -2.29294 17.0666
      vertex 1.5 -2.5497 15.9179
    endloop
  endfacet
  facet normal 1 0 1.84674e-07
    outer loop
      vertex 1.5 2.5497 15.9179
      vertex 1.5 3.04225 18.5
      vertex 1.5 2.95865 18.5
    endloop
  endfacet
  facet normal 1 -7.57077e-07 2.72566e-07
    outer loop
      vertex 1.5 2.78933 17.8956
      vertex 1.5 2.5497 15.9179
      vertex 1.5 2.80505 17.9393
    endloop
  endfacet
  facet normal 1 -5.80396e-07 2.51158e-07
    outer loop
      vertex 1.5 2.5497 15.9179
      vertex 1.5 2.78933 17.8956
      vertex 1.5 2.72192 17.7398
    endloop
  endfacet
  facet normal 1 -3.15895e-07 1.60952e-07
    outer loop
      vertex 1.5 2.62892 17.5547
      vertex 1.5 2.5497 15.9179
      vertex 1.5 2.65602 17.6079
    endloop
  endfacet
  facet normal 1 -2.68249e-07 1.58646e-07
    outer loop
      vertex 1.5 2.5497 15.9179
      vertex 1.5 2.62892 17.5547
      vertex 1.5 2.59957 17.5051
    endloop
  endfacet
  facet normal 1 -1.04067e-07 8.07204e-08
    outer loop
      vertex 1.5 2.31154 17.0877
      vertex 1.5 2.5497 15.9179
      vertex 1.5 2.32359 17.1033
    endloop
  endfacet
  facet normal 1 -9.38998e-08 8.27904e-08
    outer loop
      vertex 1.5 2.5497 15.9179
      vertex 1.5 2.31154 17.0877
      vertex 1.5 2.29294 17.0666
    endloop
  endfacet
  facet normal 1 -1.04065e-07 8.07209e-08
    outer loop
      vertex 1.5 2.5497 15.9179
      vertex 1.5 2.35545 17.1443
      vertex 1.5 2.32359 17.1033
    endloop
  endfacet
  facet normal 1 -9.39027e-08 8.27901e-08
    outer loop
      vertex 1.5 2.5497 15.9179
      vertex 1.5 2.23505 17.001
      vertex 1.5 2.20783 16.9701
    endloop
  endfacet
  facet normal 1 -9.39076e-08 8.27886e-08
    outer loop
      vertex 1.5 2.5497 15.9179
      vertex 1.5 2.26337 17.0331
      vertex 1.5 2.23505 17.001
    endloop
  endfacet
  facet normal 0 0.661312 -0.750111
    outer loop
      vertex -1.5 2.5497 15.9179
      vertex 1.5 2.73819 16.0841
      vertex 1.5 2.5497 15.9179
    endloop
  endfacet
  facet normal 0 0.661312 -0.750111
    outer loop
      vertex 1.5 2.73819 16.0841
      vertex -1.5 2.5497 15.9179
      vertex -1.5 2.73819 16.0841
    endloop
  endfacet
  facet normal 1 4.27421e-05 -4.27426e-05
    outer loop
      vertex 1.5 2.5497 15.9179
      vertex 1.5 2.73819 16.0841
      vertex 1.5 2.91587 16.2618
    endloop
  endfacet
  facet normal 1 5.02847e-06 -3.41729e-06
    outer loop
      vertex 1.5 2.5497 15.9179
      vertex 1.5 3.23607 16.6489
      vertex 1.5 3.37731 16.8567
    endloop
  endfacet
  facet normal 1 1.32782e-06 -3.85763e-07
    outer loop
      vertex 1.5 2.5497 15.9179
      vertex 1.5 3.80423 17.7639
      vertex 1.5 3.87433 18.0052
    endloop
  endfacet
  facet normal 1 1.61657e-06 -5.81999e-07
    outer loop
      vertex 1.5 2.5497 15.9179
      vertex 1.5 3.71911 17.5275
      vertex 1.5 3.80423 17.7639
    endloop
  endfacet
  facet normal 1 1.15438e-06 -1.09204e-07
    outer loop
      vertex 1.5 3.86532 18.5
      vertex 1.5 3.96846 18.4987
      vertex 1.5 3.96858 18.5
    endloop
  endfacet
  facet normal 1 1.15238e-06 -2.63988e-07
    outer loop
      vertex 1.5 3.96846 18.4987
      vertex 1.5 3.86532 18.5
      vertex 1.5 2.5497 15.9179
    endloop
  endfacet
  facet normal 1 9.44211e-07 -1.49546e-07
    outer loop
      vertex 1.5 2.5497 15.9179
      vertex 1.5 3.92915 18.2505
      vertex 1.5 3.96846 18.4987
    endloop
  endfacet
  facet normal 1 0 2.30842e-07
    outer loop
      vertex 1.5 2.5497 15.9179
      vertex 1.5 3.47929 18.5
      vertex 1.5 3.38866 18.5
    endloop
  endfacet
  facet normal 0 0.338738 -0.940881
    outer loop
      vertex -1.5 1.23607 15.1958
      vertex 1.5 1.4725 15.2809
      vertex 1.5 1.23607 15.1958
    endloop
  endfacet
  facet normal 0 0.338738 -0.940881
    outer loop
      vertex 1.5 1.4725 15.2809
      vertex -1.5 1.23607 15.1958
      vertex -1.5 1.4725 15.2809
    endloop
  endfacet
  facet normal 0 -0.61291 -0.790153
    outer loop
      vertex -1.5 -2.5497 15.9179
      vertex 1.5 -2.35114 15.7639
      vertex 1.5 -2.5497 15.9179
    endloop
  endfacet
  facet normal -0 -0.61291 -0.790153
    outer loop
      vertex 1.5 -2.35114 15.7639
      vertex -1.5 -2.5497 15.9179
      vertex -1.5 -2.35114 15.7639
    endloop
  endfacet
  facet normal 0 -0.661312 -0.750111
    outer loop
      vertex -1.5 -2.73819 16.0841
      vertex 1.5 -2.5497 15.9179
      vertex 1.5 -2.73819 16.0841
    endloop
  endfacet
  facet normal -0 -0.661312 -0.750111
    outer loop
      vertex 1.5 -2.5497 15.9179
      vertex -1.5 -2.73819 16.0841
      vertex -1.5 -2.5497 15.9179
    endloop
  endfacet
  facet normal 0 -0.827085 -0.562077
    outer loop
      vertex -1.5 -3.23607 16.6489
      vertex 1.5 -3.37731 16.8567
      vertex -1.5 -3.37731 16.8567
    endloop
  endfacet
  facet normal 0 -0.827085 -0.562077
    outer loop
      vertex 1.5 -3.37731 16.8567
      vertex -1.5 -3.23607 16.6489
      vertex 1.5 -3.23607 16.6489
    endloop
  endfacet
  facet normal 1 -1.11142e-06 -2.48434e-07
    outer loop
      vertex 1.5 -2.5497 15.9179
      vertex 1.5 -3.92915 18.2505
      vertex 1.5 -3.87433 18.0052
    endloop
  endfacet
  facet normal 1 -5.02847e-06 -3.41729e-06
    outer loop
      vertex 1.5 -2.5497 15.9179
      vertex 1.5 -3.37731 16.8567
      vertex 1.5 -3.23607 16.6489
    endloop
  endfacet
  facet normal -1 0 0
    outer loop
      vertex -1.5 2.9567 18.5
      vertex -1.5 3.96846 18.4987
      vertex -1.5 3.92915 18.2505
    endloop
  endfacet
  facet normal -1 0 0
    outer loop
      vertex -1.5 2.94686 18.4379
      vertex -1.5 3.92915 18.2505
      vertex -1.5 3.87433 18.0052
    endloop
  endfacet
  facet normal -1 0 0
    outer loop
      vertex -1.5 2.90575 18.2539
      vertex -1.5 3.87433 18.0052
      vertex -1.5 3.80423 17.7639
    endloop
  endfacet
  facet normal -1 0 0
    outer loop
      vertex -1.5 2.85317 18.0729
      vertex -1.5 3.80423 17.7639
      vertex -1.5 3.71911 17.5275
    endloop
  endfacet
  facet normal -1 0 0
    outer loop
      vertex -1.5 2.78933 17.8956
      vertex -1.5 3.71911 17.5275
      vertex -1.5 3.61931 17.2969
    endloop
  endfacet
  facet normal -1 0 0
    outer loop
      vertex -1.5 2.71448 17.7227
      vertex -1.5 3.61931 17.2969
      vertex -1.5 3.50523 17.073
    endloop
  endfacet
  facet normal -1 0 0
    outer loop
      vertex -1.5 2.62892 17.5547
      vertex -1.5 3.50523 17.073
      vertex -1.5 3.37731 16.8567
    endloop
  endfacet
  facet normal -1 0 0
    outer loop
      vertex -1.5 2.53298 17.3925
      vertex -1.5 3.37731 16.8567
      vertex -1.5 3.23607 16.6489
    endloop
  endfacet
  facet normal -1 0 0
    outer loop
      vertex -1.5 2.42705 17.2366
      vertex -1.5 3.23607 16.6489
      vertex -1.5 3.08205 16.4503
    endloop
  endfacet
  facet normal -1 0 0
    outer loop
      vertex -1.5 3.71911 17.5275
      vertex -1.5 2.78933 17.8956
      vertex -1.5 2.85317 18.0729
    endloop
  endfacet
  facet normal -1 0 0
    outer loop
      vertex -1.5 3.96846 18.4987
      vertex -1.5 2.9567 18.5
      vertex -1.5 3.96858 18.5
    endloop
  endfacet
  facet normal -1 0 0
    outer loop
      vertex -1.5 2.31154 17.0877
      vertex -1.5 3.08205 16.4503
      vertex -1.5 2.91587 16.2618
    endloop
  endfacet
  facet normal -1 0 -0
    outer loop
      vertex -1.5 2.9567 18.5
      vertex -1.5 3.92915 18.2505
      vertex -1.5 2.94686 18.4379
    endloop
  endfacet
  facet normal -1 0 -0
    outer loop
      vertex -1.5 2.94686 18.4379
      vertex -1.5 3.87433 18.0052
      vertex -1.5 2.90575 18.2539
    endloop
  endfacet
  facet normal -1 0 0
    outer loop
      vertex -1.5 3.80423 17.7639
      vertex -1.5 2.85317 18.0729
      vertex -1.5 2.90575 18.2539
    endloop
  endfacet
  facet normal -1 0 0
    outer loop
      vertex -1.5 2.18691 16.9464
      vertex -1.5 2.91587 16.2618
      vertex -1.5 2.73819 16.0841
    endloop
  endfacet
  facet normal -1 0 0
    outer loop
      vertex -1.5 3.61931 17.2969
      vertex -1.5 2.71448 17.7227
      vertex -1.5 2.78933 17.8956
    endloop
  endfacet
  facet normal -1 0 0
    outer loop
      vertex -1.5 3.50523 17.073
      vertex -1.5 2.62892 17.5547
      vertex -1.5 2.71448 17.7227
    endloop
  endfacet
  facet normal -1 0 0
    outer loop
      vertex -1.5 2.05364 16.8131
      vertex -1.5 2.73819 16.0841
      vertex -1.5 2.5497 15.9179
    endloop
  endfacet
  facet normal -1 0 0
    outer loop
      vertex -1.5 3.37731 16.8567
      vertex -1.5 2.53298 17.3925
      vertex -1.5 2.62892 17.5547
    endloop
  endfacet
  facet normal -1 0 0
    outer loop
      vertex -1.5 3.23607 16.6489
      vertex -1.5 2.42705 17.2366
      vertex -1.5 2.53298 17.3925
    endloop
  endfacet
  facet normal -1 0 0
    outer loop
      vertex -1.5 1.91227 16.6885
      vertex -1.5 2.5497 15.9179
      vertex -1.5 2.35114 15.7639
    endloop
  endfacet
  facet normal -1 0 0
    outer loop
      vertex -1.5 3.08205 16.4503
      vertex -1.5 2.31154 17.0877
      vertex -1.5 2.42705 17.2366
    endloop
  endfacet
  facet normal -1 0 0
    outer loop
      vertex -1.5 2.91587 16.2618
      vertex -1.5 2.18691 16.9464
      vertex -1.5 2.31154 17.0877
    endloop
  endfacet
  facet normal -1 0 0
    outer loop
      vertex -1.5 1.76336 16.5729
      vertex -1.5 2.35114 15.7639
      vertex -1.5 2.14331 15.6227
    endloop
  endfacet
  facet normal -1 0 0
    outer loop
      vertex -1.5 2.73819 16.0841
      vertex -1.5 2.05364 16.8131
      vertex -1.5 2.18691 16.9464
    endloop
  endfacet
  facet normal -1 0 0
    outer loop
      vertex -1.5 1.60748 16.467
      vertex -1.5 2.14331 15.6227
      vertex -1.5 1.92701 15.4948
    endloop
  endfacet
  facet normal -1 0 0
    outer loop
      vertex -1.5 2.5497 15.9179
      vertex -1.5 1.91227 16.6885
      vertex -1.5 2.05364 16.8131
    endloop
  endfacet
  facet normal -1 0 0
    outer loop
      vertex -1.5 2.35114 15.7639
      vertex -1.5 1.76336 16.5729
      vertex -1.5 1.91227 16.6885
    endloop
  endfacet
  facet normal -1 0 0
    outer loop
      vertex -1.5 1.44526 16.3711
      vertex -1.5 1.92701 15.4948
      vertex -1.5 1.70312 15.3807
    endloop
  endfacet
  facet normal -1 0 0
    outer loop
      vertex -1.5 2.14331 15.6227
      vertex -1.5 1.60748 16.467
      vertex -1.5 1.76336 16.5729
    endloop
  endfacet
  facet normal -1 0 0
    outer loop
      vertex -1.5 1.27734 16.2855
      vertex -1.5 1.70312 15.3807
      vertex -1.5 1.4725 15.2809
    endloop
  endfacet
  facet normal -1 0 0
    outer loop
      vertex -1.5 1.92701 15.4948
      vertex -1.5 1.44526 16.3711
      vertex -1.5 1.60748 16.467
    endloop
  endfacet
  facet normal -1 0 0
    outer loop
      vertex -1.5 1.70312 15.3807
      vertex -1.5 1.27734 16.2855
      vertex -1.5 1.44526 16.3711
    endloop
  endfacet
  facet normal -1 0 0
    outer loop
      vertex -1.5 1.10437 16.2107
      vertex -1.5 1.4725 15.2809
      vertex -1.5 1.23607 15.1958
    endloop
  endfacet
  facet normal -1 0 0
    outer loop
      vertex -1.5 1.4725 15.2809
      vertex -1.5 1.10437 16.2107
      vertex -1.5 1.27734 16.2855
    endloop
  endfacet
  facet normal -1 0 0
    outer loop
      vertex -1.5 0.927051 16.1468
      vertex -1.5 1.23607 15.1958
      vertex -1.5 0.994759 15.1257
    endloop
  endfacet
  facet normal -1 0 0
    outer loop
      vertex -1.5 1.23607 15.1958
      vertex -1.5 0.927051 16.1468
      vertex -1.5 1.10437 16.2107
    endloop
  endfacet
  facet normal -1 0 0
    outer loop
      vertex -1.5 0.746069 16.0942
      vertex -1.5 0.994759 15.1257
      vertex -1.5 0.749525 15.0709
    endloop
  endfacet
  facet normal -1 0 0
    outer loop
      vertex -1.5 0.994759 15.1257
      vertex -1.5 0.746069 16.0942
      vertex -1.5 0.927051 16.1468
    endloop
  endfacet
  facet normal -1 0 0
    outer loop
      vertex -1.5 0.749525 15.0709
      vertex -1.5 0.562143 16.0531
      vertex -1.5 0.746069 16.0942
    endloop
  endfacet
  facet normal -1 0 0
    outer loop
      vertex -1.5 0.501332 15.0315
      vertex -1.5 0.562143 16.0531
      vertex -1.5 0.749525 15.0709
    endloop
  endfacet
  facet normal -1 0 0
    outer loop
      vertex -1.5 0.501332 15.0315
      vertex -1.5 0.375999 16.0237
      vertex -1.5 0.562143 16.0531
    endloop
  endfacet
  facet normal -1 0 0
    outer loop
      vertex -1.5 0.251162 15.0079
      vertex -1.5 0.375999 16.0237
      vertex -1.5 0.501332 15.0315
    endloop
  endfacet
  facet normal -1 0 0
    outer loop
      vertex -1.5 0.251162 15.0079
      vertex -1.5 0.188371 16.0059
      vertex -1.5 0.375999 16.0237
    endloop
  endfacet
  facet normal -1 0 0
    outer loop
      vertex -1.5 0 15
      vertex -1.5 0.188371 16.0059
      vertex -1.5 0.251162 15.0079
    endloop
  endfacet
  facet normal -1 0 0
    outer loop
      vertex -1.5 0 15
      vertex -1.5 0 16
      vertex -1.5 0.188371 16.0059
    endloop
  endfacet
  facet normal -1 0 0
    outer loop
      vertex -1.5 0 15
      vertex -1.5 -0.188371 16.0059
      vertex -1.5 0 16
    endloop
  endfacet
  facet normal -1 0 0
    outer loop
      vertex -1.5 -0.251162 15.0079
      vertex -1.5 -0.188371 16.0059
      vertex -1.5 0 15
    endloop
  endfacet
  facet normal -1 0 0
    outer loop
      vertex -1.5 -0.251162 15.0079
      vertex -1.5 -0.375999 16.0237
      vertex -1.5 -0.188371 16.0059
    endloop
  endfacet
  facet normal -1 0 0
    outer loop
      vertex -1.5 -0.501332 15.0315
      vertex -1.5 -0.375999 16.0237
      vertex -1.5 -0.251162 15.0079
    endloop
  endfacet
  facet normal -1 0 0
    outer loop
      vertex -1.5 -0.501332 15.0315
      vertex -1.5 -0.562143 16.0531
      vertex -1.5 -0.375999 16.0237
    endloop
  endfacet
  facet normal -1 0 0
    outer loop
      vertex -1.5 -0.749525 15.0709
      vertex -1.5 -0.562143 16.0531
      vertex -1.5 -0.501332 15.0315
    endloop
  endfacet
  facet normal -1 -0 0
    outer loop
      vertex -1.5 -0.562143 16.0531
      vertex -1.5 -0.749525 15.0709
      vertex -1.5 -0.746069 16.0942
    endloop
  endfacet
  facet normal -1 0 0
    outer loop
      vertex -1.5 -0.994759 15.1257
      vertex -1.5 -0.746069 16.0942
      vertex -1.5 -0.749525 15.0709
    endloop
  endfacet
  facet normal -1 -0 0
    outer loop
      vertex -1.5 -0.746069 16.0942
      vertex -1.5 -0.994759 15.1257
      vertex -1.5 -0.927051 16.1468
    endloop
  endfacet
  facet normal -1 0 0
    outer loop
      vertex -1.5 -1.23607 15.1958
      vertex -1.5 -0.927051 16.1468
      vertex -1.5 -0.994759 15.1257
    endloop
  endfacet
  facet normal -1 -0 0
    outer loop
      vertex -1.5 -0.927051 16.1468
      vertex -1.5 -1.23607 15.1958
      vertex -1.5 -1.10437 16.2107
    endloop
  endfacet
  facet normal -1 0 0
    outer loop
      vertex -1.5 -1.4725 15.2809
      vertex -1.5 -1.10437 16.2107
      vertex -1.5 -1.23607 15.1958
    endloop
  endfacet
  facet normal -1 -0 0
    outer loop
      vertex -1.5 -1.10437 16.2107
      vertex -1.5 -1.4725 15.2809
      vertex -1.5 -1.27734 16.2855
    endloop
  endfacet
  facet normal -1 0 0
    outer loop
      vertex -1.5 -1.70312 15.3807
      vertex -1.5 -1.27734 16.2855
      vertex -1.5 -1.4725 15.2809
    endloop
  endfacet
  facet normal -1 -0 0
    outer loop
      vertex -1.5 -1.27734 16.2855
      vertex -1.5 -1.70312 15.3807
      vertex -1.5 -1.44526 16.3711
    endloop
  endfacet
  facet normal -1 0 0
    outer loop
      vertex -1.5 -1.92701 15.4948
      vertex -1.5 -1.44526 16.3711
      vertex -1.5 -1.70312 15.3807
    endloop
  endfacet
  facet normal -1 -0 0
    outer loop
      vertex -1.5 -1.44526 16.3711
      vertex -1.5 -1.92701 15.4948
      vertex -1.5 -1.60748 16.467
    endloop
  endfacet
  facet normal -1 0 0
    outer loop
      vertex -1.5 -2.14331 15.6227
      vertex -1.5 -1.60748 16.467
      vertex -1.5 -1.92701 15.4948
    endloop
  endfacet
  facet normal -1 -0 0
    outer loop
      vertex -1.5 -1.60748 16.467
      vertex -1.5 -2.14331 15.6227
      vertex -1.5 -1.76336 16.5729
    endloop
  endfacet
  facet normal -1 0 0
    outer loop
      vertex -1.5 -2.35114 15.7639
      vertex -1.5 -1.76336 16.5729
      vertex -1.5 -2.14331 15.6227
    endloop
  endfacet
  facet normal -1 -0 0
    outer loop
      vertex -1.5 -1.76336 16.5729
      vertex -1.5 -2.35114 15.7639
      vertex -1.5 -1.91227 16.6885
    endloop
  endfacet
  facet normal -1 0 0
    outer loop
      vertex -1.5 -2.5497 15.9179
      vertex -1.5 -1.91227 16.6885
      vertex -1.5 -2.35114 15.7639
    endloop
  endfacet
  facet normal -1 -0 0
    outer loop
      vertex -1.5 -1.91227 16.6885
      vertex -1.5 -2.5497 15.9179
      vertex -1.5 -2.05364 16.8131
    endloop
  endfacet
  facet normal -1 0 0
    outer loop
      vertex -1.5 -2.73819 16.0841
      vertex -1.5 -2.05364 16.8131
      vertex -1.5 -2.5497 15.9179
    endloop
  endfacet
  facet normal -1 -0 0
    outer loop
      vertex -1.5 -2.05364 16.8131
      vertex -1.5 -2.73819 16.0841
      vertex -1.5 -2.18691 16.9464
    endloop
  endfacet
  facet normal -1 0 0
    outer loop
      vertex -1.5 -2.91587 16.2618
      vertex -1.5 -2.18691 16.9464
      vertex -1.5 -2.73819 16.0841
    endloop
  endfacet
  facet normal -1 -0 0
    outer loop
      vertex -1.5 -2.18691 16.9464
      vertex -1.5 -2.91587 16.2618
      vertex -1.5 -2.31154 17.0877
    endloop
  endfacet
  facet normal -1 0 0
    outer loop
      vertex -1.5 -3.08205 16.4503
      vertex -1.5 -2.31154 17.0877
      vertex -1.5 -2.91587 16.2618
    endloop
  endfacet
  facet normal -1 -0 0
    outer loop
      vertex -1.5 -2.31154 17.0877
      vertex -1.5 -3.08205 16.4503
      vertex -1.5 -2.42705 17.2366
    endloop
  endfacet
  facet normal -1 0 0
    outer loop
      vertex -1.5 -3.23607 16.6489
      vertex -1.5 -2.42705 17.2366
      vertex -1.5 -3.08205 16.4503
    endloop
  endfacet
  facet normal -1 -0 0
    outer loop
      vertex -1.5 -2.42705 17.2366
      vertex -1.5 -3.23607 16.6489
      vertex -1.5 -2.53298 17.3925
    endloop
  endfacet
  facet normal -1 0 0
    outer loop
      vertex -1.5 -3.37731 16.8567
      vertex -1.5 -2.53298 17.3925
      vertex -1.5 -3.23607 16.6489
    endloop
  endfacet
  facet normal -1 -0 0
    outer loop
      vertex -1.5 -2.53298 17.3925
      vertex -1.5 -3.37731 16.8567
      vertex -1.5 -2.62892 17.5547
    endloop
  endfacet
  facet normal -1 0 0
    outer loop
      vertex -1.5 -3.50523 17.073
      vertex -1.5 -2.62892 17.5547
      vertex -1.5 -3.37731 16.8567
    endloop
  endfacet
  facet normal -1 -0 0
    outer loop
      vertex -1.5 -2.62892 17.5547
      vertex -1.5 -3.50523 17.073
      vertex -1.5 -2.71448 17.7227
    endloop
  endfacet
  facet normal -1 0 0
    outer loop
      vertex -1.5 -3.61931 17.2969
      vertex -1.5 -2.71448 17.7227
      vertex -1.5 -3.50523 17.073
    endloop
  endfacet
  facet normal -1 -0 0
    outer loop
      vertex -1.5 -2.71448 17.7227
      vertex -1.5 -3.61931 17.2969
      vertex -1.5 -2.78933 17.8956
    endloop
  endfacet
  facet normal -1 0 0
    outer loop
      vertex -1.5 -3.71911 17.5275
      vertex -1.5 -2.78933 17.8956
      vertex -1.5 -3.61931 17.2969
    endloop
  endfacet
  facet normal -1 -0 0
    outer loop
      vertex -1.5 -2.78933 17.8956
      vertex -1.5 -3.71911 17.5275
      vertex -1.5 -2.85317 18.0729
    endloop
  endfacet
  facet normal -1 0 0
    outer loop
      vertex -1.5 -3.80423 17.7639
      vertex -1.5 -2.85317 18.0729
      vertex -1.5 -3.71911 17.5275
    endloop
  endfacet
  facet normal -1 -0 0
    outer loop
      vertex -1.5 -2.85317 18.0729
      vertex -1.5 -3.80423 17.7639
      vertex -1.5 -2.90575 18.2539
    endloop
  endfacet
  facet normal -1 0 0
    outer loop
      vertex -1.5 -3.87433 18.0052
      vertex -1.5 -2.90575 18.2539
      vertex -1.5 -3.80423 17.7639
    endloop
  endfacet
  facet normal -1 -0 0
    outer loop
      vertex -1.5 -2.90575 18.2539
      vertex -1.5 -3.87433 18.0052
      vertex -1.5 -2.94686 18.4379
    endloop
  endfacet
  facet normal -1 0 0
    outer loop
      vertex -1.5 -3.92915 18.2505
      vertex -1.5 -2.94686 18.4379
      vertex -1.5 -3.87433 18.0052
    endloop
  endfacet
  facet normal -1 -0 0
    outer loop
      vertex -1.5 -2.94686 18.4379
      vertex -1.5 -3.92915 18.2505
      vertex -1.5 -2.9567 18.5
    endloop
  endfacet
  facet normal -1 0 0
    outer loop
      vertex -1.5 -3.96846 18.4987
      vertex -1.5 -2.9567 18.5
      vertex -1.5 -3.92915 18.2505
    endloop
  endfacet
  facet normal -1 -0 0
    outer loop
      vertex -1.5 -2.9567 18.5
      vertex -1.5 -3.96846 18.4987
      vertex -1.5 -3.96858 18.5
    endloop
  endfacet
  facet normal 1 -9.44211e-07 -1.49546e-07
    outer loop
      vertex 1.5 -2.5497 15.9179
      vertex 1.5 -3.96846 18.4987
      vertex 1.5 -3.92915 18.2505
    endloop
  endfacet
  facet normal 1 0 2.30842e-07
    outer loop
      vertex 1.5 -3.21265 18.5
      vertex 1.5 -3.29985 18.5
      vertex 1.5 -2.5497 15.9179
    endloop
  endfacet
  facet normal 1 2.68249e-07 1.58646e-07
    outer loop
      vertex 1.5 -2.62892 17.5547
      vertex 1.5 -2.5497 15.9179
      vertex 1.5 -2.59957 17.5051
    endloop
  endfacet
  facet normal 1 3.15895e-07 1.60952e-07
    outer loop
      vertex 1.5 -2.5497 15.9179
      vertex 1.5 -2.62892 17.5547
      vertex 1.5 -2.65602 17.6079
    endloop
  endfacet
  facet normal 1 -2.01051e-06 1.45873e-08
    outer loop
      vertex 1.5 -2.71448 17.7227
      vertex 1.5 -2.5497 15.9179
      vertex 1.5 -2.65602 17.6079
    endloop
  endfacet
  facet normal 1 5.80353e-07 2.51154e-07
    outer loop
      vertex 1.5 -2.5497 15.9179
      vertex 1.5 -2.71448 17.7227
      vertex 1.5 -2.72192 17.7398
    endloop
  endfacet
  facet normal 1 2.0813e-07 1.61442e-07
    outer loop
      vertex 1.5 -2.38926 17.1879
      vertex 1.5 -2.42526 17.2343
      vertex 1.5 -2.5497 15.9179
    endloop
  endfacet
  facet normal 1 -2.82427e-06 5.44523e-07
    outer loop
      vertex 1.5 -2.35545 17.1443
      vertex 1.5 -2.38926 17.1879
      vertex 1.5 -2.5497 15.9179
    endloop
  endfacet
  facet normal 1 9.39027e-08 8.27901e-08
    outer loop
      vertex 1.5 -2.20783 16.9701
      vertex 1.5 -2.23505 17.001
      vertex 1.5 -2.5497 15.9179
    endloop
  endfacet
  facet normal 1 0 1.84674e-07
    outer loop
      vertex 1.5 2.5497 15.9179
      vertex 1.5 3.12685 18.5
      vertex 1.5 3.04225 18.5
    endloop
  endfacet
  facet normal 1 1.38936e-06 -1.25885e-07
    outer loop
      vertex 1.5 2.5497 15.9179
      vertex 1.5 3.21265 18.5
      vertex 1.5 3.12685 18.5
    endloop
  endfacet
  facet normal 0 0.891007 -0.45399
    outer loop
      vertex 1.5 3.50523 17.073
      vertex -1.5 3.61931 17.2969
      vertex 1.5 3.61931 17.2969
    endloop
  endfacet
  facet normal 0 0.891007 -0.45399
    outer loop
      vertex -1.5 3.61931 17.2969
      vertex 1.5 3.50523 17.073
      vertex -1.5 3.50523 17.073
    endloop
  endfacet
  facet normal 1 2.59849e-06 -1.32399e-06
    outer loop
      vertex 1.5 2.5497 15.9179
      vertex 1.5 3.50523 17.073
      vertex 1.5 3.61931 17.2969
    endloop
  endfacet
  facet normal 1 7.98633e-06 -6.19491e-06
    outer loop
      vertex 1.5 2.5497 15.9179
      vertex 1.5 3.08205 16.4503
      vertex 1.5 3.23607 16.6489
    endloop
  endfacet
  facet normal 1 1.22055e-06 -2.51171e-07
    outer loop
      vertex 1.5 2.5497 15.9179
      vertex 1.5 3.76472 18.5
      vertex 1.5 3.66705 18.5
    endloop
  endfacet
  facet normal 0 -0.39715 -0.917754
    outer loop
      vertex -1.5 -1.70312 15.3807
      vertex 1.5 -1.4725 15.2809
      vertex 1.5 -1.70312 15.3807
    endloop
  endfacet
  facet normal -0 -0.39715 -0.917754
    outer loop
      vertex 1.5 -1.4725 15.2809
      vertex -1.5 -1.70312 15.3807
      vertex -1.5 -1.4725 15.2809
    endloop
  endfacet
  facet normal 0 -0.940881 -0.338737
    outer loop
      vertex -1.5 -3.71911 17.5275
      vertex 1.5 -3.80423 17.7639
      vertex -1.5 -3.80423 17.7639
    endloop
  endfacet
  facet normal 0 -0.940881 -0.338737
    outer loop
      vertex 1.5 -3.80423 17.7639
      vertex -1.5 -3.71911 17.5275
      vertex 1.5 -3.71911 17.5275
    endloop
  endfacet
  facet normal 1 -3.50051e-06 -2.07021e-06
    outer loop
      vertex 1.5 -2.5497 15.9179
      vertex 1.5 -3.50523 17.073
      vertex 1.5 -3.37731 16.8567
    endloop
  endfacet
  facet normal 1 -2.59849e-06 -1.32399e-06
    outer loop
      vertex 1.5 -2.5497 15.9179
      vertex 1.5 -3.61931 17.2969
      vertex 1.5 -3.50523 17.073
    endloop
  endfacet
  facet normal 0 -0.975916 -0.218145
    outer loop
      vertex -1.5 -3.87433 18.0052
      vertex 1.5 -3.92915 18.2505
      vertex -1.5 -3.92915 18.2505
    endloop
  endfacet
  facet normal 0 -0.975916 -0.218145
    outer loop
      vertex 1.5 -3.92915 18.2505
      vertex -1.5 -3.87433 18.0052
      vertex 1.5 -3.87433 18.0052
    endloop
  endfacet
  facet normal 1 -1.15238e-06 -2.63988e-07
    outer loop
      vertex 1.5 -3.86532 18.5
      vertex 1.5 -3.96846 18.4987
      vertex 1.5 -2.5497 15.9179
    endloop
  endfacet
  facet normal 1 -1.15438e-06 -1.09204e-07
    outer loop
      vertex 1.5 -3.96846 18.4987
      vertex 1.5 -3.86532 18.5
      vertex 1.5 -3.96858 18.5
    endloop
  endfacet
  facet normal 0 -0.960294 -0.278989
    outer loop
      vertex -1.5 -3.80423 17.7639
      vertex 1.5 -3.87433 18.0052
      vertex -1.5 -3.87433 18.0052
    endloop
  endfacet
  facet normal 0 -0.960294 -0.278989
    outer loop
      vertex 1.5 -3.87433 18.0052
      vertex -1.5 -3.80423 17.7639
      vertex 1.5 -3.80423 17.7639
    endloop
  endfacet
  facet normal 1 0 3.23179e-07
    outer loop
      vertex 1.5 -3.76472 18.5
      vertex 1.5 -3.86532 18.5
      vertex 1.5 -2.5497 15.9179
    endloop
  endfacet
  facet normal 1 -1.28582e-06 -2.32081e-07
    outer loop
      vertex 1.5 -3.47929 18.5
      vertex 1.5 -3.572 18.5
      vertex 1.5 -2.5497 15.9179
    endloop
  endfacet
  facet normal 1 5.80396e-07 2.51158e-07
    outer loop
      vertex 1.5 -2.78933 17.8956
      vertex 1.5 -2.5497 15.9179
      vertex 1.5 -2.72192 17.7398
    endloop
  endfacet
  facet normal 1 7.57077e-07 2.72566e-07
    outer loop
      vertex 1.5 -2.5497 15.9179
      vertex 1.5 -2.78933 17.8956
      vertex 1.5 -2.80505 17.9393
    endloop
  endfacet
  facet normal 1 2.68252e-07 1.58646e-07
    outer loop
      vertex 1.5 -2.5497 17.4208
      vertex 1.5 -2.59957 17.5051
      vertex 1.5 -2.5497 15.9179
    endloop
  endfacet
  facet normal 1 2.34012e-07 1.59034e-07
    outer loop
      vertex 1.5 -2.46337 17.2901
      vertex 1.5 -2.50466 17.3508
      vertex 1.5 -2.5497 15.9179
    endloop
  endfacet
  facet normal 1 2.08223e-07 1.61433e-07
    outer loop
      vertex 1.5 -2.42705 17.2366
      vertex 1.5 -2.5497 15.9179
      vertex 1.5 -2.42526 17.2343
    endloop
  endfacet
  facet normal 1 2.34009e-07 1.59035e-07
    outer loop
      vertex 1.5 -2.5497 15.9179
      vertex 1.5 -2.42705 17.2366
      vertex 1.5 -2.46337 17.2901
    endloop
  endfacet
  facet normal 1 -2.68252e-07 1.58646e-07
    outer loop
      vertex 1.5 2.5497 15.9179
      vertex 1.5 2.59957 17.5051
      vertex 1.5 2.5497 17.4208
    endloop
  endfacet
  facet normal 1 -2.0813e-07 1.61442e-07
    outer loop
      vertex 1.5 2.5497 15.9179
      vertex 1.5 2.42526 17.2343
      vertex 1.5 2.38926 17.1879
    endloop
  endfacet
  facet normal 1 1.51314e-05 -1.33399e-05
    outer loop
      vertex 1.5 2.5497 15.9179
      vertex 1.5 2.91587 16.2618
      vertex 1.5 3.08205 16.4503
    endloop
  endfacet
  facet normal 1 0 2.30842e-07
    outer loop
      vertex 1.5 2.5497 15.9179
      vertex 1.5 3.38866 18.5
      vertex 1.5 3.29985 18.5
    endloop
  endfacet
  facet normal 1 1.28582e-06 -2.32081e-07
    outer loop
      vertex 1.5 2.5497 15.9179
      vertex 1.5 3.572 18.5
      vertex 1.5 3.47929 18.5
    endloop
  endfacet
  facet normal 0 -0.45399 -0.891007
    outer loop
      vertex -1.5 -1.92701 15.4948
      vertex 1.5 -1.70312 15.3807
      vertex 1.5 -1.92701 15.4948
    endloop
  endfacet
  facet normal -0 -0.45399 -0.891007
    outer loop
      vertex 1.5 -1.70312 15.3807
      vertex -1.5 -1.92701 15.4948
      vertex -1.5 -1.70312 15.3807
    endloop
  endfacet
  facet normal 0 -0.338738 -0.940881
    outer loop
      vertex -1.5 -1.4725 15.2809
      vertex 1.5 -1.23607 15.1958
      vertex 1.5 -1.4725 15.2809
    endloop
  endfacet
  facet normal -0 -0.338738 -0.940881
    outer loop
      vertex 1.5 -1.23607 15.1958
      vertex -1.5 -1.4725 15.2809
      vertex -1.5 -1.23607 15.1958
    endloop
  endfacet
  facet normal 0 -0.86074 -0.509044
    outer loop
      vertex -1.5 -3.37731 16.8567
      vertex 1.5 -3.50523 17.073
      vertex -1.5 -3.50523 17.073
    endloop
  endfacet
  facet normal 0 -0.86074 -0.509044
    outer loop
      vertex 1.5 -3.50523 17.073
      vertex -1.5 -3.37731 16.8567
      vertex 1.5 -3.37731 16.8567
    endloop
  endfacet
  facet normal 0 -0.891007 -0.45399
    outer loop
      vertex -1.5 -3.50523 17.073
      vertex 1.5 -3.61931 17.2969
      vertex -1.5 -3.61931 17.2969
    endloop
  endfacet
  facet normal 0 -0.891007 -0.45399
    outer loop
      vertex 1.5 -3.61931 17.2969
      vertex -1.5 -3.50523 17.073
      vertex 1.5 -3.50523 17.073
    endloop
  endfacet
  facet normal 0 -0.707103 -0.707111
    outer loop
      vertex -1.5 -2.91587 16.2618
      vertex 1.5 -2.73819 16.0841
      vertex 1.5 -2.91587 16.2618
    endloop
  endfacet
  facet normal -0 -0.707103 -0.707111
    outer loop
      vertex 1.5 -2.73819 16.0841
      vertex -1.5 -2.91587 16.2618
      vertex -1.5 -2.73819 16.0841
    endloop
  endfacet
  facet normal 1 -1.51314e-05 -1.33399e-05
    outer loop
      vertex 1.5 -2.5497 15.9179
      vertex 1.5 -3.08205 16.4503
      vertex 1.5 -2.91587 16.2618
    endloop
  endfacet
  facet normal 1 -4.27421e-05 -4.27426e-05
    outer loop
      vertex 1.5 -2.5497 15.9179
      vertex 1.5 -2.91587 16.2618
      vertex 1.5 -2.73819 16.0841
    endloop
  endfacet
  facet normal 1 -7.98633e-06 -6.19491e-06
    outer loop
      vertex 1.5 -2.5497 15.9179
      vertex 1.5 -3.23607 16.6489
      vertex 1.5 -3.08205 16.4503
    endloop
  endfacet
  facet normal 0 -0.995555 -0.094179
    outer loop
      vertex -1.5 -3.96846 18.4987
      vertex 1.5 -3.96858 18.5
      vertex -1.5 -3.96858 18.5
    endloop
  endfacet
  facet normal 0 -0.995555 -0.094179
    outer loop
      vertex 1.5 -3.96858 18.5
      vertex -1.5 -3.96846 18.4987
      vertex 1.5 -3.96846 18.4987
    endloop
  endfacet
  facet normal 0 -0.987689 -0.156432
    outer loop
      vertex -1.5 -3.92915 18.2505
      vertex 1.5 -3.96846 18.4987
      vertex -1.5 -3.96846 18.4987
    endloop
  endfacet
  facet normal 0 -0.987689 -0.156432
    outer loop
      vertex 1.5 -3.96846 18.4987
      vertex -1.5 -3.92915 18.2505
      vertex 1.5 -3.92915 18.2505
    endloop
  endfacet
  facet normal 1 0 2.7701e-07
    outer loop
      vertex 1.5 -3.572 18.5
      vertex 1.5 -3.66705 18.5
      vertex 1.5 -2.5497 15.9179
    endloop
  endfacet
  facet normal 1 0 2.30842e-07
    outer loop
      vertex 1.5 -3.38866 18.5
      vertex 1.5 -3.47929 18.5
      vertex 1.5 -2.5497 15.9179
    endloop
  endfacet
  facet normal 1 0 2.30842e-07
    outer loop
      vertex 1.5 -3.29985 18.5
      vertex 1.5 -3.38866 18.5
      vertex 1.5 -2.5497 15.9179
    endloop
  endfacet
  facet normal 1 -1.38936e-06 -1.25885e-07
    outer loop
      vertex 1.5 -3.12685 18.5
      vertex 1.5 -3.21265 18.5
      vertex 1.5 -2.5497 15.9179
    endloop
  endfacet
  facet normal 1 0 1.84674e-07
    outer loop
      vertex 1.5 -3.04225 18.5
      vertex 1.5 -3.12685 18.5
      vertex 1.5 -2.5497 15.9179
    endloop
  endfacet
  facet normal 1 7.57067e-07 2.72565e-07
    outer loop
      vertex 1.5 -2.85317 18.0729
      vertex 1.5 -2.5497 15.9179
      vertex 1.5 -2.80505 17.9393
    endloop
  endfacet
  facet normal 1 -3.29137e-06 -2.9755e-07
    outer loop
      vertex 1.5 -2.90575 18.2539
      vertex 1.5 -2.5497 15.9179
      vertex 1.5 -2.85317 18.0729
    endloop
  endfacet
  facet normal 1 2.87086e-06 6.41708e-07
    outer loop
      vertex 1.5 -2.94686 18.4379
      vertex 1.5 -2.5497 15.9179
      vertex 1.5 -2.90575 18.2539
    endloop
  endfacet
  facet normal 1 -0 0
    outer loop
      vertex 1.5 -2.95865 18.5
      vertex 1.5 -2.94686 18.4379
      vertex 1.5 -2.9567 18.5
    endloop
  endfacet
  facet normal 1 5.89173e-06 1.11783e-06
    outer loop
      vertex 1.5 -2.94686 18.4379
      vertex 1.5 -2.95865 18.5
      vertex 1.5 -2.5497 15.9179
    endloop
  endfacet
  facet normal 1 2.34015e-07 1.59034e-07
    outer loop
      vertex 1.5 -2.53298 17.3925
      vertex 1.5 -2.5497 15.9179
      vertex 1.5 -2.50466 17.3508
    endloop
  endfacet
  facet normal 1 2.68261e-07 1.58646e-07
    outer loop
      vertex 1.5 -2.5497 15.9179
      vertex 1.5 -2.53298 17.3925
      vertex 1.5 -2.5497 17.4208
    endloop
  endfacet
  facet normal 1 -2.68261e-07 1.58646e-07
    outer loop
      vertex 1.5 2.53298 17.3925
      vertex 1.5 2.5497 15.9179
      vertex 1.5 2.5497 17.4208
    endloop
  endfacet
  facet normal 1 -2.34015e-07 1.59034e-07
    outer loop
      vertex 1.5 2.5497 15.9179
      vertex 1.5 2.53298 17.3925
      vertex 1.5 2.50466 17.3508
    endloop
  endfacet
  facet normal 1 -2.34009e-07 1.59035e-07
    outer loop
      vertex 1.5 2.42705 17.2366
      vertex 1.5 2.5497 15.9179
      vertex 1.5 2.46337 17.2901
    endloop
  endfacet
  facet normal 1 -2.08223e-07 1.61433e-07
    outer loop
      vertex 1.5 2.5497 15.9179
      vertex 1.5 2.42705 17.2366
      vertex 1.5 2.42526 17.2343
    endloop
  endfacet
  facet normal 0 -0.917753 -0.397152
    outer loop
      vertex -1.5 -3.61931 17.2969
      vertex 1.5 -3.71911 17.5275
      vertex -1.5 -3.71911 17.5275
    endloop
  endfacet
  facet normal 0 -0.917753 -0.397152
    outer loop
      vertex 1.5 -3.71911 17.5275
      vertex -1.5 -3.61931 17.2969
      vertex 1.5 -3.61931 17.2969
    endloop
  endfacet
  facet normal 1 -2.01671e-06 -8.72716e-07
    outer loop
      vertex 1.5 -2.5497 15.9179
      vertex 1.5 -3.71911 17.5275
      vertex 1.5 -3.61931 17.2969
    endloop
  endfacet
  facet normal 1 -1.61657e-06 -5.81999e-07
    outer loop
      vertex 1.5 -2.5497 15.9179
      vertex 1.5 -3.80423 17.7639
      vertex 1.5 -3.71911 17.5275
    endloop
  endfacet
  facet normal 0 -0.750115 -0.661308
    outer loop
      vertex -1.5 -2.91587 16.2618
      vertex 1.5 -3.08205 16.4503
      vertex -1.5 -3.08205 16.4503
    endloop
  endfacet
  facet normal 0 -0.750115 -0.661308
    outer loop
      vertex 1.5 -3.08205 16.4503
      vertex -1.5 -2.91587 16.2618
      vertex 1.5 -2.91587 16.2618
    endloop
  endfacet
  facet normal 0 -0.790151 -0.612912
    outer loop
      vertex -1.5 -3.08205 16.4503
      vertex 1.5 -3.23607 16.6489
      vertex -1.5 -3.23607 16.6489
    endloop
  endfacet
  facet normal 0 -0.790151 -0.612912
    outer loop
      vertex 1.5 -3.23607 16.6489
      vertex -1.5 -3.08205 16.4503
      vertex 1.5 -3.08205 16.4503
    endloop
  endfacet
  facet normal 0 0.827084 0.562078
    outer loop
      vertex 1.5 -2.50466 17.3508
      vertex -1.5 -2.53298 17.3925
      vertex 1.5 -2.53298 17.3925
    endloop
  endfacet
  facet normal 1.15812e-07 0.82708 0.562084
    outer loop
      vertex 1.5 -2.46337 17.2901
      vertex -1.5 -2.53298 17.3925
      vertex 1.5 -2.50466 17.3508
    endloop
  endfacet
  facet normal -0 0.827077 0.562089
    outer loop
      vertex -1.5 -2.42705 17.2366
      vertex 1.5 -2.46337 17.2901
      vertex 1.5 -2.42705 17.2366
    endloop
  endfacet
  facet normal 1.34055e-07 0.82708 0.562084
    outer loop
      vertex 1.5 -2.46337 17.2901
      vertex -1.5 -2.42705 17.2366
      vertex -1.5 -2.53298 17.3925
    endloop
  endfacet
  facet normal 0 -0.397148 0.917755
    outer loop
      vertex -1.5 1.27734 16.2855
      vertex 1.5 1.10437 16.2107
      vertex 1.5 1.27734 16.2855
    endloop
  endfacet
  facet normal 0 -0.397148 0.917755
    outer loop
      vertex 1.5 1.10437 16.2107
      vertex -1.5 1.27734 16.2855
      vertex -1.5 1.10437 16.2107
    endloop
  endfacet
  facet normal 0 -0.750085 0.661342
    outer loop
      vertex -1.5 2.31154 17.0877
      vertex 1.5 2.29294 17.0666
      vertex 1.5 2.31154 17.0877
    endloop
  endfacet
  facet normal -4.40264e-07 -0.750116 0.661306
    outer loop
      vertex -1.5 2.31154 17.0877
      vertex 1.5 2.26337 17.0331
      vertex 1.5 2.29294 17.0666
    endloop
  endfacet
  facet normal -5.57807e-07 -0.750119 0.661303
    outer loop
      vertex -1.5 2.31154 17.0877
      vertex 1.5 2.23505 17.001
      vertex 1.5 2.26337 17.0331
    endloop
  endfacet
  facet normal -3.09593e-08 -0.75011 0.661313
    outer loop
      vertex -1.5 2.18691 16.9464
      vertex 1.5 2.23505 17.001
      vertex -1.5 2.31154 17.0877
    endloop
  endfacet
  facet normal -5.25222e-07 -0.750097 0.661328
    outer loop
      vertex 1.5 2.23505 17.001
      vertex -1.5 2.18691 16.9464
      vertex 1.5 2.20783 16.9701
    endloop
  endfacet
  facet normal 0 -0.75013 0.661291
    outer loop
      vertex 1.5 2.20783 16.9701
      vertex -1.5 2.18691 16.9464
      vertex 1.5 2.18691 16.9464
    endloop
  endfacet
  facet normal -0 0.0314141 0.999506
    outer loop
      vertex 1 0 16
      vertex 1.5 -0.188371 16.0059
      vertex 1.5 0 16
    endloop
  endfacet
  facet normal -0 0.0314141 0.999506
    outer loop
      vertex -1 0 16
      vertex 1.5 -0.188371 16.0059
      vertex 1 0 16
    endloop
  endfacet
  facet normal 0 0.0314141 0.999506
    outer loop
      vertex -1.5 -0.188371 16.0059
      vertex -1 0 16
      vertex -1.5 0 16
    endloop
  endfacet
  facet normal 0 0.0314141 0.999506
    outer loop
      vertex -1 0 16
      vertex -1.5 -0.188371 16.0059
      vertex 1.5 -0.188371 16.0059
    endloop
  endfacet
  facet normal -0 0.612906 0.790156
    outer loop
      vertex -1.5 -1.76336 16.5729
      vertex 1.5 -1.91227 16.6885
      vertex 1.5 -1.76336 16.5729
    endloop
  endfacet
  facet normal 0 0.612906 0.790156
    outer loop
      vertex 1.5 -1.91227 16.6885
      vertex -1.5 -1.76336 16.5729
      vertex -1.5 -1.91227 16.6885
    endloop
  endfacet
  facet normal 0 -0.562082 0.827082
    outer loop
      vertex -1.5 1.76336 16.5729
      vertex 1.5 1.60748 16.467
      vertex 1.5 1.76336 16.5729
    endloop
  endfacet
  facet normal 0 -0.562082 0.827082
    outer loop
      vertex 1.5 1.60748 16.467
      vertex -1.5 1.76336 16.5729
      vertex -1.5 1.60748 16.467
    endloop
  endfacet
  facet normal 0 -0.0314141 0.999506
    outer loop
      vertex 1.5 0.188371 16.0059
      vertex 1 0 16
      vertex 1.5 0 16
    endloop
  endfacet
  facet normal 0 -0.0314141 0.999506
    outer loop
      vertex 1.5 0.188371 16.0059
      vertex -1 0 16
      vertex 1 0 16
    endloop
  endfacet
  facet normal 0 -0.0314141 0.999506
    outer loop
      vertex -1.5 0.188371 16.0059
      vertex -1 0 16
      vertex 1.5 0.188371 16.0059
    endloop
  endfacet
  facet normal 0 -0.0314141 0.999506
    outer loop
      vertex -1 0 16
      vertex -1.5 0.188371 16.0059
      vertex -1.5 0 16
    endloop
  endfacet
  facet normal -0 0.218137 0.975918
    outer loop
      vertex -1.5 -0.562143 16.0531
      vertex 1.5 -0.746069 16.0942
      vertex 1.5 -0.562143 16.0531
    endloop
  endfacet
  facet normal 0 0.218137 0.975918
    outer loop
      vertex 1.5 -0.746069 16.0942
      vertex -1.5 -0.562143 16.0531
      vertex -1.5 -0.746069 16.0942
    endloop
  endfacet
  facet normal 0 -0.612906 0.790156
    outer loop
      vertex -1.5 1.91227 16.6885
      vertex 1.5 1.76336 16.5729
      vertex 1.5 1.91227 16.6885
    endloop
  endfacet
  facet normal 0 -0.612906 0.790156
    outer loop
      vertex 1.5 1.76336 16.5729
      vertex -1.5 1.91227 16.6885
      vertex -1.5 1.76336 16.5729
    endloop
  endfacet
  facet normal 0 -0.218137 0.975918
    outer loop
      vertex -1.5 0.746069 16.0942
      vertex 1.5 0.562143 16.0531
      vertex 1.5 0.746069 16.0942
    endloop
  endfacet
  facet normal 0 -0.218137 0.975918
    outer loop
      vertex 1.5 0.562143 16.0531
      vertex -1.5 0.746069 16.0942
      vertex -1.5 0.562143 16.0531
    endloop
  endfacet
  facet normal 0 -0.860736 0.509051
    outer loop
      vertex -1.5 2.62892 17.5547
      vertex 1.5 2.59957 17.5051
      vertex 1.5 2.62892 17.5547
    endloop
  endfacet
  facet normal -8.11016e-08 -0.860738 0.509048
    outer loop
      vertex -1.5 2.62892 17.5547
      vertex 1.5 2.5497 17.4208
      vertex 1.5 2.59957 17.5051
    endloop
  endfacet
  facet normal -1.49524e-07 -0.860739 0.509046
    outer loop
      vertex -1.5 2.53298 17.3925
      vertex 1.5 2.5497 17.4208
      vertex -1.5 2.62892 17.5547
    endloop
  endfacet
  facet normal 0 -0.860746 0.509035
    outer loop
      vertex 1.5 2.5497 17.4208
      vertex -1.5 2.53298 17.3925
      vertex 1.5 2.53298 17.3925
    endloop
  endfacet
  facet normal 0 -0.960293 0.278992
    outer loop
      vertex -1.5 2.85317 18.0729
      vertex 1.5 2.90575 18.2539
      vertex -1.5 2.90575 18.2539
    endloop
  endfacet
  facet normal 0 -0.960293 0.278992
    outer loop
      vertex 1.5 2.90575 18.2539
      vertex -1.5 2.85317 18.0729
      vertex 1.5 2.85317 18.0729
    endloop
  endfacet
  facet normal -0 0.156442 0.987687
    outer loop
      vertex -1.5 -0.375999 16.0237
      vertex 1.5 -0.562143 16.0531
      vertex 1.5 -0.375999 16.0237
    endloop
  endfacet
  facet normal 0 0.156442 0.987687
    outer loop
      vertex 1.5 -0.562143 16.0531
      vertex -1.5 -0.375999 16.0237
      vertex -1.5 -0.562143 16.0531
    endloop
  endfacet
  facet normal -0 0.397148 0.917755
    outer loop
      vertex -1.5 -1.10437 16.2107
      vertex 1.5 -1.27734 16.2855
      vertex 1.5 -1.10437 16.2107
    endloop
  endfacet
  facet normal 0 0.397148 0.917755
    outer loop
      vertex 1.5 -1.27734 16.2855
      vertex -1.5 -1.10437 16.2107
      vertex -1.5 -1.27734 16.2855
    endloop
  endfacet
  facet normal -0 0.27899 0.960294
    outer loop
      vertex -1.5 -0.746069 16.0942
      vertex 1.5 -0.927051 16.1468
      vertex 1.5 -0.746069 16.0942
    endloop
  endfacet
  facet normal 0 0.27899 0.960294
    outer loop
      vertex 1.5 -0.927051 16.1468
      vertex -1.5 -0.746069 16.0942
      vertex -1.5 -0.927051 16.1468
    endloop
  endfacet
  facet normal 0 0.790304 0.612714
    outer loop
      vertex 1.5 -2.42526 17.2343
      vertex -1.5 -2.42705 17.2366
      vertex 1.5 -2.42705 17.2366
    endloop
  endfacet
  facet normal 2.34825e-07 0.790157 0.612905
    outer loop
      vertex 1.5 -2.38926 17.1879
      vertex -1.5 -2.42705 17.2366
      vertex 1.5 -2.42526 17.2343
    endloop
  endfacet
  facet normal 2.07329e-07 0.790158 0.612904
    outer loop
      vertex 1.5 -2.35545 17.1443
      vertex -1.5 -2.42705 17.2366
      vertex 1.5 -2.38926 17.1879
    endloop
  endfacet
  facet normal -1.02065e-07 0.790155 0.612907
    outer loop
      vertex -1.5 -2.31154 17.0877
      vertex 1.5 -2.35545 17.1443
      vertex 1.5 -2.32359 17.1033
    endloop
  endfacet
  facet normal -0 0.790165 0.612894
    outer loop
      vertex -1.5 -2.31154 17.0877
      vertex 1.5 -2.32359 17.1033
      vertex 1.5 -2.31154 17.0877
    endloop
  endfacet
  facet normal 7.1962e-08 0.79016 0.612901
    outer loop
      vertex 1.5 -2.35545 17.1443
      vertex -1.5 -2.31154 17.0877
      vertex -1.5 -2.42705 17.2366
    endloop
  endfacet
  facet normal -0 0.0940998 0.995563
    outer loop
      vertex -1.5 -0.188371 16.0059
      vertex 1.5 -0.375999 16.0237
      vertex 1.5 -0.188371 16.0059
    endloop
  endfacet
  facet normal 0 0.0940998 0.995563
    outer loop
      vertex 1.5 -0.375999 16.0237
      vertex -1.5 -0.188371 16.0059
      vertex -1.5 -0.375999 16.0237
    endloop
  endfacet
  facet normal 0 -0.453983 0.89101
    outer loop
      vertex -1.5 1.44526 16.3711
      vertex 1.5 1.27734 16.2855
      vertex 1.5 1.44526 16.3711
    endloop
  endfacet
  facet normal 0 -0.453983 0.89101
    outer loop
      vertex 1.5 1.27734 16.2855
      vertex -1.5 1.44526 16.3711
      vertex -1.5 1.27734 16.2855
    endloop
  endfacet
  facet normal 0 -0.661313 0.75011
    outer loop
      vertex -1.5 2.05364 16.8131
      vertex 1.5 1.91227 16.6885
      vertex 1.5 2.05364 16.8131
    endloop
  endfacet
  facet normal 0 -0.661313 0.75011
    outer loop
      vertex 1.5 1.91227 16.6885
      vertex -1.5 2.05364 16.8131
      vertex -1.5 1.91227 16.6885
    endloop
  endfacet
  facet normal 0 -0.27899 0.960294
    outer loop
      vertex -1.5 0.927051 16.1468
      vertex 1.5 0.746069 16.0942
      vertex 1.5 0.927051 16.1468
    endloop
  endfacet
  facet normal 0 -0.27899 0.960294
    outer loop
      vertex 1.5 0.746069 16.0942
      vertex -1.5 0.927051 16.1468
      vertex -1.5 0.746069 16.0942
    endloop
  endfacet
  facet normal 0 -0.156442 0.987687
    outer loop
      vertex -1.5 0.562143 16.0531
      vertex 1.5 0.375999 16.0237
      vertex 1.5 0.562143 16.0531
    endloop
  endfacet
  facet normal 0 -0.156442 0.987687
    outer loop
      vertex 1.5 0.375999 16.0237
      vertex -1.5 0.562143 16.0531
      vertex -1.5 0.375999 16.0237
    endloop
  endfacet
  facet normal 0 -0.790304 0.612714
    outer loop
      vertex -1.5 2.42705 17.2366
      vertex 1.5 2.42526 17.2343
      vertex 1.5 2.42705 17.2366
    endloop
  endfacet
  facet normal 2.34825e-07 -0.790157 0.612905
    outer loop
      vertex -1.5 2.42705 17.2366
      vertex 1.5 2.38926 17.1879
      vertex 1.5 2.42526 17.2343
    endloop
  endfacet
  facet normal 2.07329e-07 -0.790158 0.612904
    outer loop
      vertex -1.5 2.42705 17.2366
      vertex 1.5 2.35545 17.1443
      vertex 1.5 2.38926 17.1879
    endloop
  endfacet
  facet normal 7.1962e-08 -0.79016 0.612901
    outer loop
      vertex -1.5 2.31154 17.0877
      vertex 1.5 2.35545 17.1443
      vertex -1.5 2.42705 17.2366
    endloop
  endfacet
  facet normal -1.02065e-07 -0.790155 0.612907
    outer loop
      vertex 1.5 2.35545 17.1443
      vertex -1.5 2.31154 17.0877
      vertex 1.5 2.32359 17.1033
    endloop
  endfacet
  facet normal 0 -0.790165 0.612894
    outer loop
      vertex 1.5 2.32359 17.1033
      vertex -1.5 2.31154 17.0877
      vertex 1.5 2.31154 17.0877
    endloop
  endfacet
  facet normal 0 -0.891008 0.453988
    outer loop
      vertex -1.5 2.71448 17.7227
      vertex 1.5 2.65602 17.6079
      vertex 1.5 2.71448 17.7227
    endloop
  endfacet
  facet normal -1.0033e-07 -0.891009 0.453985
    outer loop
      vertex -1.5 2.62892 17.5547
      vertex 1.5 2.65602 17.6079
      vertex -1.5 2.71448 17.7227
    endloop
  endfacet
  facet normal 0 -0.891011 0.453981
    outer loop
      vertex 1.5 2.65602 17.6079
      vertex -1.5 2.62892 17.5547
      vertex 1.5 2.62892 17.5547
    endloop
  endfacet
  facet normal 0 -0.940879 0.338743
    outer loop
      vertex -1.5 2.85317 18.0729
      vertex 1.5 2.80505 17.9393
      vertex 1.5 2.85317 18.0729
    endloop
  endfacet
  facet normal -3.32724e-08 -0.940879 0.338742
    outer loop
      vertex -1.5 2.78933 17.8956
      vertex 1.5 2.80505 17.9393
      vertex -1.5 2.85317 18.0729
    endloop
  endfacet
  facet normal 0 -0.94088 0.33874
    outer loop
      vertex 1.5 2.80505 17.9393
      vertex -1.5 2.78933 17.8956
      vertex 1.5 2.78933 17.8956
    endloop
  endfacet
  facet normal -0 0.338742 0.940879
    outer loop
      vertex -1.5 -0.927051 16.1468
      vertex 1.5 -1.10437 16.2107
      vertex 1.5 -0.927051 16.1468
    endloop
  endfacet
  facet normal 0 0.338742 0.940879
    outer loop
      vertex 1.5 -1.10437 16.2107
      vertex -1.5 -0.927051 16.1468
      vertex -1.5 -1.10437 16.2107
    endloop
  endfacet
  facet normal -0 0.453983 0.89101
    outer loop
      vertex -1.5 -1.27734 16.2855
      vertex 1.5 -1.44526 16.3711
      vertex 1.5 -1.27734 16.2855
    endloop
  endfacet
  facet normal 0 0.453983 0.89101
    outer loop
      vertex 1.5 -1.44526 16.3711
      vertex -1.5 -1.27734 16.2855
      vertex -1.5 -1.44526 16.3711
    endloop
  endfacet
  facet normal 0 0.987689 0.156431
    outer loop
      vertex 1.5 -2.94686 18.4379
      vertex -1.5 -2.9567 18.5
      vertex 1.5 -2.9567 18.5
    endloop
  endfacet
  facet normal 0 0.987689 0.156431
    outer loop
      vertex -1.5 -2.9567 18.5
      vertex 1.5 -2.94686 18.4379
      vertex -1.5 -2.94686 18.4379
    endloop
  endfacet
  facet normal 0 -0.509048 0.860738
    outer loop
      vertex -1.5 1.60748 16.467
      vertex 1.5 1.44526 16.3711
      vertex 1.5 1.60748 16.467
    endloop
  endfacet
  facet normal 0 -0.509048 0.860738
    outer loop
      vertex 1.5 1.44526 16.3711
      vertex -1.5 1.60748 16.467
      vertex -1.5 1.44526 16.3711
    endloop
  endfacet
  facet normal 0 -0.338742 0.940879
    outer loop
      vertex -1.5 1.10437 16.2107
      vertex 1.5 0.927051 16.1468
      vertex 1.5 1.10437 16.2107
    endloop
  endfacet
  facet normal 0 -0.338742 0.940879
    outer loop
      vertex 1.5 0.927051 16.1468
      vertex -1.5 1.10437 16.2107
      vertex -1.5 0.927051 16.1468
    endloop
  endfacet
  facet normal 0 -0.0940998 0.995563
    outer loop
      vertex -1.5 0.375999 16.0237
      vertex 1.5 0.188371 16.0059
      vertex 1.5 0.375999 16.0237
    endloop
  endfacet
  facet normal 0 -0.0940998 0.995563
    outer loop
      vertex 1.5 0.188371 16.0059
      vertex -1.5 0.375999 16.0237
      vertex -1.5 0.188371 16.0059
    endloop
  endfacet
  facet normal 0 -0.827084 0.562078
    outer loop
      vertex -1.5 2.53298 17.3925
      vertex 1.5 2.50466 17.3508
      vertex 1.5 2.53298 17.3925
    endloop
  endfacet
  facet normal 1.15812e-07 -0.82708 0.562084
    outer loop
      vertex -1.5 2.53298 17.3925
      vertex 1.5 2.46337 17.2901
      vertex 1.5 2.50466 17.3508
    endloop
  endfacet
  facet normal 1.34055e-07 -0.82708 0.562084
    outer loop
      vertex -1.5 2.42705 17.2366
      vertex 1.5 2.46337 17.2901
      vertex -1.5 2.53298 17.3925
    endloop
  endfacet
  facet normal 0 -0.827077 0.562089
    outer loop
      vertex 1.5 2.46337 17.2901
      vertex -1.5 2.42705 17.2366
      vertex 1.5 2.42705 17.2366
    endloop
  endfacet
  facet normal 0 -0.917756 0.397146
    outer loop
      vertex -1.5 2.78933 17.8956
      vertex 1.5 2.72192 17.7398
      vertex 1.5 2.78933 17.8956
    endloop
  endfacet
  facet normal 1.1778e-07 -0.917755 0.397148
    outer loop
      vertex -1.5 2.71448 17.7227
      vertex 1.5 2.72192 17.7398
      vertex -1.5 2.78933 17.8956
    endloop
  endfacet
  facet normal 0 -0.917747 0.397165
    outer loop
      vertex 1.5 2.72192 17.7398
      vertex -1.5 2.71448 17.7227
      vertex 1.5 2.71448 17.7227
    endloop
  endfacet
  facet normal 0 0.975917 0.218142
    outer loop
      vertex 1.5 -2.90575 18.2539
      vertex -1.5 -2.94686 18.4379
      vertex 1.5 -2.94686 18.4379
    endloop
  endfacet
  facet normal 0 0.975917 0.218142
    outer loop
      vertex -1.5 -2.94686 18.4379
      vertex 1.5 -2.90575 18.2539
      vertex -1.5 -2.90575 18.2539
    endloop
  endfacet
  facet normal 0 0.891008 0.453988
    outer loop
      vertex 1.5 -2.65602 17.6079
      vertex -1.5 -2.71448 17.7227
      vertex 1.5 -2.71448 17.7227
    endloop
  endfacet
  facet normal -0 0.891011 0.453981
    outer loop
      vertex -1.5 -2.62892 17.5547
      vertex 1.5 -2.65602 17.6079
      vertex 1.5 -2.62892 17.5547
    endloop
  endfacet
  facet normal -1.0033e-07 0.891009 0.453985
    outer loop
      vertex 1.5 -2.65602 17.6079
      vertex -1.5 -2.62892 17.5547
      vertex -1.5 -2.71448 17.7227
    endloop
  endfacet
  facet normal -0 0.707107 0.707107
    outer loop
      vertex -1.5 -2.05364 16.8131
      vertex 1.5 -2.18142 16.9409
      vertex 1.5 -2.05364 16.8131
    endloop
  endfacet
  facet normal -2.1553e-07 0.707104 0.707109
    outer loop
      vertex -1.5 -2.18691 16.9464
      vertex 1.5 -2.18142 16.9409
      vertex -1.5 -2.05364 16.8131
    endloop
  endfacet
  facet normal 0 0.707045 0.707168
    outer loop
      vertex 1.5 -2.18142 16.9409
      vertex -1.5 -2.18691 16.9464
      vertex 1.5 -2.18691 16.9464
    endloop
  endfacet
  facet normal -0 0.509048 0.860738
    outer loop
      vertex -1.5 -1.44526 16.3711
      vertex 1.5 -1.60748 16.467
      vertex 1.5 -1.44526 16.3711
    endloop
  endfacet
  facet normal 0 0.509048 0.860738
    outer loop
      vertex 1.5 -1.60748 16.467
      vertex -1.5 -1.44526 16.3711
      vertex -1.5 -1.60748 16.467
    endloop
  endfacet
  facet normal 0 -0.707045 0.707168
    outer loop
      vertex -1.5 2.18691 16.9464
      vertex 1.5 2.18142 16.9409
      vertex 1.5 2.18691 16.9464
    endloop
  endfacet
  facet normal -2.24783e-07 -0.707107 0.707107
    outer loop
      vertex 1.5 2.18142 16.9409
      vertex -1.5 2.18691 16.9464
      vertex 1.5 2.05364 16.8131
    endloop
  endfacet
  facet normal 0 -0.707104 0.707109
    outer loop
      vertex 1.5 2.05364 16.8131
      vertex -1.5 2.18691 16.9464
      vertex -1.5 2.05364 16.8131
    endloop
  endfacet
  facet normal 0 -0.975917 0.218142
    outer loop
      vertex -1.5 2.90575 18.2539
      vertex 1.5 2.94686 18.4379
      vertex -1.5 2.94686 18.4379
    endloop
  endfacet
  facet normal 0 -0.975917 0.218142
    outer loop
      vertex 1.5 2.94686 18.4379
      vertex -1.5 2.90575 18.2539
      vertex 1.5 2.90575 18.2539
    endloop
  endfacet
  facet normal 0 -0.987689 0.156431
    outer loop
      vertex -1.5 2.94686 18.4379
      vertex 1.5 2.9567 18.5
      vertex -1.5 2.9567 18.5
    endloop
  endfacet
  facet normal 0 -0.987689 0.156431
    outer loop
      vertex 1.5 2.9567 18.5
      vertex -1.5 2.94686 18.4379
      vertex 1.5 2.94686 18.4379
    endloop
  endfacet
  facet normal 0 0.917756 0.397146
    outer loop
      vertex 1.5 -2.72192 17.7398
      vertex -1.5 -2.78933 17.8956
      vertex 1.5 -2.78933 17.8956
    endloop
  endfacet
  facet normal -0 0.917747 0.397165
    outer loop
      vertex -1.5 -2.71448 17.7227
      vertex 1.5 -2.72192 17.7398
      vertex 1.5 -2.71448 17.7227
    endloop
  endfacet
  facet normal 1.1778e-07 0.917755 0.397148
    outer loop
      vertex 1.5 -2.72192 17.7398
      vertex -1.5 -2.71448 17.7227
      vertex -1.5 -2.78933 17.8956
    endloop
  endfacet
  facet normal 0 0.960293 0.278992
    outer loop
      vertex 1.5 -2.85317 18.0729
      vertex -1.5 -2.90575 18.2539
      vertex 1.5 -2.90575 18.2539
    endloop
  endfacet
  facet normal 0 0.960293 0.278992
    outer loop
      vertex -1.5 -2.90575 18.2539
      vertex 1.5 -2.85317 18.0729
      vertex -1.5 -2.85317 18.0729
    endloop
  endfacet
  facet normal 0 0.860736 0.509051
    outer loop
      vertex 1.5 -2.59957 17.5051
      vertex -1.5 -2.62892 17.5547
      vertex 1.5 -2.62892 17.5547
    endloop
  endfacet
  facet normal -8.11016e-08 0.860738 0.509048
    outer loop
      vertex 1.5 -2.5497 17.4208
      vertex -1.5 -2.62892 17.5547
      vertex 1.5 -2.59957 17.5051
    endloop
  endfacet
  facet normal -0 0.860746 0.509035
    outer loop
      vertex -1.5 -2.53298 17.3925
      vertex 1.5 -2.5497 17.4208
      vertex 1.5 -2.53298 17.3925
    endloop
  endfacet
  facet normal -1.49524e-07 0.860739 0.509046
    outer loop
      vertex 1.5 -2.5497 17.4208
      vertex -1.5 -2.53298 17.3925
      vertex -1.5 -2.62892 17.5547
    endloop
  endfacet
  facet normal -0 0.661313 0.75011
    outer loop
      vertex -1.5 -1.91227 16.6885
      vertex 1.5 -2.05364 16.8131
      vertex 1.5 -1.91227 16.6885
    endloop
  endfacet
  facet normal 0 0.661313 0.75011
    outer loop
      vertex 1.5 -2.05364 16.8131
      vertex -1.5 -1.91227 16.6885
      vertex -1.5 -2.05364 16.8131
    endloop
  endfacet
  facet normal 0 0.750085 0.661342
    outer loop
      vertex 1.5 -2.29294 17.0666
      vertex -1.5 -2.31154 17.0877
      vertex 1.5 -2.31154 17.0877
    endloop
  endfacet
  facet normal -4.40264e-07 0.750116 0.661306
    outer loop
      vertex 1.5 -2.26337 17.0331
      vertex -1.5 -2.31154 17.0877
      vertex 1.5 -2.29294 17.0666
    endloop
  endfacet
  facet normal -5.57807e-07 0.750119 0.661303
    outer loop
      vertex 1.5 -2.23505 17.001
      vertex -1.5 -2.31154 17.0877
      vertex 1.5 -2.26337 17.0331
    endloop
  endfacet
  facet normal -5.25222e-07 0.750097 0.661328
    outer loop
      vertex -1.5 -2.18691 16.9464
      vertex 1.5 -2.23505 17.001
      vertex 1.5 -2.20783 16.9701
    endloop
  endfacet
  facet normal -0 0.75013 0.661291
    outer loop
      vertex -1.5 -2.18691 16.9464
      vertex 1.5 -2.20783 16.9701
      vertex 1.5 -2.18691 16.9464
    endloop
  endfacet
  facet normal -3.09593e-08 0.75011 0.661313
    outer loop
      vertex 1.5 -2.23505 17.001
      vertex -1.5 -2.18691 16.9464
      vertex -1.5 -2.31154 17.0877
    endloop
  endfacet
  facet normal -0 0.562082 0.827082
    outer loop
      vertex -1.5 -1.60748 16.467
      vertex 1.5 -1.76336 16.5729
      vertex 1.5 -1.60748 16.467
    endloop
  endfacet
  facet normal 0 0.562082 0.827082
    outer loop
      vertex 1.5 -1.76336 16.5729
      vertex -1.5 -1.60748 16.467
      vertex -1.5 -1.76336 16.5729
    endloop
  endfacet
  facet normal 0 0.940879 0.338743
    outer loop
      vertex 1.5 -2.80505 17.9393
      vertex -1.5 -2.85317 18.0729
      vertex 1.5 -2.85317 18.0729
    endloop
  endfacet
  facet normal -0 0.94088 0.33874
    outer loop
      vertex -1.5 -2.78933 17.8956
      vertex 1.5 -2.80505 17.9393
      vertex 1.5 -2.78933 17.8956
    endloop
  endfacet
  facet normal -3.32724e-08 0.940879 0.338742
    outer loop
      vertex 1.5 -2.80505 17.9393
      vertex -1.5 -2.78933 17.8956
      vertex -1.5 -2.85317 18.0729
    endloop
  endfacet
  facet normal -0 0 1
    outer loop
      vertex -1.5 3.96858 18.5
      vertex 1.5 3.86532 18.5
      vertex 1.5 3.96858 18.5
    endloop
  endfacet
  facet normal 0 0 1
    outer loop
      vertex -1.5 3.96858 18.5
      vertex 1.5 3.66705 18.5
      vertex 1.5 3.76472 18.5
    endloop
  endfacet
  facet normal 0 0 1
    outer loop
      vertex -1.5 2.9567 18.5
      vertex 1.5 3.38866 18.5
      vertex 1.5 3.47929 18.5
    endloop
  endfacet
  facet normal 0 0 1
    outer loop
      vertex 1.5 3.38866 18.5
      vertex -1.5 2.9567 18.5
      vertex 1.5 3.29985 18.5
    endloop
  endfacet
  facet normal 0 0 1
    outer loop
      vertex -1.5 3.96858 18.5
      vertex 1.5 3.47929 18.5
      vertex 1.5 3.572 18.5
    endloop
  endfacet
  facet normal 0 0 1
    outer loop
      vertex -1.5 2.9567 18.5
      vertex 1.5 3.04225 18.5
      vertex 1.5 3.12685 18.5
    endloop
  endfacet
  facet normal 0 0 1
    outer loop
      vertex 1.5 3.04225 18.5
      vertex -1.5 2.9567 18.5
      vertex 1.5 2.95865 18.5
    endloop
  endfacet
  facet normal 0 0 1
    outer loop
      vertex -1.5 2.9567 18.5
      vertex 1.5 3.12685 18.5
      vertex 1.5 3.21265 18.5
    endloop
  endfacet
  facet normal 0 0 1
    outer loop
      vertex 1.5 3.66705 18.5
      vertex -1.5 3.96858 18.5
      vertex 1.5 3.572 18.5
    endloop
  endfacet
  facet normal 0 0 1
    outer loop
      vertex 1.5 3.86532 18.5
      vertex -1.5 3.96858 18.5
      vertex 1.5 3.76472 18.5
    endloop
  endfacet
  facet normal 0 0 1
    outer loop
      vertex 1.5 3.47929 18.5
      vertex -1.5 3.96858 18.5
      vertex -1.5 2.9567 18.5
    endloop
  endfacet
  facet normal 0 0 1
    outer loop
      vertex 1.5 3.29985 18.5
      vertex -1.5 2.9567 18.5
      vertex 1.5 3.21265 18.5
    endloop
  endfacet
  facet normal 0 0 1
    outer loop
      vertex 1.5 2.95865 18.5
      vertex -1.5 2.9567 18.5
      vertex 1.5 2.9567 18.5
    endloop
  endfacet
  facet normal -0 0 1
    outer loop
      vertex -1.5 -2.9567 18.5
      vertex 1.5 -2.95865 18.5
      vertex 1.5 -2.9567 18.5
    endloop
  endfacet
  facet normal 0 0 1
    outer loop
      vertex 1.5 -2.95865 18.5
      vertex -1.5 -2.9567 18.5
      vertex 1.5 -3.04225 18.5
    endloop
  endfacet
  facet normal 0 0 1
    outer loop
      vertex 1.5 -3.04225 18.5
      vertex -1.5 -2.9567 18.5
      vertex 1.5 -3.12685 18.5
    endloop
  endfacet
  facet normal 0 0 1
    outer loop
      vertex -1.5 -2.9567 18.5
      vertex 1.5 -3.29985 18.5
      vertex 1.5 -3.21265 18.5
    endloop
  endfacet
  facet normal 0 0 1
    outer loop
      vertex 1.5 -3.29985 18.5
      vertex -1.5 -2.9567 18.5
      vertex 1.5 -3.38866 18.5
    endloop
  endfacet
  facet normal 0 0 1
    outer loop
      vertex 1.5 -3.38866 18.5
      vertex -1.5 -2.9567 18.5
      vertex 1.5 -3.47929 18.5
    endloop
  endfacet
  facet normal 0 0 1
    outer loop
      vertex -1.5 -3.96858 18.5
      vertex 1.5 -3.66705 18.5
      vertex 1.5 -3.572 18.5
    endloop
  endfacet
  facet normal 0 0 1
    outer loop
      vertex -1.5 -3.96858 18.5
      vertex 1.5 -3.47929 18.5
      vertex -1.5 -2.9567 18.5
    endloop
  endfacet
  facet normal 0 0 1
    outer loop
      vertex -1.5 -3.96858 18.5
      vertex 1.5 -3.86532 18.5
      vertex 1.5 -3.76472 18.5
    endloop
  endfacet
  facet normal 0 0 1
    outer loop
      vertex 1.5 -3.66705 18.5
      vertex -1.5 -3.96858 18.5
      vertex 1.5 -3.76472 18.5
    endloop
  endfacet
  facet normal 0 0 1
    outer loop
      vertex 1.5 -3.12685 18.5
      vertex -1.5 -2.9567 18.5
      vertex 1.5 -3.21265 18.5
    endloop
  endfacet
  facet normal 0 0 1
    outer loop
      vertex 1.5 -3.47929 18.5
      vertex -1.5 -3.96858 18.5
      vertex 1.5 -3.572 18.5
    endloop
  endfacet
  facet normal 0 0 1
    outer loop
      vertex 1.5 -3.86532 18.5
      vertex -1.5 -3.96858 18.5
      vertex 1.5 -3.96858 18.5
    endloop
  endfacet
  facet normal -1 0 0
    outer loop
      vertex -1 1 1
      vertex -1 0.994759 15.1257
      vertex -1 1 15.1272
    endloop
  endfacet
  facet normal -1 0 0
    outer loop
      vertex -1 1 1
      vertex -1 0.749525 15.0709
      vertex -1 0.994759 15.1257
    endloop
  endfacet
  facet normal -1 0 0
    outer loop
      vertex -1 1 1
      vertex -1 0.501332 15.0315
      vertex -1 0.749525 15.0709
    endloop
  endfacet
  facet normal -1 0 0
    outer loop
      vertex -1 1 1
      vertex -1 0.251162 15.0079
      vertex -1 0.501332 15.0315
    endloop
  endfacet
  facet normal -1 0 0
    outer loop
      vertex -1 1 1
      vertex -1 0 15
      vertex -1 0.251162 15.0079
    endloop
  endfacet
  facet normal -1 0 0
    outer loop
      vertex -1 -1 1
      vertex -1 0 15
      vertex -1 1 1
    endloop
  endfacet
  facet normal -1 -0 0
    outer loop
      vertex -1 0 15
      vertex -1 -1 1
      vertex -1 -0.251162 15.0079
    endloop
  endfacet
  facet normal -1 -0 0
    outer loop
      vertex -1 -0.251162 15.0079
      vertex -1 -1 1
      vertex -1 -0.501332 15.0315
    endloop
  endfacet
  facet normal -1 -0 0
    outer loop
      vertex -1 -0.501332 15.0315
      vertex -1 -1 1
      vertex -1 -0.749525 15.0709
    endloop
  endfacet
  facet normal -1 -0 0
    outer loop
      vertex -1 -0.749525 15.0709
      vertex -1 -1 1
      vertex -1 -0.994759 15.1257
    endloop
  endfacet
  facet normal -1 -0 0
    outer loop
      vertex -1 -0.994759 15.1257
      vertex -1 -1 1
      vertex -1 -1 15.1272
    endloop
  endfacet
  facet normal 1 -0 0
    outer loop
      vertex 1 0.994759 15.1257
      vertex 1 1 1
      vertex 1 1 15.1272
    endloop
  endfacet
  facet normal 1 -0 0
    outer loop
      vertex 1 0.749525 15.0709
      vertex 1 1 1
      vertex 1 0.994759 15.1257
    endloop
  endfacet
  facet normal 1 -0 0
    outer loop
      vertex 1 0.501332 15.0315
      vertex 1 1 1
      vertex 1 0.749525 15.0709
    endloop
  endfacet
  facet normal 1 -0 0
    outer loop
      vertex 1 0.251162 15.0079
      vertex 1 1 1
      vertex 1 0.501332 15.0315
    endloop
  endfacet
  facet normal 1 -0 0
    outer loop
      vertex 1 0 15
      vertex 1 1 1
      vertex 1 0.251162 15.0079
    endloop
  endfacet
  facet normal 1 0 0
    outer loop
      vertex 1 -1 1
      vertex 1 0 15
      vertex 1 -0.251162 15.0079
    endloop
  endfacet
  facet normal 1 0 0
    outer loop
      vertex 1 -1 1
      vertex 1 -0.251162 15.0079
      vertex 1 -0.501332 15.0315
    endloop
  endfacet
  facet normal 1 0 0
    outer loop
      vertex 1 -1 1
      vertex 1 -0.501332 15.0315
      vertex 1 -0.749525 15.0709
    endloop
  endfacet
  facet normal 1 0 0
    outer loop
      vertex 1 -1 1
      vertex 1 -0.749525 15.0709
      vertex 1 -0.994759 15.1257
    endloop
  endfacet
  facet normal 1 0 0
    outer loop
      vertex 1 -1 1
      vertex 1 -0.994759 15.1257
      vertex 1 -1 15.1272
    endloop
  endfacet
  facet normal 1 0 0
    outer loop
      vertex 1 0 15
      vertex 1 -1 1
      vertex 1 1 1
    endloop
  endfacet
  facet normal 0 1 -0
    outer loop
      vertex 1 1 1
      vertex -1 1 15.1272
      vertex 1 1 15.1272
    endloop
  endfacet
  facet normal 0 1 0
    outer loop
      vertex -1 1 15.1272
      vertex 1 1 1
      vertex -1 1 1
    endloop
  endfacet
  facet normal 0 0 1
    outer loop
      vertex 5 5 1
      vertex 1 1 1
      vertex 5 -5 1
    endloop
  endfacet
  facet normal 0 0 1
    outer loop
      vertex 5 5 1
      vertex -1 1 1
      vertex 1 1 1
    endloop
  endfacet
  facet normal 0 0 1
    outer loop
      vertex -1 1 1
      vertex -5 5 1
      vertex -1 -1 1
    endloop
  endfacet
  facet normal -0 0 1
    outer loop
      vertex -5 5 1
      vertex -1 1 1
      vertex 5 5 1
    endloop
  endfacet
  facet normal -0 0 1
    outer loop
      vertex 1 -1 1
      vertex 5 -5 1
      vertex 1 1 1
    endloop
  endfacet
  facet normal -0 0 1
    outer loop
      vertex -1 -1 1
      vertex 5 -5 1
      vertex 1 -1 1
    endloop
  endfacet
  facet normal 0 0 1
    outer loop
      vertex -1 -1 1
      vertex -5 -5 1
      vertex 5 -5 1
    endloop
  endfacet
  facet normal 0 0 1
    outer loop
      vertex -5 -5 1
      vertex -1 -1 1
      vertex -5 5 1
    endloop
  endfacet
  facet normal 0 -1 0
    outer loop
      vertex -1 -1 1
      vertex 1 -1 15.1272
      vertex -1 -1 15.1272
    endloop
  endfacet
  facet normal 0 -1 -0
    outer loop
      vertex 1 -1 15.1272
      vertex -1 -1 1
      vertex 1 -1 1
    endloop
  endfacet
  facet normal -1 0 0
    outer loop
      vertex -5 -5 0
      vertex -5 5 1
      vertex -5 5 0
    endloop
  endfacet
  facet normal -1 -0 0
    outer loop
      vertex -5 5 1
      vertex -5 -5 0
      vertex -5 -5 1
    endloop
  endfacet
  facet normal 1 -0 0
    outer loop
      vertex 5 -5 1
      vertex 5 5 0
      vertex 5 5 1
    endloop
  endfacet
  facet normal 1 0 0
    outer loop
      vertex 5 5 0
      vertex 5 -5 1
      vertex 5 -5 0
    endloop
  endfacet
  facet normal 0 1 -0
    outer loop
      vertex 5 5 0
      vertex -5 5 1
      vertex 5 5 1
    endloop
  endfacet
  facet normal 0 1 0
    outer loop
      vertex -5 5 1
      vertex 5 5 0
      vertex -5 5 0
    endloop
  endfacet
  facet normal 0 0 -1
    outer loop
      vertex -5 -5 0
      vertex 5 5 0
      vertex 5 -5 0
    endloop
  endfacet
  facet normal -0 0 -1
    outer loop
      vertex 5 5 0
      vertex -5 -5 0
      vertex -5 5 0
    endloop
  endfacet
  facet normal 0 -1 0
    outer loop
      vertex -5 -5 0
      vertex 5 -5 1
      vertex -5 -5 1
    endloop
  endfacet
  facet normal 0 -1 -0
    outer loop
      vertex 5 -5 1
      vertex -5 -5 0
      vertex 5 -5 0
    endloop
  endfacet
endsolid OpenSCAD_Model
